<svg width="550" height="550" viewBox="0 0 412.5 412.5" xmlns="http://www.w3.org/2000/svg"><g fill="#8f3f71"><path d="M381.278 57.001L369.97 44.646 357.99 55.61l11.307 12.355zM369.433 115.68c5.077 5.584 14.21 6.09 19.793 1.017 5.582-5.077 6.089-14.21 1.016-19.793l-20.809-22.836-16.747-18.27-20.809-22.837c-2.538-2.538-6.089-4.567-9.643-4.567-3.555 0-7.105 1.016-10.15 3.555-5.582 5.076-6.088 14.21-1.015 19.792l20.808 22.837 16.242 17.757zM342.78 92.408l-11.307-12.355-4.117 3.77 11.307 12.356zM351.163 167.446c6.599 7.105 17.765 7.611 24.869 1.016 7.104-6.599 7.61-17.764 1.016-24.868l-38.57-42.123-16.747-18.27-38.57-42.123c-3.044-3.554-7.61-5.582-12.18-5.582-4.567 0-9.133 1.522-12.688 4.566-7.105 6.599-7.61 17.765-1.016 24.869l38.57 42.122 16.747 18.27zM307.02 124.78l-11.308-12.355-4.117 3.77 11.308 12.355zM326.296 228.854c8.627 9.643 23.347 10.149 32.48 1.522 9.643-8.627 10.149-23.347 1.522-32.48l-57.855-63.438-16.748-18.27L227.84 52.75c-4.06-4.566-9.643-7.104-16.242-7.61-6.089-.507-12.18 2.028-16.747 6.088-9.644 8.627-10.15 23.347-1.522 32.48l58.364 63.438 16.748 18.27zM263.12 165.434l-11.306-12.355-102.58 93.888 11.308 12.355zM184.195 359.281c8.627 9.644 23.347 10.15 32.48 1.523 9.644-8.627 10.15-23.347 1.523-32.48l-57.855-63.438-16.748-18.27-57.855-63.438c-8.627-9.643-23.347-10.149-32.48-1.522-4.567 4.06-7.105 9.643-7.611 16.242-.506 6.089 2.028 12.18 6.089 16.747l57.855 62.929 16.747 18.27zM120.413 295.844l-11.307-12.355-4.117 3.77 11.307 12.355zM128.878 370.954c6.598 7.105 17.764 7.611 24.868 1.016 7.105-6.599 7.611-17.764 1.016-24.869l-38.569-42.122-16.748-18.27-38.569-42.123c-6.598-7.105-17.764-7.61-24.868-1.016-3.554 3.045-5.583 7.611-5.583 12.181 0 4.567 1.522 9.133 4.567 12.688L73.56 310.56l16.748 18.27zM84.653 328.206l-11.308-12.355-4.117 3.77 11.308 12.355zM80.665 379.581c5.077 5.583 14.21 6.09 19.793 1.016 5.582-5.076 6.089-14.21 1.016-19.792l-20.809-22.837-16.747-18.27-20.809-22.836c-5.076-5.583-14.21-6.09-19.792-1.016-2.539 2.538-4.567 6.089-4.567 9.643 0 3.555 1.016 7.611 3.554 10.15l20.809 22.836 16.747 18.27zM54.13 356.753l-11.307-12.355-12.73 11.65L41.4 368.403z"/></g></svg>