<svg width="80mm" height="30mm" viewBox="0 0 80 30" xmlns="http://www.w3.org/2000/svg"><g fill="#1d2021" fill-opacity=".25"><path d="M48.049 17.843h1.181v.571H48.05zM50.145 20.32c-.99 0-.724.229-.724-4.002 0-.19.152-.343.343-.343.953 0 .724-.266.724 4.002 0 .19-.152.343-.343.343zM51.746 19.939c0 .19-.153.343-.343.343-.953 0-.724.267-.724-4.002 0-.19.152-.343.342-.343.915 0 .725-.152.725 2.63zM51.936 18.415v-.572h1.448l.038.572zM55.862 9.764l2.21-.686c.61.267 1.296.267 1.867 0l2.21.686c0 .038-.723 7.85-.723 7.888h-4.84z"/><path d="M56.967 7.058A2.05 2.05 0 0159.024 5c2.173 0 2.82 2.935.877 3.887-1.334.686-2.934-.305-2.934-1.83zM53.651 19.177l-.038-.572-.038-.953c-.229-4.306-.305-2.743.343-6.821.152-.877.953-1.487 1.791-1.41l-.038.152-.038.19-.8 5.298-.191 4.154zM57.996 23.902l-.686 6.06-1.563.038-.038-6.326v-.19l.762-4.879h2.363zM62.302 30H60.74c-.838-7.432-.495-4.84-1.524-11.357h2.363c.953 5.983.762 3.392.724 11.357zM56.319 18.415h-1.41l.038-.572h8.231l.039.572h-6.898zM63.37 19.215c-.23-5.183 0-2.973-1.068-9.756.915-.077 1.677.533 1.791 1.41l.496 3.277-.267 5.03zM64.627 18.415l.038-.572h1.448v.572zM67.028 20.32c-.877 0-.724.038-.724-1.715v-.953c0-1.79-.115-1.714.724-1.714.19 0 .343.152.343.342v3.66c0 .227-.153.38-.343.38zM67.904 20.32a.341.341 0 01-.343-.343c0-4.268-.228-4.002.724-4.002.191 0 .343.153.343.343 0 4.23.229 4.002-.724 4.002zM68.819 17.843H70v.571H68.82z"/></g></svg>