<svg width="80mm" height="30mm" viewBox="0 0 80 30" xmlns="http://www.w3.org/2000/svg"><g fill="#1d2021" fill-opacity=".25"><path d="M49.356 29.96h-1.368l1.61-4.266h1.367zM65.332 10a2.25 2.25 0 012.253 2.253 2.25 2.25 0 01-2.253 2.254 2.25 2.25 0 01-2.254-2.254A2.25 2.25 0 0165.332 10zM61.79 16.237l-1.287-.362.684 1.006c.322-.08.563-.322.603-.644z"/><path d="M55.674 13.3c.04.08.12.201.241.402l2.857 3.783.08.08.766 1.007a3.058 3.058 0 011.73-1.006l-.282-.403-1.167-1.69 2.093.563c.483.121.925-.16 1.046-.644.241-1.126.362-1.408.12-1.77-.24-.322-.523-.362-.845-.403-6.157-1.086-5.674-1.167-6.358-.724-.281.201-.402.563-.281.805zM61.549 11.81a1.56 1.56 0 00-1.247-.321l-2.616.603 4.386.765c-.04-.402-.241-.765-.523-1.046z"/><path d="M61.83 23.24a2.95 2.95 0 001.973-.765c1.65-1.61.684-4.427-1.65-4.668-3.904-.443-3.944 5.392-.322 5.433zm.846-2.737a.807.807 0 01-.805.805.807.807 0 01-.805-.805c0-.442.362-.805.805-.805.442 0 .805.363.805.805z"/><path d="M62.394 20.503a.523.523 0 11-1.046 0 .523.523 0 011.046 0M54.225 21.429l-6.801.764v1.892l7.123-.08c-.12-.524-.04-.081-.322-2.576zM57.605 24.366v1.047H70v-1.047zM58.853 22.475l-1.891-4.507c-.443.443.442.644.563 3.099 0 0 .04.603.04 2.897h.805c.483-.322.684-.926.483-1.49z"/><path d="M57.324 25.694v-1.61c-.04-4.064.04-4.023-.644-5.512-.161-.403-.08-.765.442-.966.161-.04 1.087-.201 1.248-.242l-1.409-1.81c-1.61-2.093-1.448-1.892-1.569-2.174-.08-.16-.08-.523.08-.764-.2.04-3.621.845-3.822.885-1.45.885.322 3.501 1.167 4.91.04.08 1.569 2.535 1.609 2.656 0 .04.16 1.408.362 3.058l.201 1.61c.202 1.931.443 3.782.483 4.265h1.892c-.04-1.77-.04-3.139-.04-4.306zM66.941 25.694l1.61 4.266h1.368l-1.61-4.266z"/><path d="M54.547 24.366h-6.6v1.047h6.72c-.04-.242-.08-.805-.12-1.047z"/></g></svg>