<svg width="80mm" height="30mm" viewBox="0 0 80 30" xmlns="http://www.w3.org/2000/svg"><g fill="#1d2021" fill-opacity=".25"><path d="M62.795 30a.955.955 0 01-.948-.85l-.556-6.708c0-1.112.687-1.996 1.537-1.996h.066c.85 0 1.538.884 1.538 1.996l-.197 1.8-.49 4.907c-.066.491-.459.851-.95.851z"/><path d="M64.53 23.849l.13-1.407c0-1.112-.687-2.225-1.832-2.225-.981 0-1.767 1.014-1.767 2.225l.164 1.996-8.114 1.014a3.288 3.288 0 00-1.538.589l-2.16 1.472c-.294.196-.654.36-1.014.458l-7.689 1.8a.955.955 0 01-1.112-.687c-.13-.491.164-.982.654-1.146l8.246-2.388h.032l3.403-3.01c.458-.393 1.014-.687 1.603-.785l9.75-2.062c.459-.098.917 0 1.342.295 1.276.916 1.276 3.14-.098 3.86z"/><path d="M68.03 23.293a2.165 2.165 0 01-2.323-2.324c.098-1.047.916-1.897 1.964-1.963a2.165 2.165 0 012.323 2.323c-.099 1.047-.95 1.898-1.964 1.964z"/></g></svg>