<svg xmlns="http://www.w3.org/2000/svg" viewBox="0 0 122.21 212.203" width="256" height="256"><g fill="#928374" fill-opacity=".5"><path d="M82.646 205.643h16.728v-10H83.728v4.197c0 2.045-.394 3.996-1.082 5.803zm-61.01-10H5.993v10H22.72a16.248 16.248 0 01-1.083-5.803v-4.197zm70.377 11.548h5.684v2.905h-5.684zm-84.345 0h5.684v2.905H7.668zm76.06-69.178v8.957h2.127c3.89 0 3.89-14.148 0-14.148H83.73v5.191z"/><circle cx="52.51" cy="22.5" r="22.5"/><path d="M104.567 64.674a16.588 16.588 0 012.057 3.978l1.697-.43 1.954 7.726a2.94 2.94 0 003.56 2.124l6.163-1.559a2.94 2.94 0 002.123-3.56l-5.37-21.24a2.94 2.94 0 00-3.56-2.124l-6.164 1.559a2.94 2.94 0 00-2.123 3.56l1.954 7.725-3.474.879c.427.42.831.866 1.183 1.362zM81.435 83.24l-1.953-7.726 6.878-1.739a10.243 10.243 0 01-.06-6.143l-8.282 2.093L76.065 62a2.94 2.94 0 00-3.56-2.123l-6.163 1.558a2.94 2.94 0 00-2.124 3.56l5.37 21.24a2.94 2.94 0 003.561 2.124l6.163-1.558a2.94 2.94 0 002.123-3.561z"/><path d="M102.691 66.004a8 8 0 00-13.22 9.01c.555 1.795-.127 6.263-1.588 11.565l-2.144-.884c1.269-4.678 1.834-8.368 1.589-9.77l-.01-.02-5.043 1.275 1.39 5.496c.477 1.887-.158 3.781-1.47 5.042.68 4.128.935 8.868.501 14.299-.006.08-.003.16-.007.241a8.007 8.007 0 00-.013.446c0 .135.008.268.015.4.007.121.014.24.026.36a8 8 0 00.065.472c.015.091.029.183.047.274a7.9 7.9 0 00.121.513 7.979 7.979 0 00.535 1.43c.038.078.076.156.117.233.042.08.082.162.127.241.035.061.075.118.112.177a7.882 7.882 0 00.633.899 8.075 8.075 0 00.805.851c.092.084.184.167.28.247.111.092.226.18.342.266.088.065.175.13.266.192.14.096.283.184.429.27.075.045.15.09.227.133.17.093.343.178.52.258.046.022.088.047.135.068l.06.022c.187.08.378.15.572.215.07.024.141.05.212.073.165.05.333.09.503.13.104.026.207.054.312.074.13.025.262.042.394.06.143.021.286.044.429.057.024.002.048.007.073.01.188.014.374.02.56.022.025 0 .05.004.076.004h.011a7.955 7.955 0 001.236-.105 7.934 7.934 0 002.16-.664c.308-.145.608-.305.894-.488.04-.025.077-.055.117-.081.244-.163.478-.34.704-.527.066-.056.134-.11.199-.167.241-.215.47-.444.683-.687.054-.06.104-.125.156-.188.2-.242.389-.494.56-.76.02-.03.043-.059.062-.09a7.94 7.94 0 00.508-.962c.014-.03.032-.055.045-.085.113-.258 2.651-6.114 4.75-13.142.108-.361.215-.724.32-1.091 3.492-12.184 3.37-20.323-.383-25.614z"/><path d="M13.886 125.111c1.814 0 3.553.314 5.182.867.912-28.386 4.94-43.653 8.628-51.786l2.196.794c-1.406 3.062-2.904 7.296-4.254 13.09v36.363c2.668-3.992 7.213-6.628 12.364-6.628 7.443 0 13.609 5.506 14.681 12.655 1.073-7.15 7.239-12.655 14.683-12.655 5.15 0 9.696 2.636 12.363 6.628V89.067l-6.016 1.521a5.237 5.237 0 01-6.354-3.789l-5.37-21.24a5.237 5.237 0 013.789-6.354l6.162-1.558a5.237 5.237 0 016.354 3.79l1.39 5.495 7.897-1.996a10.297 10.297 0 011.907-2.14 48.291 48.291 0 00-5.883-7.254c-3.113-3.139-5.545-4.66-5.849-4.844a7.963 7.963 0 00-4.43-1.151A7.75 7.75 0 0072 49.425H34.53a8.02 8.02 0 00-1.254-.109h-.006c-1.217 0-6 .348-11.333 5.236-2.23 2.043-4.554 4.874-6.757 8.814a56.234 56.234 0 00-2.609 5.36c-5.802 13.593-9.021 33.932-9.597 60.65 2.88-2.639 6.705-4.265 10.91-4.265z"/><path d="M23.137 132.674c0-.55.035-1.091.094-1.626a13.818 13.818 0 00-9.346-3.637C6.217 127.411 0 133.628 0 141.297c0 7.668 6.217 13.885 13.886 13.885 3.558 0 6.794-1.35 9.251-3.552v-18.956zM7.35 141.297a6.537 6.537 0 1113.073 0 6.537 6.537 0 01-13.073 0z"/><path d="M13.886 144.044a2.747 2.747 0 100-5.495 2.747 2.747 0 000 5.495zM55 199.84c0 6.83 5.537 12.363 12.365 12.363 6.827 0 12.364-5.533 12.364-12.363v-67.166c0-6.83-5.537-12.363-12.364-12.363-6.828 0-12.365 5.533-12.365 12.363v67.166zm-29.363-67.166v67.166c0 6.83 5.537 12.363 12.365 12.363 6.826 0 12.363-5.533 12.363-12.363v-67.166c0-6.83-5.537-12.363-12.363-12.363-6.828 0-12.365 5.533-12.365 12.363z"/></g></svg>