<?xml version="1.0" encoding="UTF-8" standalone="no"?>
<svg
   version="1.1"
   id="Layer_1"
   x="0"
   y="0"
   xml:space="preserve"
   width="181.286"
   height="212.906"
   sodipodi:docname="calf-press-today.svg"
   inkscape:version="1.1.2 (0a00cf5339, 2022-02-04)"
   xmlns:inkscape="http://www.inkscape.org/namespaces/inkscape"
   xmlns:sodipodi="http://sodipodi.sourceforge.net/DTD/sodipodi-0.dtd"
   xmlns="http://www.w3.org/2000/svg"
   xmlns:svg="http://www.w3.org/2000/svg"><sodipodi:namedview
     id="namedview54"
     pagecolor="#ffffff"
     bordercolor="#666666"
     borderopacity="1.0"
     inkscape:pageshadow="2"
     inkscape:pageopacity="0.0"
     inkscape:pagecheckerboard="0"
     showgrid="false"
     inkscape:zoom="1.7604983"
     inkscape:cx="-11.644431"
     inkscape:cy="33.79725"
     inkscape:window-width="1920"
     inkscape:window-height="1020"
     inkscape:window-x="0"
     inkscape:window-y="32"
     inkscape:window-maximized="1"
     inkscape:current-layer="Layer_1" /><defs
     id="defs13"><clipPath
       clipPathUnits="userSpaceOnUse"
       id="clipPath1419"><path
         id="rect1421"
         fill="#fb4934"
         fill-opacity="1"
         stroke="#982823"
         stroke-width=".304"
         stroke-linecap="round"
         stroke-linejoin="round"
         stroke-miterlimit="4"
         stroke-dasharray="none"
         stroke-opacity="1"
         d="M97.874 371.434H328.99V595.13H97.874z" /></clipPath></defs><style
     type="text/css"
     id="style2">.st0{display:none;opacity:.5;fill:none;stroke:#a89984;stroke-width:.05;stroke-miterlimit:10}.st1{fill:#928374}</style><path
     class="st0"
     d="M294.985 73.486c-2.94 1.51-8.31 5.17-9.04 17.27"
     id="path4" /><style
     type="text/css"
     id="style958">.st0{display:none;opacity:.5;fill:none;stroke:#231f20;stroke-width:.05;stroke-miterlimit:10}.st1{fill:#e92a2a}.st2{fill:#d52626}.st3{fill:#9a1a1c}.st4{fill:#8d1819}</style><style
     type="text/css"
     id="style1013">.st0{display:none;opacity:.5;fill:none;stroke:#231f20;stroke-width:.05;stroke-miterlimit:10}.st1{fill:#e92a2a}.st2{fill:#d52626}.st3{fill:#9a1a1c}.st4{fill:#8d1819}</style><g
     id="White_00000008146272988381087930000002203879022052071609_"
     transform="translate(-123.455 -371.434)"
     fill="#928374"
     fill-opacity=".5"
     style="fill:#7c6f64;fill-opacity:1"><path
       class="st1"
       d="M301.09 264.91v-8.77c0-8.56-6.4-17.88-7.3-19.15-.09-1.64-.8-14.09-2.01-19.98-1.14-5.55-3.18-10.87-3.6-11.94.32-.94 1.71-5.16 2.51-10.29.92-5.91-3.09-20.42-5.5-26.54-1.6-4.06-4.94-5.6-7.62-6.84-1.45-.67-2.7-1.25-3.41-2.07-1.81-2.11-3.61-2.69-5.2-3.2-.42-.13-.82-.26-1.21-.42-.61-.24-1.15-.73-1.97-1.48-1.39-1.26-3.49-3.17-7.99-5.78-2.6-1.51-6.45-3.27-10.53-5.14-6.11-2.8-13.04-5.97-14.66-7.97-.66-.81-1.61-3.55-2.48-6.41.5-.98 1.86-3.67 1.98-4.08.53-1.82.58-4.31.56-5.82.3.14.67.22 1.11.17 1.5-.18 2.91-2.52 4.59-5.56.47-.85.92-1.66 1.26-2.14 1.46-2.08 1.14-6.58.07-9.96-.31-.98-.84-1.55-1.57-1.69-1-.18-2.1.58-2.89 1.3.15-4.2.09-16.03-4.76-21.86-4.18-5.02-12.54-6.26-15.71-6.56h-1.25c-3.17.3-11.53 1.55-15.71 6.56-4.85 5.83-4.91 17.65-4.76 21.86-.79-.72-1.88-1.48-2.89-1.3-.73.13-1.26.7-1.57 1.69-1.06 3.37-1.38 7.88.07 9.96.34.49.79 1.29 1.26 2.14 1.68 3.04 3.09 5.38 4.59 5.56.44.06.81-.03 1.11-.17-.02 1.51.04 4 .56 5.82.12.41 1.46 3.06 1.96 4.06-.87 2.87-1.83 5.61-2.49 6.43-1.62 2-8.55 5.17-14.66 7.97-4.08 1.87-7.94 3.64-10.53 5.14-4.5 2.61-6.6 4.52-7.99 5.78-.82.74-1.36 1.24-1.97 1.48-.39.16-.79.28-1.21.42-1.59.51-3.39 1.09-5.2 3.2-.71.83-1.96 1.4-3.41 2.07-2.68 1.24-6.02 2.77-7.62 6.84-2.41 6.12-6.42 20.63-5.5 26.54.8 5.14 2.19 9.35 2.51 10.29-.42 1.07-2.46 6.39-3.6 11.94-1.21 5.88-1.92 18.34-2.01 19.98-.9 1.27-7.3 10.59-7.3 19.15v8.77c-.61.99-3.78 6.71-3.1 17.88.26 4.28.74 8.23 1.25 12.41.9 7.44 2.74 15.14 2.39 25.1-.54 15.19-.41 28.19 1.48 33.96.81 2.49 5.22 14.98 5.42 15.51 0 0 .18.57.73.4.03-.01 2.81-.8 3.11-4.45l1.15 1.18c.2.21.55.18.72-.05l.05-.08c.09-.12 1.38-1.97 1.78-4.27.82-1.25 2.48-4.46.47-7.52-.83-1.27-3.82-4.34-4.52-5.05-.05-.63-.25-2.61-.79-4.75-.46-2.61-.19-4.55.39-5.89.17-.32.34-.64.54-.96.45-.63.99-1.04 1.49-1.23.13-.05.2-.03.28.02 1.17.75 1.45 2.77 1.73 4.91.27 2 .63 4.03 1.57 5.68 1.16 2.04 4.47 2.81 4.9-1.08.31-2.77.3-6.18.29-7.62l-.08-1.46c-.31-5.56-.52-8.39-3.5-13.25-1.31-2.13-1.33-3.31-.51-11.58.4-4.03 2.99-10.59 5.62-17.55 3-7.95 6.11-16.17 6.31-20.94.31-7.39-.67-11.06-1.02-12.12.62-.75 2.36-3.06 2.83-6.05.55-3.47.38-9.51.36-9.66.02-.1 1.84-10.52 4.85-15.3 2.22-3.52 5.21-9.79 6.68-13.51.81 3.7 1.54 6.7 2 8.1.74 2.23 1.69 4.7 2.6 7.1 1.3 3.42 2.53 6.64 2.85 8.33.31 1.65.39 10.04.25 24.92-.01.78-.01 1.29-.01 1.44-.03.28-.66 1.4-1.22 2.38-1.89 3.34-5.05 8.93-4.47 13.66.65 5.27 1.45 7.47 1.74 8.13-.6 1.9-5 16.31-4.33 26.71.24 3.63-1.19 9.28-2.99 16.44-2.32 9.23-5.22 20.72-6.2 33.98-1.45 19.62 2.68 51.84 4.23 63.97.33 2.6.55 4.31.58 4.83.08 1.28-.04 2.16-.18 3.19-.19 1.39-.4 2.97-.19 5.93.05.67.21 1.47.45 2.36-1.09 2.83-2.09 5.65-2.96 8.26-7.26 16.33-4.03 33.68-.91 50.46.68 3.64 1.38 7.4 1.96 11.08l.1.85c.74 6.62 1.5 13.47-.15 19.74-.84 3.17-1.72 5.02-2.36 6.18l-.01.01a.26.26 0 00-.09.17c-.15.26-.29.49-.41.68-.12.19-.21.35-.29.49-.66 1.19-.67 2.56-.38 3.88-.2.51-1.63 4.13-5.29 6.2-3.44 1.95-6.51 3.24-7.61 3.79-2.57-.42-5.59.37-6.2 1.03-.46.49-.93 1.26-.93 3.18 0 1.85 2.23 2.7 3.22 2.98 0 .66.16 1.88 1.07 3.29 1.3 2.02 9.35 4.56 12.75 5.56 1.16.34 3.4 1.88 5.38 3.24 1.86 1.28 3.62 2.49 4.7 2.9 1.1.41 3.43.81 6.15.81 3.34 0 7.29-.6 10.33-2.5 5.75-3.59 1.79-18.51 1.62-19.15-.2-.74-.42-1.57-.65-2.43-.72-2.7-1.53-5.75-2.35-8.23.03-.94.52-1.92 1.04-2.95.57-1.13 1.15-2.3 1.15-3.53l-.02-.15c-5.2-18.71 2.52-36.3 9.99-53.31l.95-2.2c.36-1.44.85-2.91 1.33-4.33.97-2.91 1.97-5.92 1.97-8.98-.46-4.17-1.67-8.24-2.96-12.56-.76-2.56-1.78-6.34-2.69-9.77 4.44-6.76 8.35-15.37 9.29-20.49.7-3.82 1.31-11.04 2.01-19.41.62-7.39 1.33-15.77 2.18-22.46 1.06-8.26 3.25-17.58 5-25.07 1.2-5.12 2.24-9.55 2.58-12.21.75-5.9-.34-12.83-.59-14.27.68-2.12.98-4.52 1.04-6.97.06 2.45.35 4.86 1.04 6.97-.25 1.44-1.34 8.37-.59 14.27.34 2.67 1.38 7.09 2.58 12.21 1.76 7.49 3.94 16.81 5 25.07.86 6.69 1.56 15.06 2.19 22.46.7 8.37 1.31 15.59 2.01 19.41.94 5.11 4.83 13.7 9.27 20.46-.95 3.58-1.99 7.47-2.68 9.8-1.28 4.31-2.49 8.39-2.96 12.56 0 3.07 1 6.07 1.97 8.98.47 1.42.97 2.9 1.33 4.33l.95 2.2c7.47 17.01 15.19 34.6 9.99 53.31l-.02.15c0 1.22.58 2.39 1.15 3.53.52 1.04 1.01 2.01 1.04 2.95-.82 2.48-1.63 5.53-2.35 8.23-.23.87-.45 1.69-.65 2.43-.17.64-4.12 15.56 1.62 19.15 3.04 1.9 6.99 2.5 10.33 2.5 2.73 0 5.05-.4 6.15-.81 1.08-.4 2.84-1.61 4.7-2.9 1.98-1.36 4.22-2.9 5.38-3.24 3.4-1 11.45-3.54 12.75-5.56.91-1.41 1.06-2.63 1.07-3.29.99-.29 3.22-1.13 3.22-2.98 0-1.92-.47-2.68-.93-3.18-.61-.65-3.62-1.44-6.2-1.03-1.1-.55-4.17-1.84-7.61-3.79-3.66-2.07-5.09-5.69-5.29-6.2.28-1.32.28-2.69-.38-3.88-.08-.14-.17-.3-.29-.49-.12-.19-.26-.42-.41-.68a.26.26 0 00-.09-.17l-.01-.01c-.65-1.15-1.53-3.01-2.36-6.18-1.65-6.27-.89-13.11-.15-19.74l.1-.85c.58-3.68 1.28-7.44 1.96-11.08 3.12-16.78 6.35-34.13-.91-50.46-.87-2.61-1.86-5.42-2.95-8.24.25-.9.41-1.7.46-2.38.21-2.96 0-4.54-.18-5.93-.14-1.02-.25-1.91-.18-3.19.03-.52.25-2.24.58-4.83 1.55-12.13 5.68-44.35 4.23-63.97-.98-13.26-3.87-24.75-6.2-33.98-1.8-7.16-3.23-12.82-2.99-16.44.68-10.39-3.73-24.81-4.33-26.71.29-.66 1.09-2.86 1.74-8.13.58-4.72-2.58-10.31-4.47-13.66-.56-.98-1.19-2.1-1.21-2.38 0-.15 0-.67-.01-1.44-.15-14.88-.06-23.27.25-24.92.32-1.69 1.55-4.91 2.85-8.33.91-2.39 1.86-4.87 2.6-7.1.47-1.4 1.18-4.39 2-8.07 1.47 3.73 4.45 9.97 6.66 13.48 3.01 4.77 4.83 15.19 4.85 15.3-.01.15-.19 6.18.36 9.66.47 2.99 2.21 5.3 2.83 6.05-.35 1.06-1.32 4.73-1.02 12.12.2 4.77 3.31 12.99 6.31 20.94 2.63 6.96 5.21 13.53 5.62 17.55.82 8.27.8 9.45-.51 11.58-2.99 4.86-3.19 7.69-3.5 13.25l-.08 1.46c-.01 1.45-.02 4.85.29 7.62.43 3.9 3.74 3.12 4.9 1.08.94-1.66 1.3-3.68 1.57-5.68.29-2.14.56-4.16 1.73-4.91.08-.05.15-.07.28-.02.51.19 1.04.6 1.49 1.23.19.32.37.64.54.96.59 1.34.86 3.28.39 5.89a31.08 31.08 0 00-.79 4.75c-.7.71-3.69 3.78-4.52 5.05-2.01 3.06-.35 6.27.47 7.52.4 2.3 1.69 4.15 1.78 4.27l.05.08c.17.24.51.26.72.05l1.15-1.18c.3 3.65 3.08 4.44 3.11 4.45.55.17.73-.4.73-.4.2-.53 4.6-13.02 5.42-15.51 1.88-5.78 2.02-18.78 1.48-33.96-.35-9.96 1.49-17.66 2.39-25.1.51-4.18.99-8.12 1.25-12.41.72-11.17-2.45-16.89-3.06-17.88z"
       id="path6"
       fill="#928374"
       fill-opacity=".5"
       style="fill:#7c6f64;fill-opacity:1" /></g><path
     id="Outline_black_00000012467778204523605170000009782990369117439880_"
     d="M177.635-106.524v-8.77c0-8.56-6.4-17.88-7.3-19.15-.09-1.64-.8-14.09-2.01-19.98-1.14-5.55-3.18-10.87-3.6-11.94.32-.94 1.71-5.16 2.51-10.29.92-5.91-3.09-20.42-5.5-26.54-1.6-4.06-4.94-5.6-7.62-6.84-1.45-.67-2.7-1.25-3.41-2.07-1.81-2.11-3.61-2.69-5.2-3.2-.42-.13-.82-.26-1.21-.42-.61-.24-1.15-.73-1.97-1.48-1.39-1.26-3.49-3.17-7.99-5.78-2.6-1.51-6.45-3.27-10.53-5.14-6.11-2.8-13.04-5.97-14.66-7.97-.66-.81-1.61-3.55-2.48-6.41.5-.98 1.86-3.67 1.98-4.08.53-1.82.58-4.31.56-5.82.3.14.67.22 1.11.17 1.5-.18 2.91-2.52 4.59-5.56.47-.85.92-1.66 1.26-2.14 1.46-2.08 1.14-6.58.07-9.96-.31-.98-.84-1.55-1.57-1.69-1-.18-2.1.58-2.89 1.3.15-4.2.09-16.03-4.76-21.86-4.18-5.02-12.54-6.26-15.71-6.56h-1.25c-3.17.3-11.53 1.55-15.71 6.56-4.86 5.83-4.91 17.65-4.76 21.86-.79-.72-1.88-1.48-2.89-1.3-.73.13-1.26.7-1.57 1.69-1.06 3.37-1.38 7.88.07 9.96.34.49.79 1.29 1.26 2.14 1.68 3.04 3.09 5.38 4.59 5.56.44.05.81-.03 1.11-.17-.02 1.51.04 4 .56 5.82.12.41 1.46 3.06 1.96 4.06-.87 2.87-1.83 5.61-2.49 6.43-1.62 2-8.55 5.17-14.66 7.97-4.08 1.87-7.94 3.64-10.53 5.14-4.49 2.61-6.6 4.52-7.99 5.78-.82.74-1.36 1.24-1.97 1.48-.39.16-.79.28-1.21.42-1.59.51-3.39 1.09-5.2 3.2-.71.83-1.96 1.4-3.41 2.07-2.68 1.24-6.02 2.77-7.62 6.84-2.41 6.12-6.42 20.63-5.5 26.54.8 5.14 2.19 9.35 2.51 10.29-.42 1.07-2.46 6.39-3.6 11.94-1.21 5.88-1.92 18.34-2.01 19.98-.9 1.27-7.3 10.59-7.3 19.15v8.77c-.61.99-3.78 6.71-3.1 17.88.26 4.28.74 8.23 1.25 12.41.9 7.44 2.74 15.14 2.39 25.1-.54 15.19-.41 28.19 1.48 33.96.81 2.49 5.22 14.98 5.42 15.51 0 0 .18.57.73.4.03-.01 2.81-.8 3.11-4.45l1.15 1.18c.2.21.55.18.72-.05l.05-.08c.09-.12 1.38-1.97 1.78-4.27.82-1.25 2.48-4.46.47-7.52-.83-1.27-3.82-4.34-4.52-5.05-.05-.63-.25-2.61-.79-4.75-.46-2.61-.19-4.55.39-5.89.17-.32.34-.64.54-.96.45-.63.99-1.04 1.49-1.23.13-.05.2-.03.28.02 1.17.75 1.45 2.77 1.73 4.91.27 2 .63 4.03 1.57 5.68 1.16 2.04 4.47 2.81 4.9-1.08.31-2.77.3-6.18.29-7.62l-.08-1.46c-.31-5.56-.52-8.39-3.5-13.25-1.31-2.13-1.33-3.31-.51-11.58.4-4.03 2.99-10.59 5.62-17.55 3-7.95 6.11-16.17 6.31-20.94.31-7.39-.67-11.06-1.02-12.12.62-.75 2.36-3.06 2.83-6.05.55-3.47.38-9.51.36-9.66.02-.1 1.84-10.52 4.85-15.3 2.22-3.52 5.21-9.79 6.68-13.51.81 3.7 1.54 6.7 2 8.1.74 2.23 1.69 4.7 2.6 7.1 1.3 3.42 2.53 6.64 2.85 8.33.31 1.65.39 10.04.25 24.92-.01.78-.01 1.29-.01 1.44-.03.28-.66 1.4-1.21 2.38-1.89 3.34-5.05 8.93-4.47 13.66.65 5.27 1.45 7.47 1.74 8.13-.6 1.9-5 16.31-4.33 26.71.24 3.63-1.19 9.28-2.99 16.44-2.32 9.23-5.22 20.72-6.2 33.98-1.45 19.62 2.68 51.84 4.23 63.97.33 2.6.55 4.31.58 4.83.08 1.28-.04 2.16-.18 3.19-.19 1.39-.4 2.97-.19 5.93.05.67.21 1.47.45 2.36-1.09 2.83-2.09 5.65-2.96 8.26-7.26 16.33-4.03 33.68-.91 50.46.68 3.64 1.38 7.4 1.96 11.08l.09.85c.74 6.62 1.5 13.47-.15 19.74-.84 3.17-1.72 5.02-2.36 6.18-.01 0-.01.01-.01.01a.26.26 0 00-.09.17c-.15.26-.29.49-.41.68-.12.19-.21.35-.29.49-.66 1.19-.67 2.56-.38 3.88-.2.51-1.63 4.13-5.29 6.2-3.44 1.95-6.51 3.24-7.61 3.79-2.57-.42-5.59.37-6.2 1.03-.46.49-.93 1.26-.93 3.18 0 1.85 2.23 2.7 3.22 2.98 0 .66.16 1.88 1.07 3.29 1.3 2.02 9.35 4.56 12.75 5.56 1.16.34 3.4 1.88 5.38 3.24 1.86 1.28 3.62 2.49 4.7 2.9 1.1.41 3.43.81 6.15.81 3.34 0 7.29-.6 10.33-2.5 5.75-3.59 1.79-18.51 1.62-19.15-.2-.74-.42-1.57-.65-2.43-.72-2.69-1.53-5.75-2.35-8.23.03-.94.52-1.92 1.04-2.95.57-1.13 1.15-2.3 1.15-3.53l-.02-.15c-5.2-18.71 2.52-36.3 9.99-53.31l.95-2.2c.36-1.44.85-2.91 1.33-4.33.97-2.91 1.97-5.92 1.97-8.98-.46-4.17-1.67-8.24-2.96-12.56-.76-2.56-1.78-6.34-2.69-9.77 4.44-6.76 8.35-15.37 9.29-20.49.7-3.82 1.31-11.04 2.01-19.41.62-7.39 1.33-15.77 2.18-22.46 1.06-8.26 3.25-17.58 5-25.07 1.2-5.12 2.24-9.55 2.58-12.21.75-5.9-.34-12.83-.59-14.27.68-2.12.98-4.52 1.04-6.97.06 2.45.35 4.86 1.04 6.97-.25 1.44-1.34 8.37-.59 14.27.34 2.67 1.38 7.09 2.58 12.21 1.76 7.49 3.94 16.81 5 25.07.86 6.69 1.56 15.06 2.19 22.46.7 8.37 1.31 15.59 2.01 19.41.94 5.11 4.83 13.7 9.27 20.46-.95 3.58-1.99 7.47-2.68 9.8-1.28 4.31-2.49 8.39-2.96 12.56 0 3.07 1 6.07 1.97 8.98.47 1.42.97 2.9 1.33 4.33l.95 2.2c7.47 17.01 15.19 34.6 9.99 53.31l-.02.15c0 1.22.58 2.39 1.15 3.53.52 1.04 1.01 2.01 1.04 2.95-.82 2.48-1.63 5.53-2.35 8.23-.23.87-.45 1.69-.65 2.43-.17.64-4.12 15.56 1.62 19.15 3.04 1.9 6.99 2.5 10.33 2.5 2.73 0 5.05-.4 6.15-.81 1.08-.4 2.84-1.61 4.7-2.9 1.98-1.36 4.22-2.9 5.38-3.24 3.4-1 11.45-3.54 12.75-5.56.91-1.41 1.06-2.63 1.07-3.29.99-.29 3.22-1.13 3.22-2.98 0-1.92-.47-2.68-.93-3.18-.61-.65-3.62-1.44-6.2-1.03-1.1-.55-4.17-1.84-7.61-3.79-3.66-2.07-5.09-5.69-5.29-6.2.28-1.32.28-2.68-.38-3.88-.08-.14-.17-.3-.29-.49-.12-.19-.25-.42-.41-.68a.26.26 0 00-.09-.17l-.01-.01c-.65-1.15-1.53-3.01-2.36-6.18-1.65-6.27-.89-13.11-.15-19.74l.09-.85c.58-3.68 1.28-7.44 1.96-11.08 3.12-16.78 6.35-34.13-.91-50.46-.87-2.61-1.86-5.42-2.95-8.24.25-.9.41-1.7.46-2.38.21-2.96 0-4.54-.18-5.93-.14-1.02-.25-1.91-.18-3.19.03-.52.25-2.24.58-4.83 1.55-12.13 5.68-44.35 4.23-63.97-.98-13.26-3.87-24.75-6.2-33.98-1.8-7.16-3.23-12.82-2.99-16.44.68-10.39-3.73-24.81-4.33-26.71.29-.66 1.09-2.86 1.74-8.13.58-4.72-2.58-10.31-4.47-13.66-.56-.98-1.19-2.1-1.21-2.38 0-.15 0-.67-.01-1.44-.15-14.88-.06-23.27.25-24.92.32-1.69 1.55-4.91 2.85-8.33.91-2.39 1.86-4.87 2.6-7.1.47-1.4 1.18-4.39 2-8.07 1.47 3.73 4.45 9.97 6.66 13.48 3.01 4.77 4.83 15.19 4.85 15.3-.01.15-.19 6.18.36 9.66.47 2.99 2.21 5.3 2.83 6.05-.35 1.06-1.32 4.73-1.02 12.12.2 4.77 3.31 12.99 6.31 20.94 2.63 6.96 5.21 13.53 5.61 17.55.82 8.27.8 9.45-.51 11.58-2.99 4.86-3.19 7.69-3.5 13.25l-.08 1.46c-.01 1.45-.02 4.85.29 7.62.43 3.9 3.74 3.12 4.9 1.08.94-1.66 1.3-3.68 1.57-5.68.29-2.14.56-4.16 1.73-4.91.08-.05.15-.07.28-.02.51.19 1.04.6 1.49 1.23.19.32.37.64.54.96.59 1.34.86 3.28.39 5.89a31.08 31.08 0 00-.79 4.75c-.7.71-3.69 3.78-4.52 5.05-2.01 3.06-.35 6.27.47 7.52.4 2.3 1.69 4.15 1.78 4.27l.05.08c.17.24.51.26.72.05l1.15-1.18c.3 3.65 3.08 4.44 3.11 4.45.55.17.73-.4.73-.4.2-.53 4.6-13.02 5.42-15.51 1.88-5.78 2.02-18.78 1.48-33.96-.35-9.96 1.49-17.66 2.39-25.1.51-4.18.99-8.12 1.25-12.41.74-11.17-2.43-16.89-3.04-17.88zm-8.28-27.41c.05.07 3.26 4.54 5.38 10.08l.21.57c.03.09.07.19.1.28.07.19.13.38.2.57.77 2.32 1.31 4.78 1.31 7.14v8.18c-4.14-5.01-10.1-8.89-11.25-15.45 1.5-3.61 2.91-7.65 4.04-11.41zm-18.13-76.34c.72.45 1.56.84 2.43 1.24 2.64 1.21 5.62 2.59 7.06 6.24 2.37 6.02 6.33 20.25 5.44 25.97a64.08 64.08 0 01-2.29 9.57c-2.36-2.57-4.87-5.02-7.77-6.88-4.73-3.01-10.1-4.03-15.01-6.57-7.86-4.06-8.92-16.58-2.25-22.97 3.83-3.64 7.71-5.92 12.39-6.6zm-58.93 38.33c-.34-8.94-2.08-18.63.16-27.44 1.84-7.23 6.3-12.56 12.6-16.06 3.69 2.01 7.84 3.35 12.15 4.01 3.8.59 12.33 1.88 18.97.75.84 5.71-6.87 6.09-10.12 6.29-1.1.07-2.16.11-3.26.29-2.3.36-5.41.58-7.41 1.97-3.69 2.57-2.85 7.1-1.97 11.06 2.14 9.65 5.41 18.59.69 28.15-3.42 6.92-8.07 13.19-12.42 19.54-1.39 2.03-2.88 3.96-4.3 5.97-1.03 1.45-5.04 4.48-5.01 1.43.04-3.88-.22-7.77-.27-11.64-.12-8.1.5-16.24.19-24.32zm42.06-15.02c.15.47.33.91.53 1.33-4.07 4.95-9.5 8.2-15.55 10.23-.7-1.1-1.44-2.18-2.2-3.24a.305.305 0 00-.13-.1c-.16-1.11-.38-2.25-.67-3.41-1.42-5.59-6.71-18.18 1.75-20.32 1.1-.28 2.2-.46 3.31-.59 4.58 2.05 8.61 4.91 12.08 8.55.01.01.02.01.03.02-.22 2.36.03 4.88.85 7.53zm-17.19 9.52c2.56 3.64 4.74 7.5 6.54 11.59-2.9-.35-5.61-1.02-7.38-1.59.86-3.23 1.18-6.52.84-10zm2.53 2.61c6.01-2.05 11.43-5.28 15.52-10.17.96 1.68 2.34 2.94 3.95 3.94-.35 1.84-1.19 6.17-2.19 11.22-1.59 4.03-7.24 4.61-12.51 4.08a68.055 68.055 0 00-4.77-9.07zm24.23-39.85c.4.16.81.29 1.24.43 1.52.49 3.1.99 4.7 2.87.17.2.36.38.57.55-8.6 1.37-15.64 7.33-16.83 15.53-3.19-3.27-6.84-5.91-10.95-7.88 2.8-.25 5.6-.3 8.35-.89 3.73-.81 6.3-3.27 5.83-6.72 3.07-.62 5.67-1.81 7.09-3.89zm-20.58-12.43c4.06 1.86 7.89 3.61 10.44 5.09 4.39 2.55 6.44 4.41 7.8 5.64.66.6 1.18 1.07 1.73 1.4-5.48 7.99-29.61 2.6-35.16.36-5.93-2.4-8.46-5.42-12.11-10.46-3.58-4.95-3.98-9.35-4.1-15.26-.07-3.37-.24-6.77-.14-10.14 0-1.01.08-2 .24-3 .11-1.15 1.31-2.16 2.48-1.71 1.27.49 2.24 1.74 2.82 2.9.54 1.08 1.03 2.19 1.56 3.28 2.4 4.94 5.15 10.17 9.45 13.68 1.86 2.2 8.53 5.26 14.99 8.22zm-46.47-23.22s-.76 3-1.71 6.26c-.47-.91-1.3-2.54-1.38-2.8-.74-2.55-.48-6.73-.48-6.77l.16-2.58-1.2 2.3c-.01.03-.39.69-1.09.62-1.07-.13-2.76-3.18-3.77-5-.51-.92-.95-1.71-1.32-2.24-1.09-1.55-1.06-5.42.07-9 .18-.57.42-.89.72-.94.78-.14 2.15 1.1 2.88 2.03l1.11 1.4-.13-1.78c-.01-.16-1.13-15.91 4.43-22.58 4.12-4.95 13.01-6.01 15.5-6.22 2.48.2 11.37 1.27 15.5 6.22 5.56 6.67 4.44 22.42 4.43 22.58l-.13 1.78 1.11-1.4c.74-.93 2.1-2.17 2.88-2.03.3.06.55.37.73.94 1.13 3.58 1.16 7.45.07 9-.38.54-.81 1.33-1.32 2.24-1.01 1.82-2.7 4.87-3.77 5-.7.08-1.07-.59-1.09-.62l-1.2-2.3.16 2.58c0 .04.26 4.22-.47 6.77-.08.26-.92 1.93-1.39 2.83-.96-3.28-1.72-6.29-1.72-6.29.06.43 1.31 9.2 2.95 13.31-4.12-4-6.6-9.62-9.07-14.74-.56-1.16-2.93-6.04-5.26-4.65-2.41 1.43-2 5.43-1.93 7.82.15 5.3-.75 11.37.58 16.54 1.91 7.37 6.6 12.75 12.63 16.24-5.57 3.16-10.47 8.08-12.08 14.4-2.65 10.41-.58 20.83-.63 31.39-.05 11.32.32 22.74.05 34.03-.04 1.68.66 3.9 2.06 3.62.12 1.79.32 3.58.54 5.36-.71-1.33-1.88-3.35-2.87-4.34-.4-.4-1.13-.38-1.55.04-.95.96-2.04 2.65-2.8 4 .2-1.69.38-3.37.5-5.06 1.4.28 2.1-1.94 2.06-3.62-.27-11.3.1-22.72.05-34.03-.04-10.56 2.03-20.98-.63-31.39-1.61-6.32-6.51-11.24-12.08-14.4 6.03-3.49 10.72-8.87 12.63-16.24 1.34-5.17.43-11.24.58-16.54.07-2.39.48-6.39-1.93-7.82-2.33-1.38-4.7 3.49-5.26 4.65-2.48 5.13-4.97 10.76-9.11 14.77 1.67-4.1 2.93-12.91 2.99-13.34zm28.48 160.78c2.64 2.07 1.98 5.41 1.72 6.48-.55 2.31-11.92 16.75-15.82 20.55-.3.3-.87.3-1.18.01-4.2-3.89-15.49-18.03-16.04-20.34-.26-1.08-.82-4.54 1.86-6.63 3.81-1.82 4.83-9.46 5.68-12.38 2.22-7.66 4.17-15.52 5.27-23.47.87-1.78 2.2-3.89 3.05-5 .61-.79 1.07-.71 1.62.08.73 1.04 2.22 3.51 3.07 5.34 1.11 7.81 3.03 15.53 5.22 23.06.84 2.88 1.85 10.36 5.55 12.3zm-57.5-104.92c.02-.01.03-.02.05-.03 3.46-3.63 7.5-6.5 12.08-8.55 1.11.13 2.21.31 3.31.59 8.46 2.14 3.17 14.73 1.76 20.32-.29 1.16-.52 2.29-.67 3.41-.05.02-.09.05-.13.1-.77 1.06-1.5 2.14-2.2 3.24-6.06-2.04-11.48-5.29-15.56-10.25.2-.42.38-.85.52-1.32.82-2.64 1.06-5.16.84-7.51zm13.83 19.64c-1.81 2.89-3.4 5.91-4.77 9.07-5.14.54-10.66.02-12.43-3.71-1.04-5.22-1.91-9.73-2.27-11.61 1.6-1 2.98-2.27 3.94-3.94 4.09 4.91 9.51 8.14 15.53 10.19zm2.53-2.61c-.34 3.48-.03 6.77.84 9.99-1.76.57-4.48 1.24-7.38 1.6a68.36 68.36 0 016.54-11.59zm3.75-13.63c.88-3.97 1.72-8.49-1.97-11.06-1.99-1.39-5.11-1.61-7.41-1.97-1.09-.17-2.16-.22-3.26-.29-3.24-.19-10.96-.58-10.12-6.29 6.64 1.14 15.17-.16 18.97-.75 4.31-.67 8.46-2 12.15-4.01 6.3 3.5 10.76 8.82 12.6 16.06 2.24 8.81.5 18.5.16 27.44-.31 8.08.31 16.21.19 24.31-.06 3.88-.31 7.77-.27 11.64.03 3.05-3.99.03-5.01-1.43-1.42-2.01-2.91-3.94-4.3-5.97-4.35-6.35-9.04-12.6-12.46-19.52-.73-1.47-1.26-2.92-1.64-4.37v-.01c-2.1-7.95.56-15.61 2.37-23.78zm-28.19-25.31c1.36-1.23 3.41-3.09 7.8-5.64 2.55-1.48 6.39-3.24 10.44-5.09 6.41-2.94 13.02-5.97 14.94-8.16 4.34-3.52 7.1-8.77 9.52-13.74.53-1.09 1.02-2.2 1.57-3.28.58-1.16 1.55-2.41 2.82-2.9 1.17-.45 2.37.56 2.48 1.71.16.99.24 1.99.24 3 .1 3.37-.08 6.77-.14 10.14-.12 5.92-.52 10.31-4.1 15.26-3.65 5.04-6.18 8.06-12.11 10.46-5.55 2.25-29.7 7.64-35.17-.36.54-.34 1.06-.8 1.71-1.4zm-8.29 5c1.61-1.88 3.18-2.38 4.7-2.87.43-.14.85-.28 1.26-.44 1.42 2.08 4.02 3.27 7.09 3.89-.48 3.45 2.09 5.91 5.83 6.72 2.74.6 5.55.64 8.35.89-4.11 1.97-7.77 4.62-10.97 7.9-1.18-8.2-8.22-14.17-16.83-15.54.21-.17.41-.35.57-.55zm-16.28 34.57c-.89-5.72 3.06-19.95 5.44-25.97 1.44-3.65 4.43-5.03 7.06-6.24.87-.4 1.71-.79 2.43-1.24 4.69.67 8.57 2.96 12.39 6.62 6.67 6.39 5.61 18.91-2.25 22.97-4.91 2.54-10.28 3.55-15.01 6.57-2.91 1.85-5.42 4.31-7.77 6.88-.49-1.52-1.6-5.21-2.29-9.59zm-10.38 61.52c0-2.36.53-4.81 1.31-7.14.06-.19.13-.38.19-.57.03-.09.07-.19.1-.28l.21-.57c2.11-5.54 5.33-10.02 5.38-10.08l.03-.04c1.12 3.76 2.53 7.8 4.04 11.41-1.16 6.56-7.11 10.44-11.25 15.45v-8.18zm-1.13 44.13c-.27-1.76-.53-3.49-.73-5.21-.51-4.16-.98-8.09-1.24-12.34-.02-.28-.03-.55-.04-.82-.01-.15-.01-.3-.02-.44-.01-.2-.01-.4-.02-.6 0-.13-.01-.26-.01-.4v-.61-.35c0-.23.01-.45.01-.67v-.25c.23-8.43 2.78-12.72 3.05-13.17 3.93-5.26 10.14-9.08 11.8-15.55.32.74.64 1.47.97 2.16.4.84.88 1.34 1.42 1.6-1.82 9.37-6.45 17.3-10.49 25.9-3.08 6.55-4.4 13.61-4.7 20.75zm17.25-46.54c.04 5.33 1.96 10.21 5.53 14.15-1.3 2.15-2.47 4.39-3.52 6.71-3.21-5.04-4.72-10.7-4.4-16.73.37-1.32.71-2.66.97-4.04.45.07.92.02 1.42-.09zm-1.16-1.34c.86-9.91 3.93-20.15 9.36-28.58.59-.96 1.33-1.76 2.24-2.42 3.74-2.76 1.53 5.86 1.39 6.29-.66 2.07-1.37 4.12-2 6.2-1.94 6.37-4.24 12.58-7.65 18.28-.13.04-.26.07-.39.11-1.23.35-2.18.36-2.95.12zm2.84 22.93c-3.46 7.87-5.47 16.56-5.85 25.19-1.22 4.47-3.17 9.88-4 14.3-.39 2.09-.65 4.21-1.07 6.29-.03.13-.06.26-.09.38l-.03.11-.09.27c-1.07 2.92-4.53 4.36-4.97-.33-1.08-11.46-.28-24.84.52-36.21.87-2.79 1.96-5.56 3.31-8.3 2.81-5.73 5.62-11.11 7.55-16.95.08 5.47 1.69 10.64 4.72 15.25zm-8.69 89.76c0 2.44-1.2 3.45-1.88 3.83-.58-1.54-2.27-6.13-3.59-9.88l5.48 5.61c0 .15-.01.34-.01.44zm2.45.49l-8.75-8.95c-.39-1.16-.69-2.09-.82-2.59-.28-1.09-.52-2.31-.72-3.63 1.08 1.98 2.64 4.28 4.26 5.98 3.18 3.34 6.55 6.2 7.1 6.67a10.88 10.88 0 01-1.07 2.52zm4.24-40.59c2.33 3.7 2.96 7.26 3.26 12.62l.08 1.44c.02 2.57-.08 5.36-.29 7.46-.17 1.72-1.56 2.72-2.88.62-.89-1.41-1.16-3.36-1.41-5.25-.32-2.39-.63-4.66-2.23-5.69-.24-.16-.5-.22-.77-.21.98-1.31 1.9-2.4 2.29-2.94-1.86.67-5.95 3.99-6.13 7.56-.23 1.22-.22 2.64.12 4.22-.01.06 0 .13.02.21.71 2.62.87 5.14.88 5.17.22.85 3.82 4.05 4.69 5.37 1.69 2.57.24 5.28-.46 6.33-1.08-.92-3.94-3.42-6.65-6.27-2.73-2.87-5.16-7.46-5.51-8.99-.63-6.59-.66-15.34-.27-26.3.21-5.99-.36-11.15-1.05-15.94-.03-5.23.49-10.28 1.66-15.22-.46 7.46-.67 14.91-.47 22.39.04 1.52-.47 13.57 1.78 14.29 2.32.74 4.29-1.58 4.87-3.32.97-2.89 1.05-6.27 1.61-9.26.57-3.05 1.89-6.78 2.95-10.15-.04 6.68.91 13.27 2.94 19.35.2.95.52 1.79.97 2.51zm11.18-50.81c-.19 4.59-3.27 12.73-6.24 20.6-2.66 7.02-5.08 13.67-5.68 17.8-.32 2.22-.55 4.29-.57 6.15-4.62-18.65-.21-41 11.59-56.07.36 1.2 1.18 4.77.9 11.52zm1.83-18.3c-.51 3.25-2.76 5.71-2.78 5.73 0 0-2.85 3.81-4.02 5.69-3.43-3.84-5.24-8.57-5.24-13.74 1.08-.35 2.22-.9 3.35-1.22 4.54-1.3 7.25-3.75 9.22-6.95-.1.51-.15.85-.17.93 0 .06.17 6.19-.36 9.56zm5.24-25.29c-2.07 3.43-3.5 9.1-4.27 12.66-1.8 3.63-4.29 6.64-8.91 8.18-.55.18-1.1.34-1.66.5 4-6.96 6.13-14.48 8.7-22.13.33-1 3.66-9.76-.39-9.32-3.91.43-6.1 7.05-7.42 9.99-3.11 6.91-5.07 14.12-5.75 21.67-1.1-.62-1.8-1.88-2.54-3.55-1.64-3.68-3.25-8.7-4.41-12.91.23-3.77.9-13.56 1.91-18.44 1.25-6.08 3.59-11.88 3.62-11.94l.2-.29c5.43-5.48 10.96-9.38 18.8-12.16 1.53-.54 3.07-1.15 4.49-1.92.75 3.93 3.03 15.72 4.96 24.67-.94 2.68-4.54 10.38-7.33 14.99zm15.27 6.99c-.54-1.54-1.22-3.33-1.92-5.17-.91-2.38-1.85-4.85-2.58-7.05-.96-2.89-3.08-12.98-4.83-21.74 4.11 4.74 15.54 2.6 20.42 1.01.87 3.01 2.22 5.96 3.98 8.97 4.87 8.33 10.67 16.67 16.71 24.2.37.46.71.78 1.03.99-.56 8.38-2.29 16.77-4.37 24.88-.88 3.45-1.96 6.84-2.9 10.28-.66 2.4-1.38 5.28-3.48 6.89-3.08 2.36-4.51-2.12-4.92-4.49-1.2-6.83-4.97-13.94-7.97-20.15-3-6.18-5.99-12.5-9.17-18.62zm1.07 3.97c1.03 2.32 2.03 4.65 3.24 7.03 2.73 5.39 5.64 10.56 7.98 16.16 2.12 5.08 3.64 9.84 4.63 15.23.11.57.25 1 .46 1.34-5-1.27-8.89-5.43-12.91-8.61-1.63-1.29-2.65-3.03-3.27-4.96.02-.09.03-.18.03-.25 0-.16 0-.67.01-1.44.06-5.23.21-20.49-.17-24.5zm-5.52 41.83c-.54-4.36 2.51-9.76 4.33-12.98.5-.88.85-1.51 1.07-1.97.51 1.32 1.21 2.6 2.14 3.8 2.2 2.84 6.07 5.34 8.99 7.4 1.07.75 2.11 1.32 3.19 1.76-5.49 4.17-13.22 5.46-17.93 10.29l.04-.12-.11-.21c-.01-.02-.96-1.84-1.72-7.97zm1.21 10.21c7.77-5.69 15.99-8.74 23.3.03 3.21 3.85 6.33 7.77 9.04 11.94-2.91-2.59-7.02-3.38-12.94-.89-3.69 1.55-7.17 3.77-10.69 5.68-.91.49-5.9 2.27-5.94 4.2a27.716 27.716 0 00-6.59 5.73c.04-.71.05-1.38.01-1.99-.54-8.69 2.52-20.29 3.81-24.7zm-12.98 75.27c.97-13.17 3.85-24.6 6.17-33.79 1.38-5.47 2.54-10.07 2.92-13.63 1.91-2.44 4.17-4.51 6.76-6.16.65 3.68 2.9 6.63 3.28 10.59.55 5.67-1.69 11.45-3.49 16.73-.52 1.54-2.68 6.73-2.86 10.55l-.03.03c-7.08 16.4-9.23 33.71-11.68 51.17-1.09-12.23-1.8-25.51-1.07-35.49zm1.32 38.29c2.55-17.87 4.5-35.65 11.51-52.48.17 1.25.69 2.22 1.75 2.62 2.12.8 4.12.45 6.24-.22 1.83-.58 3.66-1.2 5.48-1.83 1.11 5.12.39 11.07.03 15.98-.67 9-2.12 17.97-3.89 26.82-2.98 14.9-9.07 28.96-15.19 42.91-.7 1.51-1.39 3.08-2.04 4.66-.23.52-.46 1.04-.68 1.56a5.43 5.43 0 01-.06-.55c-.2-2.85 0-4.37.18-5.71.14-1.04.27-2.01.19-3.4-.03-.56-.25-2.29-.59-4.91-.72-5.42-1.93-14.89-2.93-25.45zm17.39 6.43c-.08 10.34 5.51 20.84 8.85 29.33-3.36 4.81-5.97 9.93-7.95 15.3-.18-8.66-3.34-16.8-9.09-23.42 2.95-7 5.79-14.03 8.19-21.21zm-16.91 44.32c.03-.06.05-.11.07-.17 1.38-4.15 3.99-11.35 5.77-16.23.87-2.01 1.73-4.02 2.59-6.04 5.94 6.94 8.97 15.52 8.71 24.62-2.48 7.35-3.83 15.14-4.32 23.26-.34 5.73-.47 11.49-.48 17.26-2.96 3.84-9.56 2.61-10.41-2.94 0-.03-.02-.05-.03-.07-2.07-13.21-3.61-26.44-1.9-39.69zm1.11 81.83c1.7-6.46.93-13.42.18-20.14l-.1-.87c-.59-3.72-1.29-7.49-1.97-11.13-3.07-16.5-5.97-32.14-.14-47.43-1.25 12.53.25 25.05 2.23 37.54-.01.04-.01.08-.01.12.03.22.08.43.13.64 1.77 11.08 3.88 22.14 4.75 33.18-1.23 4.29-3.29 8.16-6.16 11.53.36-.94.73-2.07 1.09-3.44zm18.68 5.4c-.02.94-.52 1.93-1.03 2.97-.26.53-.53 1.06-.74 1.61-1.92-8.24-1.73-16.7.57-24.81-.89 6.59-.71 13.33 1.2 20.23zm-.5-24.46c-3.76 9.97-4.43 20.64-1.69 30.91v.05l.03.17c.12.35.23.71.34 1.07.11.38.23.76.35 1.15.58 1.96 1.15 4.09 1.67 6.04.23.87.45 1.69.65 2.44.04.15 3.92 14.77-1.15 17.94-5.13 3.21-13.28 2.43-15.52 1.59-.95-.36-2.74-1.59-4.46-2.77-2.14-1.48-4.36-3-5.69-3.39-5.44-1.6-11.3-3.8-12.14-5.1-1.08-1.69-.89-2.97-.88-3.02l.1-.53-.53-.11c-.03-.01-2.81-.61-2.81-2.03 0-1.75.43-2.21.64-2.43.3-.32 1.73-1.05 3.8-.8l-2.53 1.57s1.37.67 4.02-1.07c3.22-2.1 6.26-3.18 8.25-4.31 2.98-1.69 4.54-4.27 5.2-5.62.46 1.23 1.07 2.33 1.5 3.09.16.27.31.54.45.81 0 0-2.35-6.47-1.07-8.78.07-.13.16-.27.27-.45.29-.47.69-1.13 1.14-2.08 3.2-3.34 5.57-7.24 7.06-11.58.67 10.12.22 20.22-2.57 30.29-.11.41 1.89-4.89 2.31-7.42 3.1-18.47-.61-36.99-3.64-55.56 2.26 3.3 7.13 3.62 9.93.8 0 5.59.1 11.19.2 16.76.04 2.26.15 4.46.33 6.62 0 0 .34-5.73.29-8.72-.05-2.86-.08-5.72-.09-8.58 2.07 3.05 6.54 3.91 9.5 1.4-1.32 3.83-2.46 7.72-3.26 11.65zm11.81-56.83c1.27 4.27 2.46 8.3 2.91 12.31 0 2.83-.97 5.75-1.92 8.58-.48 1.44-.98 2.94-1.32 4.33l-.92 2.11c-2.35 5.35-4.72 10.76-6.72 16.25-2.79 3.79-8.37 2.86-10.06-1.06-.02-7.1.08-14.2.33-21.29.29-8.57 1.63-16.86 4.27-24.65.05-.1.09-.2.13-.29v-.08c1.99-5.77 4.7-11.26 8.24-16.39.51 1.33.95 2.61 1.31 3.83.27 5.84 2.16 11.01 3.75 16.35zm-2.03-11.52c-.99-3.75-1.76-6.77-1.76-6.77v.1c-.02-.12-.05-.22-.07-.3-3.89-11.92-10.95-22-9.69-33.7 1.8-5.58 3.32-11.26 4.42-17.08 1.61-8.51 2.8-17.14 3.37-25.78.28-4.29.7-9.29-.25-13.74 3.11-1.08 6.22-2.18 9.36-3.17.98-.32 1.95-.65 2.9-1-3.96 11.44-3.58 23.02-1.79 34.62-7.1 18.69 2.17 39.78-2.16 59.08-1.29 2.63-2.78 5.3-4.33 7.74zm10.6-38.55c-.67 7.99-1.31 15.54-2 19.3-.44 2.4-1.6 5.69-3.18 9.18 2.97-18.25-4.83-37.91 1.28-55.49 1.18 7.27 2.87 14.54 4.34 21.78-.15 1.79-.3 3.54-.44 5.23zm9.76-59.78c-.33 2.61-1.36 7.01-2.56 12.1-1.76 7.51-3.95 16.86-5.02 25.18-.58 4.53-1.09 9.82-1.55 15.06-3.87-18.59-8.72-37.38-2.15-55.78 4.12-1.63 7.88-3.83 10.4-7.71.18-.28.34-.57.5-.87.34 1.99 1.02 7.07.38 12.02zm-.36-14.03c-1.48 6.59-9.15 9.45-14.79 11.27-5.49 1.73-10.87 3.77-16.35 5.5-10.59 3.35-3.68-13.26-2.19-17.72 1.54-4.62 2.97-10.03 2.07-14.94-.43-2.34-1.11-4.36-2.21-6.45-2.44-4.63 5.66-7.25 8.26-8.66 6.17-3.35 13.97-8.49 20.19-2.57 1.35 2.14 2.59 4.35 3.68 6.65.7 2.41 1.08 4.96 1.44 7.2 1.05 6.48 1.34 13.28-.1 19.72zm1.9-8.89c-.07-3.19-.46-6.33-.83-8.81-.78-5.24-2.07-10.63-4.58-14.35-3.73-7.22-7.86-11.87-12.87-17.34-5.97-6.54-14.17-2.85-20.35 1.4 4.75-4.8 12.71-6.08 18.1-10.31.96.32 1.97.53 3.06.63.13.02.25.05.39.06.31.04.59.03.87 0-1.5 1.87-1.65 4.38-1.16 6.41.65 2.7 6.41 10.33 16.76 21.32.28.3.77.34 1.06.06 10.74-10.8 16-18.88 16.65-21.59.48-1.99.42-4.38-.96-6.2.3.03.62.03.95 0 .14-.02.27-.04.39-.06 1.09-.1 2.1-.31 3.06-.63 5.4 4.24 13.38 5.51 18.12 10.33-6.18-4.26-14.4-7.96-20.38-1.42-5 5.48-9.13 10.12-12.86 17.34-2.52 3.71-3.8 9.11-4.59 14.35-.37 2.48-.77 5.62-.83 8.81zm35.29-65.02c.01.77.01 1.28.01 1.44 0 .08.01.16.03.25-.62 1.93-1.65 3.67-3.27 4.96-4.02 3.18-7.91 7.34-12.91 8.61.21-.34.35-.77.46-1.34 1-5.38 2.52-10.15 4.63-15.23 2.34-5.6 5.25-10.76 7.98-16.16 1.19-2.35 2.21-4.71 3.24-7.05-.37 3.97-.22 19.28-.17 24.52zm-33.5 54.18c.36-2.24.74-4.79 1.44-7.2 1.08-2.3 2.32-4.5 3.67-6.64 6.22-5.93 14.02-.78 20.19 2.57 2.6 1.41 10.7 4.03 8.26 8.66-1.11 2.09-1.78 4.11-2.21 6.45-.9 4.91.53 10.32 2.07 14.94 1.49 4.47 8.41 21.07-2.19 17.72-5.48-1.73-10.87-3.77-16.35-5.5-5.63-1.82-13.31-4.68-14.79-11.27-1.43-6.44-1.14-13.24-.09-19.73zm7.32 71.04c-1.07-8.31-3.26-17.66-5.02-25.18-1.19-5.09-2.23-9.49-2.56-12.1-.63-4.96.05-10.03.38-12.03.16.3.32.59.5.87 2.52 3.88 6.28 6.09 10.4 7.71 6.57 18.4 1.73 37.19-2.14 55.78-.47-5.23-.98-10.52-1.56-15.05zm4.19 41.81c-.69-3.77-1.33-11.31-2-19.3-.14-1.7-.29-3.45-.44-5.22 1.47-7.24 3.16-14.51 4.34-21.79 6.11 17.57-1.68 37.23 1.28 55.49-1.58-3.5-2.74-6.78-3.18-9.18zm4.25 11.47c-4.32-19.3 4.94-40.39-2.15-59.07 1.78-11.59 2.17-23.18-1.79-34.62.96.36 1.93.69 2.91 1 3.14.99 6.25 2.09 9.36 3.17-.95 4.45-.54 9.45-.25 13.74.57 8.65 1.76 17.27 3.37 25.78 1.1 5.82 2.63 11.5 4.42 17.08 1.26 11.71-5.87 21.87-9.76 33.8-.03.08-.81 3.14-1.79 6.85a78.252 78.252 0 01-4.32-7.73zm16.51-30.96c2.44 7.3 5.33 14.45 8.34 21.56-5.47 5.83-9.07 15.52-8.98 23.78-2.01-5.63-4.7-10.99-8.21-16.02 3.33-8.49 8.93-18.98 8.85-29.32zm-6.25 93.8c-1.99-5.48-4.36-10.88-6.71-16.23l-.93-2.11c-.34-1.39-.84-2.89-1.32-4.33-.94-2.83-1.92-5.75-1.92-8.58.45-4.01 1.65-8.04 2.91-12.31 1.61-5.43 3.77-10.81 4.01-16.77 0-.79.58-2.18 1.06-3.42 8.39 12.15 12.13 26.36 12.65 41.42.24 7.09.34 14.19.33 21.28-1.69 3.94-7.29 4.87-10.08 1.05zm4.39 40.71c-.52-1.04-1.01-2.02-1.03-2.97 1.91-6.91 2.09-13.64 1.2-20.24 2.3 8.11 2.49 16.57.57 24.81-.22-.54-.48-1.08-.74-1.6zm20.64-1.03c.11.17.2.32.27.45 1.28 2.31-1.07 8.78-1.07 8.78.14-.27.3-.54.45-.81.43-.76 1.05-1.86 1.5-3.09.67 1.35 2.23 3.94 5.2 5.62 2 1.13 5.04 2.21 8.25 4.31 2.66 1.74 4.02 1.07 4.02 1.07l-2.53-1.57c2.07-.25 3.5.48 3.8.8.21.22.64.68.64 2.43 0 1.42-2.78 2.02-2.81 2.03l-.52.11.09.53c.01.05.21 1.34-.88 3.02-.84 1.31-6.7 3.51-12.14 5.1-1.33.39-3.55 1.92-5.69 3.39-1.73 1.19-3.51 2.42-4.46 2.77-2.23.84-10.38 1.61-15.52-1.59-5.07-3.17-1.19-17.79-1.15-17.94.2-.75.42-1.57.65-2.44.52-1.95 1.09-4.08 1.67-6.04.12-.38.24-.76.35-1.15.11-.37.23-.73.34-1.07l.03-.17v-.05c2.74-10.27 2.07-20.94-1.69-30.91-.8-3.94-1.93-7.82-3.28-11.67 2.96 2.53 7.44 1.67 9.51-1.38-.01 2.86-.04 5.72-.09 8.58-.05 2.99.29 8.72.29 8.72.18-2.16.29-4.36.33-6.62.1-5.57.2-11.16.2-16.76 2.79 2.82 7.66 2.5 9.92-.79-3.04 18.56-6.74 37.08-3.65 55.55.43 2.53 2.42 7.83 2.31 7.42-2.79-10.08-3.23-20.18-2.57-30.29a31.21 31.21 0 007.06 11.57c.48.96.88 1.61 1.17 2.09zm-1.11-39.48c-.68 3.65-1.38 7.42-1.97 11.13l-.1.87c-.75 6.72-1.53 13.67.18 20.14.36 1.37.73 2.5 1.09 3.44-2.87-3.36-4.93-7.24-6.16-11.53.87-11 2.97-22.03 4.74-33.07.06-.24.12-.49.16-.74.01-.06 0-.11-.01-.16 1.98-12.49 3.48-24.99 2.23-37.51 5.81 15.29 2.91 30.93-.16 47.43zm-.85-49.87c.03.06.05.11.07.17 1.71 13.25.18 26.49-1.91 39.7-.01.02-.02.03-.02.06-.85 5.56-7.44 6.78-10.4 2.94-.01-5.76-.13-11.52-.48-17.26-.47-7.84-1.75-15.37-4.07-22.49h.01c-.74-8.41 2.86-18.89 8.57-25.11.8 1.87 1.6 3.75 2.41 5.62 1.78 4.89 4.42 12.19 5.82 16.37zm-2.35-25.11c-.33 2.62-.56 4.35-.59 4.91-.08 1.38.05 2.36.19 3.4.18 1.34.38 2.86.18 5.71-.01.17-.04.36-.06.55-.3-.68-.6-1.37-.9-2.05-.54-1.3-1.1-2.58-1.68-3.83-6.17-14.06-12.34-28.23-15.34-43.25-1.77-8.85-3.21-17.81-3.89-26.82-.37-4.91-1.09-10.86.03-15.98 1.82.63 3.64 1.25 5.48 1.83 2.12.67 4.12 1.02 6.24.22 1.06-.4 1.58-1.37 1.75-2.62 7.01 16.82 8.96 34.61 11.51 52.48-1.01 10.55-2.22 20.02-2.92 25.45zm-1.94-97.54c2.31 9.19 5.2 20.63 6.17 33.79.74 9.98.02 23.26-1.07 35.48-2.45-17.45-4.6-34.77-11.68-51.17l-.03-.03c-.19-3.83-2.34-9.02-2.86-10.55-1.8-5.27-4.04-11.05-3.49-16.73.39-3.95 2.63-6.91 3.28-10.58 2.59 1.65 4.85 3.72 6.76 6.16.39 3.55 1.54 8.16 2.92 13.63zm-3.02-16.79c-.04.61-.03 1.28.01 1.99a27.552 27.552 0 00-6.59-5.73c-.04-1.93-5.03-3.71-5.94-4.2-3.51-1.9-7-4.13-10.69-5.68-5.91-2.49-10.03-1.7-12.94.89 2.71-4.17 5.84-8.09 9.05-11.94 7.31-8.77 15.53-5.72 23.3-.03 1.3 4.42 4.37 16.02 3.8 24.7zm-6.91-47.88c1.82 3.22 4.87 8.62 4.33 12.98-.76 6.12-1.71 7.94-1.72 7.96l-.11.21.04.12c-4.71-4.83-12.44-6.13-17.93-10.29 1.08-.43 2.13-1.01 3.19-1.76 2.93-2.05 6.79-4.56 8.99-7.4a15.17 15.17 0 002.14-3.8c.22.47.57 1.1 1.07 1.98zm4.39-45.05c-.74 2.21-1.68 4.67-2.58 7.05-.7 1.85-1.39 3.63-1.92 5.17-3.18 6.12-6.17 12.44-9.15 18.62-3 6.21-6.78 13.32-7.97 20.15-.42 2.37-1.84 6.85-4.92 4.49-2.1-1.61-2.82-4.49-3.48-6.89-.94-3.43-2.02-6.83-2.9-10.28-2.07-8.11-3.8-16.5-4.37-24.88.32-.21.66-.53 1.03-.99 6.04-7.53 11.84-15.87 16.71-24.2 1.75-3 3.1-5.96 3.98-8.96 4.91 1.59 16.36 3.73 20.43-1.06-1.78 8.76-3.9 18.88-4.86 21.78zm10.62 5.17c-2.76-4.38-6.25-12.12-7.16-14.85 1.93-8.95 4.21-20.76 4.97-24.71 1.41.76 2.95 1.36 4.47 1.91 7.83 2.78 13.51 6.71 18.94 12.19l-.02.06.08.19c.02.06 2.37 5.86 3.62 11.94 1 4.88 1.67 14.66 1.91 18.44-1.16 4.21-2.77 9.23-4.41 12.91-.74 1.67-1.45 2.93-2.54 3.55-.68-7.55-2.65-14.76-5.76-21.67-1.32-2.94-3.52-9.56-7.42-9.99-4.05-.44-.72 8.33-.39 9.32 2.57 7.65 4.7 15.17 8.7 22.13-.56-.15-1.11-.31-1.66-.5-4.63-1.55-7.08-4.46-8.89-8.09-.79-3.56-2.31-9.45-4.44-12.83zm18.05 23.22c.49.11.97.16 1.41.09 1.63 8.42 5.42 15.5 9.2 23.2a59.29 59.29 0 013.31 8.3c.8 11.37 1.6 24.75.53 36.21-.44 4.69-3.9 3.25-4.97.33l-.09-.27-.03-.11c-.04-.13-.07-.25-.09-.38-.43-2.08-.68-4.2-1.07-6.29-.83-4.42-2.78-9.83-4-14.3-.51-11.46-3.89-23.03-9.7-32.63 3.55-3.94 5.46-8.82 5.5-14.15zm-1.79-1.45c-.13-.04-.26-.07-.39-.11-3.41-5.71-5.71-11.91-7.65-18.28-.63-2.08-1.34-4.13-2-6.2-.14-.43-2.35-9.05 1.39-6.29.9.66 1.65 1.46 2.24 2.42 5.43 8.43 8.5 18.67 9.36 28.58-.77.23-1.71.22-2.95-.12zm-10.9 3.59c-.53-3.37-.36-9.5-.36-9.56-.01-.09-.07-.42-.17-.93 1.97 3.2 4.67 5.65 9.22 6.95 1.12.32 2.27.88 3.35 1.22 0 5.17-1.81 9.9-5.24 13.74-1.17-1.88-2.89-4.36-4.02-5.69-.02-.02-2.26-2.48-2.78-5.73zm8.07 38.89c-2.97-7.87-6.05-16-6.24-20.6-.28-6.75.54-10.32.9-11.51 11.79 15.07 16.21 37.42 11.59 56.07-.02-1.86-.25-3.93-.57-6.15-.6-4.14-3.02-10.78-5.68-17.81zm13.51 74.15c-.68-.38-1.88-1.39-1.88-3.83 0-.1-.01-.29-.01-.44l5.48-5.61a604.64 604.64 0 01-3.59 9.88zm5.24-14.88c-.13.5-.42 1.43-.82 2.59l-8.75 8.95c-.32-.55-.78-1.46-1.07-2.53.55-.46 3.92-3.32 7.1-6.67 1.62-1.7 3.18-4 4.26-5.98-.2 1.33-.44 2.54-.72 3.64zm1.46-33.7c.39 10.96.36 19.71-.27 26.3-.35 1.54-2.78 6.12-5.51 8.99-2.71 2.85-5.58 5.35-6.65 6.27-.7-1.05-2.15-3.75-.46-6.33.86-1.32 4.47-4.52 4.69-5.37.01-.03.18-2.55.88-5.17.02-.08.02-.15.02-.21.34-1.58.35-3 .12-4.22-.18-3.57-4.27-6.9-6.13-7.56.39.54 1.32 1.63 2.29 2.94-.27-.01-.53.06-.77.21-1.6 1.03-1.9 3.29-2.23 5.69-.25 1.89-.52 3.84-1.41 5.25-1.33 2.1-2.71 1.09-2.88-.62-.21-2.1-.31-4.9-.29-7.46l.08-1.44c.3-5.36.93-8.93 3.26-12.62.45-.72.77-1.56.98-2.5 2.03-6.08 2.98-12.67 2.94-19.35 1.06 3.37 2.37 7.1 2.95 10.15.56 2.99.65 6.36 1.61 9.26.58 1.74 2.56 4.06 4.87 3.32 2.25-.72 1.74-12.77 1.78-14.29.2-7.47 0-14.93-.47-22.39 1.17 4.93 1.69 9.99 1.66 15.22-.7 4.78-1.27 9.95-1.06 15.93zm3.73-40.47v.61c0 .13-.01.26-.01.4 0 .2-.01.4-.02.6-.01.15-.01.29-.02.44-.01.27-.02.54-.04.82-.26 4.25-.73 8.18-1.24 12.34-.21 1.71-.47 3.44-.73 5.21-.3-7.14-1.62-14.2-4.7-20.74-4.04-8.61-8.67-16.53-10.49-25.9.54-.26 1.02-.75 1.42-1.6.33-.69.65-1.41.97-2.16 1.65 6.47 7.87 10.29 11.8 15.55.28.44 2.83 4.74 3.05 13.17v.25c.01.22.01.44.01.67v.34z"
     stroke="#504945"
     stroke-opacity="1" /><g
     id="g1011"
     transform="translate(-122.325 -368.074)"
     fill="#982823"
     fill-opacity=".5"
     stroke="#982823"
     stroke-width=".3"
     stroke-miterlimit="4"
     stroke-dasharray="none"
     stroke-opacity="1"
     style="fill:#689d6a;fill-opacity:1;stroke:#689d6a;stroke-opacity:1"><path
       class="st0"
       d="M418.44 444.92c-2.94 1.51-8.31 5.17-9.04 17.27"
       id="path960"
       fill="#982823"
       fill-opacity=".5"
       stroke="#982823"
       stroke-width=".3"
       stroke-miterlimit="4"
       stroke-dasharray="none"
       stroke-opacity="1"
       style="fill:#689d6a;fill-opacity:1;stroke:#689d6a;stroke-opacity:1" /><path
       class="st1"
       d="M179.12 456.44c-2.47 7.3-3.8 15.05-4.29 23.11-.34 5.67-.47 11.39-.48 17.1-2.91 3.84-9.47 2.61-10.31-2.9l-.05-.13c-2.07-13.06-3.58-26.16-1.89-39.26l.08-.2c1.38-4.12 3.97-11.28 5.73-16.12l.05-.11c.85-1.94 1.69-3.9 2.51-5.85 5.89 6.86 8.91 15.36 8.65 24.36"
       id="path962"
       fill="#982823"
       fill-opacity=".5"
       stroke="#982823"
       stroke-width=".3"
       stroke-miterlimit="4"
       stroke-dasharray="none"
       stroke-opacity="1"
       style="fill:#689d6a;fill-opacity:1;stroke:#689d6a;stroke-opacity:1" /><path
       class="st1"
       d="M246.19 456.44c2.47 7.3 3.8 15.05 4.29 23.11.34 5.67.46 11.39.48 17.1 2.91 3.84 9.47 2.61 10.31-2.9l.05-.13c2.07-13.06 3.58-26.16 1.89-39.26l-.08-.2c-1.38-4.12-3.97-11.28-5.73-16.12l-.05-.11c-.85-1.94-1.69-3.9-2.51-5.85-5.9 6.86-8.91 15.36-8.65 24.36"
       id="path964"
       fill="#982823"
       fill-opacity=".5"
       stroke="#982823"
       stroke-width=".3"
       stroke-miterlimit="4"
       stroke-dasharray="none"
       stroke-opacity="1"
       style="fill:#689d6a;fill-opacity:1;stroke:#689d6a;stroke-opacity:1" /><path
       class="st2"
       d="M176.11 468.4c-.24-9.9-2.8-19.55-7.44-28.05.18-.13.37-.25.56-.36 4.26 7.8 6.79 16.57 7.41 25.63-.19.92-.37 1.85-.53 2.78m-8.4-29.75s-.01 0 0 0c.06-.2.13-.38.2-.57.02-.04.03-.08.05-.12l-.01.04c-.08.21-.16.43-.24.65"
       id="path966"
       fill="#982823"
       fill-opacity=".5"
       stroke="#982823"
       stroke-width=".3"
       stroke-miterlimit="4"
       stroke-dasharray="none"
       stroke-opacity="1"
       style="fill:#689d6a;fill-opacity:1;stroke:#689d6a;stroke-opacity:1" /><path
       class="st2"
       d="M171.9 498.5c3.19-19.76.99-38.36-6.37-53.86.11-.3.21-.59.32-.89 7.58 15.62 9.93 34.41 6.78 54.4-.22.12-.45.23-.68.32-.02.02-.04.03-.05.03"
       id="path968"
       fill="#982823"
       fill-opacity=".5"
       stroke="#982823"
       stroke-width=".3"
       stroke-miterlimit="4"
       stroke-dasharray="none"
       stroke-opacity="1"
       style="fill:#689d6a;fill-opacity:1;stroke:#689d6a;stroke-opacity:1" /><path
       class="st2"
       d="M169.93 498.88c.88-18-1.14-34.14-6.17-49.27l.36-1.02c5.25 15.43 7.37 31.87 6.48 50.24-.23.03-.45.04-.67.05"
       id="path970"
       fill="#982823"
       fill-opacity=".5"
       stroke="#982823"
       stroke-width=".3"
       stroke-miterlimit="4"
       stroke-dasharray="none"
       stroke-opacity="1"
       style="fill:#689d6a;fill-opacity:1;stroke:#689d6a;stroke-opacity:1" /><path
       class="st2"
       d="M168.5 498.73c-.26-.06-.52-.14-.78-.24-4.61-14.28-5.1-29.11-5.12-45.54.17-.49.34-1 .53-1.54.08.06.13.15.13.27 0 17.01.4 32.29 5.21 46.95l.03.1"
       id="path972"
       fill="#982823"
       fill-opacity=".5"
       stroke="#982823"
       stroke-width=".3"
       stroke-miterlimit="4"
       stroke-dasharray="none"
       stroke-opacity="1"
       style="fill:#689d6a;fill-opacity:1;stroke:#689d6a;stroke-opacity:1" /><path
       class="st2"
       d="M249.2 468.4c-.16-.93-.34-1.85-.53-2.77.61-9.06 3.15-17.84 7.41-25.64.19.11.38.23.57.36-4.64 8.5-7.21 18.15-7.45 28.05"
       id="path974"
       fill="#982823"
       fill-opacity=".5"
       stroke="#982823"
       stroke-width=".3"
       stroke-miterlimit="4"
       stroke-dasharray="none"
       stroke-opacity="1"
       style="fill:#689d6a;fill-opacity:1;stroke:#689d6a;stroke-opacity:1" /><path
       class="st2"
       d="M253.41 498.5c-.25-.09-.49-.2-.72-.33-3.15-20-.81-38.78 6.77-54.4.11.29.21.59.32.89-7.36 15.5-9.56 34.09-6.37 53.84"
       id="path976"
       fill="#982823"
       fill-opacity=".5"
       stroke="#982823"
       stroke-width=".3"
       stroke-miterlimit="4"
       stroke-dasharray="none"
       stroke-opacity="1"
       style="fill:#689d6a;fill-opacity:1;stroke:#689d6a;stroke-opacity:1" /><path
       class="st2"
       d="M255.39 498.88c-.22 0-.45-.02-.67-.05-.89-18.36 1.22-34.8 6.47-50.22.12.34.24.69.36 1.02-5.03 15.12-7.04 31.25-6.16 49.25"
       id="path978"
       fill="#982823"
       fill-opacity=".5"
       stroke="#982823"
       stroke-width=".3"
       stroke-miterlimit="4"
       stroke-dasharray="none"
       stroke-opacity="1"
       style="fill:#689d6a;fill-opacity:1;stroke:#689d6a;stroke-opacity:1" /><path
       class="st2"
       d="M256.82 498.73l.03-.09c4.81-14.66 5.2-29.94 5.2-46.95 0-.11.05-.2.13-.26.19.54.37 1.07.54 1.56-.03 16.42-.51 31.24-5.12 45.51-.26.09-.52.17-.78.23"
       id="path980"
       fill="#982823"
       fill-opacity=".5"
       stroke="#982823"
       stroke-width=".3"
       stroke-miterlimit="4"
       stroke-dasharray="none"
       stroke-opacity="1"
       style="fill:#689d6a;fill-opacity:1;stroke:#689d6a;stroke-opacity:1" /><path
       class="st3"
       d="M166.15 442.91c.54-1.5 1.07-2.95 1.55-4.26.33.56.65 1.12.96 1.69-.92.64-1.72 1.47-2.38 2.37l-.13.2m3.08-2.92c-.37-.68-.76-1.36-1.15-2.02a.236.236 0 00-.08-.09c.31-.73.63-1.46.94-2.19.18-.43.37-.85.55-1.28.33-.77.66-1.54.99-2.32 2.03 2.37 3.71 4.94 5.04 7.66a6.769 6.769 0 00-5.11-.31c-.41.15-.8.33-1.18.55"
       id="path982"
       fill="#982823"
       fill-opacity=".5"
       stroke="#982823"
       stroke-width=".3"
       stroke-miterlimit="4"
       stroke-dasharray="none"
       stroke-opacity="1"
       style="fill:#689d6a;fill-opacity:1;stroke:#689d6a;stroke-opacity:1" /><path
       class="st4"
       d="M168.67 440.35c-.31-.57-.63-1.13-.96-1.69.08-.22.16-.44.24-.65l.01-.04c.01-.03.03-.06.04-.09.03.02.06.05.08.09.4.67.78 1.34 1.15 2.02-.19.11-.38.23-.56.36"
       id="path984"
       fill="#982823"
       fill-opacity=".5"
       stroke="#982823"
       stroke-width=".3"
       stroke-miterlimit="4"
       stroke-dasharray="none"
       stroke-opacity="1"
       style="fill:#689d6a;fill-opacity:1;stroke:#689d6a;stroke-opacity:1" /><path
       class="st3"
       d="M259.13 442.87l-.1-.15c-.67-.9-1.47-1.73-2.39-2.37.31-.57.63-1.13.96-1.69.48 1.29 1 2.72 1.53 4.21m-3.05-2.88c-.38-.21-.77-.4-1.18-.54-.7-.24-1.43-.36-2.17-.36-1.01 0-2.02.23-2.94.67 1.33-2.71 3.01-5.28 5.04-7.65.79 1.9 1.61 3.79 2.43 5.67.02.04.03.07.05.11-.03.02-.06.05-.08.09-.39.65-.78 1.33-1.15 2.01"
       id="path986"
       fill="#982823"
       fill-opacity=".5"
       stroke="#982823"
       stroke-width=".3"
       stroke-miterlimit="4"
       stroke-dasharray="none"
       stroke-opacity="1"
       style="fill:#689d6a;fill-opacity:1;stroke:#689d6a;stroke-opacity:1" /><path
       class="st4"
       d="M256.65 440.34c-.18-.13-.37-.25-.57-.36.37-.68.76-1.35 1.15-2.02.02-.04.05-.07.08-.09.01.03.02.06.04.08l.03.08c.07.2.15.4.22.61-.32.57-.64 1.13-.95 1.7"
       id="path988"
       fill="#982823"
       fill-opacity=".5"
       stroke="#982823"
       stroke-width=".3"
       stroke-miterlimit="4"
       stroke-dasharray="none"
       stroke-opacity="1"
       style="fill:#689d6a;fill-opacity:1;stroke:#689d6a;stroke-opacity:1" /></g><g
     id="g1093"
     transform="translate(-121.645 -368.764)"
     fill="#982823"
     fill-opacity=".5"
     stroke="#982823"
     stroke-width=".3"
     stroke-miterlimit="4"
     stroke-dasharray="none"
     stroke-opacity="1"
     style="fill:#689d6a;fill-opacity:1;stroke:#689d6a;stroke-opacity:1"><path
       class="st0"
       d="M418.44 444.92c-2.94 1.51-8.31 5.17-9.04 17.27"
       id="path1015"
       fill="#982823"
       fill-opacity=".5"
       stroke="#982823"
       stroke-width=".3"
       stroke-miterlimit="4"
       stroke-dasharray="none"
       stroke-opacity="1"
       style="fill:#689d6a;fill-opacity:1;stroke:#689d6a;stroke-opacity:1" /><g
       id="g1061"
       fill="#982823"
       fill-opacity=".5"
       stroke="#982823"
       stroke-width=".3"
       stroke-miterlimit="4"
       stroke-dasharray="none"
       stroke-opacity="1"
       style="fill:#689d6a;fill-opacity:1;stroke:#689d6a;stroke-opacity:1"><g
         id="g1037"
         style="fill:#689d6a;fill-opacity:1;stroke:#689d6a;stroke-opacity:1"><path
           class="st1"
           d="M228.95 473.32c0 2.81.97 5.71 1.9 8.5.48 1.43.97 2.91 1.31 4.3l.91 2.09c2.33 5.31 4.68 10.66 6.66 16.11 2.77 3.79 8.34 2.84 10-1.09v-.01c.01-7.03-.1-14.04-.34-21.05-.3-8.51-1.63-16.74-4.25-24.48l-.13-.36c-1.97-5.72-4.65-11.15-8.16-16.23-.51 1.33-.96 2.61-1.3 3.83-.28 5.79-2.16 10.9-3.72 16.2-1.25 4.22-2.44 8.21-2.88 12.19"
           id="path1017"
           fill="#982823"
           fill-opacity=".5"
           stroke="#982823"
           stroke-width=".3"
           stroke-miterlimit="4"
           stroke-dasharray="none"
           stroke-opacity="1"
           style="fill:#689d6a;fill-opacity:1;stroke:#689d6a;stroke-opacity:1" /><path
           class="st2"
           d="M243.75 506.68c-.25-.03-.51-.07-.76-.14-1.37-3.69-3.06-7.39-4.69-10.97-1.07-2.35-2.15-4.71-3.15-7.1-.14-.86-.26-1.72-.37-2.58 1.26 3.19 2.69 6.33 4.12 9.44 1.7 3.7 3.45 7.53 4.85 11.35m-13.43-40.24v-.02c.37-1.41.79-2.83 1.21-4.28v.01a239.6 239.6 0 00-1.21 4.29"
           id="path1019"
           fill="#982823"
           fill-opacity=".5"
           stroke="#982823"
           stroke-width=".3"
           stroke-miterlimit="4"
           stroke-dasharray="none"
           stroke-opacity="1"
           style="fill:#689d6a;fill-opacity:1;stroke:#689d6a;stroke-opacity:1" /><path
           class="st2"
           d="M246.18 506.44c-4.29-8.71-9.16-18.64-11.87-28.9.01-.89.04-1.79.08-2.68 2.57 11.31 7.97 22.33 12.41 31.35-.2.08-.41.16-.62.23"
           id="path1021"
           fill="#982823"
           fill-opacity=".5"
           stroke="#982823"
           stroke-width=".3"
           stroke-miterlimit="4"
           stroke-dasharray="none"
           stroke-opacity="1"
           style="fill:#689d6a;fill-opacity:1;stroke:#689d6a;stroke-opacity:1" /><path
           class="st2"
           d="M249.35 481.2a67.278 67.278 0 00-8.69-24.06c.21-.08.43-.15.65-.2a68.496 68.496 0 017.66 18.93c.18 1.76.3 3.54.38 5.33m-14.26-32.05c0-.01 0-.01 0 0 .05-.29.1-.59.14-.88 0 0 0 0 0 0-.04.29-.09.58-.14.88"
           id="path1023"
           fill="#982823"
           fill-opacity=".5"
           stroke="#982823"
           stroke-width=".3"
           stroke-miterlimit="4"
           stroke-dasharray="none"
           stroke-opacity="1"
           style="fill:#689d6a;fill-opacity:1;stroke:#689d6a;stroke-opacity:1" /><path
           class="st2"
           d="M247.98 505.5c-4.38-12.26-9.04-26.35-12.1-41.34.11-.47.24-.94.39-1.4 2.96 15.11 7.57 29.16 12.25 42.27-.17.16-.35.32-.54.47m.63-.57c-.67-15.65-2.49-31.88-10.19-46.23.16-.18.33-.35.51-.51 7.73 14.29 9.61 30.41 10.31 45.95-.18.28-.4.55-.63.79m-14.56-51.22v0c.21-.79.41-1.58.6-2.38 0 0 0 0 0 0-.18.8-.38 1.59-.6 2.38"
           id="path1025"
           fill="#982823"
           fill-opacity=".5"
           stroke="#982823"
           stroke-width=".3"
           stroke-miterlimit="4"
           stroke-dasharray="none"
           stroke-opacity="1"
           style="fill:#689d6a;fill-opacity:1;stroke:#689d6a;stroke-opacity:1" /><path
           class="st3"
           d="M240.1 504.74c-.11-.13-.23-.25-.34-.4-1.98-5.45-4.34-10.81-6.67-16.13l-.92-2.09c-.31-1.27-.75-2.6-1.18-3.91-.04-.13-.09-.25-.13-.38-.13-.38-.25-.76-.38-1.15-.8-2.44-1.52-4.94-1.52-7.36.25-2.28.75-4.56 1.37-6.88-.45 7.69 1.86 14.97 4.83 22.03.91 5.61 2.57 11.1 4.94 16.27m-5.31-18.85c-2.98-7.56-4.93-15.39-3.25-23.74.08-.28.16-.55.25-.83.02-.07.04-.14.06-.2.16-.54.33-1.08.49-1.62-.43 6.01.41 12.08 1.98 18.04-.03 2.78.13 5.58.47 8.35m-.39-11.04c-1.42-6.28-1.98-12.66-1-18.83.22-.75.44-1.5.64-2.25 0-.02.01-.04.01-.06.51 3.52 1.13 7.01 1.83 10.44-.09.37-.17.73-.25 1.1a62.1 62.1 0 00-1.23 9.6m1.87-12.1c-.67-3.41-1.25-6.88-1.73-10.4 1.44 2.07 2.73 4.18 3.89 6.34-1.03 1.13-1.69 2.56-2.16 4.06m2.67-4.56a64.597 64.597 0 00-4.29-6.86c.16-.72.31-1.45.44-2.18 2.06 2.54 3.92 5.21 5.57 7.99-.54.2-1.05.49-1.5.85-.07.06-.15.13-.22.2m6.07-.82c-.68-.4-1.5-.59-2.34-.59-.45 0-.91.05-1.35.16a70.08 70.08 0 00-6.08-8.68c.17-1.11.29-2.25.34-3.41.04-.13.07-.26.11-.39.07-.23.11-.54.18-.78.28-.87.63-1.78.98-2.69 3.51 5.08 6.19 10.61 8.16 16.33v.05"
           id="path1027"
           fill="#982823"
           fill-opacity=".5"
           stroke="#982823"
           stroke-width=".3"
           stroke-miterlimit="4"
           stroke-dasharray="none"
           stroke-opacity="1"
           style="fill:#689d6a;fill-opacity:1;stroke:#689d6a;stroke-opacity:1" /><path
           class="st4"
           d="M235.15 488.47c-2.97-7.07-5.28-14.34-4.83-22.03.37-1.41.79-2.83 1.21-4.28-1.68 8.34.27 16.17 3.25 23.74.11.85.23 1.71.37 2.57"
           id="path1029"
           fill="#982823"
           fill-opacity=".5"
           stroke="#982823"
           stroke-width=".3"
           stroke-miterlimit="4"
           stroke-dasharray="none"
           stroke-opacity="1"
           style="fill:#689d6a;fill-opacity:1;stroke:#689d6a;stroke-opacity:1" /><path
           class="st4"
           d="M234.32 477.53c-1.57-5.96-2.41-12.03-1.98-18.04.36-1.16.72-2.31 1.06-3.48-.97 6.18-.42 12.55 1 18.83-.05.9-.08 1.8-.08 2.69"
           id="path1031"
           fill="#982823"
           fill-opacity=".5"
           stroke="#982823"
           stroke-width=".3"
           stroke-miterlimit="4"
           stroke-dasharray="none"
           stroke-opacity="1"
           style="fill:#689d6a;fill-opacity:1;stroke:#689d6a;stroke-opacity:1" /><path
           class="st4"
           d="M240.66 457.14a69.252 69.252 0 00-5.57-7.99c.05-.29.1-.59.14-.88 2.26 2.74 4.29 5.64 6.08 8.68a4.3 4.3 0 00-.65.19"
           id="path1033"
           fill="#982823"
           fill-opacity=".5"
           stroke="#982823"
           stroke-width=".3"
           stroke-miterlimit="4"
           stroke-dasharray="none"
           stroke-opacity="1"
           style="fill:#689d6a;fill-opacity:1;stroke:#689d6a;stroke-opacity:1" /><path
           class="st4"
           d="M235.88 464.16c-.7-3.44-1.32-6.92-1.83-10.44.21-.79.41-1.58.6-2.38 1.6 2.23 3.02 4.52 4.29 6.86-.18.16-.35.33-.51.51a63.438 63.438 0 00-3.89-6.34c.48 3.52 1.07 6.99 1.73 10.4-.15.45-.27.91-.39 1.39"
           id="path1035"
           fill="#982823"
           fill-opacity=".5"
           stroke="#982823"
           stroke-width=".3"
           stroke-miterlimit="4"
           stroke-dasharray="none"
           stroke-opacity="1"
           style="fill:#689d6a;fill-opacity:1;stroke:#689d6a;stroke-opacity:1" /></g><g
         id="g1059"
         style="fill:#689d6a;fill-opacity:1;stroke:#689d6a;stroke-opacity:1"><path
           class="st1"
           d="M195.24 473.32c0 2.81-.97 5.71-1.9 8.5-.48 1.43-.97 2.91-1.31 4.3l-.91 2.09c-2.33 5.31-4.68 10.66-6.66 16.11-2.77 3.79-8.34 2.84-10-1.09v-.01c-.01-7.03.1-14.04.34-21.05.3-8.51 1.63-16.74 4.25-24.48l.13-.36c1.97-5.72 4.65-11.15 8.16-16.23.51 1.33.96 2.61 1.3 3.83.28 5.79 2.16 10.9 3.72 16.2 1.25 4.22 2.43 8.21 2.88 12.19"
           id="path1039"
           fill="#982823"
           fill-opacity=".5"
           stroke="#982823"
           stroke-width=".3"
           stroke-miterlimit="4"
           stroke-dasharray="none"
           stroke-opacity="1"
           style="fill:#689d6a;fill-opacity:1;stroke:#689d6a;stroke-opacity:1" /><path
           class="st2"
           d="M180.43 506.68c1.41-3.82 3.16-7.65 4.85-11.35 1.42-3.11 2.86-6.25 4.12-9.44-.11.86-.23 1.72-.37 2.58-1 2.39-2.08 4.75-3.15 7.1-1.63 3.58-3.32 7.29-4.69 10.97-.25.06-.5.11-.76.14m13.43-40.24c-.37-1.41-.79-2.83-1.21-4.28v-.01c.43 1.45.84 2.87 1.21 4.28v.01"
           id="path1041"
           fill="#982823"
           fill-opacity=".5"
           stroke="#982823"
           stroke-width=".3"
           stroke-miterlimit="4"
           stroke-dasharray="none"
           stroke-opacity="1"
           style="fill:#689d6a;fill-opacity:1;stroke:#689d6a;stroke-opacity:1" /><path
           class="st2"
           d="M178 506.44c4.29-8.71 9.16-18.64 11.87-28.9-.01-.89-.04-1.79-.08-2.68-2.57 11.31-7.97 22.33-12.41 31.35.2.08.41.16.62.23"
           id="path1043"
           fill="#982823"
           fill-opacity=".5"
           stroke="#982823"
           stroke-width=".3"
           stroke-miterlimit="4"
           stroke-dasharray="none"
           stroke-opacity="1"
           style="fill:#689d6a;fill-opacity:1;stroke:#689d6a;stroke-opacity:1" /><path
           class="st2"
           d="M174.83 481.2c.08-1.79.2-3.57.38-5.33a68.19 68.19 0 017.66-18.93c.22.05.44.12.65.2a67.73 67.73 0 00-8.69 24.06m14.27-32.05c-.05-.29-.1-.59-.14-.88 0 0 0 0 0 0 .04.29.09.58.14.88 0-.01 0-.01 0 0"
           id="path1045"
           fill="#982823"
           fill-opacity=".5"
           stroke="#982823"
           stroke-width=".3"
           stroke-miterlimit="4"
           stroke-dasharray="none"
           stroke-opacity="1"
           style="fill:#689d6a;fill-opacity:1;stroke:#689d6a;stroke-opacity:1" /><path
           class="st2"
           d="M176.2 505.5c-.19-.15-.37-.3-.54-.47 4.68-13.11 9.29-27.16 12.25-42.27.15.46.27.93.39 1.4-3.05 14.99-7.71 29.08-12.1 41.34m-.63-.57c-.23-.24-.44-.5-.63-.79.7-15.54 2.58-31.66 10.31-45.95.18.16.35.33.51.51-7.7 14.35-9.52 30.58-10.19 46.23m14.56-51.22c-.21-.79-.41-1.58-.6-2.38 0 0 0 0 0 0 .19.8.39 1.59.6 2.38v0"
           id="path1047"
           fill="#982823"
           fill-opacity=".5"
           stroke="#982823"
           stroke-width=".3"
           stroke-miterlimit="4"
           stroke-dasharray="none"
           stroke-opacity="1"
           style="fill:#689d6a;fill-opacity:1;stroke:#689d6a;stroke-opacity:1" /><path
           class="st3"
           d="M184.09 504.74a63.906 63.906 0 004.95-16.27c2.97-7.07 5.28-14.34 4.83-22.03.61 2.33 1.11 4.61 1.37 6.88 0 2.42-.72 4.92-1.52 7.36-.13.38-.25.77-.38 1.15-.04.13-.08.25-.13.38-.44 1.31-.88 2.65-1.18 3.91l-.92 2.09c-2.33 5.32-4.69 10.68-6.67 16.13-.12.15-.24.27-.35.4m5.31-18.85c.34-2.77.49-5.56.47-8.35 1.57-5.96 2.41-12.03 1.98-18.04.16.54.33 1.08.49 1.62.02.07.04.14.06.2.08.28.16.56.25.83 1.68 8.34-.27 16.18-3.25 23.74m.39-11.04c-.16-3.22-.58-6.44-1.24-9.6-.08-.36-.16-.73-.25-1.1.7-3.44 1.32-6.92 1.83-10.44 0 .02.01.04.01.06.2.75.42 1.5.64 2.25.98 6.17.43 12.55-.99 18.83m-1.87-12.1c-.47-1.5-1.13-2.93-2.16-4.06 1.16-2.16 2.45-4.28 3.89-6.34-.48 3.52-1.06 6.99-1.73 10.4m-2.67-4.56l-.23-.2c-.44-.36-.95-.65-1.5-.85 1.66-2.78 3.52-5.45 5.57-7.99.13.74.28 1.46.44 2.18a66.153 66.153 0 00-4.28 6.86m-6.08-.82v-.04c1.97-5.72 4.65-11.25 8.16-16.33.35.92.7 1.83.98 2.69.07.23.12.55.18.78.04.13.08.26.11.39.05 1.16.17 2.29.34 3.41a67.306 67.306 0 00-6.08 8.68 5.6 5.6 0 00-1.35-.16c-.83-.01-1.65.18-2.34.58"
           id="path1049"
           fill="#982823"
           fill-opacity=".5"
           stroke="#982823"
           stroke-width=".3"
           stroke-miterlimit="4"
           stroke-dasharray="none"
           stroke-opacity="1"
           style="fill:#689d6a;fill-opacity:1;stroke:#689d6a;stroke-opacity:1" /><path
           class="st4"
           d="M189.03 488.47c2.97-7.07 5.28-14.34 4.83-22.03-.37-1.41-.79-2.83-1.21-4.28 1.68 8.34-.27 16.17-3.25 23.74a79.5 79.5 0 01-.37 2.57"
           id="path1051"
           fill="#982823"
           fill-opacity=".5"
           stroke="#982823"
           stroke-width=".3"
           stroke-miterlimit="4"
           stroke-dasharray="none"
           stroke-opacity="1"
           style="fill:#689d6a;fill-opacity:1;stroke:#689d6a;stroke-opacity:1" /><path
           class="st4"
           d="M189.87 477.53c1.57-5.96 2.41-12.03 1.98-18.04-.36-1.16-.72-2.31-1.06-3.48.97 6.18.42 12.55-1 18.83.04.9.07 1.8.08 2.69"
           id="path1053"
           fill="#982823"
           fill-opacity=".5"
           stroke="#982823"
           stroke-width=".3"
           stroke-miterlimit="4"
           stroke-dasharray="none"
           stroke-opacity="1"
           style="fill:#689d6a;fill-opacity:1;stroke:#689d6a;stroke-opacity:1" /><path
           class="st4"
           d="M183.52 457.14c1.66-2.78 3.52-5.45 5.57-7.99-.05-.29-.1-.59-.14-.88a67.306 67.306 0 00-6.08 8.68c.22.04.44.11.65.19"
           id="path1055"
           fill="#982823"
           fill-opacity=".5"
           stroke="#982823"
           stroke-width=".3"
           stroke-miterlimit="4"
           stroke-dasharray="none"
           stroke-opacity="1"
           style="fill:#689d6a;fill-opacity:1;stroke:#689d6a;stroke-opacity:1" /><path
           class="st4"
           d="M188.3 464.16c.7-3.44 1.32-6.92 1.83-10.44-.21-.79-.41-1.58-.6-2.38-1.6 2.23-3.02 4.52-4.29 6.86.18.16.35.33.51.51 1.16-2.16 2.45-4.28 3.89-6.34-.48 3.52-1.07 6.99-1.73 10.4.15.45.28.91.39 1.39"
           id="path1057"
           fill="#982823"
           fill-opacity=".5"
           stroke="#982823"
           stroke-width=".3"
           stroke-miterlimit="4"
           stroke-dasharray="none"
           stroke-opacity="1"
           style="fill:#689d6a;fill-opacity:1;stroke:#689d6a;stroke-opacity:1" /></g></g></g></svg>
