<svg xmlns="http://www.w3.org/2000/svg" viewBox="0 0 347.635 274.141" width="256" height="256"><g fill="#928374" fill-opacity=".5"><path d="M34.86 222.868a14.837 14.837 0 01-3.073-.748 57.543 57.543 0 01-3.459-1.179c-2.836-1.046-8.053-2.977-12.05-7.215H9.683c-3.89 0-7.074 3.183-7.074 7.074 0 3.89 3.183 7.073 7.074 7.073h1.903C4.689 231.64 0 238.96 0 247.355v26.786h10v-26.787c0-6.716 5.464-12.18 12.18-12.18h66.756l-9.04-6.416-45.037-5.89z"/><path d="M347.635 264.14H322.33V36.857h10.79v-20h-84.522L217.132 0l-9.444 17.629 6.875 3.683-3.848 6.88c-2.272 4.063-.808 9.246 3.255 11.518a8.38 8.38 0 002.156.834l15.797 147.997H229.8c-2.2 0-4 1.8-4 4v4.741l-46.67-5.657a4.295 4.295 0 00-8.178-.991l-19.306-2.34.616-3.938a6.018 6.018 0 00-3.29-6.35l-8.732-4.32a5.978 5.978 0 00-5.459.051 6.05 6.05 0 00-1.799 1.425l-38.624-12.025-22.857-23.84a8 8 0 00-1.493-1.211c-.259-.22-.507-.448-.79-.646-7.208-5.045-20.423-5.148-30.368 6.719-8.425 10.174-13.958 18.555-18.268 28.625-2.637 6.16-4.818 12.953-6.922 21.177-2.845 16.154 6.866 21.649 15.464 24.822 1.212.447 2.333.84 3.382 1.151.843.306 1.727.532 2.652.654l45.604 5.964 44.456 31.55a12.44 12.44 0 007.224 2.308c3.913 0 7.767-1.832 10.204-5.267 3.996-5.63 2.67-13.432-2.96-17.428l-46.989-33.347a12.5 12.5 0 00-5.613-2.201l-37.007-4.841c2.322-5.541 5.187-10.964 8.16-16.086 2.01-3.461 4.066-6.78 6.04-9.907l-10.47-8.838a10.23 10.23 0 01-3.618-7.004 10.228 10.228 0 012.393-7.51 10.283 10.283 0 017.873-3.657c2.427 0 4.786.863 6.643 2.432l26.888 22.7 39.622 9.043a10.229 10.229 0 015.488 3.316 8.012 8.012 0 00-3.157-5.263c.076-.048.142-.108.223-.15.443-.23.92-.345 1.398-.345.46 0 .92.106 1.35.319l8.732 4.32a3.03 3.03 0 011.656 3.198l-.636 4.068a1.501 1.501 0 00-1.404 1.31 1.497 1.497 0 00.952 1.577l-.609 3.89a3.03 3.03 0 01-2.554 2.537l-9.634 1.448a3.016 3.016 0 01-1.57-.193c-.81.202-1.653.312-2.52.312-.539 0-1.077-.058-1.612-.143a6.1 6.1 0 00.966 1.276 5.971 5.971 0 004.262 1.784c.304 0 .612-.023.92-.07l9.634-1.447a6.018 6.018 0 005.072-5.04l.617-3.943 19.643 2.38c.028.088.04.176.073.263a4.295 4.295 0 005.57 2.424c.9-.354 1.6-.986 2.07-1.751l47.262 5.729v3.941c0 2.2 1.8 4 4 4h11.288v16.928h-115.1l14.091 10h19.514l-20.481 28.967h-31.417v10h239.94v-10zm-70.897-34.568h11.333l2.186 4.6h-15.705l2.186-4.6zm-4.755-4.737v-3.751h20.842v3.751h-20.842zm0-8.488v-3.752h20.842v3.752h-20.842zm0-8.489v-3.751h20.842v3.751h-20.842zm0-8.488v-3.751h20.842v3.751h-20.842zm0-8.488v-3.752h20.842v3.752h-20.842zm0-8.489V36.856h20.842v145.537h-20.842zM269.33 36.856v145.537h-9.03v4.737h9.031v3.752H260.3v4.736h9.031v3.752H260.3v4.737h9.031v3.751H260.3v4.737h9.031v3.752H260.3v4.737h9.031v3.751H260.3v4.737h4.277l2.185 4.6h-15.673V36.856h18.242zm-18.242 207.316h61.242v19.969h-61.242v-19.97zm61.242-10h-14.283l2.186-4.6h2.887v-4.737h-7.642v-3.751h7.642v-4.737h-7.642v-3.752h7.642v-4.736h-7.642v-3.752h7.642v-4.737h-7.642v-3.751h7.642v-4.737h-7.642v-3.752h7.642v-4.737h-7.642V36.856h16.852v197.316zm10.495-207.39a5.495 5.495 0 11-10.99 0 5.495 5.495 0 0110.99 0zm-76.737-5.494a5.495 5.495 0 110 10.99 5.495 5.495 0 010-10.99zm-31.051 10.046a3.158 3.158 0 113.612 4.58l-.2-1.87a1.499 1.499 0 10-2.983.32l.075.705a3.148 3.148 0 01-.504-3.735zM234.94 188.54L219.16 40.702c2.574-.33 4.97-1.82 6.327-4.246l3.999-7.15 11.602 6.216V188.54h-6.148zm-65.446 46.633h71.594v28.967h-92.075l20.48-28.967z"/><path d="M246.088 24.572a2.21 2.21 0 100 4.421 2.21 2.21 0 000-4.42zm71.242 0a2.21 2.21 0 100 4.421 2.21 2.21 0 000-4.42z"/><circle cx="92.856" cy="120.555" r="22.5" transform="rotate(-45.001 92.855 120.557)"/><path d="M87.473 186.741l42.062 9.6a8.005 8.005 0 009.58-6.02 8.001 8.001 0 00-6.02-9.58l-40.166-9.167-27.316-23.062a7.998 7.998 0 00-11.273.952 8 8 0 00.951 11.273l28.801 24.316a8.002 8.002 0 003.38 1.688z"/></g></svg>