<svg xmlns="http://www.w3.org/2000/svg" viewBox="0 0 340.315 278.171" width="256" height="256"><g fill="#928374" fill-opacity=".5"><path d="M110.089 44.816c-8.576-1.97-20.864 2.891-25.63 17.624-1.391 4.391-2.525 8.438-3.439 12.324l14.04-17.78a10.246 10.246 0 018.088-3.916c2.303 0 4.568.787 6.378 2.217a10.228 10.228 0 013.847 6.88 10.231 10.231 0 01-2.147 7.586L99.29 84.867l17.326 2.816c.953-6.308 2.108-12.281 3.053-17.509l2.075 1.455 5.608 3.93V56.02l-6.624-4.643-5.83-4.086c-1.385-1.193-2.992-2.058-4.81-2.476zm29.845 39.56a8 8 0 005.114 1.431l34.469-2.258c-1.306 5.389-2.022 12.604.559 19.504 2.647 7.078 8.19 12.392 16.471 15.793l.71.292c9.51 3.905 16.05 6.595 20.766 9.743l-4.117-9.127c-4-1.905-8.724-3.848-14.37-6.166l-.71-.291c-6.662-2.737-11.076-6.88-13.12-12.316-2.362-6.284-1.211-13.197.145-17.847l2.587-.17a8 8 0 007.46-8.505 7.974 7.974 0 00-3.034-5.748l13.958-25.126-5.245-2.915-14.643 26.359-40.123 2.628-8.86-6.208v19.537l1.983 1.39z"/><circle cx="125.945" cy="22.5" r="22.5" transform="rotate(-13.928 125.932 22.512)"/><path d="M220.09 201.235l-9.247 29.472 24.383 1.569a41.472 41.472 0 01-4.486-18.788c0-11.334 4.547-21.621 11.904-29.15-4.328-5.213-8.56-10.313-12.517-15.088l-7.63 24.32a53.39 53.39 0 00-2.406 7.665zm30.317-7.552c-4.72 5.257-7.599 12.2-7.599 19.805 0 7.585 2.865 14.51 7.564 19.763l29.609 1.905a17.612 17.612 0 011.918-3.615c-8.13-9.764-19.772-23.753-31.492-37.858zm46.003 30.232c1.268 0 2.502.14 3.695.396a29.51 29.51 0 002.052-10.823c0-16.363-13.311-29.675-29.674-29.675-4.94 0-9.598 1.22-13.7 3.365a52706.854 52706.854 0 0031.493 37.859 17.526 17.526 0 016.134-1.122z"/><path d="M9.095 278.171c4.717 0 8.594-3.591 9.049-8.189h22.601l.31.206.138-.206H166.55c.455 4.598 4.332 8.19 9.049 8.19s8.595-3.592 9.049-8.19h137.523a9.095 9.095 0 0018.144-.905c0-4.857-3.81-8.812-8.602-9.07L319.88 238.98a53.566 53.566 0 006.415-25.493c0-29.014-22.968-52.653-51.712-53.757l-29.975-7.422-2.84-.703L217.1 96.921l12.82-22.206a4.012 4.012 0 00-1.464-5.464l-.62-.358a4.011 4.011 0 00-5.464 1.464l-18.358 31.797a4.012 4.012 0 001.464 5.465l.62.357c1.568.906 3.501.604 4.753-.588l21.764 48.248c5.485 6.628 11.8 14.243 18.331 22.108a41.488 41.488 0 0121.537-6c23.017 0 41.742 18.727 41.742 41.744a41.48 41.48 0 01-3.806 17.382c2.275 2.972 3.643 6.674 3.643 10.698 0 9.733-7.919 17.652-17.652 17.652-5.03 0-9.564-2.126-12.782-5.513a41.616 41.616 0 01-11.145 1.523c-11.282 0-21.526-4.506-29.046-11.804l-35.861-2.308-5.92 18.864h-72.959l11.17-12.765c2.806-3.205 6.041-5.769 9.527-7.637a10.404 10.404 0 009.269 5.675c4.42 0 8.196-2.769 9.71-6.66.28-.72.48-1.478.594-2.266l109.886 7.071a17.78 17.78 0 01-.096-1.832c0-1.433.19-2.819.514-4.153l-102.718-6.61a3.95 3.95 0 00.757-1.99l.022-.265.371-4.35a4.012 4.012 0 00-3.645-4.325l-15.662-1.336-2.451-.21a12.435 12.435 0 001.4-7.057l-5.431-56.085a12.498 12.498 0 00-4.609-8.536l-31.628-25.432a54.8 54.8 0 00-.084-1.237c-.579-3.791-.795-7.733-.778-11.721l-36.11-5.87c-.124-.02-.24-.06-.362-.084.19 4.832.677 9.981 1.455 15.748 1.927 9.027 6.274 13.433 11.34 15.51l36.4 29.271 4.925 50.846c.09.937.293 1.835.574 2.694l-2.454-.21-1.849-.157-9.131-.779a4.012 4.012 0 00-4.326 3.646l-.393 4.614a4.012 4.012 0 003.645 4.326l24.109 2.056 6.586.562c-.014.03-.03.06-.043.09-.409.895-.69 1.856-.831 2.865-4.801 2.251-9.235 5.578-12.998 9.877l-14.629 16.716H47.867l19.09-28.6a39.188 39.188 0 013.125-4.083c1.303 4.271 5.278 7.388 9.97 7.388 5.748 0 10.424-4.677 10.424-10.425 0-.947-.138-1.861-.376-2.734l4.274.364a3.967 3.967 0 002.731-.804l15.469 2.713a6.4 6.4 0 01.018-.506l.394-4.614a6.13 6.13 0 01.145-.874l-14.182-2.487.144-1.688a4.012 4.012 0 00-3.646-4.326l-23.594-2.012a12.438 12.438 0 004.793-2.64l43.2-38.273a12.477 12.477 0 003.122-4.268l-28.68-23.063 3.334 13.62-37.554 33.272c-5.168 4.578-5.645 12.478-1.067 17.645a12.437 12.437 0 003.9 2.944l-21.909-1.87a4.012 4.012 0 00-4.325 3.646l-.394 4.615a4.012 4.012 0 003.646 4.326l29.25 2.495c-2.575 2.234-5.001 5.01-7.203 8.307l-21.312 31.932H9.094a9.095 9.095 0 000 18.19zm149.568-49.765a6.425 6.425 0 110 12.85 6.425 6.425 0 010-12.85zm-72.186-4.144a6.425 6.425 0 11-12.85 0 6.425 6.425 0 0112.85 0z"/><circle cx="158.663" cy="234.831" r="3.263"/><circle cx="80.052" cy="224.262" r="3.263"/><path d="M135.652 91.083v-33.86h-6v32.58l3.642.591c.822.134 1.609.373 2.358.689zm-2.606 19.675c1.706 4.011 4.263 8.166 8.104 11.44 5.752 4.9 13.176 6.854 22.068 5.806l.764-.09c27.74-3.274 32.009-3.778 48.937 16.885 13.36 16.308 51.578 62.246 70.45 84.913a17.744 17.744 0 014.721-3.706c-18.828-22.615-57.156-68.684-70.53-85.01-19.009-23.201-25.778-22.402-54.281-19.04l-.764.09c-7.15.845-13.024-.636-17.449-4.395-3.081-2.617-5.157-6.053-6.558-9.404a10.223 10.223 0 01-5.462 2.511zM296.41 227.915c-7.54 0-13.653 6.112-13.653 13.652 0 7.54 6.113 13.653 13.653 13.653s13.653-6.112 13.653-13.652c0-7.54-6.113-13.653-13.653-13.653zm0 20.077a6.425 6.425 0 110-12.85 6.425 6.425 0 010 12.85z"/><circle cx="296.41" cy="241.567" r="3.263"/><path d="M79.074 100.12l51.284 8.337a8.002 8.002 0 009.18-6.613 8 8 0 00-6.614-9.18L95.063 86.51l14.358-18.184a8 8 0 00-12.557-9.916L74.08 87.266a8.001 8.001 0 004.995 12.855z"/></g></svg>