<svg xmlns="http://www.w3.org/2000/svg" viewBox="0 0 282.552 203.314" width="256" height="256"><g fill="#928374" fill-opacity=".5"><path d="M127.589 187.657l3.23.318.127-8.803H94.61V37.004c0-12.1-9.9-22-22-22H32.484c-12.1 0-22 9.9-22 22v142.168H0v10h122.247a6.282 6.282 0 013.021-1.357c.519-.08 1.048-.095 2.32-.158zM25.484 161.899h13.99v9.137h-13.99v-9.137zm37.484-74.434v3.751H42.126v-3.751h20.842zm-20.842-4.737V30.003H62.97v52.725H42.126zm20.842 13.225v3.752H42.126v-3.752h20.842zm0 8.489v3.751H42.126v-3.751h20.842zm-17.579 12.94l2.116-4.452h11.473l2.116 4.453h1.874v36.516H42.127v-36.516h3.263zM62.97 161.9v9.137H42.125V161.9h20.842zm2.652 0h13.99v9.137H65.62V161.9zm13.99-124.896V153.9H65.62v-36.516h3.263L71 112.93h2.957v-4.737h-8.336v-3.751h8.336v-4.737h-8.336v-3.752h8.336v-4.737h-8.336v-3.751h8.336v-4.737h-8.336V30.003h6.99c3.793 0 7 3.206 7 7zm-47.127-7h6.99v52.725h-8.338v4.737h8.338v3.751h-8.338v4.737h8.338v3.752h-8.338v4.737h8.338v3.751h-8.338v4.737h4.347l2.116 4.453h1.875V153.9h-13.99V37.003c0-3.794 3.206-7 7-7zm209.961 157.654c1.273.063 1.802.078 2.32.157a6.282 6.282 0 013.022 1.358h34.765v-10h-43.464l.128 8.803 3.23-.318zm-91.43-78.136l6.706 2.295v-3.054a5.364 5.364 0 015.358-5.359h7.211a5.364 5.364 0 015.358 5.359v32.597l7.25 9.383a5.324 5.324 0 011.106 3.24v32.97c0 2.922-2.377 5.299-5.3 5.299s-5.3-2.377-5.3-5.3v-7.779h-10.4c3.068-2.7 6.593-5.214 10.4-6.903v-6.45c-4.932 1.749-9.424 4.682-13.276 7.906l-.222 15.33a14.413 14.413 0 01-.147 1.776l5.122.505c1.769.299 3.459 1.724 4.327 3.637h31.618c.868-1.913 2.558-3.338 4.327-3.637l5.122-.505a14.413 14.413 0 01-.148-1.775l-.221-15.331c-3.852-3.224-8.344-6.157-13.277-7.906v6.45c3.808 1.69 7.333 4.203 10.4 6.903h-10.4v7.78c0 2.922-2.377 5.299-5.3 5.299s-5.3-2.377-5.3-5.3v-32.968c0-1.167.393-2.319 1.106-3.24l7.25-9.383v-32.6a5.357 5.357 0 015.358-5.357h7.212a5.357 5.357 0 015.358 5.358v3.055l6.706-2.294a14.513 14.513 0 014.707-.784c1.384 0 2.741.203 4.046.58-.586-27.957-5.136-46.098-13.603-54.074-2.73-2.572-5.404-3.709-7.513-4.19a7.723 7.723 0 00-2.321-.356H165.7c-.814 0-1.597.128-2.334.36-2.107.484-4.775 1.62-7.5 4.187-8.468 7.975-13.018 26.116-13.604 54.073a14.545 14.545 0 014.046-.58c1.604 0 3.188.264 4.707.784z"/><circle cx="185.017" cy="22.5" r="22.5"/><path d="M157.47 190.605c.075-.519.129-1.044.137-1.583l.484-33.528a5.31 5.31 0 01-.37-1.917v-39.33l-7.45-2.55a12.249 12.249 0 00-16.215 11.413l-.94 65.092 24.353 2.403zm-31.799 9.01l37.293 3.68a4.012 4.012 0 004.373-3.589l.157-1.592a4.012 4.012 0 00-3.587-4.373l-37.293-3.68a4.012 4.012 0 00-4.373 3.588l-.158 1.592a4.012 4.012 0 003.588 4.374zm49.977-46.038a5.3 5.3 0 01-.14 1.176l.196.254v31.944a3 3 0 106 0v-32.968a3 3 0 00-.626-1.835l-5.43-7.027v8.456zm-15.627 0a3.067 3.067 0 003.058 3.058h7.211a3.067 3.067 0 003.058-3.058v-44.815a3.067 3.067 0 00-3.058-3.059h-7.211a3.067 3.067 0 00-3.058 3.059v44.815zm52.292-39.33v39.33a5.32 5.32 0 01-.37 1.92l.484 33.526c.008.538.063 1.063.137 1.582l24.355-2.403-.94-65.09a12.249 12.249 0 00-16.216-11.414l-7.45 2.55zm31.107 75.814l-37.293 3.68a4.012 4.012 0 00-3.588 4.373l.158 1.592a4.012 4.012 0 004.373 3.588l37.293-3.68a4.012 4.012 0 003.587-4.373l-.157-1.592a4.012 4.012 0 00-4.373-3.588zm-48.895-35.307a5.349 5.349 0 01-.139-1.176v-8.457l-5.43 7.027a2.998 2.998 0 00-.626 1.835v32.968a3 3 0 106 0v-31.944l.195-.253zm15.488-45.992a3.067 3.067 0 00-3.058-3.059h-7.211a3.067 3.067 0 00-3.058 3.059v44.815a3.067 3.067 0 003.058 3.058h7.211a3.067 3.067 0 003.058-3.058v-44.815z"/></g></svg>