<svg xmlns="http://www.w3.org/2000/svg" viewBox="0 0 282.552 204.593" width="256" height="256"><g fill="#928374" fill-opacity=".5"><path d="M147.691 196.521h5.684v2.905h-5.684zm68.969 0h5.684v2.905h-5.684z"/><circle cx="185.017" cy="22.5" r="22.5"/><path d="M133.138 157.475c0 2.2 1.8 3.517 4 2.928l2.727-.73v-43.769l8.526-2.285v43.769l2.726-.73c2.2-.59 4-2.872 4-5.072V103.88c0-2.2-1.8-3.517-4-2.928l-13.979 3.746c-2.2.59-4 2.872-4 5.072v47.705z"/><path d="M144.128 121.677c-1.36.365-2.463 1.763-2.463 3.124 0 1.36 1.102 2.167 2.463 1.803 1.36-.365 2.463-1.763 2.463-3.123 0-1.36-1.103-2.168-2.463-1.803zm0 21.885c-1.36.364-2.463 1.762-2.463 3.123 0 1.36 1.102 2.167 2.463 1.803s2.463-1.763 2.463-3.123c0-1.36-1.103-2.168-2.463-1.803zm70.79-39.682v47.706c0 2.2 1.8 4.482 4 5.071l2.726.73V113.62l8.526 2.285v43.768l2.727.73c2.2.59 4-.727 4-2.927V109.77c0-2.2-1.8-4.482-4-5.071l-13.98-3.746c-2.2-.59-4 .728-4 2.928z"/><path d="M225.907 126.604c1.36.364 2.463-.443 2.463-1.803 0-1.36-1.103-2.759-2.463-3.123s-2.463.442-2.463 1.803c0 1.36 1.103 2.758 2.463 3.123zm0 21.884c1.36.364 2.463-.443 2.463-1.803 0-1.36-1.103-2.759-2.463-3.123-1.36-.365-2.463.442-2.463 1.803 0 1.36 1.103 2.758 2.463 3.123z"/><path d="M273.121 183.627a6.3 6.3 0 017.668 4.537l.259 1.008h1.504v-10H265.06l-14.204-53.352c-1.424-5.35-6.237-9.012-11.659-9.088v41.36c0 2.598-1.582 4.41-3.833 4.768l4.343 16.312h-2.361c-3.337-2.94-7.207-5.725-11.467-7.704.529-.013.87.014.956.022a3.001 3.001 0 003.31-2.63c.016-.129.008-.255.007-.382l.02.005v-7.2l-8.527-2.285v7.093c-4.67 1.135-11.125 4.337-15.541 13.081h-16.086v-28.704h22.601v-47.204c0-3.474 2.826-5.543 6.3-4.612l8.542 2.289c-1.262-23.227-5.702-38.549-13.29-45.697-2.728-2.569-5.399-3.705-7.506-4.187a7.723 7.723 0 00-2.33-.359H165.7a7.72 7.72 0 00-2.334.36c-2.107.484-4.776 1.62-7.5 4.186-7.59 7.148-12.03 22.47-13.291 45.697l8.542-2.289c3.474-.93 6.3 1.138 6.3 4.612v47.204h22.6v28.704h-16.084c-4.417-8.745-10.872-11.946-15.542-13.08v-7.095l-8.526 2.285v7.201l.032-.009c-.001.12-.01.239.004.36.179 1.639 1.669 2.818 3.296 2.657.078-.007.42-.036.959-.023-4.26 1.98-8.129 4.764-11.466 7.704h-2.36l4.342-16.312c-2.251-.359-3.833-2.17-3.833-4.769v-41.358c-5.426.078-10.235 3.736-11.66 9.088l-14.203 53.351H94.61V37.004c0-12.1-9.9-22-22-22H32.483c-12.1 0-22 9.9-22 22v142.168H0v10h89.184l.258-1.008a6.3 6.3 0 017.668-4.537l31.814 8.164a76.78 76.78 0 012.236-2.619h14.855v5.802h78.005v-5.802h14.844a77.24 77.24 0 012.275 2.662l31.982-8.207zM25.484 161.899h13.99v9.137h-13.99v-9.137zm37.484-37.803v3.752H42.126v-3.752h20.842zm-20.842-4.736V30.003h20.842v89.356H42.126zm20.842 13.225v3.751H42.126v-3.751h20.842zm0 8.488v3.752H42.126v-3.752h20.842zm-3.99 8.489l2.061 4.337H45.444l2.061-4.337h11.473zm3.99 12.337v9.137H42.126v-9.137h20.842zm2.653 0h13.99v9.137H65.62v-9.137zm13.99-124.896V153.9H68.938L71 149.562h2.957v-4.737h-8.336v-3.752h8.336v-4.737h-8.336v-3.751h8.336v-4.737h-8.336v-3.752h8.336v-4.736h-8.336V30.003h6.99c3.793 0 7 3.206 7 7zm-47.127-7h6.99v89.356h-8.338v4.737h8.338v3.752h-8.338v4.737h8.338v3.751h-8.338v4.737h8.338v3.752h-8.338v4.737h4.347l2.061 4.337h-12.06V37.003c0-3.794 3.206-7 7-7zm184.47 144.86c3.711.632 7.26 2.23 10.509 4.31h-14.426c1.24-1.835 2.576-3.242 3.916-4.31zm-63.874 0c1.34 1.068 2.678 2.476 3.917 4.31h-14.44c3.25-2.08 6.803-3.676 10.523-4.31z"/><path d="M96.539 185.855a4.012 4.012 0 00-4.87 2.88l-.397 1.55a4.012 4.012 0 002.88 4.869l36.298 9.314a4.012 4.012 0 004.869-2.88l.397-1.55a4.012 4.012 0 00-2.88-4.869l-36.297-9.314zm182.42 4.43l-.398-1.55a4.012 4.012 0 00-4.868-2.88l-36.298 9.315a4.012 4.012 0 00-2.88 4.868l.398 1.55a4.012 4.012 0 004.868 2.88l36.298-9.314a4.012 4.012 0 002.88-4.869z"/></g></svg>