<svg xmlns="http://www.w3.org/2000/svg" viewBox="0 0 173.108 330.222" width="256" height="256"><g fill="#928374" fill-opacity=".5"><path d="M132.77 241.565a15.289 15.289 0 015 4.284v-93.062l-5 8.31v80.468zm-91.533 0v-80.468l-5-8.31v93.063a15.291 15.291 0 015-4.285zM38.88 74.903a54.79 54.79 0 012.358-.853V25.876c0-4.99 2.645-9.362 6.597-11.824 1.534 3.68 5.172 6.285 9.39 6.285h18.41v50.906h9.369v-16.58c-1.476-.737-2.5-2.248-2.5-4.01s1.024-3.273 2.5-4.012V20.716h4v25.925c1.477.738 2.5 2.249 2.5 4.012s-1.023 3.273-2.5 4.011v16.578h9.369V20.338h18.41c4.219 0 7.856-2.605 9.39-6.285 3.953 2.462 6.598 6.834 6.598 11.824V74.05c.79.265 1.576.55 2.358.853l.023.009a11.09 11.09 0 012.618-1.501V25.876c0-7.578-4.485-14.112-10.931-17.136C126.137 3.82 121.89 0 116.783 0H57.224C52.117 0 47.87 3.82 47.17 8.74c-6.446 3.024-10.932 9.558-10.932 17.136v47.538c.94.378 1.819.885 2.617 1.499l.026-.01zm80.106-64.735a4.213 4.213 0 11-8.425 0 4.213 4.213 0 018.425 0zM59.234 5.956a4.213 4.213 0 110 8.425 4.213 4.213 0 010-8.425z"/><path d="M62.514 22.611h3v48.632h-3zm2.999 255.307h-2.999v.417h-3.858l-1.107 4.768v2.218h4.965v4.251h-4.965v6.986h4.965v4.252h-4.965v6.985h4.965v8.379l2.999-.236v-8.143h11.36v-6.985h-11.36v-4.252h11.36v-6.986h-11.36v-4.251h11.36v-6.986h-11.36zm42.98-255.307h3v48.632h-3zm0 293.398l3 .236v-8.45h4.066v-6.985h-4.066v-4.252h4.066v-6.986h-4.066v-4.251h4.066v-6.089l-.208-.897h-3.858v-.417h-3v.417H96.235v6.986h12.258v4.251H96.235v6.986h12.258v4.252H96.235v6.985h12.258z"/><path d="M142.179 326.46a15.355 15.355 0 01-3.458.398h-.002a15.161 15.161 0 01-11.955-5.785l-34.136-2.42V274.31h20.122c.558 0 1.1-.073 1.62-.197l-1.395-6.013-24.14-4.683c-.618-.12-1.23-.28-1.831-.475a15.42 15.42 0 01-1.833.475L61.032 268.1l-1.432 6.167c.25.027.502.043.759.043h20.12v44.342l-33.181 2.352a15.166 15.166 0 01-12.01 5.853 15.34 15.34 0 01-3.46-.398 15.139 15.139 0 01-7.096-3.855L0 324.36v5.863h173.108v-5.863l-23.895-1.694a15.141 15.141 0 01-7.034 3.795zm-32.676-176.759c0-12.426-10.072-22.5-22.5-22.5-12.426 0-22.5 10.074-22.5 22.5 0 7.502 3.675 14.142 9.319 18.23h26.363c5.644-4.088 9.318-10.728 9.318-18.23zm43.197-64.43l-.614 4.044L161 92.773l1.808-4.662-10-3.88c-.02.346-.054.693-.107 1.04zm-131.5-1.04l-10 3.88 1.809 4.662 8.912-3.458-.614-4.043a11.143 11.143 0 01-.106-1.042z"/><path d="M42.905 81.208a46.495 46.495 0 0110.741-2.413 46.975 46.975 0 014.791-.253h4.077v64.07a25.374 25.374 0 013-6.612V78.542h10.12v48.343a25.335 25.335 0 0111.37-2.684c4.083 0 7.942.97 11.368 2.684V78.542h10.121v57.459a25.377 25.377 0 013 6.612v-64.07h4.078a47.1 47.1 0 014.79.252 46.497 46.497 0 0110.74 2.413 10.938 10.938 0 012.205-4.519 51.549 51.549 0 00-17.735-3.147H58.437c-6.08 0-12.04 1.068-17.738 3.148a10.932 10.932 0 012.206 4.518zm70.173-71.04a1.695 1.695 0 103.39 0 1.695 1.695 0 00-3.39 0zm-55.54 0a1.695 1.695 0 103.39 0 1.695 1.695 0 00-3.39 0z"/><path d="M32.506 323.538a12.3 12.3 0 002.781.32c5.57 0 10.609-3.824 11.922-9.483l11.341-48.848 26.05-5.054c.84-.163 1.643-.41 2.404-.728.76.318 1.563.565 2.403.728l26.05 5.054 11.34 48.848c1.314 5.659 6.352 9.483 11.922 9.483.917 0 1.85-.104 2.781-.32 6.59-1.53 10.693-8.113 9.162-14.703l-13.136-56.59a12.25 12.25 0 00-9.6-9.256l-13.877-2.692v-53.905l26.294-43.7a7.964 7.964 0 001.054-2.923l8.337-54.947a8 8 0 00-6.709-9.11c-4.369-.669-8.447 2.341-9.11 6.71l-8.099 53.38-21.136 35.129H69.327l-21.136-35.129-8.1-53.38a8 8 0 00-15.818 2.4l8.337 54.947a7.974 7.974 0 001.055 2.924l26.292 43.697v53.907l-13.876 2.692a12.25 12.25 0 00-9.6 9.256l-13.137 56.59c-1.53 6.59 2.572 13.173 9.162 14.703z"/></g></svg>