<?xml version="1.0" encoding="UTF-8" standalone="no"?>
<svg
   version="1.1"
   id="Layer_1"
   x="0"
   y="0"
   xml:space="preserve"
   width="177.036"
   height="204.85699"
   sodipodi:docname="leg-extension-today.svg"
   inkscape:version="1.1.2 (0a00cf5339, 2022-02-04)"
   xmlns:inkscape="http://www.inkscape.org/namespaces/inkscape"
   xmlns:sodipodi="http://sodipodi.sourceforge.net/DTD/sodipodi-0.dtd"
   xmlns="http://www.w3.org/2000/svg"
   xmlns:svg="http://www.w3.org/2000/svg"><sodipodi:namedview
     id="namedview1055"
     pagecolor="#ffffff"
     bordercolor="#666666"
     borderopacity="1.0"
     inkscape:pageshadow="2"
     inkscape:pageopacity="0.0"
     inkscape:pagecheckerboard="0"
     showgrid="false"
     inkscape:zoom="1.6142395"
     inkscape:cx="-36.859462"
     inkscape:cy="49.868684"
     inkscape:window-width="1920"
     inkscape:window-height="1020"
     inkscape:window-x="0"
     inkscape:window-y="32"
     inkscape:window-maximized="1"
     inkscape:current-layer="Layer_1"
     height="204.85699px" /><defs
     id="defs72"><clipPath
       clipPathUnits="userSpaceOnUse"
       id="clipPath1576"><path
         id="rect1578"
         fill="#fb4934"
         fill-opacity="1"
         stroke="#982823"
         stroke-width="0.3"
         stroke-linecap="round"
         stroke-linejoin="round"
         stroke-miterlimit="4"
         stroke-dasharray="none"
         stroke-opacity="1"
         d="M 106.053,112.572 H 321.488 V 299.669 H 106.053 Z" /></clipPath><clipPath
       clipPathUnits="userSpaceOnUse"
       id="clipPath1489"><path
         id="rect1491"
         fill="#982823"
         fill-opacity="0.5"
         stroke="#982823"
         stroke-width="0.3"
         stroke-linecap="round"
         stroke-linejoin="round"
         stroke-miterlimit="4"
         stroke-dasharray="none"
         stroke-opacity="1"
         d="M -20.902,157.818 H 193.672 V 402.675 H -20.902 Z" /></clipPath><style
       id="style1075">.cls-2{fill:#e92a2a}.cls-3{fill:#d52626}</style></defs><style
     type="text/css"
     id="style2">.st2{fill:#a89fa8}</style><g
     id="g17"
     transform="translate(-123.626,-270.39)"
     fill="#928374"
     fill-opacity="0.5"
     style="fill:#7c6f64;fill-opacity:1"><g
       id="Front_00000059291271315217382090000007518221297666198919_"
       fill="#928374"
       fill-opacity="0.5"
       style="fill:#7c6f64;fill-opacity:1"><g
         id="g14"
         fill="#928374"
         fill-opacity="0.5"
         style="fill:#7c6f64;fill-opacity:1"><g
           id="g12"
           fill="#928374"
           fill-opacity="0.5"
           style="fill:#7c6f64;fill-opacity:1"><g
             id="g10"
             fill="#928374"
             fill-opacity="0.5"
             style="fill:#7c6f64;fill-opacity:1"><g
               id="g8"
               fill="#928374"
               fill-opacity="0.5"
               style="fill:#7c6f64;fill-opacity:1"><path
                 d="m 297.11,259.33 v -8.56 c 0,-6.19 -3.43,-12.79 -5.57,-16.29 2.11,-7.07 2.14,-24 0.99,-31.85 -0.7,-4.78 -4.02,-8.67 -5.67,-11.16 0.03,-0.19 0.06,-0.38 0.1,-0.58 0.9,-5.77 -3.02,-19.93 -5.37,-25.9 -1.56,-3.96 -4.82,-5.47 -7.44,-6.67 -1.42,-0.65 -2.64,-1.22 -3.33,-2.02 -1.77,-2.06 -3.52,-2.63 -5.08,-3.12 -0.41,-0.13 -0.8,-0.26 -1.18,-0.41 -0.6,-0.24 -1.12,-0.72 -1.92,-1.44 -1.36,-1.23 -3.41,-3.1 -7.8,-5.64 -2.41,-1.4 -5.8,-3.02 -9.39,-4.74 -5.88,-2.82 -12.75,-6.06 -14.38,-8.08 -1.49,-1.84 -1.65,-7.67 -1.67,-9.59 0.71,-1.8 0.79,-4.65 0.76,-6.3 0.3,0.14 0.66,0.21 1.09,0.16 1.47,-0.18 2.84,-2.46 4.48,-5.43 0.46,-0.83 0.9,-1.62 1.23,-2.09 1.42,-2.03 1.11,-6.43 0.07,-9.72 -0.3,-0.96 -0.82,-1.52 -1.53,-1.65 -0.98,-0.18 -2.05,0.57 -2.82,1.27 0.15,-4.1 0.09,-15.65 -4.65,-21.34 -4.08,-4.9 -12.24,-6.11 -15.34,-6.41 h -1.22 c -3.09,0.29 -11.26,1.51 -15.34,6.41 -4.74,5.69 -4.79,17.23 -4.65,21.34 -0.77,-0.7 -1.84,-1.45 -2.82,-1.27 -0.71,0.13 -1.23,0.69 -1.53,1.65 -1.04,3.29 -1.35,7.69 0.07,9.72 0.33,0.48 0.77,1.26 1.23,2.09 1.64,2.97 3.02,5.25 4.48,5.43 0.43,0.05 0.79,-0.02 1.09,-0.16 -0.03,1.82 0.07,5.1 1,6.82 0,0 0,0.01 0.01,0.01 -0.04,1.35 -0.33,7.15 -1.91,9.1 -1.64,2.02 -8.3,5.21 -14.18,8.03 -3.59,1.72 -6.98,3.34 -9.39,4.74 -4.39,2.54 -6.44,4.41 -7.8,5.64 -0.8,0.73 -1.33,1.21 -1.92,1.44 -0.38,0.15 -0.77,0.28 -1.18,0.41 -1.55,0.5 -3.31,1.06 -5.08,3.12 -0.69,0.81 -1.91,1.37 -3.33,2.02 -2.62,1.21 -5.88,2.71 -7.44,6.67 -2.35,5.97 -6.27,20.13 -5.37,25.9 0.06,0.41 0.13,0.82 0.21,1.22 -1.66,2.48 -4.65,6.08 -5.33,10.74 -1.14,7.81 -1.27,24.09 0.8,31.22 -2.1,3.38 -5.82,10.27 -5.82,16.71 v 8.56 c -0.59,0.96 -3.69,6.55 -3.02,17.45 0.25,4.18 0.72,8.03 1.22,12.11 0.88,7.26 3.85,15.5 3.5,25.22 -0.52,14.82 -0.31,28.97 0.27,31.7 0.54,2.5 5.16,14.69 5.36,15.2 l 0.17,0.45 0.47,-0.12 c 0.03,-0.01 2.8,-0.8 3.04,-4.46 l 1.48,1.69 0.39,-0.55 c 0.09,-0.12 1.39,-1.97 1.76,-4.26 0.82,-1.39 2.53,-4.97 0.55,-8 -2.26,-3.45 -5.99,-10.58 -6.03,-10.65 -0.01,-0.24 -0.03,-0.44 -0.06,-0.59 0.55,-4.24 0,-5.78 1.58,-6.37 0.13,-0.05 0.2,-0.03 0.28,0.02 1.15,0.74 1.41,2.71 1.69,4.79 0.26,1.95 0.54,3.98 1.53,5.55 1.17,1.84 2.97,4.23 5.06,2.49 1.38,-1.15 0.17,-9.03 -0.16,-11.36 -0.42,-2.92 -0.42,-3.74 -1.57,-8.36 -0.73,-2.94 -1.18,-4.47 -1.37,-5.83 -0.1,-1.12 0.19,-5.8 0.62,-9.21 0.49,-3.92 2.91,-10.34 5.48,-17.13 2.93,-7.76 5.96,-15.78 6.16,-20.44 0.3,-7.21 -0.65,-10.8 -0.99,-11.83 0.61,-0.73 2.31,-2.99 2.77,-5.9 0.54,-3.39 0.37,-9.28 0.35,-9.43 0.02,-0.1 1.8,-10.27 4.73,-14.93 2.23,-3.54 5.51,-10.47 6.91,-14.1 0.51,3.59 1.08,6.8 1.65,8.51 0.73,2.18 1.65,4.59 2.54,6.93 1.27,3.33 2.47,6.48 2.78,8.13 0.44,2.33 0.13,19.47 0.03,25.1 -0.02,1.21 -0.04,2 -0.04,2.2 0,0.01 0,0.01 -0.01,0.02 -0.11,0.11 -0.19,0.3 -0.22,0.5 -0.23,0.41 -0.58,0.97 -0.91,1.49 -1.77,2.79 -4.74,7.47 -4.17,12.08 0.64,5.14 1.42,7.29 1.7,7.94 -0.58,1.85 -4.88,15.92 -4.22,26.07 0.23,3.54 -1.16,9.06 -2.92,16.05 -2.27,9.01 -6.56,29.76 -7.52,42.71 -1.41,19.15 4.08,41.06 5.6,52.9 0.32,2.53 0.54,4.21 0.57,4.72 0.07,1.25 -0.04,2.11 -0.18,3.11 -0.18,1.36 -0.39,2.9 -0.18,5.79 0.02,0.29 0.07,0.61 0.14,0.95 -0.74,1.66 -7.26,16.63 -7.43,26.41 -0.08,4.77 1.44,15.37 3.06,26.58 1.46,10.15 2.86,20.65 3.3,27.13 l 0.01,0.17 c 0.04,0.54 0.07,1.06 0.09,1.54 0.07,3.47 -0.26,10.39 -0.49,11.07 -0.52,1.59 -1.01,3.1 -0.97,5.43 -0.14,0.14 -0.28,0.27 -0.42,0.39 -1.92,1.64 -2.7,3.85 -3.45,5.99 -0.25,0.7 -0.48,1.36 -0.75,1.99 -1.04,2.42 -10.21,9.99 -11.48,10.78 -0.99,0.62 -3.49,4.29 -3.49,4.29 -0.94,1 -0.65,2.66 -0.46,3.75 0.03,0.19 0.07,0.37 0.09,0.53 0.08,0.58 0.26,0.98 0.4,1.31 0.13,0.28 0.22,0.49 0.22,0.74 0.01,0.34 -0.05,0.75 -0.1,1.14 -0.05,0.35 -0.1,0.72 -0.11,1.06 -0.01,0.61 0.02,2.08 0.61,2.57 0.34,0.28 0.66,0.48 1.13,0.56 -0.05,0.15 -0.12,0.35 -0.2,0.59 -0.37,1.08 0.45,2.19 1.05,2.64 0.43,0.32 1.11,0.35 1.58,0.32 0,0.09 0.02,0.15 0.03,0.2 0.07,0.77 0.33,1.83 1.31,2.29 1,0.47 1.51,0.36 2.09,0.08 1.14,1.58 3.47,2.54 5.55,2.34 0.27,-0.03 0.54,-0.07 0.8,-0.14 2.15,-0.55 4.85,-2.41 5.85,-4.89 0.8,-1.99 1.97,-2.65 3.01,-3.1 4.29,-1.35 6.63,-6.13 7.26,-10.57 0.55,-3.92 3.06,-8.19 3.72,-9.06 3,-1.26 4.77,-2.85 6.31,-5.1 1.61,-2.36 1.67,-3.87 1.22,-5.83 -0.43,-1.86 -1.59,-10.64 -2,-12 -0.35,-1.19 -0.52,-2.41 -0.8,-3.9 -0.87,-4.63 4.88,-28.52 6.56,-33.18 0.65,-1.78 1.57,-3.73 2.65,-5.98 1.82,-3.82 4.09,-8.57 5.9,-14.59 2.74,-9.11 -1.59,-29.25 -2.12,-31.63 1.59,-2.79 3.01,-5.69 4.24,-8.64 0.98,-2.36 1.91,-4.81 2.37,-7.34 0.68,-3.73 1.28,-10.78 1.96,-18.94 0.61,-7.21 1.29,-15.39 2.13,-21.92 1.04,-8.06 3.17,-17.15 4.88,-24.46 1.17,-5 2.19,-9.32 2.52,-11.93 0.62,-4.87 0.01,-9.72 -0.34,-11.84 0.38,0.04 1.49,0.05 1.76,0 -0.34,2.12 -0.96,6.97 -0.34,11.84 0.33,2.6 1.34,6.92 2.52,11.93 1.71,7.31 3.85,16.41 4.88,24.46 0.84,6.53 1.53,14.7 2.13,21.92 0.69,8.17 1.28,15.22 1.96,18.94 0.46,2.52 1.39,4.98 2.37,7.34 1.23,2.95 2.64,5.85 4.24,8.64 -0.53,2.38 -4.86,22.53 -2.12,31.63 1.81,6.02 4.08,10.77 5.9,14.59 1.08,2.26 2,4.2 2.65,5.98 1.69,4.65 7.43,28.54 6.56,33.18 -0.28,1.49 -0.44,2.7 -0.8,3.9 -0.4,1.36 -1.57,10.14 -2,12 -0.45,1.96 -0.39,3.47 1.22,5.83 1.54,2.25 3.31,3.84 6.31,5.1 0.65,0.88 3.17,5.14 3.72,9.06 0.62,4.44 2.97,9.22 7.26,10.57 1.04,0.45 2.21,1.11 3.01,3.1 1,2.49 3.7,4.34 5.85,4.89 0.26,0.07 0.53,0.11 0.8,0.14 2.09,0.2 4.41,-0.76 5.55,-2.34 0.58,0.28 1.09,0.39 2.09,-0.08 1.07,-0.51 1.28,-1.72 1.33,-2.49 0.47,0.03 1.16,0 1.59,-0.32 0.6,-0.44 1.41,-1.55 1.05,-2.64 -0.08,-0.22 -0.14,-0.41 -0.19,-0.56 0,-0.01 -0.01,-0.02 -0.01,-0.04 0.47,-0.09 0.79,-0.28 1.13,-0.56 0.59,-0.49 0.63,-1.96 0.61,-2.57 -0.01,-0.34 -0.06,-0.7 -0.11,-1.06 -0.05,-0.39 -0.11,-0.8 -0.1,-1.14 0,-0.25 0.1,-0.46 0.22,-0.74 0.14,-0.32 0.32,-0.72 0.4,-1.31 0.02,-0.16 0.05,-0.34 0.09,-0.53 0.19,-1.09 0.48,-2.75 -0.46,-3.75 0,0 -2.5,-3.67 -3.49,-4.29 -1.26,-0.79 -10.44,-8.36 -11.48,-10.78 -0.27,-0.63 -0.5,-1.29 -0.75,-1.99 -0.75,-2.14 -1.53,-4.35 -3.45,-5.99 -0.14,-0.12 -0.28,-0.25 -0.42,-0.39 0.04,-2.34 -0.45,-3.85 -0.97,-5.43 -0.22,-0.68 -0.56,-7.59 -0.49,-11.07 0.02,-0.48 0.05,-1 0.09,-1.54 0.01,-0.06 0.02,-0.12 0.03,-0.17 h -0.02 c 0.44,-6.48 1.84,-16.97 3.3,-27.13 1.62,-11.21 3.15,-21.81 3.06,-26.58 -0.17,-9.71 -6.61,-24.54 -7.42,-26.37 0.09,-0.41 0.15,-0.79 0.17,-1.14 0.21,-2.89 0,-4.43 -0.18,-5.79 -0.13,-1 -0.25,-1.86 -0.18,-3.11 0.03,-0.51 0.24,-2.18 0.57,-4.72 1.52,-11.84 7.01,-33.75 5.6,-52.9 -0.96,-12.94 -5.25,-33.7 -7.52,-42.71 -1.76,-6.99 -3.15,-12.51 -2.92,-16.05 0.66,-10.15 -3.64,-24.21 -4.22,-26.07 0.28,-0.65 1.06,-2.8 1.7,-7.94 0.57,-4.61 -2.4,-9.29 -4.17,-12.08 -0.52,-0.82 -1.11,-1.75 -1.14,-2.01 0,-0.2 -0.01,-0.99 -0.04,-2.2 -0.1,-5.63 -0.41,-22.77 0.03,-25.1 0.31,-1.64 1.51,-4.79 2.78,-8.13 0.89,-2.34 1.81,-4.75 2.54,-6.93 0.55,-1.66 1.08,-4.75 1.58,-8.19 v -0.02 c 1.43,3.54 4.62,10.05 6.68,13.7 3.63,6.44 4.89,16.94 5.09,24.36 0.08,2.95 2.16,5.17 2.77,5.9 -0.34,1.04 -1.29,4.62 -0.99,11.83 0.19,4.66 3.23,12.68 6.16,20.44 2.57,6.79 4.99,13.21 5.48,17.13 0.35,2.83 0.7,4.66 0.72,6.05 0.02,1.34 0.01,2.68 -0.12,4.02 -0.12,1.24 -0.64,2.71 -1.27,5.22 -1.15,4.62 -1.15,5.44 -1.57,8.36 -0.33,2.33 -1.54,10.22 -0.16,11.36 2.1,1.74 3.89,-0.64 5.06,-2.49 1,-1.57 1.27,-3.59 1.53,-5.55 0.28,-2.09 0.55,-4.06 1.69,-4.79 0.08,-0.05 0.15,-0.07 0.28,-0.02 1.58,0.59 1.02,2.14 1.58,6.37 -0.03,0.15 -0.05,0.35 -0.06,0.59 -0.04,0.07 -3.77,7.2 -6.03,10.65 -1.99,3.03 -0.28,6.61 0.55,8 0.37,2.29 1.67,4.14 1.76,4.26 l 0.39,0.55 1.48,-1.69 c 0.24,3.66 3.01,4.45 3.04,4.46 l 0.47,0.12 0.17,-0.45 c 0.2,-0.52 4.83,-12.7 5.36,-15.2 0.59,-2.73 0.8,-16.87 0.27,-31.7 -0.34,-9.72 2.62,-17.95 3.5,-25.22 0.5,-4.08 0.96,-7.93 1.22,-12.11 0.72,-10.89 -2.38,-16.48 -2.97,-17.44 z"
                 id="path6"
                 fill="#928374"
                 fill-opacity="0.5"
                 style="fill:#7c6f64;fill-opacity:1" /></g></g></g></g></g></g><g
     id="g67"
     transform="translate(-123.626,-270.39)"
     stroke="#3c3836"
     stroke-opacity="1"
     style="stroke:#504945;stroke-opacity:1"><path
       class="st2"
       d="m 243.31,446.51 c 0.45,0 0.9,-0.03 1.34,-0.11 2.29,-0.38 3.98,-1.68 5.45,-3.27 h -0.02 l -0.21,0.01 c -3.05,0 -13.43,-8.45 -15.75,-11.04 0,0 13.52,9.98 15.71,9.98 0.03,0 0.06,0 0.09,-0.01 1.84,-0.28 7.09,-8.9 7.2,-9.08 v 0 c 0,0 -0.08,0.14 -0.23,0.38 -1.74,1.9 -4.23,3.2 -6.81,3.2 -0.14,0 -0.27,0 -0.41,-0.01 -2.84,-0.15 -5.6,-2.09 -6.3,-4.81 -0.52,-2.03 0.11,-4.21 1.23,-5.99 1.12,-1.77 2.7,-3.21 4.26,-4.63 -3.25,1.09 -4.77,1.77 -6.51,2.97 -1.26,0.87 -5.25,2.73 -8.17,2.73 -1.1,0 -2.05,-0.26 -2.65,-0.94 -0.6,-0.69 -1.2,-1.37 -1.68,-2.14 -0.26,-0.43 -0.53,-0.86 -0.79,-1.29 a 8.2,8.2 0 0 1 -1.2,-0.15 8.436,8.436 0 0 1 -2.99,-1.17 c 0.13,0.95 0.25,1.79 0.38,2.5 0.82,4.47 2.88,8.81 4.95,12.82 0.34,0.65 0.67,1.33 1.02,2.01 0.93,1.81 1.92,3.66 3.2,5.15 l 0.1,0.11 c 0.8,0.35 1.59,0.68 2.31,1 2.05,0.94 4.26,1.78 6.48,1.78"
       id="path39"
       stroke="#3c3836"
       stroke-opacity="1"
       fill="none"
       style="fill:none;stroke:#504945;stroke-opacity:1" /><path
       class="st2"
       d="m 181.02,446.51 c -0.45,0 -0.9,-0.03 -1.34,-0.11 -2.29,-0.38 -3.98,-1.68 -5.45,-3.27 h 0.02 l 0.21,0.01 c 3.05,0 13.43,-8.45 15.75,-11.04 0,0 -13.52,9.98 -15.71,9.98 -0.03,0 -0.06,0 -0.09,-0.01 -1.84,-0.28 -7.09,-8.9 -7.2,-9.08 v 0 c 0,0 0.08,0.14 0.23,0.38 1.74,1.9 4.23,3.2 6.81,3.2 0.14,0 0.27,0 0.41,-0.01 2.84,-0.15 5.6,-2.09 6.3,-4.81 0.52,-2.03 -0.11,-4.21 -1.23,-5.99 -1.12,-1.77 -2.7,-3.21 -4.26,-4.63 3.25,1.09 4.77,1.77 6.51,2.97 1.26,0.87 5.25,2.73 8.17,2.73 1.1,0 2.05,-0.26 2.65,-0.94 0.6,-0.69 1.2,-1.37 1.68,-2.14 0.26,-0.43 0.53,-0.86 0.79,-1.29 0.4,-0.02 0.8,-0.07 1.2,-0.15 1.03,-0.19 2.04,-0.57 2.99,-1.17 -0.13,0.95 -0.25,1.79 -0.38,2.5 -0.82,4.47 -2.88,8.81 -4.95,12.82 -0.34,0.65 -0.67,1.33 -1.02,2.01 -0.93,1.81 -1.92,3.66 -3.2,5.15 l -0.1,0.11 c -0.8,0.35 -1.59,0.68 -2.31,1 -2.05,0.94 -4.25,1.78 -6.48,1.78"
       id="path41"
       stroke="#3c3836"
       stroke-opacity="1"
       fill="none"
       style="fill:none;stroke:#504945;stroke-opacity:1" /><g
       id="g65"
       stroke="#3c3836"
       stroke-opacity="1"
       style="stroke:#504945;stroke-opacity:1"><path
         d="m 211.3,225.81 c -0.52,-6.74 -10.95,-1.76 -13.72,-0.09 -5.35,3.23 -8.21,9.51 -7.46,15.55 0.15,1.23 1.13,2.85 2.64,2.68 4.53,-0.51 8.63,-2.92 13.16,-3.61 2.37,-0.3 3.82,-0.73 4.9,-2.83 0.8,-1.56 0.39,-4.26 0.45,-5.93 0.06,-1.93 0.18,-3.84 0.03,-5.77 z m -0.68,5.71 c -0.12,3.53 0.19,7.55 -4.83,8.2 -3.31,0.51 -6.33,1.66 -9.48,2.74 -8.44,2.91 -5.45,-7.97 -3.13,-11.7 2.68,-4.31 8.1,-6.78 13,-7.69 5.86,-1.08 4.53,5.84 4.44,8.45 z"
         id="path43"
         style="stroke:#504945;stroke-opacity:1" /><path
         d="m 213.06,237.5 c 1.1,2.1 2.57,2.53 4.97,2.84 4.59,0.71 8.74,3.12 13.33,3.64 1.53,0.17 2.52,-1.45 2.67,-2.68 0.74,-6.04 -2.17,-12.33 -7.6,-15.57 -2.81,-1.68 -13.39,-6.68 -13.9,0.06 -0.14,1.93 -0.02,3.84 0.05,5.77 0.07,1.68 -0.34,4.38 0.48,5.94 z m 4.65,-14.42 c 4.97,0.92 10.47,3.4 13.19,7.72 2.36,3.74 5.42,14.62 -3.14,11.69 -3.19,-1.09 -6.25,-2.24 -9.61,-2.76 -5.08,-0.66 -4.78,-4.68 -4.91,-8.21 -0.1,-2.62 -1.46,-9.53 4.47,-8.44 z"
         id="path45"
         style="stroke:#504945;stroke-opacity:1" /><path
         d="m 196.6,224.74 c 3.67,-1.74 8.55,-3.46 11.48,-6.37 2.3,-2.28 3.63,-6.21 3.53,-9.41 -0.04,-1.45 -0.54,-3.38 -1.84,-4.21 l -0.3,-0.16 c -0.76,-0.32 -1.74,-0.2 -2.51,-0.08 -1.32,0.2 -2.58,0.71 -3.79,1.26 -0.32,0.14 -0.64,0.29 -0.96,0.44 -2.77,1.29 -6.18,2.21 -8.57,4.18 -2.45,2.02 -3.42,4.24 -3.73,7.37 -0.16,1.59 -0.5,6.77 1,8.05 1.78,1.5 3.91,-0.22 5.69,-1.07 z m 0.48,-15.55 c 3.24,-1.59 8.4,-4.62 11.98,-4.02 2.46,1.44 1.47,6.18 1.06,8.33 -0.62,3.29 -3.29,5.04 -5.97,6.63 -2.79,1.66 -12.71,8.14 -13.45,1.48 -0.63,-5.75 1.07,-9.82 6.38,-12.42 z"
         id="path47"
         style="stroke:#504945;stroke-opacity:1" /><path
         d="m 226.95,224.77 c 1.78,0.84 3.91,2.57 5.69,1.06 1.51,-1.27 1.16,-6.46 1,-8.05 -0.31,-3.13 -1.27,-5.35 -3.73,-7.37 -2.4,-1.97 -5.8,-2.89 -8.57,-4.18 -0.32,-0.15 -0.64,-0.3 -0.96,-0.44 -1.21,-0.55 -2.46,-1.06 -3.79,-1.26 -0.77,-0.12 -1.75,-0.23 -2.51,0.08 l -0.3,0.16 c -1.3,0.83 -1.8,2.77 -1.84,4.21 -0.1,3.2 1.23,7.12 3.53,9.41 2.93,2.92 7.81,4.64 11.48,6.38 z M 214.5,205.2 c 3.57,-0.6 8.74,2.43 11.98,4.02 5.32,2.6 7.01,6.68 6.38,12.43 -0.74,6.66 -10.66,0.18 -13.45,-1.48 -2.67,-1.59 -5.35,-3.34 -5.97,-6.63 -0.41,-2.16 -1.4,-6.9 1.06,-8.34 z"
         id="path49"
         style="stroke:#504945;stroke-opacity:1" /><path
         d="m 174.33,442.08 c -1.84,-0.28 -7.09,-8.9 -7.2,-9.08 h -0.53 c 0,1.19 4.88,9.65 7.54,10.12 l 0.01,0.01 h 0.02 l 0.21,0.01 c 3.05,0 13.43,-8.45 15.75,-11.04 0,0 -13.52,9.98 -15.71,9.98 -0.03,0.01 -0.06,0.01 -0.09,0 z"
         id="path51"
         style="stroke:#504945;stroke-opacity:1" /><path
         d="m 257.03,433 c -0.11,0.18 -5.36,8.8 -7.2,9.08 -0.03,0 -0.05,0.01 -0.08,0.01 -2.2,0 -15.71,-9.98 -15.71,-9.98 2.32,2.59 12.7,11.04 15.75,11.04 l 0.21,-0.01 h 0.02 l 0.01,-0.01 c 2.66,-0.47 7.54,-8.93 7.54,-10.12 h -0.54 z"
         id="path53"
         style="stroke:#504945;stroke-opacity:1" /><path
         d="m 297.08,259.25 v -8.56 c 0,-6.19 -3.43,-12.79 -5.57,-16.29 2.11,-7.07 2.14,-24 0.99,-31.85 -0.7,-4.78 -4.02,-8.67 -5.67,-11.16 0.03,-0.19 0.06,-0.38 0.1,-0.58 0.9,-5.77 -3.02,-19.93 -5.37,-25.9 -1.56,-3.96 -4.82,-5.47 -7.44,-6.67 -1.42,-0.65 -2.64,-1.22 -3.33,-2.02 -1.77,-2.06 -3.52,-2.63 -5.08,-3.12 -0.41,-0.13 -0.8,-0.26 -1.18,-0.41 -0.6,-0.24 -1.12,-0.72 -1.92,-1.44 -1.36,-1.23 -3.41,-3.1 -7.8,-5.64 -2.41,-1.4 -5.8,-3.02 -9.39,-4.74 -5.88,-2.82 -12.75,-6.06 -14.38,-8.08 -1.49,-1.84 -1.65,-7.67 -1.67,-9.59 0.71,-1.8 0.79,-4.65 0.76,-6.3 0.29,0.14 0.66,0.21 1.09,0.16 1.47,-0.18 2.84,-2.46 4.48,-5.43 0.46,-0.83 0.9,-1.62 1.23,-2.09 1.42,-2.03 1.11,-6.43 0.07,-9.72 -0.3,-0.96 -0.82,-1.52 -1.53,-1.65 -0.98,-0.18 -2.05,0.57 -2.82,1.27 0.15,-4.1 0.09,-15.65 -4.65,-21.34 -4.08,-4.9 -12.24,-6.11 -15.34,-6.41 h -1.22 c -3.1,0.29 -11.26,1.51 -15.34,6.41 -4.74,5.69 -4.79,17.23 -4.65,21.34 -0.77,-0.7 -1.84,-1.45 -2.82,-1.27 -0.71,0.13 -1.23,0.69 -1.53,1.65 -1.04,3.29 -1.35,7.69 0.07,9.72 0.33,0.48 0.77,1.26 1.23,2.09 1.64,2.97 3.02,5.25 4.48,5.43 0.43,0.05 0.79,-0.02 1.09,-0.16 -0.03,1.82 0.07,5.1 1,6.82 0,0 0,0.01 0.01,0.01 -0.04,1.35 -0.33,7.15 -1.91,9.1 -1.64,2.02 -8.3,5.21 -14.18,8.03 -3.59,1.72 -6.98,3.34 -9.39,4.74 -4.39,2.54 -6.44,4.41 -7.8,5.64 -0.8,0.73 -1.33,1.21 -1.92,1.44 -0.38,0.15 -0.77,0.28 -1.18,0.41 -1.55,0.5 -3.31,1.06 -5.08,3.12 -0.69,0.81 -1.91,1.37 -3.33,2.02 -2.62,1.21 -5.88,2.71 -7.44,6.67 -2.35,5.97 -6.27,20.13 -5.37,25.9 0.06,0.41 0.13,0.82 0.21,1.22 -1.66,2.48 -4.65,6.08 -5.33,10.74 -1.14,7.81 -1.27,24.09 0.8,31.22 -2.1,3.38 -5.82,10.27 -5.82,16.71 v 8.56 c -0.59,0.96 -3.69,6.55 -3.02,17.45 0.25,4.18 0.72,8.03 1.22,12.11 0.88,7.26 3.85,15.5 3.5,25.22 -0.52,14.82 -0.31,28.96 0.27,31.7 0.54,2.5 5.16,14.69 5.36,15.2 l 0.17,0.45 0.46,-0.12 c 0.03,-0.01 2.8,-0.8 3.04,-4.46 l 1.48,1.69 0.39,-0.54 c 0.09,-0.12 1.39,-1.97 1.76,-4.26 0.82,-1.39 2.53,-4.97 0.55,-8 -2.26,-3.45 -5.99,-10.58 -6.03,-10.65 v 0 c -0.01,-0.24 -0.03,-0.44 -0.06,-0.59 0.56,-4.24 0,-5.78 1.58,-6.37 0.13,-0.05 0.2,-0.03 0.28,0.02 1.15,0.74 1.41,2.71 1.69,4.79 0.26,1.95 0.54,3.98 1.53,5.55 1.17,1.84 2.97,4.23 5.06,2.49 1.38,-1.15 0.17,-9.03 -0.16,-11.36 -0.42,-2.92 -0.42,-3.74 -1.57,-8.36 -0.74,-2.94 -1.18,-4.47 -1.37,-5.83 -0.1,-1.12 0.19,-5.8 0.62,-9.21 0.49,-3.92 2.91,-10.34 5.48,-17.13 2.93,-7.76 5.96,-15.78 6.16,-20.44 0.3,-7.21 -0.65,-10.8 -0.99,-11.83 0.61,-0.73 2.31,-2.99 2.77,-5.9 0.54,-3.39 0.37,-9.28 0.36,-9.43 0.02,-0.1 1.8,-10.27 4.73,-14.93 2.23,-3.54 5.51,-10.47 6.91,-14.1 0.51,3.59 1.08,6.8 1.65,8.51 0.72,2.18 1.65,4.59 2.54,6.93 1.27,3.33 2.47,6.48 2.78,8.12 0.44,2.33 0.13,19.47 0.03,25.1 -0.02,1.21 -0.04,2 -0.04,2.2 0,0.01 0,0.01 -0.01,0.02 -0.11,0.11 -0.19,0.3 -0.22,0.5 -0.23,0.41 -0.58,0.97 -0.91,1.49 -1.77,2.79 -4.74,7.47 -4.17,12.08 0.64,5.14 1.42,7.29 1.7,7.94 -0.58,1.85 -4.88,15.92 -4.22,26.07 0.23,3.54 -1.16,9.06 -2.92,16.05 -2.27,9.01 -6.56,29.76 -7.52,42.71 -1.41,19.15 4.08,41.06 5.6,52.9 0.33,2.53 0.54,4.21 0.57,4.72 0.07,1.25 -0.04,2.11 -0.18,3.11 -0.18,1.36 -0.39,2.9 -0.18,5.79 0.02,0.29 0.07,0.61 0.14,0.95 -0.74,1.66 -7.26,16.63 -7.43,26.41 -0.08,4.77 1.44,15.37 3.06,26.58 1.47,10.15 2.86,20.65 3.3,27.13 l 0.01,0.17 c 0.04,0.54 0.07,1.06 0.09,1.54 0.07,3.47 -0.26,10.39 -0.49,11.07 -0.52,1.59 -1.01,3.1 -0.97,5.43 -0.14,0.14 -0.28,0.27 -0.42,0.39 -1.92,1.64 -2.7,3.85 -3.45,5.99 -0.25,0.7 -0.48,1.36 -0.75,1.99 -1.04,2.42 -10.21,9.99 -11.48,10.78 -0.99,0.62 -3.49,4.29 -3.49,4.29 -0.94,1 -0.65,2.66 -0.46,3.75 0.03,0.19 0.07,0.37 0.09,0.53 0.08,0.58 0.26,0.98 0.4,1.31 0.13,0.28 0.22,0.49 0.22,0.74 0.01,0.34 -0.05,0.75 -0.1,1.14 -0.05,0.35 -0.1,0.72 -0.11,1.06 -0.01,0.61 0.02,2.08 0.61,2.57 0.34,0.28 0.66,0.48 1.13,0.56 -0.05,0.15 -0.12,0.35 -0.2,0.59 -0.37,1.08 0.45,2.19 1.05,2.64 0.43,0.32 1.11,0.35 1.58,0.32 0,0.09 0.02,0.15 0.03,0.2 0.07,0.77 0.33,1.83 1.31,2.29 1,0.47 1.51,0.36 2.09,0.08 1.14,1.58 3.47,2.54 5.55,2.34 0.27,-0.03 0.54,-0.07 0.8,-0.14 2.15,-0.55 4.85,-2.41 5.85,-4.89 0.8,-1.99 1.97,-2.65 3.01,-3.1 4.29,-1.35 6.63,-6.13 7.26,-10.57 0.55,-3.92 3.06,-8.19 3.72,-9.06 3,-1.26 4.77,-2.85 6.31,-5.1 1.61,-2.36 1.67,-3.87 1.22,-5.83 -0.43,-1.86 -1.59,-10.64 -2,-12 -0.36,-1.19 -0.52,-2.41 -0.8,-3.9 -0.87,-4.63 4.88,-28.52 6.56,-33.18 0.65,-1.78 1.57,-3.73 2.65,-5.98 1.82,-3.82 4.09,-8.57 5.9,-14.59 2.74,-9.11 -1.59,-29.25 -2.12,-31.63 1.59,-2.79 3.01,-5.69 4.24,-8.64 0.98,-2.36 1.91,-4.81 2.37,-7.34 0.69,-3.73 1.28,-10.78 1.96,-18.94 0.61,-7.21 1.29,-15.39 2.13,-21.92 1.04,-8.06 3.17,-17.15 4.88,-24.46 1.17,-5 2.19,-9.32 2.52,-11.93 0.62,-4.87 0.01,-9.72 -0.34,-11.84 0.37,0.04 1.49,0.05 1.76,0 -0.34,2.12 -0.96,6.97 -0.34,11.84 0.33,2.6 1.34,6.92 2.52,11.93 1.71,7.31 3.85,16.41 4.88,24.46 0.84,6.53 1.53,14.7 2.13,21.92 0.69,8.17 1.28,15.22 1.96,18.94 0.46,2.52 1.39,4.98 2.37,7.34 1.23,2.95 2.64,5.85 4.24,8.64 -0.53,2.38 -4.86,22.53 -2.12,31.63 1.81,6.02 4.08,10.77 5.9,14.59 1.08,2.26 2,4.2 2.65,5.98 1.69,4.65 7.43,28.54 6.56,33.18 -0.28,1.49 -0.44,2.7 -0.8,3.9 -0.4,1.36 -1.57,10.14 -2,12 -0.45,1.96 -0.39,3.47 1.22,5.83 1.54,2.25 3.31,3.84 6.31,5.1 0.65,0.88 3.17,5.14 3.72,9.06 0.62,4.44 2.97,9.22 7.26,10.57 1.04,0.45 2.21,1.11 3.01,3.1 1,2.49 3.7,4.34 5.85,4.89 0.26,0.07 0.53,0.11 0.8,0.14 2.09,0.2 4.41,-0.76 5.55,-2.34 0.58,0.28 1.09,0.39 2.09,-0.08 1.07,-0.51 1.28,-1.72 1.33,-2.49 0.47,0.03 1.16,0 1.59,-0.32 0.6,-0.44 1.41,-1.55 1.05,-2.64 -0.08,-0.22 -0.14,-0.41 -0.19,-0.56 v 0 c 0,-0.01 -0.01,-0.02 -0.01,-0.04 0.47,-0.09 0.79,-0.28 1.13,-0.56 0.59,-0.49 0.63,-1.96 0.61,-2.57 -0.01,-0.34 -0.06,-0.7 -0.1,-1.06 -0.05,-0.39 -0.11,-0.8 -0.1,-1.14 0,-0.25 0.1,-0.46 0.22,-0.74 0.14,-0.32 0.32,-0.72 0.4,-1.31 0.02,-0.16 0.05,-0.34 0.09,-0.53 0.19,-1.09 0.48,-2.75 -0.46,-3.75 0,0 -2.5,-3.67 -3.49,-4.29 -1.26,-0.79 -10.44,-8.36 -11.48,-10.78 -0.27,-0.63 -0.5,-1.29 -0.75,-1.99 -0.75,-2.14 -1.53,-4.35 -3.45,-5.99 -0.14,-0.12 -0.28,-0.25 -0.42,-0.39 0.04,-2.34 -0.45,-3.85 -0.97,-5.43 -0.22,-0.68 -0.56,-7.59 -0.49,-11.07 0.02,-0.48 0.05,-1 0.09,-1.54 0.01,-0.06 0.02,-0.12 0.03,-0.17 h -0.02 c 0.44,-6.48 1.84,-16.97 3.3,-27.13 1.62,-11.21 3.15,-21.81 3.06,-26.58 -0.17,-9.71 -6.61,-24.54 -7.41,-26.37 0.09,-0.41 0.15,-0.79 0.17,-1.14 0.21,-2.89 0,-4.43 -0.18,-5.79 -0.13,-1 -0.25,-1.86 -0.18,-3.11 0.03,-0.51 0.24,-2.18 0.57,-4.72 1.52,-11.84 7.01,-33.75 5.6,-52.9 -0.95,-12.94 -5.25,-33.7 -7.52,-42.71 -1.76,-6.99 -3.15,-12.51 -2.92,-16.05 0.66,-10.15 -3.64,-24.21 -4.22,-26.07 0.28,-0.65 1.06,-2.8 1.7,-7.94 0.57,-4.61 -2.4,-9.29 -4.17,-12.08 -0.52,-0.82 -1.11,-1.75 -1.14,-2.01 0,-0.2 -0.01,-0.99 -0.04,-2.2 -0.1,-5.63 -0.41,-22.77 0.03,-25.1 0.31,-1.65 1.51,-4.79 2.78,-8.13 0.89,-2.34 1.81,-4.75 2.54,-6.93 0.55,-1.66 1.08,-4.75 1.57,-8.19 v -0.02 c 1.43,3.54 4.62,10.05 6.68,13.7 3.63,6.44 4.88,16.94 5.09,24.36 0.08,2.95 2.16,5.17 2.77,5.9 -0.34,1.04 -1.29,4.62 -0.99,11.83 0.19,4.66 3.23,12.68 6.16,20.44 2.57,6.79 4.99,13.21 5.48,17.13 0.35,2.83 0.7,4.66 0.72,6.05 0.02,1.34 0.01,2.68 -0.12,4.02 -0.12,1.24 -0.64,2.71 -1.27,5.22 -1.15,4.62 -1.15,5.44 -1.57,8.36 -0.33,2.33 -1.54,10.22 -0.16,11.36 2.1,1.74 3.89,-0.64 5.06,-2.49 1,-1.57 1.27,-3.59 1.53,-5.55 0.28,-2.09 0.55,-4.06 1.69,-4.79 0.08,-0.05 0.15,-0.07 0.28,-0.02 1.58,0.59 1.02,2.14 1.58,6.37 -0.03,0.15 -0.05,0.35 -0.06,0.59 v 0 c -0.04,0.07 -3.77,7.2 -6.03,10.65 -1.99,3.03 -0.28,6.61 0.55,8 0.37,2.29 1.67,4.14 1.76,4.26 l 0.39,0.54 1.48,-1.69 c 0.24,3.66 3.01,4.45 3.04,4.46 l 0.47,0.12 0.17,-0.45 c 0.2,-0.52 4.83,-12.7 5.36,-15.2 0.59,-2.73 0.8,-16.87 0.27,-31.7 -0.34,-9.72 2.62,-17.95 3.5,-25.22 0.5,-4.08 0.96,-7.93 1.22,-12.11 0.7,-10.88 -2.39,-16.46 -2.98,-17.43 z m -5.43,-57.17 c 1.32,7.69 1.08,24.25 -0.83,31.2 -0.41,-0.63 -0.71,-1.07 -0.86,-1.28 -0.09,-1.6 -0.78,-13.76 -1.96,-19.5 -1.11,-5.42 -3.1,-10.61 -3.51,-11.65 0.28,-0.81 1.35,-4.08 2.14,-8.27 0.78,0.94 4.47,6.29 5.02,9.5 z m -54.96,58.95 c 0.01,-1.23 0.08,-2.45 0.19,-3.67 0.28,0.08 0.61,0.08 1.01,-0.03 2.66,-0.73 5.01,-5.23 6.13,-7.38 1.28,-2.47 2.24,-5 2.85,-7.64 -0.02,4.35 0.05,10.1 0.14,15.36 -1.77,3.01 -4.15,5.7 -7.15,7.53 -0.45,0.29 -1.08,0.57 -1.61,0.64 -1.06,0.14 -1.59,-1.23 -1.48,-2.1 -0.04,-0.91 -0.09,-1.81 -0.08,-2.71 z m 10.27,-24.02 c -0.26,6.06 -2.43,11.9 -6.11,16.73 -0.92,1.21 -2,2.72 -3.75,1.92 -0.93,-0.42 -0.86,-1.48 -0.73,-2.33 0.19,-1.31 0.32,-2.62 0.56,-3.92 0.12,-0.65 0.29,-1.29 0.5,-1.92 0.03,-0.09 0.17,-0.55 0.32,-0.97 0.53,0.15 1.26,-0.06 2.28,-0.79 3.02,-2.16 4.68,-5.58 5.52,-9.26 0.62,-0.54 1.21,-1.11 1.77,-1.72 -0.08,0.31 -0.15,0.6 -0.2,0.86 -0.05,0.26 -0.16,1.34 -0.16,1.4 z m -4.45,5.35 c -0.51,0.71 -1.02,1.38 -1.68,1.96 -0.77,0.68 -1.73,1.83 -2.87,1.22 -1.04,-0.56 -0.7,-2.34 -0.61,-3.28 0.16,-1.65 0.38,-3.29 0.56,-4.94 2.76,-2.46 5.01,-5.62 6.57,-9.11 0.4,-0.11 0.8,-0.24 1.18,-0.38 0.12,4.56 -0.38,10.7 -3.15,14.53 z m -0.49,-10.82 c -1.13,1.7 -4.06,7.05 -4.71,2.76 -0.42,-2.74 -1.59,-6.86 0.56,-9.27 0.72,-0.14 1.25,-1.02 1.75,-1.48 0.58,-0.52 1.15,-1.06 1.7,-1.62 0.2,-0.2 0.39,-0.41 0.59,-0.62 1.44,-0.13 2.82,-0.42 4.15,-0.87 -0.49,4.01 -1.88,7.86 -4.04,11.1 z M 237,222.93 c -0.47,-1.25 -1.01,-2.5 -1,-3.85 0.03,-3.63 2.92,-6.48 6.14,-8.08 1.86,0.65 3.78,1.1 5.76,1.33 -1.42,2.51 -3.05,4.91 -5,7.06 -0.71,0.79 -1.58,1.46 -2.37,2.17 -0.5,0.46 -1,0.91 -1.49,1.39 -0.32,0.32 -0.81,0.83 -1.29,0.9 -0.58,0.09 -0.57,-0.46 -0.75,-0.92 z m 5.62,-2.34 c 0.63,-0.68 1.25,-1.38 1.84,-2.11 1.55,-1.91 2.93,-3.95 4.15,-6.09 0.9,0.08 1.84,0.14 2.77,0.14 0.23,1.15 0.34,2.52 0.37,3.9 l -0.02,0.01 c -2.6,2.31 -5.7,3.71 -9.11,4.15 z m -2.81,-11.27 c 0.23,-0.01 0.46,-0.01 0.69,-0.02 2.88,-0.14 5.84,-1.69 8.48,-3.68 a 26.89,26.89 0 0 1 2.25,6.27 v 0 c -4.03,-0.01 -7.88,-0.88 -11.42,-2.57 z m 4.11,-1.67 c -6.77,2.91 -19.07,-0.21 -24.48,-5.62 -4.19,-4.19 -4.91,-10.89 -5.48,-16.53 -0.37,-3.73 -1.89,-11.17 0.31,-14.59 4.34,-6.71 9.71,-7.6 17.44,-8.03 15.51,-0.88 16.58,3.97 21.84,9.01 1.78,1.71 2.89,3.52 4.13,5.29 3.83,5.47 4.84,10.58 4.39,11.11 -4.28,7 -10.4,16.03 -18.15,19.36 z m -20.18,-59.38 c 0.79,-2 1.47,-3.7 1.92,-4.78 0.72,-1.74 1.33,-4.13 1.81,-6.55 5.67,5.08 6.74,15.2 13.7,18.8 1.15,0.59 2.31,0.98 3.48,1.2 -1.75,0.76 -3.8,1.58 -5.98,2.29 -6.97,-0.21 -12.69,-4.41 -14.93,-10.96 z m 13.22,11.48 c -6.11,1.76 -12.92,2.43 -17.29,-1.1 1.21,-3.1 2.55,-6.54 3.71,-9.47 2.29,5.89 7.35,9.8 13.58,10.57 z m -11.8,-16.46 c -1.84,4.45 -7.59,19.28 -9.08,23.12 -0.39,-2.54 -1.26,-9.6 0.15,-14.4 0.71,-2.4 1.7,-4.81 2.84,-7.59 1.68,-4.07 3.75,-9.12 5.86,-16.42 1.37,-1.18 2.59,-2.31 3.38,-3.21 0.03,0.59 0.09,1.34 0.18,2.16 -0.34,3.24 -1.71,12.44 -3.33,16.34 z m 37.52,45.24 0.02,-0.03 c 3.86,7.42 10.28,12.75 18.21,15.2 7.18,15.24 4.69,34.65 -1.23,50.35 -3.04,-3.05 -6.04,-6.74 -8.25,-10.35 -2.84,-4.63 -4.57,-9.9 -6.41,-15 -3.75,-10.38 -6.85,-21.08 -7.45,-32.07 1.83,-2.61 3.42,-5.34 5.11,-8.1 z m 17.76,65.48 c 6.2,-14.45 8.59,-34.97 1.44,-50.38 0.55,-0.74 1.11,-1.49 1.67,-2.23 0.5,1.29 2.35,6.21 3.4,11.32 1.06,5.15 1.72,15.87 1.89,18.74 0,0.46 0.03,0.8 0.06,1.05 0.56,8.26 -4.06,14.57 -8.18,21.61 -0.12,0.21 -0.24,0.4 -0.36,0.6 -0.05,-0.04 -0.09,-0.09 -0.14,-0.14 0.08,-0.16 0.15,-0.41 0.22,-0.57 z m -9.3,-96.12 c 0.74,0.48 1.62,0.89 2.53,1.31 2.57,1.18 5.49,2.53 6.89,6.09 2.32,5.88 6.18,19.77 5.31,25.35 -0.74,4.74 -1.99,8.64 -2.36,9.73 -2.06,2.62 -3.34,2.81 -6.68,1.13 -2.29,-1.15 -4.53,-2.46 -6.46,-4.19 -3.27,-2.93 -5.84,-6.31 -7.72,-10.31 -0.01,-0.02 -0.02,-0.03 -0.04,-0.05 -0.67,-5.47 -5.34,-12.91 -10.8,-18.14 -0.24,-0.53 -0.45,-1.07 -0.61,-1.62 -1.77,-6.06 3.21,-7.28 7.97,-6.98 3.53,0.22 10.03,1.68 11.97,-2.32 z m -5.75,-3.79 c 1.49,0.48 3.02,0.97 4.59,2.8 0.19,0.22 0.4,0.41 0.63,0.6 -2.65,6.24 -15.33,-1.14 -19.68,4.39 -1.28,1.63 -1.23,3.63 -0.51,5.67 -3.39,-2.94 -7.11,-5.33 -10.15,-5.42 -15.45,-0.46 -20.58,1.5 -23.82,4.79 l 2.97,-7.64 c 6.95,5.38 19.44,0.97 26.42,-2.16 6.14,0.64 12.57,-2.61 18.62,-3.33 0.31,0.1 0.61,0.2 0.93,0.3 z m -34.98,-20.61 c 1.79,2.21 8.27,5.32 14.55,8.32 3.57,1.71 6.94,3.33 9.32,4.7 4.29,2.49 6.29,4.3 7.61,5.51 0.56,0.51 1.01,0.91 1.48,1.22 -8.97,1.37 -19.82,7.55 -26.15,-2.35 -3.1,-4.85 -5.21,-10.8 -9.6,-14.72 0.55,-2.88 0.94,-5.69 1.14,-7.33 0.32,1.81 0.83,3.63 1.65,4.65 z m -36.32,-18.12 c -0.01,0.03 -0.38,0.69 -1.06,0.6 -1.04,-0.13 -2.69,-3.1 -3.68,-4.88 -0.49,-0.89 -0.92,-1.67 -1.29,-2.19 -1.06,-1.52 -1.03,-5.3 0.07,-8.79 0.18,-0.56 0.41,-0.86 0.71,-0.92 0.76,-0.14 2.1,1.08 2.81,1.98 l 1.08,1.36 -0.13,-1.73 c -0.01,-0.15 -1.1,-15.53 4.33,-22.04 4.03,-4.83 12.7,-5.87 15.13,-6.07 2.43,0.2 11.1,1.24 15.13,6.07 5.43,6.51 4.34,21.89 4.33,22.04 l -0.13,1.73 1.08,-1.36 c 0.72,-0.9 2.06,-2.12 2.81,-1.98 0.29,0.05 0.53,0.36 0.71,0.92 1.1,3.49 1.13,7.27 0.07,8.79 -0.37,0.52 -0.79,1.29 -1.29,2.19 -0.99,1.78 -2.64,4.76 -3.68,4.88 -0.68,0.09 -1.05,-0.57 -1.06,-0.6 l -1.17,-2.24 0.16,2.52 c 0,0.05 0.33,5.39 -0.83,7.54 -1.18,2.19 -10.7,9.59 -12.52,10.25 -1.03,0.37 -2.5,0.51 -3.61,0.56 -1.11,-0.05 -2.58,-0.19 -3.61,-0.56 -1.83,-0.67 -11.35,-8.06 -12.53,-10.25 -1.16,-2.15 -0.83,-7.49 -0.83,-7.54 l 0.16,-2.52 z m -8.23,150.72 c -0.53,-0.07 -1.16,-0.35 -1.61,-0.64 -2.77,-1.69 -5.02,-4.12 -6.74,-6.86 0.08,-4.8 0.15,-10.1 0.16,-14.41 0.6,2.06 1.41,4.05 2.43,6.01 1.11,2.16 3.47,6.65 6.13,7.38 0.4,0.11 0.74,0.11 1.01,0.03 0.11,1.22 0.18,2.44 0.19,3.67 0.01,0.9 -0.04,1.81 -0.08,2.71 0.11,0.88 -0.42,2.25 -1.49,2.11 z m 1.16,-10.18 c -1.76,0.79 -2.83,-0.71 -3.75,-1.92 -2.81,-3.69 -4.74,-7.96 -5.61,-12.48 -0.02,-2.86 -0.09,-4.99 -0.24,-5.76 -0.01,-0.04 -0.02,-0.09 -0.03,-0.14 0.38,0.38 0.77,0.75 1.18,1.1 0.84,3.68 2.5,7.1 5.52,9.26 1.01,0.73 1.75,0.94 2.28,0.79 0.15,0.42 0.29,0.88 0.32,0.97 0.21,0.63 0.37,1.27 0.5,1.92 0.25,1.3 0.37,2.61 0.57,3.92 0.12,0.86 0.2,1.92 -0.74,2.34 z m -0.86,-10.13 c -1.15,0.62 -2.1,-0.54 -2.87,-1.22 -0.66,-0.58 -1.16,-1.25 -1.68,-1.96 -2.77,-3.83 -3.27,-9.97 -3.15,-14.54 0.39,0.14 0.78,0.27 1.19,0.38 1.56,3.49 3.81,6.65 6.57,9.11 0.18,1.65 0.4,3.29 0.56,4.94 0.09,0.95 0.43,2.73 -0.62,3.29 z m 0.66,-11.22 c -0.65,4.29 -3.58,-1.07 -4.71,-2.76 -2.18,-3.26 -3.58,-7.3 -4.06,-11.34 1.24,0.42 2.54,0.7 3.89,0.84 0.29,0.3 0.56,0.61 0.86,0.9 0.56,0.55 1.12,1.09 1.71,1.62 0.51,0.46 1.03,1.34 1.75,1.48 2.15,2.39 0.98,6.51 0.56,9.26 z m -14.42,-18.12 -0.01,-0.01 c 0.05,-1.33 0.21,-2.54 0.43,-3.65 0.91,0 1.82,-0.05 2.71,-0.13 1.21,2.13 2.59,4.18 4.14,6.08 0.5,0.62 1.02,1.22 1.56,1.81 -3.3,-0.48 -6.3,-1.85 -8.83,-4.1 z m 13.98,7.67 c -0.48,-0.06 -0.97,-0.58 -1.29,-0.9 -0.48,-0.48 -0.98,-0.94 -1.49,-1.39 -0.79,-0.71 -1.66,-1.38 -2.37,-2.17 -1.94,-2.15 -3.57,-4.55 -5,-7.06 1.99,-0.23 3.92,-0.67 5.78,-1.33 3.2,1.61 6.07,4.44 6.11,8.07 0.01,1.36 -0.53,2.61 -1,3.85 -0.17,0.46 -0.16,1.01 -0.74,0.93 z m -13.42,-11.97 c 0,0 0,0 0,0 a 26.28,26.28 0 0 1 2.48,-6.67 c 2.6,1.9 5.48,3.35 8.25,3.49 0.62,0.03 1.22,0.05 1.81,0.06 -3.86,2.06 -8.08,3.11 -12.54,3.12 z m 7.31,-4.82 c -7.75,-3.33 -14.62,-13.11 -18.15,-19.35 0.27,-3.14 1.94,-6.89 4.44,-10.54 2.88,-4.19 6.29,-8.2 8.51,-9.99 6.04,-4.88 11.38,-4.67 16.51,-4.5 7.73,0.25 14.59,1.58 18.34,7.64 2.14,3.45 0.69,10.85 0.31,14.59 -0.57,5.64 -1.29,12.35 -5.48,16.53 -5.41,5.41 -17.38,8.67 -24.48,5.62 z m -37.12,-3.26 c 8.11,-2.45 14.66,-7.96 18.53,-15.58 1.72,2.83 3.26,5.6 5.14,8.22 -0.59,11.03 -3.7,21.76 -7.46,32.17 -1.84,5.1 -3.57,10.37 -6.41,15 -2.41,3.94 -5.03,7.46 -8.36,10.67 -5.92,-15.64 -8.53,-35.23 -1.44,-50.48 z m 0.47,49.75 c -4.04,-6.87 -8.79,-13.42 -8.2,-21.66 0.18,-3.02 0.92,-14.34 1.97,-19.44 0.98,-4.75 2.64,-9.32 3.27,-10.99 0.58,0.77 1.16,1.55 1.73,2.32 0.01,0.02 0.03,0.03 0.04,0.04 -6.9,15.13 -4.56,34.16 1.19,49.73 z m 64.46,-87.45 c -1.49,-3.84 -7.24,-18.66 -9.08,-23.12 -2.06,-4.98 -3.19,-15.47 -3.24,-15.9 0.1,-0.89 0.17,-1.71 0.2,-2.37 0.81,0.88 1.98,1.97 3.29,3.09 2.1,7.24 4.16,12.26 5.83,16.31 1.14,2.78 2.13,5.18 2.84,7.59 1.42,4.8 0.55,11.85 0.16,14.4 z m -7.22,-17.05 c 1.17,2.95 2.51,6.4 3.72,9.49 -2.92,2.92 -11.1,2.84 -17.52,1.16 6.33,-0.71 11.49,-4.67 13.8,-10.65 z m -15.45,10.12 -0.05,0.02 c -2.15,-0.7 -4.16,-1.5 -5.88,-2.25 1.18,-0.23 2.34,-0.61 3.48,-1.2 7,-3.62 8.04,-13.82 13.78,-18.87 0.48,2.33 1.07,4.64 1.77,6.32 0.46,1.11 1.17,2.88 1.99,4.95 -2.24,6.62 -8.03,10.87 -15.09,11.03 z m -22.97,-7.42 c 1.32,-1.2 3.33,-3.02 7.61,-5.51 2.37,-1.38 5.75,-2.99 9.32,-4.7 6.27,-3.01 12.76,-6.11 14.55,-8.32 0.75,-0.93 1.24,-2.52 1.55,-4.16 0.22,1.72 0.6,4.35 1.12,7.02 -4.45,3.92 -6.56,9.91 -9.68,14.8 -6.38,9.97 -17.32,3.64 -26.33,2.33 0.6,-0.33 1.15,-0.81 1.86,-1.46 z m -8.09,4.88 c 1.57,-1.83 3.11,-2.32 4.59,-2.8 0.05,-0.01 0.09,-0.03 0.13,-0.04 l 0.46,-0.02 c 6.09,0.69 12.57,3.99 18.75,3.35 7.03,3.15 19.85,6.99 26.54,2.08 1.18,3.03 2.19,5.64 2.72,7.01 -3.32,-3.18 -8.79,-4.65 -23.77,-4.26 -3.04,0.08 -6.59,2.19 -9.95,5.24 0.6,-1.91 0.57,-3.77 -0.63,-5.3 -4.36,-5.56 -17.13,1.92 -19.71,-4.47 0.33,-0.25 0.63,-0.5 0.87,-0.79 z m -10.58,8.39 c 1.4,-3.57 4.32,-4.91 6.89,-6.09 0.81,-0.37 1.6,-0.74 2.28,-1.16 1.87,4.13 8.46,2.65 12.01,2.43 4.75,-0.3 9.74,0.92 7.97,6.98 -0.13,0.44 -0.28,0.87 -0.46,1.29 -5.68,5.67 -10.52,13.72 -10.94,18.67 -1.88,3.97 -4.43,7.32 -7.69,10.23 -1.93,1.73 -4.16,3.04 -6.46,4.19 -3.2,1.61 -4.38,1.45 -6.3,-0.87 l -0.15,-0.29 c -0.02,-0.04 -1.6,-4.47 -2.47,-10.04 -0.86,-5.57 3,-19.46 5.32,-25.34 z m -10.64,37.01 c 0.49,-2.88 3.52,-7.49 4.7,-9.08 0.77,3.88 1.76,6.87 2.02,7.64 -0.41,1.04 -2.4,6.23 -3.51,11.65 -1.18,5.74 -1.87,17.9 -1.96,19.5 -0.11,0.16 -0.32,0.45 -0.58,0.85 -1.76,-7.29 -1.94,-23.1 -0.67,-30.56 z m -7.83,74.34 c -0.53,-8.73 1.44,-14.01 2.42,-16.01 1.13,7.5 4.35,15.01 7.41,21.94 4.06,9.19 6.58,19.52 7.33,29.39 -0.08,2.04 0,3.49 0.2,4.78 -7.68,-9.72 -14.26,-20.27 -16.66,-32.47 -0.29,-2.51 -0.54,-5.01 -0.7,-7.63 z m 14.33,80.1 -1.4,-1.59 c -0.32,-3.78 -1.98,-9.71 -2.25,-10.63 0.03,-0.22 0.08,-0.79 0.14,-1.55 1.09,2.03 2.7,4.9 4.05,6.96 1.62,2.46 0.19,5.55 -0.54,6.81 z m -3.21,-19.42 c 1.27,2.37 3.55,6.53 5.13,8.95 1.06,1.61 0.81,3.49 0.3,4.95 a 5.73,5.73 0 0 0 -0.79,-1.88 c -1.72,-2.63 -3.87,-6.62 -4.81,-8.4 0.08,-1.18 0.14,-2.48 0.17,-3.62 z m 7.25,-16 c 0.98,4.15 1.59,6.28 1.59,8.27 0,5.13 1.61,10.78 -0.23,10.78 -0.45,0 -1.4,-0.46 -2.7,-2.51 -0.87,-1.38 -1.13,-3.28 -1.38,-5.12 -0.32,-2.34 -0.61,-4.55 -2.17,-5.55 -0.38,-0.24 -0.8,-0.28 -1.23,-0.12 -2.56,0.96 -1.73,5.34 -2.26,7.21 l -0.04,0.13 0.03,0.14 c 0.68,2.91 -0.35,9.85 -0.36,9.92 l -0.02,0.12 0.03,0.11 c 0.02,0.08 2.29,7.98 2.29,11.6 0,2.38 -1.17,3.37 -1.83,3.74 -0.91,-2.4 -4.66,-12.39 -5.12,-14.53 -0.47,-2.21 -0.79,-16.08 -0.25,-31.44 0.33,-9.5 -2.43,-17.55 -3.41,-24.69 3.14,10.54 9.27,19.85 16.21,28.54 l 0.04,0.06 c 0.22,1.11 0.5,2.02 0.81,3.34 z m 2.5,-27.52 c -0.34,1.45 -0.2,0.85 -0.59,2.44 -1.36,3.84 -2.33,7.3 -2.64,9.79 -0.06,0.44 -0.1,0.85 -0.15,1.26 -0.81,-5.91 -2.34,-12.77 -4.3,-18.22 -3.49,-9.7 -8.89,-19.13 -10.19,-29.46 l 0.01,-0.01 0.01,-0.01 v -8.88 c 0,-6.91 4.65,-14.62 6.38,-17.25 v -0.01 c -0.07,9.41 6.6,16.88 10.76,25.08 5.08,10 3.24,23.81 0.86,34.54 -0.09,0.42 -0.09,0.4 -0.15,0.73 z m 8.41,-25.26 c -0.19,4.48 -3.19,12.43 -6.09,20.11 -0.14,0.38 -0.48,1.04 -0.84,1.74 1.76,-8.33 2.67,-16.72 0.86,-25.25 -0.18,-0.84 -0.41,-1.67 -0.68,-2.48 1.73,-2.05 3.67,-3.89 5.83,-5.5 0.31,0.97 1.21,4.46 0.92,11.38 z m 7.02,-42.62 c -3.05,4.84 -4.81,14.89 -4.89,15.43 0,0.06 0.17,6.04 -0.35,9.33 -0.5,3.17 -2.69,5.57 -2.71,5.59 l -0.22,0.24 c 0,0 0,0 0,0 -2.15,1.6 -4.1,3.42 -5.84,5.44 -0.05,-0.13 -0.09,-0.24 -0.12,-0.35 -0.79,-2.15 -1.83,-4.21 -2.97,-6.23 3.2,-3.02 6.13,-6.39 9.01,-11.16 2.81,-4.67 3.84,-8.28 5.76,-13.29 4.13,-10.79 7.45,-21.93 8.14,-33.41 0.11,0.15 0.22,0.3 0.34,0.45 0.28,2.88 0.74,7.43 1.31,11.82 0.01,0.05 0.01,0.1 0.02,0.15 -1.12,3.24 -4.88,11.86 -7.48,15.99 z m 7.37,-26.47 c 1.54,1.78 3.62,3.87 5.95,5.65 -2.46,4.58 -3.51,9.53 -3.14,14.45 -1.13,-4.41 -2.22,-14.28 -2.81,-20.1 z m 4.29,24.45 c -0.65,-2.52 -0.89,-4.71 -0.88,-6.65 1.52,1.28 3.2,2.26 5,2.95 0.29,2.56 0.96,5.1 1.96,7.51 -2.33,-0.72 -4.4,-2.03 -6.08,-3.81 z m 1.88,5.45 c -0.03,-0.08 -0.08,-0.21 -0.15,-0.36 -0.57,-1.36 -1.02,-2.64 -1.39,-3.85 a 14.72,14.72 0 0 0 4.23,2.7 c -0.01,0.02 -0.02,0.05 -0.02,0.07 -0.07,2.44 0.05,5.12 0.53,7.73 -0.47,-0.44 -0.92,-0.9 -1.34,-1.39 -0.44,-1.32 -1.13,-2.98 -1.86,-4.9 z m -3.01,47.87 c -0.52,-4.23 2.32,-8.7 4.01,-11.38 0.31,-0.48 0.55,-0.87 0.75,-1.2 6.75,3.02 14.85,8.33 13.03,17.31 -0.51,2.5 -2.7,5.18 -4.24,7.06 -2.16,2.63 -4.18,1.42 -6.44,-0.37 -1.96,-1.55 -3.89,-3.14 -5.82,-4.73 -0.35,-1.1 -0.86,-3.16 -1.29,-6.69 z m -5.47,50.44 c 1.78,-7.08 3.19,-12.68 2.95,-16.38 -0.47,-7.29 1.67,-16.68 3.08,-21.91 4.19,4.58 3.67,11.87 2.8,17.88 -1.04,7.17 -2.2,17.41 -9.02,21.13 0.07,-0.24 0.13,-0.48 0.19,-0.72 z m -7.49,42.53 c 0.61,-8.33 2.63,-19.97 4.59,-29.56 -0.64,7.47 -0.44,14.04 1.25,22.9 1.69,8.86 7.09,21.01 9.12,32.17 0.76,4.2 1.47,14.93 -0.59,20.87 -1.36,3.94 -5.38,7.15 -8.8,6.22 -1.52,-11.84 -6.97,-33.61 -5.57,-52.6 z m 1.57,120.23 c -1.61,-11.17 -3.13,-21.72 -3.05,-26.41 0.14,-8.22 5.08,-20.64 6.81,-24.75 0.23,0.72 0.51,1.5 0.84,2.3 -3.01,6.95 -9.91,23.19 1.07,77.34 -0.63,1.54 -1.39,3.03 -2.33,4.43 0.08,-1.75 0.11,-3.43 0.05,-4.59 -0.23,-6.4 -1.83,-17.51 -3.39,-28.32 z m 6.14,27.25 c -10.6,-52.62 -4.18,-68.13 -1.14,-75.14 1.01,2.37 2.29,4.91 3.45,7.07 -0.07,12.9 -0.15,25.81 -0.22,38.71 -0.06,9.31 1.14,20.26 -2.09,29.36 z m 12.68,7.42 c 0.07,0.38 0.15,0.75 0.22,1.11 -3.86,-4.37 -3.91,-11 -3.93,-16.95 0,-0.87 -0.01,-1.72 -0.02,-2.54 -0.14,-7.71 -0.21,-14.78 0.25,-21.83 0.8,3.52 2.95,8.73 8.67,11.27 -2.35,8.75 -5.93,25 -5.19,28.94 z m 15.14,-54.26 c -1.79,5.94 -4.04,10.65 -5.84,14.44 -1.09,2.28 -2.03,4.25 -2.69,6.08 -0.28,0.78 -0.67,2.07 -1.12,3.7 -5.79,-2.67 -8.03,-8.56 -8.85,-11.88 0.05,-0.62 0.09,-1.23 0.15,-1.85 0.15,-1.57 0.24,-3.18 0.34,-4.89 0.26,-4.48 0.39,-9.06 1.78,-13.37 1.05,-3.26 2.7,-6.3 4.64,-9.12 1.94,-2.84 4.37,-5.27 6.39,-8.04 1.18,-1.62 2.28,-3.3 3.31,-5.02 1.01,4.91 4.26,22.06 1.89,29.95 z m 4.46,-47.5 c -0.82,4.47 -2.88,8.81 -4.95,12.82 -1.22,2.36 -2.43,5.09 -4.16,7.12 -4.75,5.57 -9.88,10.96 -12.19,18.07 -1.59,4.89 -1.95,9.92 -2.25,15.02 -0.1,1.7 -0.19,3.3 -0.33,4.85 -0.77,8.31 -0.69,16.47 -0.52,25.51 0.02,0.82 0.02,1.66 0.02,2.53 0.03,6.73 0.06,14.31 5.44,18.9 0.15,0.6 0.29,1.17 0.44,1.7 0.59,3 1.53,9.64 1.87,11.14 0.41,1.79 0.35,3.01 -1.09,5.13 -1.23,1.81 -3.07,3.24 -4.65,4.14 1.21,-1.95 3.3,-5.33 3.3,-5.33 -1.58,1.67 -4.79,6.07 -4.86,6.17 v 0 c -0.59,0.74 -3.37,5.35 -3.96,9.56 -0.58,4.1 -2.73,8.63 -6.67,9.85 l -0.04,0.02 c -0.87,0.38 -2.49,1.08 -3.5,3.6 -0.89,2.21 -3.31,3.87 -5.25,4.36 -2.02,0.52 -4.63,-0.48 -5.59,-2.14 l -0.03,-0.05 c -0.15,-0.8 -0.02,-1.09 0.3,-1.39 0.09,-0.08 0.24,-0.22 0.44,-0.39 1.3,-1.15 2.72,-2.45 3.1,-3.2 0.35,-0.69 3.09,-5.16 5.22,-6.9 0,0 -3.43,1.78 -6.01,6.49 -0.36,0.65 -2.13,2.26 -2.9,2.94 -0.21,0.18 -0.37,0.33 -0.46,0.41 -0.56,0.53 -0.73,1.13 -0.58,2.08 -0.39,0.19 -0.63,0.25 -1.33,-0.08 -0.6,-0.28 -0.77,-1.06 -0.82,-1.64 v 0 c 0,-0.03 0.28,-3.61 6.66,-11.72 0,0 -2.09,1.66 -3.9,4.36 -2.35,3.51 -3.22,5.39 -3.52,6.41 -0.43,0.04 -0.99,0.02 -1.2,-0.14 -0.43,-0.32 -0.93,-1.07 -0.73,-1.64 0.07,-0.22 0.13,-0.4 0.18,-0.54 v 0 c 0.75,-2.59 3.46,-8.55 5.75,-11.17 0,0 -1.34,0.92 -2.99,3.52 -1.66,2.6 -2.59,4.28 -3.32,6.45 -0.35,-0.04 -0.56,-0.16 -0.84,-0.39 -0.13,-0.12 -0.31,-0.85 -0.29,-1.87 0.01,-0.28 0.05,-0.61 0.1,-0.96 0.06,-0.43 0.12,-0.87 0.11,-1.28 0,-0.11 -0.01,-0.22 -0.03,-0.32 0.36,-1.49 1.42,-4.16 4.21,-7.46 0,0 -1.33,1.12 -2.44,2.64 -1,1.37 -1.76,2.43 -2.24,3.51 -0.05,-0.15 -0.09,-0.32 -0.12,-0.52 -0.02,-0.17 -0.06,-0.36 -0.09,-0.57 -0.17,-0.98 -0.4,-2.31 0.23,-2.99 0,0 2.39,-3.56 3.31,-4.14 1.36,-0.85 10.67,-8.5 11.82,-11.19 0.28,-0.66 0.53,-1.36 0.77,-2.05 0.71,-2.03 1.45,-4.12 3.19,-5.6 2.49,-2.12 4.26,-7.44 4.26,-7.44 -0.01,0.02 -1.65,3.13 -3.51,5.38 0.09,-1.64 0.47,-2.83 0.91,-4.16 0.14,-0.44 0.41,-3.28 0.57,-6.25 1.3,-1.83 2.29,-3.8 3.06,-5.85 v 0 c 0,0 0,0 0,0 3.04,-8.13 2.46,-17.7 2.51,-26.13 l 0.24,-41.75 c 1.28,2.34 2.29,4.03 2.39,4.18 0,0 -6.88,-13.6 -7.23,-18.4 -0.2,-2.79 0,-4.27 0.17,-5.57 0.13,-1.01 0.26,-1.96 0.18,-3.32 -0.03,-0.49 -0.21,-1.92 -0.48,-4.07 2.54,0.55 5.34,-0.92 7.53,-3.6 4.05,-4.96 3.84,-13.91 3.06,-20.79 0.95,0.32 2.01,0.28 2.93,-0.18 -0.05,1.75 0.05,3.52 0.33,5.31 0.9,5.56 3.29,11.65 8.13,14.97 3.86,2.65 8.75,4.07 12.71,1.47 -0.11,1 -0.24,1.86 -0.37,2.57 z m 1.95,-18.84 c -0.49,5.86 -0.96,11.47 -1.45,15.46 -6.49,5.08 -14.53,-1.87 -17.76,-7.56 -3.5,-6.16 -3.16,-13.57 -1.65,-20.23 2.78,-12.22 10.66,-22.54 14.13,-34.55 2.15,5.04 4.03,10.17 5.06,15.61 1.39,7.36 2.04,14.8 2.45,22.25 -0.28,3.05 -0.54,6.12 -0.78,9.02 z m 2.14,-21.96 c -0.36,2.79 -0.69,5.87 -1,9.06 -0.88,-11.93 -2.7,-23.69 -7.57,-34.91 -8.07,-18.59 -15.91,-36.69 -16.3,-57.32 -0.02,-1.32 0.07,-2.55 0.33,-3.85 1.12,-5.64 5.34,2.65 5.46,2.88 1.26,2.4 2.63,4.11 2.95,6.94 0.15,1.33 0.28,2.58 0.56,3.89 1.96,9.16 3.66,18.05 6.95,26.88 1.51,4.04 3.52,7.88 4.99,11.93 1.65,4.56 2.36,9.58 3.13,14.35 0.77,4.79 1.21,9.61 1.36,14.44 -0.32,1.93 -0.62,3.84 -0.86,5.71 z m 7.4,-36.39 c -0.32,2.55 -1.33,6.84 -2.5,11.82 -1.15,4.91 -2.49,10.63 -3.57,16.31 -0.22,-4.02 -0.62,-8.04 -1.21,-12.07 -0.79,-5.42 -1.88,-10.89 -3.75,-16.05 -1.9,-5.25 -4.47,-10.23 -6.26,-15.54 -3.11,-9.24 -3.99,-18.73 -6.08,-28.15 -0.65,-2.93 -3.24,-6.18 -4.87,-8.64 -0.48,-0.72 -1.93,-1.34 -2.73,-0.77 -4.07,2.9 -1.68,12.79 -1.23,16.61 1.26,10.83 4.68,21.32 8.68,31.41 2.09,5.27 4.58,10.39 6.84,15.59 -3.77,13.67 -14.79,27.07 -15.58,41.56 -0.92,0.63 -2.07,0.7 -3.03,0.28 -0.11,-0.9 -0.23,-1.76 -0.34,-2.56 -1.67,-11.5 -7.4,-25 -9.34,-34.01 -1.83,-8.5 -1.8,-17.53 -0.87,-26.33 0.52,-2.4 1.02,-4.57 1.46,-6.4 7.73,-3.66 8.57,-14.08 9.83,-21.78 1.04,-6.33 1.36,-14.08 -3.22,-18.78 0.55,-1.97 0.94,-3.19 0.95,-3.24 l 0.07,-0.22 -0.01,-0.01 c 2.81,2.35 5.63,4.75 8.66,6.76 0.14,0.09 0.28,0.15 0.42,0.19 2.16,3.11 4.17,7.09 6.61,11.97 2.08,4.16 4.44,8.88 7.42,14.03 0.84,1.46 1.54,3.09 2.27,4.82 2.11,4.94 4.47,10.49 10.97,11.39 0.34,1.88 1.03,6.9 0.41,11.81 z m 1.82,-12.76 h -0.33 c -7.25,-0.01 -9.49,-5.28 -11.87,-10.86 -0.72,-1.68 -1.45,-3.41 -2.33,-4.93 -2.96,-5.13 -5.31,-9.83 -7.39,-13.98 -2.34,-4.68 -4.29,-8.56 -6.38,-11.66 2.32,-1.12 4.97,-6.31 5.67,-7.53 2.63,-4.56 0.64,-10.03 -2.38,-13.94 -2.26,-2.93 -6.64,-5.38 -10.08,-6.94 0.03,-0.1 0.04,-0.2 0.04,-0.28 0,-0.2 0.01,-0.99 0.04,-2.19 0.01,-0.45 0.02,-0.91 0.02,-1.37 a 23.71,23.71 0 0 0 3.43,4.01 c 1.23,1.15 3.76,3.56 5.51,3.59 1.39,0.02 1.38,-1.32 1.48,-2.42 0.24,-2.55 0.18,-5.11 -0.06,-7.66 0.54,-0.59 0.67,-1.67 0.66,-2.56 -0.02,-3.13 -0.56,-5.68 -1.63,-8.21 1.3,-1.37 0.42,-6.35 0.01,-8.9 0,-0.01 0.01,-0.01 0.01,-0.01 0.71,-3.54 2.48,-9.17 0.06,-12.38 0.43,-0.3 0.56,-1 0.76,-1.48 0.67,-1.59 1.31,-3.73 1.04,-5.47 -0.49,-3.16 -3.08,-5.71 -5.94,-7.26 1.38,-0.53 2.72,-1.17 4.02,-1.94 8.24,-0.15 14.15,-2.66 19.23,-7.74 3.86,-3.86 4.21,-11.03 4.79,-16.11 0.51,-4.44 1.81,-11.48 -0.8,-15.53 -0.52,-0.8 -1.04,-1.54 -1.61,-2.22 0.07,-0.4 1.77,-9.57 -0.01,-15.61 -0.72,-2.43 -1.71,-4.85 -2.86,-7.64 -1.6,-3.9 -3.57,-8.69 -5.59,-15.49 3.19,2.66 6.89,5.33 8.09,5.77 0.95,0.35 2.19,0.51 3.26,0.59 h 1.42 c 1.07,-0.08 2.31,-0.24 3.26,-0.59 1.21,-0.44 4.96,-3.15 8.16,-5.83 -2.02,6.86 -4.01,11.68 -5.62,15.6 -1.15,2.8 -2.14,5.21 -2.86,7.64 -1.78,6.04 -0.08,15.22 -0.01,15.61 0,0 -1.06,1.68 -1.6,2.5 -2.62,4.05 -1.31,11.09 -0.8,15.53 0.58,5.08 0.93,12.25 4.79,16.11 5.3,5.3 11.51,7.81 20.31,7.74 0.95,0.5 1.92,0.95 2.91,1.33 -2.87,1.55 -5.48,4.1 -5.97,7.28 -0.27,1.74 0.37,3.88 1.04,5.47 0.2,0.48 0.34,1.18 0.77,1.48 -2.42,3.22 -0.66,8.84 0.06,12.38 0,0.01 0.01,0.01 0.01,0.02 -0.41,2.55 -1.29,7.52 0.01,8.89 -1.07,2.54 -1.61,5.08 -1.63,8.21 -0.01,0.89 0.12,1.97 0.66,2.56 -0.24,2.55 -0.3,5.11 -0.06,7.66 0.1,1.09 0.1,2.44 1.48,2.42 1.74,-0.03 4.28,-2.44 5.51,-3.59 1.49,-1.4 2.75,-2.94 3.84,-4.64 0.01,0.72 0.02,1.42 0.04,2.11 0.02,1.2 0.04,1.99 0.04,2.19 0,0.09 0.02,0.19 0.05,0.3 -3.47,1.54 -7.93,3.92 -10.24,6.93 -3.02,3.91 -5.32,9.39 -2.69,13.94 0.72,1.25 3.65,6.78 6.07,7.72 -2.07,3.09 -4.01,6.94 -6.34,11.59 -2.08,4.15 -4.43,8.85 -7.39,13.98 -0.88,1.52 -1.61,3.25 -2.33,4.93 -2.35,5.57 -4.58,10.82 -11.75,10.88 z m 9.76,58.08 c -0.3,-3.14 -0.63,-6.18 -0.98,-8.93 -0.24,-1.88 -0.54,-3.81 -0.88,-5.76 0.15,-4.91 0.58,-9.81 1.37,-14.68 0.77,-4.77 1.48,-9.79 3.13,-14.35 1.47,-4.06 3.48,-7.89 4.99,-11.93 3.29,-8.82 4.99,-17.71 6.95,-26.88 0.28,-1.31 0.41,-2.56 0.56,-3.89 0.32,-2.82 1.69,-4.54 2.95,-6.94 0.12,-0.22 4.34,-8.51 5.46,-2.88 0.26,1.31 0.36,2.53 0.33,3.85 -0.39,20.63 -8.23,38.73 -16.3,57.32 -4.9,11.26 -6.71,23.07 -7.58,35.07 z m 1.15,13.03 c -0.25,-2.94 -0.51,-6.04 -0.79,-9.12 0.41,-7.51 1.06,-15.02 2.46,-22.44 1.02,-5.4 2.89,-10.5 5.01,-15.51 3.48,11.99 11.4,22.54 14.18,34.74 1.51,6.66 1.85,14.06 -1.65,20.23 -3.23,5.69 -11.27,12.64 -17.76,7.56 -0.48,-3.99 -0.95,-9.6 -1.45,-15.46 z m 14.95,86.86 c -0.66,-1.83 -1.6,-3.8 -2.69,-6.08 -1.81,-3.79 -4.05,-8.5 -5.84,-14.44 -2.37,-7.89 0.88,-25.04 1.89,-29.95 1.03,1.72 2.13,3.4 3.31,5.02 2.02,2.77 4.45,5.21 6.39,8.04 1.93,2.82 3.58,5.86 4.64,9.12 1.39,4.31 1.52,8.89 1.78,13.37 0.1,1.71 0.19,3.32 0.34,4.89 0.05,0.55 0.09,1.09 0.13,1.63 -0.54,2.26 -1.76,5.86 -4.41,8.77 -1.18,1.29 -2.63,2.44 -4.43,3.28 -0.44,-1.6 -0.83,-2.88 -1.11,-3.65 z m 1.41,4.75 c 2.1,-0.94 3.71,-2.24 4.95,-3.68 2.2,-2.55 3.23,-5.55 3.72,-7.8 0.48,7.14 0.4,14.28 0.26,22.09 -0.01,0.83 -0.02,1.68 -0.02,2.54 -0.02,5.95 -0.07,12.58 -3.93,16.95 0.08,-0.36 0.15,-0.73 0.22,-1.11 0.74,-3.94 -2.85,-20.24 -5.2,-28.99 z m 22.22,38.83 c -1.86,-2.25 -3.5,-5.36 -3.51,-5.38 0,0 1.78,5.32 4.26,7.44 1.74,1.48 2.47,3.58 3.19,5.6 0.24,0.68 0.49,1.39 0.77,2.05 1.15,2.69 10.46,10.34 11.82,11.19 0.92,0.58 3.31,4.14 3.31,4.14 0.64,0.68 0.4,2.02 0.23,2.99 -0.04,0.21 -0.07,0.4 -0.09,0.57 -0.03,0.19 -0.07,0.36 -0.11,0.51 -0.48,-1.09 -1.25,-2.16 -2.26,-3.54 -1.12,-1.52 -2.44,-2.64 -2.44,-2.64 2.83,3.34 3.87,6.03 4.22,7.51 -0.02,0.1 -0.03,0.21 -0.03,0.32 -0.01,0.41 0.05,0.85 0.11,1.28 0.05,0.34 0.09,0.67 0.1,0.96 0.02,1.02 -0.16,1.75 -0.29,1.87 -0.27,0.22 -0.48,0.34 -0.83,0.39 -0.73,-2.2 -1.66,-3.88 -3.33,-6.51 -1.65,-2.59 -2.99,-3.52 -2.99,-3.52 2.25,2.56 4.88,8.3 5.7,10.98 0.05,0.18 0.13,0.42 0.26,0.78 0.19,0.57 -0.3,1.32 -0.73,1.64 -0.18,0.13 -0.62,0.17 -1.01,0.15 -0.13,-0.84 -0.8,-2.7 -3.64,-6.94 -1.81,-2.7 -3.9,-4.36 -3.9,-4.36 5.38,6.84 6.42,10.46 6.61,11.44 l -0.01,0.29 c -0.01,0.48 -0.03,1.75 -0.84,2.13 -0.7,0.33 -0.94,0.27 -1.33,0.08 0.15,-0.95 -0.02,-1.55 -0.58,-2.08 a 9.67,9.67 0 0 0 -0.46,-0.41 c -0.77,-0.68 -2.54,-2.28 -2.9,-2.94 -2.59,-4.71 -6.01,-6.49 -6.01,-6.49 2.13,1.74 4.87,6.2 5.22,6.9 0.38,0.75 1.8,2.04 3.1,3.2 0.2,0.18 0.35,0.31 0.44,0.39 0.32,0.3 0.44,0.59 0.3,1.39 l -0.03,0.05 c -0.96,1.65 -3.57,2.65 -5.59,2.14 -1.93,-0.49 -4.36,-2.15 -5.24,-4.36 -1.01,-2.51 -2.63,-3.22 -3.51,-3.6 l -0.04,-0.02 c -3.93,-1.22 -6.09,-5.75 -6.67,-9.85 -0.59,-4.21 -3.36,-8.82 -3.96,-9.56 v 0 c -0.07,-0.1 -3.28,-4.5 -4.86,-6.17 0,0 2.09,3.38 3.3,5.33 -1.58,-0.9 -3.42,-2.33 -4.65,-4.14 -1.44,-2.12 -1.5,-3.34 -1.09,-5.13 0.34,-1.5 1.28,-8.14 1.87,-11.14 0.15,-0.52 0.29,-1.1 0.44,-1.7 5.38,-4.59 5.42,-12.17 5.44,-18.9 0,-0.86 0.01,-1.71 0.02,-2.53 0.17,-9.04 0.24,-17.2 -0.52,-25.51 -0.14,-1.55 -0.24,-3.16 -0.33,-4.85 -0.3,-5.1 -0.67,-10.13 -2.25,-15.02 -2.31,-7.11 -7.44,-12.5 -12.19,-18.07 -1.73,-2.03 -2.94,-4.76 -4.16,-7.12 -2.07,-4.01 -4.13,-8.35 -4.95,-12.82 -0.13,-0.72 -0.26,-1.58 -0.39,-2.55 3.97,2.6 8.85,1.18 12.71,-1.47 4.84,-3.32 7.6,-9.37 8.13,-14.97 0.18,-1.93 0.21,-3.8 0.12,-5.62 0.92,0.48 2.03,0.55 3.02,0.28 -0.82,6.93 -1.11,16.11 3.02,21.16 2.24,2.75 5.13,4.22 7.72,3.55 -0.26,2 -0.42,3.34 -0.45,3.81 -0.08,1.35 0.05,2.31 0.18,3.32 0.17,1.31 0.37,2.79 0.17,5.57 -0.34,4.8 -7.23,18.4 -7.23,18.4 0.09,-0.15 1.07,-1.79 2.33,-4.08 l 0.24,41.8 c 0.06,10.56 -0.88,22.93 5.57,31.99 0.16,2.97 0.43,5.81 0.57,6.25 0.43,1.31 0.82,2.5 0.91,4.15 z m -6.43,-46.62 c -0.07,-12.92 -0.15,-25.83 -0.22,-38.75 1.15,-2.14 2.43,-4.67 3.45,-7.03 3.08,7.11 9.35,22.86 -1.18,75.04 -3.2,-9.08 -2,-19.99 -2.05,-29.26 z M 266.81,464 c 0.08,4.69 -1.44,15.24 -3.05,26.41 -1.56,10.8 -3.16,21.92 -3.38,28.32 -0.06,1.15 -0.03,2.84 0.05,4.59 -0.99,-1.47 -1.77,-3.04 -2.42,-4.66 10.86,-53.59 4.21,-70.03 1.16,-77.1 0.32,-0.8 0.61,-1.57 0.85,-2.29 1.72,4.12 6.64,16.52 6.79,24.73 z m -1.43,-93.97 c 1.41,19.04 -4.08,40.88 -5.59,52.69 -0.01,0.06 -0.01,0.11 -0.02,0.17 -3.46,1.1 -7.6,-2.16 -8.99,-6.17 -2.05,-5.94 -1.35,-16.67 -0.59,-20.87 2.03,-11.16 7.43,-23.31 9.12,-32.17 1.8,-9.43 1.93,-16.58 1.14,-24.84 2.06,9.88 4.28,22.38 4.93,31.19 z m -6.2,-37.09 c 1.24,9.69 1.49,19.75 -0.53,29.16 -1.94,9.01 -7.67,22.51 -9.34,34.01 -0.1,0.72 -0.21,1.49 -0.31,2.3 -1.01,0.35 -2.23,0.24 -3.13,-0.41 -1.11,-15.77 -11.6,-27.74 -15.39,-41.54 2.26,-5.23 4.78,-10.38 6.88,-15.69 4,-10.09 7.42,-20.58 8.68,-31.41 0.45,-3.82 2.84,-13.71 -1.23,-16.61 -0.8,-0.57 -2.25,0.05 -2.73,0.77 -1.63,2.46 -4.22,5.71 -4.87,8.64 -2.09,9.42 -2.97,18.91 -6.08,28.15 -1.79,5.31 -4.36,10.29 -6.26,15.54 -1.87,5.16 -2.96,10.63 -3.75,16.05 -0.6,4.1 -1,8.2 -1.22,12.3 -1.07,-5.66 -2.41,-11.36 -3.55,-16.26 -1.17,-4.97 -2.17,-9.27 -2.5,-11.82 -0.63,-4.91 0.07,-9.93 0.38,-11.82 6.52,-0.89 8.88,-6.44 10.99,-11.39 0.74,-1.73 1.43,-3.35 2.27,-4.82 2.98,-5.16 5.34,-9.87 7.42,-14.03 2.48,-4.95 4.51,-8.98 6.71,-12.11 0.04,-0.02 0.07,-0.03 0.11,-0.06 3.12,-2.07 6.01,-4.54 8.89,-6.95 l 0.08,0.29 c 0.01,0.04 0.42,1.29 0.97,3.3 -4.67,4.69 -4.34,12.49 -3.29,18.86 1.27,7.74 2.11,18.21 9.94,21.83 0.27,1.14 0.56,2.38 0.86,3.72 z m -7.31,-43.66 c 1.41,5.24 3.54,14.59 3.07,21.84 -0.24,3.71 1.17,9.3 2.95,16.38 0.07,0.3 0.15,0.61 0.23,0.93 -6.91,-3.67 -8.08,-13.99 -9.12,-21.19 -0.88,-6.04 -1.39,-13.38 2.87,-17.96 z m -3.46,-23.6 c 1.7,2.67 4.53,7.15 4.01,11.38 -0.61,4.92 -1.15,6.16 -1.45,6.76 -1.96,1.61 -3.92,3.22 -5.91,4.8 -2.26,1.79 -4.27,3 -6.44,0.37 -1.55,-1.88 -3.73,-4.56 -4.24,-7.06 -1.87,-9.11 6.48,-14.43 13.29,-17.43 0.2,0.33 0.44,0.71 0.74,1.18 z m 1.54,-38.38 c -0.82,2.16 -1.62,4.23 -2.17,5.91 -0.62,0.77 -1.3,1.49 -2.01,2.18 0.48,-2.6 0.6,-5.29 0.53,-7.73 0,-0.03 -0.01,-0.05 -0.02,-0.08 1.78,-0.75 3.4,-1.83 4.78,-3.22 -0.36,0.97 -0.74,1.96 -1.11,2.94 z m 1.39,-4.18 c -1.75,2.05 -4,3.54 -6.55,4.34 0.99,-2.38 1.65,-4.74 1.95,-7.25 1.8,-0.69 3.48,-1.68 5.01,-2.97 0.01,2.25 -0.18,4.47 -0.41,5.88 z m 1.23,-2.89 c -0.01,0.02 -0.17,0.57 -0.46,1.38 0.62,-5.61 -0.16,-11.5 -2.63,-16.38 2.26,-1.78 4.27,-3.86 5.76,-5.61 0.12,-0.14 0.22,-0.28 0.34,-0.41 -0.62,6.29 -1.78,17.33 -3.01,21.02 z m 15.32,30.2 c -0.38,-10.37 -2.19,-19.92 -5.24,-24.76 -2.55,-4.05 -6.08,-12.02 -7.26,-15.34 0,-0.01 0,-0.03 -0.01,-0.07 0.61,-4.64 1.14,-9.61 1.43,-12.62 0.06,-0.07 0.11,-0.15 0.17,-0.22 0.71,11.42 4.02,22.55 8.13,33.28 1.92,5.01 2.95,8.63 5.76,13.29 2.71,4.5 6.23,8.22 9.24,11.12 -1.4,2.37 -2.41,4.28 -3.29,6.77 -1.75,-2.01 -4.16,-4.35 -6.26,-5.91 -0.32,-0.3 -2.56,-2.55 -2.67,-5.54 z m 8.77,40.33 c -0.29,-0.78 -0.59,-1.57 -0.89,-2.37 -2.9,-7.68 -5.9,-15.62 -6.09,-20.11 -0.29,-6.86 0.6,-10.36 0.92,-11.37 2.14,1.6 4.27,3.62 6,5.66 -0.28,0.86 -0.55,1.8 -0.82,2.85 -2.15,8.55 -0.69,17.38 0.9,25.39 a 0.076,0.076 0 0 1 -0.02,-0.05 z m 1.82,4.98 c -2.91,-11.85 -5.3,-25.74 0.38,-36.91 4.22,-8.31 10.98,-15.89 10.73,-25.47 1.68,2.55 6.43,10.35 6.43,17.34 v 8.02 c -1.06,10.77 -6.69,19.87 -10.29,29.89 a 82.252,82.252 0 0 0 -4.3,18.14 c -0.04,-0.32 -0.06,-0.64 -0.12,-0.98 -0.74,-4.3 -1.85,-7.49 -2.83,-10.03 z m 4,55.48 c -0.5,-1.46 -0.75,-3.34 0.3,-4.95 1.58,-2.42 3.86,-6.58 5.13,-8.95 0.03,1.14 0.09,2.44 0.16,3.63 -0.94,1.77 -3.08,5.77 -4.81,8.4 -0.39,0.6 -0.64,1.24 -0.78,1.87 z m 2.22,5.52 c -0.73,-1.26 -2.16,-4.35 -0.54,-6.81 1.35,-2.06 2.95,-4.94 4.05,-6.96 0.06,0.76 0.11,1.33 0.14,1.55 -0.26,0.92 -1.92,6.86 -2.25,10.63 z m 13.13,-68.05 c -0.89,7.3 -3.86,15.58 -3.51,25.38 0.54,15.36 0.22,29.23 -0.25,31.44 -0.46,2.14 -4.21,12.13 -5.12,14.53 -0.66,-0.37 -1.83,-1.36 -1.83,-3.74 0,-3.62 2.27,-11.52 2.29,-11.6 l 0.03,-0.11 -0.02,-0.12 c -0.01,-0.07 -1.04,-7.02 -0.36,-9.92 l 0.03,-0.14 -0.04,-0.13 c -0.54,-1.86 0.3,-6.24 -2.26,-7.21 -0.43,-0.16 -0.85,-0.12 -1.23,0.12 -1.56,1 -1.86,3.21 -2.17,5.55 -0.25,1.84 -0.5,3.75 -1.38,5.12 -1.3,2.05 -2.24,2.51 -2.7,2.51 -1.84,-0.01 -0.23,-5.65 -0.23,-10.78 0,-1.99 0.61,-4.12 1.59,-8.27 0.35,-1.5 0.68,-2.66 0.91,-3.93 7.1,-8.91 13.32,-18.49 16.33,-29.38 -0.03,0.23 -0.06,0.45 -0.08,0.68 z m 1.21,-12.05 c -0.1,1.64 -0.36,3.45 -0.52,5.03 -1.91,13.15 -8.64,24.16 -16.75,34.46 0.17,-1.51 0.2,-3.33 -0.01,-6.07 0.8,-9.68 3.34,-18.91 7.34,-27.95 3.13,-7.08 6.31,-14.09 7.37,-21.76 0.89,1.75 3.12,7.1 2.57,16.29 z"
         id="path55"
         style="stroke:#504945;stroke-opacity:1" /><path
         d="m 195.27,245.3 c -3.8,2.45 -7.02,8.63 -4.72,12.91 1.07,1.99 2.37,2.64 4.68,2.46 1.66,-0.13 3.37,-0.99 4.93,-1.52 2.61,-0.88 5.29,-1.61 7.93,-2.41 1.47,-0.5 3.32,-1.22 3.46,-2.98 0.2,-2.51 0.38,-7.43 -1,-9.7 -2.81,-4.66 -11.87,-0.97 -15.28,1.24 z m 12.64,10.82 a 733.85,733.85 0 0 0 -11.52,3.62 c -4.78,1.54 -5.77,-2.17 -5.81,-5.03 -0.04,-2.74 1.46,-5.27 3.22,-7.3 2.95,-3.41 8.01,-4.48 12.39,-4.74 5.17,-0.31 6.73,11.76 1.72,13.45 z"
         id="path57"
         style="stroke:#504945;stroke-opacity:1" /><path
         d="m 216.04,256.8 c 2.64,0.8 5.31,1.53 7.93,2.41 1.56,0.52 3.27,1.39 4.93,1.52 2.31,0.18 3.61,-0.46 4.68,-2.46 2.3,-4.29 -0.92,-10.46 -4.72,-12.91 -3.41,-2.2 -12.48,-5.9 -15.28,-1.24 -1.37,2.28 -1.19,7.19 -1,9.7 0.14,1.77 1.99,2.49 3.46,2.98 z m 1.9,-14.07 c 4.38,0.26 9.44,1.33 12.39,4.74 1.76,2.04 3.26,4.57 3.22,7.3 -0.04,2.86 -1.03,6.57 -5.81,5.03 a 733.85,733.85 0 0 0 -11.52,-3.62 c -5.02,-1.69 -3.45,-13.76 1.72,-13.45 z"
         id="path59"
         style="stroke:#504945;stroke-opacity:1" /><path
         d="m 192.15,265.9 c -2.76,4.53 -0.58,11.37 0.39,15.9 1.35,6.36 2.71,12.93 6.42,18.39 l 0.03,0.03 0.02,0.04 c 2.33,2.69 5.68,4.96 9.25,5.57 2.4,0.41 1.48,-7.15 1.5,-8.02 0.22,-7.5 0.9,-15.01 1.07,-22.51 0.04,-1.79 1.52,-11.08 -0.98,-13.9 -4.37,-4.96 -15.15,0.32 -17.7,4.5 z m 17.21,23.71 -0.36,12.28 c -0.2,6.61 -7.83,-0.14 -9.5,-2.06 -4.73,-6.98 -6,-16.14 -7.56,-24.26 -1.29,-6.68 0.89,-12.1 7.73,-14.17 4.81,-1.45 9.97,-1.59 10.34,4.67 0.46,7.75 -0.42,15.78 -0.65,23.54 z"
         id="path61"
         style="stroke:#504945;stroke-opacity:1" /><path
         d="m 225.11,300.25 0.02,-0.04 0.03,-0.03 c 3.71,-5.46 5.06,-12.03 6.42,-18.39 0.97,-4.53 2.54,-11.05 0.39,-15.9 -1.85,-4.17 -12.77,-9.42 -17.56,-4.46 -2.72,2.81 -1.22,10.39 -1.12,13.85 l 1.07,22.51 c 0.03,0.87 -0.9,8.43 1.5,8.02 3.58,-0.59 6.92,-2.87 9.25,-5.56 z m -9.98,1.64 -0.36,-12.28 c -0.23,-7.76 -1.1,-15.79 -0.64,-23.54 0.37,-6.26 5.54,-6.13 10.34,-4.67 6.84,2.07 9.02,7.49 7.73,14.17 -1.57,8.12 -2.83,17.29 -7.56,24.26 -1.69,1.91 -9.32,8.67 -9.51,2.06 z"
         id="path63"
         style="stroke:#504945;stroke-opacity:1" /></g></g><style
     type="text/css"
     id="style1021">
	.st0{fill:#E92A2A;}
	.st1{fill:#D52626;}
	.st2{fill:#9A1A1C;}
	.st3{fill:#8D1819;}
</style><g
     id="Mid_quad_00000049941163474254219590000003569688916903111321_"
     transform="translate(-119.156,-270.28)"
     style="fill:#689d6a;fill-opacity:1;stroke:#689d6a;stroke-width:0.3;stroke-miterlimit:4;stroke-dasharray:none;stroke-opacity:1">
	<g
   id="g1033"
   style="fill:#689d6a;fill-opacity:1;stroke:#689d6a;stroke-width:0.3;stroke-miterlimit:4;stroke-dasharray:none;stroke-opacity:1">
		<path
   class="st0"
   d="m 255.5,333.43 c -0.35,-1.48 -0.22,-1.94 -0.57,-3.32 l -0.34,-1.06 c -7.88,-3.65 -8.73,-13.87 -10.02,-21.57 -1.06,-6.34 -1.29,-13.93 3.39,-18.64 -0.56,-1.97 -1.27,-3.81 -1.27,-3.81 l -0.26,0.17 c -2.86,2.34 -5.72,4.74 -8.82,6.75 -0.14,0.09 -0.27,0.16 -0.42,0.19 -1.65,2.32 -3.2,5.14 -4.92,8.46 l 0.01,6.62 c 0.14,-0.69 0.98,-4 1.13,-4.69 0.66,-2.93 3.05,-6.06 4.72,-8.52 0.49,-0.73 1.6,-1.49 2.41,-0.92 4.15,2.9 1.71,12.8 1.25,16.61 -1.29,10.84 -4.97,21.33 -9.04,31.43 -2.12,5.28 -4.69,10.26 -6.98,15.45 3.83,13.69 15.31,27.25 16.1,41.75 v 0.01 c 1,0.66 2.27,0.68 3.28,0.16 0.1,-2.42 0.75,-4.66 1.18,-6.76 2.17,-10.56 7.1,-20.25 8.9,-31 1.48,-8.97 1.58,-18.3 0.27,-27.31 z"
   id="path1023"
   style="fill:#689d6a;fill-opacity:1;stroke:#689d6a;stroke-width:0.3;stroke-miterlimit:4;stroke-dasharray:none;stroke-opacity:1" />
		<path
   class="st0"
   d="m 161.12,333.69 c 0.35,-1.48 0.72,-2.91 1.07,-4.29 l 0.06,-0.35 c 7.88,-3.65 8.28,-13.75 9.57,-21.45 1.06,-6.34 1.29,-13.93 -3.39,-18.64 0.56,-1.97 1.41,-4.04 1.41,-4.04 l 0.26,0.17 c 2.86,2.34 5.72,4.74 8.82,6.75 0.14,0.09 0.13,0.39 0.28,0.42 1.65,2.32 3.2,5.14 4.92,8.46 l 0.03,6.89 c -0.14,-0.69 -1.02,-4.28 -1.17,-4.96 -0.66,-2.93 -3.05,-6.06 -4.72,-8.52 -0.49,-0.73 -1.6,-1.49 -2.41,-0.92 -4.15,2.9 -1.71,12.8 -1.25,16.61 1.29,10.84 4.97,21.33 9.04,31.43 2.12,5.28 4.69,10.26 6.98,15.45 -3.83,13.69 -15.31,27.25 -16.1,41.75 v 0.01 c -1,0.66 -2.27,0.68 -3.28,0.16 -0.1,-2.42 -0.46,-4.79 -0.89,-6.9 -2.17,-10.56 -7.4,-20.12 -9.2,-30.87 -1.47,-8.95 -1.34,-18.14 -0.03,-27.16 z"
   id="path1025"
   style="fill:#689d6a;fill-opacity:1;stroke:#689d6a;stroke-width:0.3;stroke-miterlimit:4;stroke-dasharray:none;stroke-opacity:1" />
		<path
   class="st1"
   d="m 243.88,382.11 c 0.37,-2.19 0.69,-4.37 0.96,-6.53 0.09,2.13 0.24,4.29 0.43,6.47 0.22,-0.03 0.44,-0.07 0.66,-0.11 -0.36,-4.04 -0.53,-8 -0.54,-11.86 0.21,-2.74 0.31,-5.44 0.33,-8.11 0.89,6.14 2.32,11.45 4.39,16.25 0.11,-0.31 0.22,-0.62 0.33,-0.93 -2.86,-6.91 -4.45,-14.93 -4.97,-25.06 1.38,6.55 3.82,12.7 7.29,18.35 0.09,-0.28 0.18,-0.56 0.27,-0.84 -3.49,-5.82 -5.87,-12.17 -7.14,-18.93 1.6,3.41 4.58,8.47 9.11,11.32 0.04,-0.23 0.09,-0.47 0.13,-0.7 -4.52,-2.97 -7.88,-8.62 -9.7,-13.38 -0.13,-0.9 -0.25,-1.81 -0.33,-2.73 0.14,-1.33 0.34,-2.64 0.63,-3.93 1.71,5.64 5.21,10.34 10.24,13.61 0.02,-0.25 0.04,-0.5 0.06,-0.75 -5.06,-3.39 -8.49,-8.26 -9.98,-14.12 0.45,-1.71 1.03,-3.37 1.74,-4.99 0.6,5.35 3.65,10.03 8.51,12.91 0,-0.26 0,-0.52 0,-0.77 -4.78,-2.98 -7.73,-7.94 -7.95,-13.36 0.99,-2.04 2.17,-4 3.58,-5.88 -0.18,-0.14 -0.35,-0.27 -0.51,-0.42 -2.59,3.45 -4.48,7.21 -5.67,11.23 v -0.02 l -0.05,0.23 c -0.13,0.45 -0.27,0.91 -0.38,1.37 0.16,-5.65 0.71,-11.58 2.55,-17.6 -0.14,-0.28 -0.27,-0.57 -0.39,-0.86 -0.03,0.04 -0.06,0.08 -0.08,0.13 -1.05,3.29 -1.7,6.56 -2.11,9.77 -0.41,-6.36 -1.71,-12.62 -3.94,-18.7 -0.07,0.45 -0.15,0.9 -0.23,1.36 2.86,8.26 4.05,16.84 3.54,25.53 l 0.01,0.02 c -0.03,1 -0.05,1.99 -0.06,2.97 -1.01,-6.48 -2.9,-12.87 -5.66,-18.98 -0.1,0.34 -0.19,0.69 -0.29,1.03 0.03,0.06 0.05,0.12 0.08,0.18 0.13,13.09 -4.38,24.32 -12.44,30.98 -0.36,0.25 -0.32,0.14 -0.41,0.35 0.03,0.12 0.2,0.52 0.24,0.64 8.25,-6.47 13.03,-17.5 13.27,-30.45 1.01,2.48 1.89,4.99 2.62,7.54 0.03,10.76 -5.51,20.38 -14.91,25.89 0.08,0.21 0.15,0.42 0.23,0.63 8.98,-5.22 14.58,-14.18 15.27,-24.31 0.53,2.08 0.98,4.18 1.32,6.29 -2.23,8.97 -7.29,16.3 -15.05,21.78 0.09,0.2 0.18,0.41 0.27,0.62 7.51,-5.27 12.54,-12.23 15,-20.72 0.13,0.95 0.25,1.89 0.34,2.84 -1.98,8.85 -6.35,16.5 -13.04,22.73 0.1,0.21 0.21,0.41 0.31,0.62 6.38,-5.89 10.69,-13.05 12.9,-21.29 l 0.02,0.28 c -1.43,9.37 -4.84,18.1 -10.17,25.95 0.14,0.19 0.28,0.38 0.42,0.56 4.88,-7.11 8.19,-14.94 9.88,-23.33 0.2,9.48 -1.44,18.99 -4.94,27.99 0.2,0.12 0.4,0.22 0.59,0.32 2.43,-6.23 3.97,-12.71 4.65,-19.25 -0.04,6.53 -0.65,13.25 -1.83,20.11 0.17,0.03 0.39,0.05 0.6,0.06"
   id="path1027"
   style="fill:#689d6a;fill-opacity:1;stroke:#689d6a;stroke-width:0.3;stroke-miterlimit:4;stroke-dasharray:none;stroke-opacity:1" />
		<path
   class="st2"
   d="m 243.62,399.03 c -0.62,0 -1.24,-0.17 -1.77,-0.54 v 0 c -0.08,-1.48 -0.27,-2.96 -0.55,-4.42 1.06,-4.03 1.91,-8.02 2.59,-11.97 0.11,0 0.22,0.01 0.33,0.01 0.36,0 0.71,-0.02 1.06,-0.07 0.25,2.81 0.65,6.03 1.06,8.9 -0.08,0.34 -1.15,6.11 -1.22,7.72 -0.47,0.25 -0.98,0.37 -1.5,0.37 m -2.64,-6.42 c -0.57,-2.45 -1.38,-4.88 -2.34,-7.28 0.63,-1.36 1.22,-2.74 1.76,-4.13 0.93,0.47 1.88,0.75 2.82,0.86 -0.59,3.48 -1.34,7 -2.24,10.55 m 5.76,-3.54 c -0.31,-2.32 -0.61,-4.86 -0.81,-7.13 1.2,-0.25 2.34,-0.77 3.39,-1.49 -0.97,2.76 -1.78,5.68 -2.51,8.52 l -0.07,0.1 m -8.44,-4.6 c -1.1,-2.66 -2.36,-5.3 -3.67,-7.92 0.08,-0.11 0.16,-0.22 0.23,-0.33 1.08,1.39 2.3,2.67 3.67,3.78 0.42,0.34 0.84,0.63 1.27,0.88 -0.46,1.2 -0.96,2.4 -1.5,3.59 m -4,-8.59 c -0.27,-0.53 -0.53,-1.06 -0.8,-1.59 0.3,0.47 0.62,0.92 0.94,1.37 -0.05,0.07 -0.1,0.14 -0.14,0.22"
   id="path1029"
   style="fill:#689d6a;fill-opacity:1;stroke:#689d6a;stroke-width:0.3;stroke-miterlimit:4;stroke-dasharray:none;stroke-opacity:1" />
		<path
   class="st3"
   d="m 241.29,394.08 c -0.09,-0.49 -0.2,-0.98 -0.31,-1.46 0.9,-3.55 1.64,-7.07 2.24,-10.56 0.22,0.03 0.44,0.04 0.66,0.05 -0.67,3.94 -1.53,7.93 -2.59,11.97 m 5.03,-3.22 c -0.42,-2.86 -0.8,-6.01 -1.05,-8.81 0.22,-0.03 0.44,-0.07 0.66,-0.11 0.2,2.27 0.5,4.86 0.82,7.18 -0.15,0.58 -0.24,0.95 -0.37,1.53 z m -7.67,-5.53 c -0.11,-0.28 -0.23,-0.57 -0.35,-0.86 0.54,-1.19 1.04,-2.39 1.51,-3.6 0.2,0.12 0.4,0.22 0.59,0.32 -0.54,1.4 -1.12,2.77 -1.75,4.14 m -4.02,-8.78 c -0.11,-0.23 -0.23,-0.45 -0.34,-0.68 0.05,-0.07 0.1,-0.14 0.15,-0.22 0.14,0.19 0.28,0.38 0.42,0.56 -0.07,0.12 -0.15,0.23 -0.23,0.34"
   id="path1031"
   style="fill:#689d6a;fill-opacity:1;stroke:#689d6a;stroke-width:0.3;stroke-miterlimit:4;stroke-dasharray:none;stroke-opacity:1" />
	</g>
	<g
   id="g1041"
   style="fill:#689d6a;fill-opacity:1;stroke:#689d6a;stroke-width:0.3;stroke-miterlimit:4;stroke-dasharray:none;stroke-opacity:1">
		<path
   class="st1"
   d="m 172.32,382.57 c -0.37,-2.22 -0.68,-4.42 -0.94,-6.61 -0.09,2.16 -0.23,4.34 -0.43,6.55 -0.22,-0.03 -0.43,-0.07 -0.65,-0.11 0.35,-4.09 0.52,-8.1 0.53,-12.01 -0.21,-2.77 -0.3,-5.5 -0.32,-8.21 -0.88,6.21 -2.28,11.6 -4.3,16.45 -0.11,-0.31 -0.22,-0.63 -0.33,-0.94 2.81,-7 4.36,-15.12 4.88,-25.37 -1.35,6.63 -3.75,12.86 -7.15,18.58 -0.09,-0.28 -0.18,-0.57 -0.26,-0.85 3.43,-5.9 5.76,-12.33 7.01,-19.16 -1.57,3.46 -4.49,8.58 -8.94,11.47 -0.04,-0.24 -0.09,-0.47 -0.13,-0.71 4.43,-3.01 7.73,-8.73 9.52,-13.54 0.12,-0.92 0.24,-1.84 0.33,-2.77 -0.14,-1.35 -0.34,-2.68 -0.62,-3.98 -1.67,5.71 -5.12,10.47 -10.05,13.78 -0.02,-0.25 -0.04,-0.51 -0.06,-0.76 4.97,-3.44 8.33,-8.37 9.79,-14.3 -0.44,-1.73 -1.01,-3.42 -1.7,-5.05 -0.59,5.42 -3.58,10.16 -8.35,13.08 0,-0.26 0,-0.52 0,-0.78 4.69,-3.02 7.59,-8.04 7.8,-13.53 -0.97,-2.06 -2.13,-4.05 -3.51,-5.95 0.17,-0.14 0.34,-0.28 0.5,-0.42 2.54,3.49 4.39,7.3 5.57,11.37 v -0.02 l 0.05,0.23 c 0.13,0.46 0.26,0.92 0.38,1.39 -0.15,-5.72 -0.69,-11.73 -2.5,-17.82 0.13,-0.29 0.26,-0.58 0.39,-0.87 0.03,0.04 0.06,0.08 0.07,0.13 1.03,3.34 1.66,6.64 2.07,9.9 0.4,-6.44 1.77,-13.08 3.96,-19.23 0.07,0.46 0.15,0.92 0.22,1.37 -2.81,8.36 -4.07,17.35 -3.56,26.14 l -0.01,0.02 c 0.03,1.01 0.05,2.01 0.06,3.01 1,-6.56 2.97,-13.37 5.68,-19.56 0.09,0.35 0.19,0.7 0.29,1.05 -0.02,0.06 -0.17,0.47 -0.2,0.53 -0.12,13.26 4.79,24.97 12.7,31.71 0.09,0.21 -0.19,0.14 -0.1,0.35 -0.03,0.12 -0.07,0.24 -0.1,0.36 -8.09,-6.55 -12.89,-17.78 -13.13,-30.89 -0.99,2.51 -1.85,5.05 -2.57,7.63 -0.03,10.89 5.4,20.64 14.63,26.22 -0.07,0.21 -0.15,0.43 -0.23,0.64 -8.81,-5.28 -14.3,-14.36 -14.98,-24.61 -0.52,2.11 -0.96,4.23 -1.3,6.37 2.19,9.09 7.15,16.5 14.77,22.05 -0.09,0.21 -0.18,0.42 -0.27,0.62 -7.37,-5.33 -12.31,-12.39 -14.72,-20.98 -0.13,0.96 -0.25,1.92 -0.34,2.88 1.94,8.96 6.24,16.7 12.8,23.01 -0.1,0.21 -0.2,0.42 -0.3,0.63 -6.26,-5.97 -10.49,-13.21 -12.65,-21.55 l -0.02,0.29 c 1.41,9.49 4.75,18.33 9.98,26.28 -0.14,0.19 -0.27,0.38 -0.41,0.57 -4.78,-7.2 -8.03,-15.13 -9.69,-23.62 -0.19,9.6 1.41,19.22 4.84,28.34 -0.19,0.12 -0.39,0.23 -0.58,0.33 -2.38,-6.31 -3.9,-12.87 -4.56,-19.49 0.04,6.61 0.63,13.41 1.79,20.36 -0.22,-0.03 -0.43,-0.01 -0.65,0"
   id="path1035"
   style="fill:#689d6a;fill-opacity:1;stroke:#689d6a;stroke-width:0.3;stroke-miterlimit:4;stroke-dasharray:none;stroke-opacity:1" />
		<path
   class="st2"
   d="m 172.55,399.32 c -0.51,0 -1.02,-0.12 -1.47,-0.36 -0.07,-1.61 -0.25,-3.19 -0.49,-4.69 -0.12,-0.76 -0.25,-1.49 -0.4,-2.2 -0.01,-0.06 -0.03,-0.13 -0.04,-0.19 -0.07,-0.34 -0.14,-0.68 -0.22,-1.02 0.41,-2.86 0.74,-5.7 0.99,-8.5 0.34,0.05 0.69,0.07 1.04,0.07 0.11,0 0.21,0 0.32,-0.01 0.66,3.94 1.67,8.59 2.71,12.62 -0.28,1.46 -0.22,2.2 -0.3,3.69 l -0.41,0.06 c -0.51,0.35 -1.12,0.53 -1.73,0.53 m 2.71,-5.94 c -0.88,-3.55 -1.74,-7.54 -2.33,-11.02 0.92,-0.11 1.85,-0.39 2.77,-0.86 0.53,1.39 1.11,2.76 1.72,4.13 -0.94,2.4 -1.2,4.56 -1.76,7.01 l -0.4,0.74 m -5.73,-4.26 c -0.72,-2.83 -1.62,-5.61 -2.57,-8.37 1.02,0.73 2.15,1.24 3.32,1.49 -0.19,2.27 -0.44,4.56 -0.75,6.88 m 8.24,-4.35 c -0.53,-1.19 -1.02,-2.39 -1.48,-3.59 0.42,-0.25 0.84,-0.54 1.25,-0.88 1.35,-1.1 2.54,-2.38 3.6,-3.77 0.07,0.11 0.15,0.22 0.23,0.33 -1.28,2.62 -2.52,5.26 -3.6,7.91 m 3.93,-8.58 c -0.05,-0.07 -0.1,-0.14 -0.14,-0.22 0.32,-0.45 0.63,-0.9 0.93,-1.37 -0.27,0.53 -0.53,1.06 -0.79,1.59"
   id="path1037"
   style="fill:#689d6a;fill-opacity:1;stroke:#689d6a;stroke-width:0.3;stroke-miterlimit:4;stroke-dasharray:none;stroke-opacity:1" />
		<path
   class="st3"
   d="m 175,395.05 c -1.04,-4.03 -2.04,-8.69 -2.71,-12.63 0.22,-0.01 0.43,-0.03 0.65,-0.05 0.59,3.48 1.49,7.68 2.37,11.23 -0.12,0.47 -0.31,1.45 -0.31,1.45 z m -5.06,-4.2 c -0.13,-0.58 -0.27,-1.16 -0.41,-1.73 0.31,-2.31 0.56,-4.61 0.76,-6.88 0.21,0.05 0.43,0.08 0.65,0.11 -0.26,2.8 -0.59,5.64 -1,8.5 m 7.49,-5.22 c -0.62,-1.36 -1.19,-2.74 -1.72,-4.13 0.19,-0.1 0.39,-0.21 0.58,-0.32 0.46,1.21 0.95,2.41 1.48,3.59 -0.11,0.29 -0.23,0.57 -0.34,0.86 m 3.94,-8.77 c -0.08,-0.11 -0.15,-0.22 -0.23,-0.33 0.14,-0.18 0.28,-0.37 0.41,-0.56 0.05,0.07 0.1,0.14 0.14,0.22 -0.1,0.22 -0.21,0.45 -0.32,0.67"
   id="path1039"
   style="fill:#689d6a;fill-opacity:1;stroke:#689d6a;stroke-width:0.3;stroke-miterlimit:4;stroke-dasharray:none;stroke-opacity:1" />
	</g>
</g></svg>
