<?xml version="1.0" encoding="UTF-8" standalone="no"?>
<svg
   version="1.1"
   id="Layer_1"
   x="0"
   y="0"
   xml:space="preserve"
   width="181.286"
   height="212.906"
   sodipodi:docname="leg-curl-today.svg"
   inkscape:version="1.1.2 (0a00cf5339, 2022-02-04)"
   xmlns:inkscape="http://www.inkscape.org/namespaces/inkscape"
   xmlns:sodipodi="http://sodipodi.sourceforge.net/DTD/sodipodi-0.dtd"
   xmlns="http://www.w3.org/2000/svg"
   xmlns:svg="http://www.w3.org/2000/svg"><sodipodi:namedview
     id="namedview54"
     pagecolor="#ffffff"
     bordercolor="#666666"
     borderopacity="1.0"
     inkscape:pageshadow="2"
     inkscape:pageopacity="0.0"
     inkscape:pagecheckerboard="0"
     showgrid="false"
     inkscape:zoom="1.7347945"
     inkscape:cx="-61.966994"
     inkscape:cy="23.345705"
     inkscape:window-width="1920"
     inkscape:window-height="1020"
     inkscape:window-x="0"
     inkscape:window-y="32"
     inkscape:window-maximized="1"
     inkscape:current-layer="Layer_1" /><defs
     id="defs13"><clipPath
       clipPathUnits="userSpaceOnUse"
       id="clipPath1419"><path
         id="rect1421"
         fill="#fb4934"
         fill-opacity="1"
         stroke="#982823"
         stroke-width=".304"
         stroke-linecap="round"
         stroke-linejoin="round"
         stroke-miterlimit="4"
         stroke-dasharray="none"
         stroke-opacity="1"
         d="M97.874 371.434H328.99V595.13H97.874z" /></clipPath></defs><style
     type="text/css"
     id="style2">.st0{display:none;opacity:.5;fill:none;stroke:#a89984;stroke-width:.05;stroke-miterlimit:10}.st1{fill:#928374}</style><path
     class="st0"
     d="M294.985 73.486c-2.94 1.51-8.31 5.17-9.04 17.27"
     id="path4" /><style
     type="text/css"
     id="style958">.st0{display:none;opacity:.5;fill:none;stroke:#231f20;stroke-width:.05;stroke-miterlimit:10}.st1{fill:#e92a2a}.st2{fill:#d52626}.st3{fill:#9a1a1c}.st4{fill:#8d1819}</style><style
     type="text/css"
     id="style1013">.st0{display:none;opacity:.5;fill:none;stroke:#231f20;stroke-width:.05;stroke-miterlimit:10}.st1{fill:#e92a2a}.st2{fill:#d52626}.st3{fill:#9a1a1c}.st4{fill:#8d1819}</style><g
     id="White_00000008146272988381087930000002203879022052071609_"
     transform="translate(-123.455,-289.434)"
     fill="#928374"
     fill-opacity=".5"
     style="fill:#7c6f64;fill-opacity:1"><path
       class="st1"
       d="m 301.09,264.91 v -8.77 c 0,-8.56 -6.4,-17.88 -7.3,-19.15 -0.09,-1.64 -0.8,-14.09 -2.01,-19.98 -1.14,-5.55 -3.18,-10.87 -3.6,-11.94 0.32,-0.94 1.71,-5.16 2.51,-10.29 0.92,-5.91 -3.09,-20.42 -5.5,-26.54 -1.6,-4.06 -4.94,-5.6 -7.62,-6.84 -1.45,-0.67 -2.7,-1.25 -3.41,-2.07 -1.81,-2.11 -3.61,-2.69 -5.2,-3.2 -0.42,-0.13 -0.82,-0.26 -1.21,-0.42 -0.61,-0.24 -1.15,-0.73 -1.97,-1.48 -1.39,-1.26 -3.49,-3.17 -7.99,-5.78 -2.6,-1.51 -6.45,-3.27 -10.53,-5.14 -6.11,-2.8 -13.04,-5.97 -14.66,-7.97 -0.66,-0.81 -1.61,-3.55 -2.48,-6.41 0.5,-0.98 1.86,-3.67 1.98,-4.08 0.53,-1.82 0.58,-4.31 0.56,-5.82 0.3,0.14 0.67,0.22 1.11,0.17 1.5,-0.18 2.91,-2.52 4.59,-5.56 0.47,-0.85 0.92,-1.66 1.26,-2.14 1.46,-2.08 1.14,-6.58 0.07,-9.96 -0.31,-0.98 -0.84,-1.55 -1.57,-1.69 -1,-0.18 -2.1,0.58 -2.89,1.3 0.15,-4.2 0.09,-16.03 -4.76,-21.86 -4.18,-5.02 -12.54,-6.26 -15.71,-6.56 h -1.25 c -3.17,0.3 -11.53,1.55 -15.71,6.56 -4.85,5.83 -4.91,17.65 -4.76,21.86 -0.79,-0.72 -1.88,-1.48 -2.89,-1.3 -0.73,0.13 -1.26,0.7 -1.57,1.69 -1.06,3.37 -1.38,7.88 0.07,9.96 0.34,0.49 0.79,1.29 1.26,2.14 1.68,3.04 3.09,5.38 4.59,5.56 0.44,0.06 0.81,-0.03 1.11,-0.17 -0.02,1.51 0.04,4 0.56,5.82 0.12,0.41 1.46,3.06 1.96,4.06 -0.87,2.87 -1.83,5.61 -2.49,6.43 -1.62,2 -8.55,5.17 -14.66,7.97 -4.08,1.87 -7.94,3.64 -10.53,5.14 -4.5,2.61 -6.6,4.52 -7.99,5.78 -0.82,0.74 -1.36,1.24 -1.97,1.48 -0.39,0.16 -0.79,0.28 -1.21,0.42 -1.59,0.51 -3.39,1.09 -5.2,3.2 -0.71,0.83 -1.96,1.4 -3.41,2.07 -2.68,1.24 -6.02,2.77 -7.62,6.84 -2.41,6.12 -6.42,20.63 -5.5,26.54 0.8,5.14 2.19,9.35 2.51,10.29 -0.42,1.07 -2.46,6.39 -3.6,11.94 -1.21,5.88 -1.92,18.34 -2.01,19.98 -0.9,1.27 -7.3,10.59 -7.3,19.15 v 8.77 c -0.61,0.99 -3.78,6.71 -3.1,17.88 0.26,4.28 0.74,8.23 1.25,12.41 0.9,7.44 2.74,15.14 2.39,25.1 -0.54,15.19 -0.41,28.19 1.48,33.96 0.81,2.49 5.22,14.98 5.42,15.51 0,0 0.18,0.57 0.73,0.4 0.03,-0.01 2.81,-0.8 3.11,-4.45 l 1.15,1.18 c 0.2,0.21 0.55,0.18 0.72,-0.05 l 0.05,-0.08 c 0.09,-0.12 1.38,-1.97 1.78,-4.27 0.82,-1.25 2.48,-4.46 0.47,-7.52 -0.83,-1.27 -3.82,-4.34 -4.52,-5.05 -0.05,-0.63 -0.25,-2.61 -0.79,-4.75 -0.46,-2.61 -0.19,-4.55 0.39,-5.89 0.17,-0.32 0.34,-0.64 0.54,-0.96 0.45,-0.63 0.99,-1.04 1.49,-1.23 0.13,-0.05 0.2,-0.03 0.28,0.02 1.17,0.75 1.45,2.77 1.73,4.91 0.27,2 0.63,4.03 1.57,5.68 1.16,2.04 4.47,2.81 4.9,-1.08 0.31,-2.77 0.3,-6.18 0.29,-7.62 l -0.08,-1.46 c -0.31,-5.56 -0.52,-8.39 -3.5,-13.25 -1.31,-2.13 -1.33,-3.31 -0.51,-11.58 0.4,-4.03 2.99,-10.59 5.62,-17.55 3,-7.95 6.11,-16.17 6.31,-20.94 0.31,-7.39 -0.67,-11.06 -1.02,-12.12 0.62,-0.75 2.36,-3.06 2.83,-6.05 0.55,-3.47 0.38,-9.51 0.36,-9.66 0.02,-0.1 1.84,-10.52 4.85,-15.3 2.22,-3.52 5.21,-9.79 6.68,-13.51 0.81,3.7 1.54,6.7 2,8.1 0.74,2.23 1.69,4.7 2.6,7.1 1.3,3.42 2.53,6.64 2.85,8.33 0.31,1.65 0.39,10.04 0.25,24.92 -0.01,0.78 -0.01,1.29 -0.01,1.44 -0.03,0.28 -0.66,1.4 -1.22,2.38 -1.89,3.34 -5.05,8.93 -4.47,13.66 0.65,5.27 1.45,7.47 1.74,8.13 -0.6,1.9 -5,16.31 -4.33,26.71 0.24,3.63 -1.19,9.28 -2.99,16.44 -2.32,9.23 -5.22,20.72 -6.2,33.98 -1.45,19.62 2.68,51.84 4.23,63.97 0.33,2.6 0.55,4.31 0.58,4.83 0.08,1.28 -0.04,2.16 -0.18,3.19 -0.19,1.39 -0.4,2.97 -0.19,5.93 0.05,0.67 0.21,1.47 0.45,2.36 -1.09,2.83 -2.09,5.65 -2.96,8.26 -7.26,16.33 -4.03,33.68 -0.91,50.46 0.68,3.64 1.38,7.4 1.96,11.08 l 0.1,0.85 c 0.74,6.62 1.5,13.47 -0.15,19.74 -0.84,3.17 -1.72,5.02 -2.36,6.18 l -0.01,0.01 a 0.26,0.26 0 0 0 -0.09,0.17 c -0.15,0.26 -0.29,0.49 -0.41,0.68 -0.12,0.19 -0.21,0.35 -0.29,0.49 -0.66,1.19 -0.67,2.56 -0.38,3.88 -0.2,0.51 -1.63,4.13 -5.29,6.2 -3.44,1.95 -6.51,3.24 -7.61,3.79 -2.57,-0.42 -5.59,0.37 -6.2,1.03 -0.46,0.49 -0.93,1.26 -0.93,3.18 0,1.85 2.23,2.7 3.22,2.98 0,0.66 0.16,1.88 1.07,3.29 1.3,2.02 9.35,4.56 12.75,5.56 1.16,0.34 3.4,1.88 5.38,3.24 1.86,1.28 3.62,2.49 4.7,2.9 1.1,0.41 3.43,0.81 6.15,0.81 3.34,0 7.29,-0.6 10.33,-2.5 5.75,-3.59 1.79,-18.51 1.62,-19.15 -0.2,-0.74 -0.42,-1.57 -0.65,-2.43 -0.72,-2.7 -1.53,-5.75 -2.35,-8.23 0.03,-0.94 0.52,-1.92 1.04,-2.95 0.57,-1.13 1.15,-2.3 1.15,-3.53 l -0.02,-0.15 c -5.2,-18.71 2.52,-36.3 9.99,-53.31 l 0.95,-2.2 c 0.36,-1.44 0.85,-2.91 1.33,-4.33 0.97,-2.91 1.97,-5.92 1.97,-8.98 -0.46,-4.17 -1.67,-8.24 -2.96,-12.56 -0.76,-2.56 -1.78,-6.34 -2.69,-9.77 4.44,-6.76 8.35,-15.37 9.29,-20.49 0.7,-3.82 1.31,-11.04 2.01,-19.41 0.62,-7.39 1.33,-15.77 2.18,-22.46 1.06,-8.26 3.25,-17.58 5,-25.07 1.2,-5.12 2.24,-9.55 2.58,-12.21 0.75,-5.9 -0.34,-12.83 -0.59,-14.27 0.68,-2.12 0.98,-4.52 1.04,-6.97 0.06,2.45 0.35,4.86 1.04,6.97 -0.25,1.44 -1.34,8.37 -0.59,14.27 0.34,2.67 1.38,7.09 2.58,12.21 1.76,7.49 3.94,16.81 5,25.07 0.86,6.69 1.56,15.06 2.19,22.46 0.7,8.37 1.31,15.59 2.01,19.41 0.94,5.11 4.83,13.7 9.27,20.46 -0.95,3.58 -1.99,7.47 -2.68,9.8 -1.28,4.31 -2.49,8.39 -2.96,12.56 0,3.07 1,6.07 1.97,8.98 0.47,1.42 0.97,2.9 1.33,4.33 l 0.95,2.2 c 7.47,17.01 15.19,34.6 9.99,53.31 l -0.02,0.15 c 0,1.22 0.58,2.39 1.15,3.53 0.52,1.04 1.01,2.01 1.04,2.95 -0.82,2.48 -1.63,5.53 -2.35,8.23 -0.23,0.87 -0.45,1.69 -0.65,2.43 -0.17,0.64 -4.12,15.56 1.62,19.15 3.04,1.9 6.99,2.5 10.33,2.5 2.73,0 5.05,-0.4 6.15,-0.81 1.08,-0.4 2.84,-1.61 4.7,-2.9 1.98,-1.36 4.22,-2.9 5.38,-3.24 3.4,-1 11.45,-3.54 12.75,-5.56 0.91,-1.41 1.06,-2.63 1.07,-3.29 0.99,-0.29 3.22,-1.13 3.22,-2.98 0,-1.92 -0.47,-2.68 -0.93,-3.18 -0.61,-0.65 -3.62,-1.44 -6.2,-1.03 -1.1,-0.55 -4.17,-1.84 -7.61,-3.79 -3.66,-2.07 -5.09,-5.69 -5.29,-6.2 0.28,-1.32 0.28,-2.69 -0.38,-3.88 -0.08,-0.14 -0.17,-0.3 -0.29,-0.49 -0.12,-0.19 -0.26,-0.42 -0.41,-0.68 a 0.26,0.26 0 0 0 -0.09,-0.17 l -0.01,-0.01 c -0.65,-1.15 -1.53,-3.01 -2.36,-6.18 -1.65,-6.27 -0.89,-13.11 -0.15,-19.74 l 0.1,-0.85 c 0.58,-3.68 1.28,-7.44 1.96,-11.08 3.12,-16.78 6.35,-34.13 -0.91,-50.46 -0.87,-2.61 -1.86,-5.42 -2.95,-8.24 0.25,-0.9 0.41,-1.7 0.46,-2.38 0.21,-2.96 0,-4.54 -0.18,-5.93 -0.14,-1.02 -0.25,-1.91 -0.18,-3.19 0.03,-0.52 0.25,-2.24 0.58,-4.83 1.55,-12.13 5.68,-44.35 4.23,-63.97 -0.98,-13.26 -3.87,-24.75 -6.2,-33.98 -1.8,-7.16 -3.23,-12.82 -2.99,-16.44 0.68,-10.39 -3.73,-24.81 -4.33,-26.71 0.29,-0.66 1.09,-2.86 1.74,-8.13 0.58,-4.72 -2.58,-10.31 -4.47,-13.66 -0.56,-0.98 -1.19,-2.1 -1.21,-2.38 0,-0.15 0,-0.67 -0.01,-1.44 -0.15,-14.88 -0.06,-23.27 0.25,-24.92 0.32,-1.69 1.55,-4.91 2.85,-8.33 0.91,-2.39 1.86,-4.87 2.6,-7.1 0.47,-1.4 1.18,-4.39 2,-8.07 1.47,3.73 4.45,9.97 6.66,13.48 3.01,4.77 4.83,15.19 4.85,15.3 -0.01,0.15 -0.19,6.18 0.36,9.66 0.47,2.99 2.21,5.3 2.83,6.05 -0.35,1.06 -1.32,4.73 -1.02,12.12 0.2,4.77 3.31,12.99 6.31,20.94 2.63,6.96 5.21,13.53 5.62,17.55 0.82,8.27 0.8,9.45 -0.51,11.58 -2.99,4.86 -3.19,7.69 -3.5,13.25 l -0.08,1.46 c -0.01,1.45 -0.02,4.85 0.29,7.62 0.43,3.9 3.74,3.12 4.9,1.08 0.94,-1.66 1.3,-3.68 1.57,-5.68 0.29,-2.14 0.56,-4.16 1.73,-4.91 0.08,-0.05 0.15,-0.07 0.28,-0.02 0.51,0.19 1.04,0.6 1.49,1.23 0.19,0.32 0.37,0.64 0.54,0.96 0.59,1.34 0.86,3.28 0.39,5.89 a 31.08,31.08 0 0 0 -0.79,4.75 c -0.7,0.71 -3.69,3.78 -4.52,5.05 -2.01,3.06 -0.35,6.27 0.47,7.52 0.4,2.3 1.69,4.15 1.78,4.27 l 0.05,0.08 c 0.17,0.24 0.51,0.26 0.72,0.05 l 1.15,-1.18 c 0.3,3.65 3.08,4.44 3.11,4.45 0.55,0.17 0.73,-0.4 0.73,-0.4 0.2,-0.53 4.6,-13.02 5.42,-15.51 1.88,-5.78 2.02,-18.78 1.48,-33.96 -0.35,-9.96 1.49,-17.66 2.39,-25.1 0.51,-4.18 0.99,-8.12 1.25,-12.41 0.72,-11.17 -2.45,-16.89 -3.06,-17.88 z"
       id="path6"
       fill="#928374"
       fill-opacity=".5"
       style="fill:#7c6f64;fill-opacity:1" /></g><path
     id="Outline_black_00000012467778204523605170000009782990369117439880_"
     d="m 177.635,-24.524 v -8.77 c 0,-8.56 -6.4,-17.88 -7.3,-19.15 -0.09,-1.64 -0.8,-14.09 -2.01,-19.98 -1.14,-5.55 -3.18,-10.87 -3.6,-11.94 0.32,-0.94 1.71,-5.16 2.51,-10.29 0.92,-5.91 -3.09,-20.42 -5.5,-26.54 -1.6,-4.06 -4.94,-5.6 -7.62,-6.84 -1.45,-0.67 -2.7,-1.25 -3.41,-2.07 -1.81,-2.11 -3.61,-2.69 -5.2,-3.2 -0.42,-0.13 -0.82,-0.26 -1.21,-0.42 -0.61,-0.24 -1.15,-0.73 -1.97,-1.48 -1.39,-1.26 -3.49,-3.17 -7.99,-5.78 -2.6,-1.51 -6.45,-3.27 -10.53,-5.14 -6.11,-2.8 -13.04,-5.97 -14.66,-7.97 -0.66,-0.81 -1.61,-3.55 -2.48,-6.41 0.5,-0.98 1.86,-3.67 1.98,-4.08 0.53,-1.82 0.58,-4.31 0.56,-5.82 0.3,0.14 0.67,0.22 1.11,0.17 1.5,-0.18 2.91,-2.52 4.59,-5.56 0.47,-0.85 0.92,-1.66 1.26,-2.14 1.46,-2.08 1.14,-6.58 0.07,-9.96 -0.31,-0.98 -0.84,-1.55 -1.57,-1.69 -1,-0.18 -2.1,0.58 -2.89,1.3 0.15,-4.2 0.09,-16.03 -4.76,-21.86 -4.18,-5.02 -12.54,-6.26 -15.71,-6.56 h -1.25 c -3.17,0.3 -11.53,1.55 -15.71,6.56 -4.86,5.83 -4.91,17.65 -4.76,21.86 -0.79,-0.72 -1.88,-1.48 -2.89,-1.3 -0.73,0.13 -1.26,0.7 -1.57,1.69 -1.06,3.37 -1.38,7.88 0.07,9.96 0.34,0.49 0.79,1.29 1.26,2.14 1.68,3.04 3.09,5.38 4.59,5.56 0.44,0.05 0.81,-0.03 1.11,-0.17 -0.02,1.51 0.04,4 0.56,5.82 0.12,0.41 1.46,3.06 1.96,4.06 -0.87,2.87 -1.83,5.61 -2.49,6.43 -1.62,2 -8.55,5.17 -14.66,7.97 -4.08,1.87 -7.94,3.64 -10.53,5.14 -4.49,2.61 -6.6,4.52 -7.99,5.78 -0.82,0.74 -1.36,1.24 -1.97,1.48 -0.39,0.16 -0.79,0.28 -1.21,0.42 -1.59,0.51 -3.39,1.09 -5.2,3.2 -0.71,0.83 -1.96,1.4 -3.41,2.07 -2.68,1.24 -6.02,2.77 -7.62,6.84 -2.41,6.12 -6.42,20.63 -5.5,26.54 0.8,5.14 2.19,9.35 2.51,10.29 -0.42,1.07 -2.46,6.39 -3.6,11.94 -1.21,5.88 -1.92,18.34 -2.01,19.98 -0.9,1.27 -7.3,10.59 -7.3,19.15 v 8.77 c -0.61,0.99 -3.78,6.71 -3.1,17.88 0.26,4.28 0.74,8.23 1.25,12.41 0.9,7.44 2.74,15.14 2.39,25.1 -0.54,15.19 -0.41,28.19 1.48,33.96 0.81,2.49 5.22,14.98 5.42,15.51 0,0 0.18,0.57 0.73,0.4 0.03,-0.01 2.81,-0.8 3.11,-4.45 l 1.15,1.18 c 0.2,0.21 0.55,0.18 0.72,-0.05 l 0.05,-0.08 c 0.09,-0.12 1.38,-1.97 1.78,-4.27 0.82,-1.25 2.48,-4.46 0.47,-7.52 -0.83,-1.27 -3.82,-4.34 -4.52,-5.05 -0.05,-0.63 -0.25,-2.61 -0.79,-4.75 -0.46,-2.61 -0.19,-4.55 0.39,-5.89 0.17,-0.32 0.34,-0.64 0.54,-0.96 0.45,-0.63 0.99,-1.04 1.49,-1.23 0.13,-0.05 0.2,-0.03 0.28,0.02 1.17,0.75 1.45,2.77 1.73,4.91 0.27,2 0.63,4.03 1.57,5.68 1.16,2.04 4.47,2.81 4.9,-1.08 0.31,-2.77 0.3,-6.18 0.29,-7.62 l -0.08,-1.46 c -0.31,-5.56 -0.52,-8.39 -3.5,-13.25 -1.31,-2.13 -1.33,-3.31 -0.51,-11.58 0.4,-4.03 2.99,-10.59 5.62,-17.55 3,-7.95 6.11,-16.17 6.31,-20.94 0.31,-7.39 -0.67,-11.06 -1.02,-12.12 0.62,-0.75 2.36,-3.06 2.83,-6.05 0.55,-3.47 0.38,-9.51 0.36,-9.66 0.02,-0.1 1.84,-10.52 4.85,-15.3 2.22,-3.52 5.21,-9.79 6.68,-13.51 0.81,3.7 1.54,6.7 2,8.1 0.74,2.23 1.69,4.7 2.6,7.1 1.3,3.42 2.53,6.64 2.85,8.33 0.31,1.65 0.39,10.04 0.25,24.92 -0.01,0.78 -0.01,1.29 -0.01,1.44 -0.03,0.28 -0.66,1.4 -1.21,2.38 -1.89,3.34 -5.05,8.93 -4.47,13.66 0.65,5.27 1.45,7.47 1.74,8.13 -0.6,1.9 -5,16.31 -4.33,26.71 0.24,3.63 -1.19,9.28 -2.99,16.44 -2.32,9.23 -5.22,20.72 -6.2,33.98 -1.45,19.62 2.68,51.84 4.23,63.97 0.33,2.6 0.55,4.31 0.58,4.83 0.08,1.28 -0.04,2.16 -0.18,3.19 -0.19,1.39 -0.4,2.97 -0.19,5.93 0.05,0.67 0.21,1.47 0.45,2.36 -1.09,2.83 -2.09,5.65 -2.96,8.26 -7.26,16.33 -4.03,33.68 -0.91,50.46 0.68,3.64 1.38,7.4 1.96,11.08 l 0.09,0.85 c 0.74,6.62 1.5,13.47 -0.15,19.74 -0.84,3.17 -1.72,5.02 -2.36,6.18 -0.01,0 -0.01,0.01 -0.01,0.01 a 0.26,0.26 0 0 0 -0.09,0.17 c -0.15,0.26 -0.29,0.49 -0.41,0.68 -0.12,0.19 -0.21,0.35 -0.29,0.49 -0.66,1.19 -0.67,2.56 -0.38,3.88 -0.2,0.51 -1.63,4.13 -5.29,6.2 -3.44,1.95 -6.51,3.24 -7.61,3.79 -2.57,-0.42 -5.59,0.37 -6.2,1.03 -0.46,0.49 -0.93,1.26 -0.93,3.18 0,1.85 2.23,2.7 3.22,2.98 0,0.66 0.16,1.88 1.07,3.29 1.3,2.02 9.35,4.56 12.75,5.56 1.16,0.34 3.4,1.88 5.38,3.24 1.86,1.28 3.62,2.49 4.7,2.9 1.1,0.41 3.43,0.81 6.15,0.81 3.34,0 7.29,-0.6 10.33,-2.5 5.75,-3.59 1.79,-18.51 1.62,-19.15 -0.2,-0.74 -0.42,-1.57 -0.65,-2.43 -0.72,-2.69 -1.53,-5.75 -2.35,-8.23 0.03,-0.94 0.52,-1.92 1.04,-2.95 0.57,-1.13 1.15,-2.3 1.15,-3.53 l -0.02,-0.15 c -5.2,-18.71 2.52,-36.3 9.99,-53.31 l 0.95,-2.2 c 0.36,-1.44 0.85,-2.91 1.33,-4.33 0.97,-2.91 1.97,-5.92 1.97,-8.98 -0.46,-4.17 -1.67,-8.24 -2.96,-12.56 -0.76,-2.56 -1.78,-6.34 -2.69,-9.77 4.44,-6.76 8.35,-15.37 9.29,-20.49 0.7,-3.82 1.31,-11.04 2.01,-19.41 0.62,-7.39 1.33,-15.77 2.18,-22.46 1.06,-8.26 3.25,-17.58 5,-25.07 1.2,-5.12 2.24,-9.55 2.58,-12.21 0.75,-5.9 -0.34,-12.83 -0.59,-14.27 0.68,-2.12 0.98,-4.52 1.04,-6.97 0.06,2.45 0.35,4.86 1.04,6.97 -0.25,1.44 -1.34,8.37 -0.59,14.27 0.34,2.67 1.38,7.09 2.58,12.21 1.76,7.49 3.94,16.81 5,25.07 0.86,6.69 1.56,15.06 2.19,22.46 0.7,8.37 1.31,15.59 2.01,19.41 0.94,5.11 4.83,13.7 9.27,20.46 -0.95,3.58 -1.99,7.47 -2.68,9.8 -1.28,4.31 -2.49,8.39 -2.96,12.56 0,3.07 1,6.07 1.97,8.98 0.47,1.42 0.97,2.9 1.33,4.33 l 0.95,2.2 c 7.47,17.01 15.19,34.6 9.99,53.31 l -0.02,0.15 c 0,1.22 0.58,2.39 1.15,3.53 0.52,1.04 1.01,2.01 1.04,2.95 -0.82,2.48 -1.63,5.53 -2.35,8.23 -0.23,0.87 -0.45,1.69 -0.65,2.43 -0.17,0.64 -4.12,15.56 1.62,19.15 3.04,1.9 6.99,2.5 10.33,2.5 2.73,0 5.05,-0.4 6.15,-0.81 1.08,-0.4 2.84,-1.61 4.7,-2.9 1.98,-1.36 4.22,-2.9 5.38,-3.24 3.4,-1 11.45,-3.54 12.75,-5.56 0.91,-1.41 1.06,-2.63 1.07,-3.29 0.99,-0.29 3.22,-1.13 3.22,-2.98 0,-1.92 -0.47,-2.68 -0.93,-3.18 -0.61,-0.65 -3.62,-1.44 -6.2,-1.03 -1.1,-0.55 -4.17,-1.84 -7.61,-3.79 -3.66,-2.07 -5.09,-5.69 -5.29,-6.2 0.28,-1.32 0.28,-2.68 -0.38,-3.88 -0.08,-0.14 -0.17,-0.3 -0.29,-0.49 -0.12,-0.19 -0.25,-0.42 -0.41,-0.68 a 0.26,0.26 0 0 0 -0.09,-0.17 l -0.01,-0.01 c -0.65,-1.15 -1.53,-3.01 -2.36,-6.18 -1.65,-6.27 -0.89,-13.11 -0.15,-19.74 l 0.09,-0.85 c 0.58,-3.68 1.28,-7.44 1.96,-11.08 3.12,-16.78 6.35,-34.13 -0.91,-50.46 -0.87,-2.61 -1.86,-5.42 -2.95,-8.24 0.25,-0.9 0.41,-1.7 0.46,-2.38 0.21,-2.96 0,-4.54 -0.18,-5.93 -0.14,-1.02 -0.25,-1.91 -0.18,-3.19 0.03,-0.52 0.25,-2.24 0.58,-4.83 1.55,-12.13 5.68,-44.35 4.23,-63.97 -0.98,-13.26 -3.87,-24.75 -6.2,-33.98 -1.8,-7.16 -3.23,-12.82 -2.99,-16.44 0.68,-10.39 -3.73,-24.81 -4.33,-26.71 0.29,-0.66 1.09,-2.86 1.74,-8.13 0.58,-4.72 -2.58,-10.31 -4.47,-13.66 -0.56,-0.98 -1.19,-2.1 -1.21,-2.38 0,-0.15 0,-0.67 -0.01,-1.44 -0.15,-14.88 -0.06,-23.27 0.25,-24.92 0.32,-1.69 1.55,-4.91 2.85,-8.33 0.91,-2.39 1.86,-4.87 2.6,-7.1 0.47,-1.4 1.18,-4.39 2,-8.07 1.47,3.73 4.45,9.97 6.66,13.48 3.01,4.77 4.83,15.19 4.85,15.3 -0.01,0.15 -0.19,6.18 0.36,9.66 0.47,2.99 2.21,5.3 2.83,6.05 -0.35,1.06 -1.32,4.73 -1.02,12.12 0.2,4.77 3.31,12.99 6.31,20.94 2.63,6.96 5.21,13.53 5.61,17.55 0.82,8.27 0.8,9.45 -0.51,11.58 -2.99,4.86 -3.19,7.69 -3.5,13.25 l -0.08,1.46 c -0.01,1.45 -0.02,4.85 0.29,7.62 0.43,3.9 3.74,3.12 4.9,1.08 0.94,-1.66 1.3,-3.68 1.57,-5.68 0.29,-2.14 0.56,-4.16 1.73,-4.91 0.08,-0.05 0.15,-0.07 0.28,-0.02 0.51,0.19 1.04,0.6 1.49,1.23 0.19,0.32 0.37,0.64 0.54,0.96 0.59,1.34 0.86,3.28 0.39,5.89 a 31.08,31.08 0 0 0 -0.79,4.75 c -0.7,0.71 -3.69,3.78 -4.52,5.05 -2.01,3.06 -0.35,6.27 0.47,7.52 0.4,2.3 1.69,4.15 1.78,4.27 l 0.05,0.08 c 0.17,0.24 0.51,0.26 0.72,0.05 l 1.15,-1.18 c 0.3,3.65 3.08,4.44 3.11,4.45 0.55,0.17 0.73,-0.4 0.73,-0.4 0.2,-0.53 4.6,-13.02 5.42,-15.51 1.88,-5.78 2.02,-18.78 1.48,-33.96 -0.35,-9.96 1.49,-17.66 2.39,-25.1 0.51,-4.18 0.99,-8.12 1.25,-12.41 0.74,-11.17 -2.43,-16.89 -3.04,-17.88 z m -8.28,-27.41 c 0.05,0.07 3.26,4.54 5.38,10.08 l 0.21,0.57 c 0.03,0.09 0.07,0.19 0.1,0.28 0.07,0.19 0.13,0.38 0.2,0.57 0.77,2.32 1.31,4.78 1.31,7.14 v 8.18 c -4.14,-5.01 -10.1,-8.89 -11.25,-15.45 1.5,-3.61 2.91,-7.65 4.04,-11.41 z m -18.13,-76.34 c 0.72,0.45 1.56,0.84 2.43,1.24 2.64,1.21 5.62,2.59 7.06,6.24 2.37,6.02 6.33,20.25 5.44,25.97 a 64.08,64.08 0 0 1 -2.29,9.57 c -2.36,-2.57 -4.87,-5.02 -7.77,-6.88 -4.73,-3.01 -10.1,-4.03 -15.01,-6.57 -7.86,-4.06 -8.92,-16.58 -2.25,-22.97 3.83,-3.64 7.71,-5.92 12.39,-6.6 z m -58.93,38.33 c -0.34,-8.94 -2.08,-18.63 0.16,-27.44 1.84,-7.23 6.3,-12.56 12.6,-16.06 3.69,2.01 7.84,3.35 12.15,4.01 3.8,0.59 12.33,1.88 18.97,0.75 0.84,5.71 -6.87,6.09 -10.12,6.29 -1.1,0.07 -2.16,0.11 -3.26,0.29 -2.3,0.36 -5.41,0.58 -7.41,1.97 -3.69,2.57 -2.85,7.1 -1.97,11.06 2.14,9.65 5.41,18.59 0.69,28.15 -3.42,6.92 -8.07,13.19 -12.42,19.54 -1.39,2.03 -2.88,3.96 -4.3,5.97 -1.03,1.45 -5.04,4.48 -5.01,1.43 0.04,-3.88 -0.22,-7.77 -0.27,-11.64 -0.12,-8.1 0.5,-16.24 0.19,-24.32 z m 42.06,-15.02 c 0.15,0.47 0.33,0.91 0.53,1.33 -4.07,4.95 -9.5,8.2 -15.55,10.23 -0.7,-1.1 -1.44,-2.18 -2.2,-3.24 a 0.305,0.305 0 0 0 -0.13,-0.1 c -0.16,-1.11 -0.38,-2.25 -0.67,-3.41 -1.42,-5.59 -6.71,-18.18 1.75,-20.32 1.1,-0.28 2.2,-0.46 3.31,-0.59 4.58,2.05 8.61,4.91 12.08,8.55 0.01,0.01 0.02,0.01 0.03,0.02 -0.22,2.36 0.03,4.88 0.85,7.53 z m -17.19,9.52 c 2.56,3.64 4.74,7.5 6.54,11.59 -2.9,-0.35 -5.61,-1.02 -7.38,-1.59 0.86,-3.23 1.18,-6.52 0.84,-10 z m 2.53,2.61 c 6.01,-2.05 11.43,-5.28 15.52,-10.17 0.96,1.68 2.34,2.94 3.95,3.94 -0.35,1.84 -1.19,6.17 -2.19,11.22 -1.59,4.03 -7.24,4.61 -12.51,4.08 a 68.055,68.055 0 0 0 -4.77,-9.07 z m 24.23,-39.85 c 0.4,0.16 0.81,0.29 1.24,0.43 1.52,0.49 3.1,0.99 4.7,2.87 0.17,0.2 0.36,0.38 0.57,0.55 -8.6,1.37 -15.64,7.33 -16.83,15.53 -3.19,-3.27 -6.84,-5.91 -10.95,-7.88 2.8,-0.25 5.6,-0.3 8.35,-0.89 3.73,-0.81 6.3,-3.27 5.83,-6.72 3.07,-0.62 5.67,-1.81 7.09,-3.89 z m -20.58,-12.43 c 4.06,1.86 7.89,3.61 10.44,5.09 4.39,2.55 6.44,4.41 7.8,5.64 0.66,0.6 1.18,1.07 1.73,1.4 -5.48,7.99 -29.61,2.6 -35.16,0.36 -5.93,-2.4 -8.46,-5.42 -12.11,-10.46 -3.58,-4.95 -3.98,-9.35 -4.1,-15.26 -0.07,-3.37 -0.24,-6.77 -0.14,-10.14 0,-1.01 0.08,-2 0.24,-3 0.11,-1.15 1.31,-2.16 2.48,-1.71 1.27,0.49 2.24,1.74 2.82,2.9 0.54,1.08 1.03,2.19 1.56,3.28 2.4,4.94 5.15,10.17 9.45,13.68 1.86,2.2 8.53,5.26 14.99,8.22 z m -46.47,-23.22 c 0,0 -0.76,3 -1.71,6.26 -0.47,-0.91 -1.3,-2.54 -1.38,-2.8 -0.74,-2.55 -0.48,-6.73 -0.48,-6.77 l 0.16,-2.58 -1.2,2.3 c -0.01,0.03 -0.39,0.69 -1.09,0.62 -1.07,-0.13 -2.76,-3.18 -3.77,-5 -0.51,-0.92 -0.95,-1.71 -1.32,-2.24 -1.09,-1.55 -1.06,-5.42 0.07,-9 0.18,-0.57 0.42,-0.89 0.72,-0.94 0.78,-0.14 2.15,1.1 2.88,2.03 l 1.11,1.4 -0.13,-1.78 c -0.01,-0.16 -1.13,-15.91 4.43,-22.58 4.12,-4.95 13.01,-6.01 15.5,-6.22 2.48,0.2 11.37,1.27 15.5,6.22 5.56,6.67 4.44,22.42 4.43,22.58 l -0.13,1.78 1.11,-1.4 c 0.74,-0.93 2.1,-2.17 2.88,-2.03 0.3,0.06 0.55,0.37 0.73,0.94 1.13,3.58 1.16,7.45 0.07,9 -0.38,0.54 -0.81,1.33 -1.32,2.24 -1.01,1.82 -2.7,4.87 -3.77,5 -0.7,0.08 -1.07,-0.59 -1.09,-0.62 l -1.2,-2.3 0.16,2.58 c 0,0.04 0.26,4.22 -0.47,6.77 -0.08,0.26 -0.92,1.93 -1.39,2.83 -0.96,-3.28 -1.72,-6.29 -1.72,-6.29 0.06,0.43 1.31,9.2 2.95,13.31 -4.12,-4 -6.6,-9.62 -9.07,-14.74 -0.56,-1.16 -2.93,-6.04 -5.26,-4.65 -2.41,1.43 -2,5.43 -1.93,7.82 0.15,5.3 -0.75,11.37 0.58,16.54 1.91,7.37 6.6,12.75 12.63,16.24 -5.57,3.16 -10.47,8.08 -12.08,14.4 -2.65,10.41 -0.58,20.83 -0.63,31.39 -0.05,11.32 0.32,22.74 0.05,34.03 -0.04,1.68 0.66,3.9 2.06,3.62 0.12,1.79 0.32,3.58 0.54,5.36 -0.71,-1.33 -1.88,-3.35 -2.87,-4.34 -0.4,-0.4 -1.13,-0.38 -1.55,0.04 -0.95,0.96 -2.04,2.65 -2.8,4 0.2,-1.69 0.38,-3.37 0.5,-5.06 1.4,0.28 2.1,-1.94 2.06,-3.62 -0.27,-11.3 0.1,-22.72 0.05,-34.03 -0.04,-10.56 2.03,-20.98 -0.63,-31.39 -1.61,-6.32 -6.51,-11.24 -12.08,-14.4 6.03,-3.49 10.72,-8.87 12.63,-16.24 1.34,-5.17 0.43,-11.24 0.58,-16.54 0.07,-2.39 0.48,-6.39 -1.93,-7.82 -2.33,-1.38 -4.7,3.49 -5.26,4.65 -2.48,5.13 -4.97,10.76 -9.11,14.77 1.67,-4.1 2.93,-12.91 2.99,-13.34 z m 28.48,160.78 c 2.64,2.07 1.98,5.41 1.72,6.48 -0.55,2.31 -11.92,16.75 -15.82,20.55 -0.3,0.3 -0.87,0.3 -1.18,0.01 -4.2,-3.89 -15.49,-18.03 -16.04,-20.34 -0.26,-1.08 -0.82,-4.54 1.86,-6.63 3.81,-1.82 4.83,-9.46 5.68,-12.38 2.22,-7.66 4.17,-15.52 5.27,-23.47 0.87,-1.78 2.2,-3.89 3.05,-5 0.61,-0.79 1.07,-0.71 1.62,0.08 0.73,1.04 2.22,3.51 3.07,5.34 1.11,7.81 3.03,15.53 5.22,23.06 0.84,2.88 1.85,10.36 5.55,12.3 z m -57.5,-104.92 c 0.02,-0.01 0.03,-0.02 0.05,-0.03 3.46,-3.63 7.5,-6.5 12.08,-8.55 1.11,0.13 2.21,0.31 3.31,0.59 8.46,2.14 3.17,14.73 1.76,20.32 -0.29,1.16 -0.52,2.29 -0.67,3.41 -0.05,0.02 -0.09,0.05 -0.13,0.1 -0.77,1.06 -1.5,2.14 -2.2,3.24 -6.06,-2.04 -11.48,-5.29 -15.56,-10.25 0.2,-0.42 0.38,-0.85 0.52,-1.32 0.82,-2.64 1.06,-5.16 0.84,-7.51 z m 13.83,19.64 c -1.81,2.89 -3.4,5.91 -4.77,9.07 -5.14,0.54 -10.66,0.02 -12.43,-3.71 -1.04,-5.22 -1.91,-9.73 -2.27,-11.61 1.6,-1 2.98,-2.27 3.94,-3.94 4.09,4.91 9.51,8.14 15.53,10.19 z m 2.53,-2.61 c -0.34,3.48 -0.03,6.77 0.84,9.99 -1.76,0.57 -4.48,1.24 -7.38,1.6 a 68.36,68.36 0 0 1 6.54,-11.59 z m 3.75,-13.63 c 0.88,-3.97 1.72,-8.49 -1.97,-11.06 -1.99,-1.39 -5.11,-1.61 -7.41,-1.97 -1.09,-0.17 -2.16,-0.22 -3.26,-0.29 -3.24,-0.19 -10.96,-0.58 -10.12,-6.29 6.64,1.14 15.17,-0.16 18.97,-0.75 4.31,-0.67 8.46,-2 12.15,-4.01 6.3,3.5 10.76,8.82 12.6,16.06 2.24,8.81 0.5,18.5 0.16,27.44 -0.31,8.08 0.31,16.21 0.19,24.31 -0.06,3.88 -0.31,7.77 -0.27,11.64 0.03,3.05 -3.99,0.03 -5.01,-1.43 -1.42,-2.01 -2.91,-3.94 -4.3,-5.97 -4.35,-6.35 -9.04,-12.6 -12.46,-19.52 -0.73,-1.47 -1.26,-2.92 -1.64,-4.37 v -0.01 c -2.1,-7.95 0.56,-15.61 2.37,-23.78 z m -28.19,-25.31 c 1.36,-1.23 3.41,-3.09 7.8,-5.64 2.55,-1.48 6.39,-3.24 10.44,-5.09 6.41,-2.94 13.02,-5.97 14.94,-8.16 4.34,-3.52 7.1,-8.77 9.52,-13.74 0.53,-1.09 1.02,-2.2 1.57,-3.28 0.58,-1.16 1.55,-2.41 2.82,-2.9 1.17,-0.45 2.37,0.56 2.48,1.71 0.16,0.99 0.24,1.99 0.24,3 0.1,3.37 -0.08,6.77 -0.14,10.14 -0.12,5.92 -0.52,10.31 -4.1,15.26 -3.65,5.04 -6.18,8.06 -12.11,10.46 -5.55,2.25 -29.7,7.64 -35.17,-0.36 0.54,-0.34 1.06,-0.8 1.71,-1.4 z m -8.29,5 c 1.61,-1.88 3.18,-2.38 4.7,-2.87 0.43,-0.14 0.85,-0.28 1.26,-0.44 1.42,2.08 4.02,3.27 7.09,3.89 -0.48,3.45 2.09,5.91 5.83,6.72 2.74,0.6 5.55,0.64 8.35,0.89 -4.11,1.97 -7.77,4.62 -10.97,7.9 -1.18,-8.2 -8.22,-14.17 -16.83,-15.54 0.21,-0.17 0.41,-0.35 0.57,-0.55 z m -16.28,34.57 c -0.89,-5.72 3.06,-19.95 5.44,-25.97 1.44,-3.65 4.43,-5.03 7.06,-6.24 0.87,-0.4 1.71,-0.79 2.43,-1.24 4.69,0.67 8.57,2.96 12.39,6.62 6.67,6.39 5.61,18.91 -2.25,22.97 -4.91,2.54 -10.28,3.55 -15.01,6.57 -2.91,1.85 -5.42,4.31 -7.77,6.88 -0.49,-1.52 -1.6,-5.21 -2.29,-9.59 z m -10.38,61.52 c 0,-2.36 0.53,-4.81 1.31,-7.14 0.06,-0.19 0.13,-0.38 0.19,-0.57 0.03,-0.09 0.07,-0.19 0.1,-0.28 l 0.21,-0.57 c 2.11,-5.54 5.33,-10.02 5.38,-10.08 l 0.03,-0.04 c 1.12,3.76 2.53,7.8 4.04,11.41 -1.16,6.56 -7.11,10.44 -11.25,15.45 v -8.18 z m -1.13,44.13 c -0.27,-1.76 -0.53,-3.49 -0.73,-5.21 -0.51,-4.16 -0.98,-8.09 -1.24,-12.34 -0.02,-0.28 -0.03,-0.55 -0.04,-0.82 -0.01,-0.15 -0.01,-0.3 -0.02,-0.44 -0.01,-0.2 -0.01,-0.4 -0.02,-0.6 0,-0.13 -0.01,-0.26 -0.01,-0.4 v -0.61 -0.35 c 0,-0.23 0.01,-0.45 0.01,-0.67 v -0.25 c 0.23,-8.43 2.78,-12.72 3.05,-13.17 3.93,-5.26 10.14,-9.08 11.8,-15.55 0.32,0.74 0.64,1.47 0.97,2.16 0.4,0.84 0.88,1.34 1.42,1.6 -1.82,9.37 -6.45,17.3 -10.49,25.9 -3.08,6.55 -4.4,13.61 -4.7,20.75 z m 17.25,-46.54 c 0.04,5.33 1.96,10.21 5.53,14.15 -1.3,2.15 -2.47,4.39 -3.52,6.71 -3.21,-5.04 -4.72,-10.7 -4.4,-16.73 0.37,-1.32 0.71,-2.66 0.97,-4.04 0.45,0.07 0.92,0.02 1.42,-0.09 z m -1.16,-1.34 c 0.86,-9.91 3.93,-20.15 9.36,-28.58 0.59,-0.96 1.33,-1.76 2.24,-2.42 3.74,-2.76 1.53,5.86 1.39,6.29 -0.66,2.07 -1.37,4.12 -2,6.2 -1.94,6.37 -4.24,12.58 -7.65,18.28 -0.13,0.04 -0.26,0.07 -0.39,0.11 -1.23,0.35 -2.18,0.36 -2.95,0.12 z m 2.84,22.93 c -3.46,7.87 -5.47,16.56 -5.85,25.19 -1.22,4.47 -3.17,9.88 -4,14.3 -0.39,2.09 -0.65,4.21 -1.07,6.29 -0.03,0.13 -0.06,0.26 -0.09,0.38 l -0.03,0.11 -0.09,0.27 c -1.07,2.92 -4.53,4.36 -4.97,-0.33 -1.08,-11.46 -0.28,-24.84 0.52,-36.21 0.87,-2.79 1.96,-5.56 3.31,-8.3 2.81,-5.73 5.62,-11.11 7.55,-16.95 0.08,5.47 1.69,10.64 4.72,15.25 z m -8.69,89.76 c 0,2.44 -1.2,3.45 -1.88,3.83 -0.58,-1.54 -2.27,-6.13 -3.59,-9.88 l 5.48,5.61 c 0,0.15 -0.01,0.34 -0.01,0.44 z m 2.45,0.49 -8.75,-8.95 c -0.39,-1.16 -0.69,-2.09 -0.82,-2.59 -0.28,-1.09 -0.52,-2.31 -0.72,-3.63 1.08,1.98 2.64,4.28 4.26,5.98 3.18,3.34 6.55,6.2 7.1,6.67 a 10.88,10.88 0 0 1 -1.07,2.52 z m 4.24,-40.59 c 2.33,3.7 2.96,7.26 3.26,12.62 l 0.08,1.44 c 0.02,2.57 -0.08,5.36 -0.29,7.46 -0.17,1.72 -1.56,2.72 -2.88,0.62 -0.89,-1.41 -1.16,-3.36 -1.41,-5.25 -0.32,-2.39 -0.63,-4.66 -2.23,-5.69 -0.24,-0.16 -0.5,-0.22 -0.77,-0.21 0.98,-1.31 1.9,-2.4 2.29,-2.94 -1.86,0.67 -5.95,3.99 -6.13,7.56 -0.23,1.22 -0.22,2.64 0.12,4.22 -0.01,0.06 0,0.13 0.02,0.21 0.71,2.62 0.87,5.14 0.88,5.17 0.22,0.85 3.82,4.05 4.69,5.37 1.69,2.57 0.24,5.28 -0.46,6.33 -1.08,-0.92 -3.94,-3.42 -6.65,-6.27 -2.73,-2.87 -5.16,-7.46 -5.51,-8.99 -0.63,-6.59 -0.66,-15.34 -0.27,-26.3 0.21,-5.99 -0.36,-11.15 -1.05,-15.94 -0.03,-5.23 0.49,-10.28 1.66,-15.22 -0.46,7.46 -0.67,14.91 -0.47,22.39 0.04,1.52 -0.47,13.57 1.78,14.29 2.32,0.74 4.29,-1.58 4.87,-3.32 0.97,-2.89 1.05,-6.27 1.61,-9.26 0.57,-3.05 1.89,-6.78 2.95,-10.15 -0.04,6.68 0.91,13.27 2.94,19.35 0.2,0.95 0.52,1.79 0.97,2.51 z m 11.18,-50.81 c -0.19,4.59 -3.27,12.73 -6.24,20.6 -2.66,7.02 -5.08,13.67 -5.68,17.8 -0.32,2.22 -0.55,4.29 -0.57,6.15 -4.62,-18.65 -0.21,-41 11.59,-56.07 0.36,1.2 1.18,4.77 0.9,11.52 z m 1.83,-18.3 c -0.51,3.25 -2.76,5.71 -2.78,5.73 0,0 -2.85,3.81 -4.02,5.69 -3.43,-3.84 -5.24,-8.57 -5.24,-13.74 1.08,-0.35 2.22,-0.9 3.35,-1.22 4.54,-1.3 7.25,-3.75 9.22,-6.95 -0.1,0.51 -0.15,0.85 -0.17,0.93 0,0.06 0.17,6.19 -0.36,9.56 z m 5.24,-25.29 c -2.07,3.43 -3.5,9.1 -4.27,12.66 -1.8,3.63 -4.29,6.64 -8.91,8.18 -0.55,0.18 -1.1,0.34 -1.66,0.5 4,-6.96 6.13,-14.48 8.7,-22.13 0.33,-1 3.66,-9.76 -0.39,-9.32 -3.91,0.43 -6.1,7.05 -7.42,9.99 -3.11,6.91 -5.07,14.12 -5.75,21.67 -1.1,-0.62 -1.8,-1.88 -2.54,-3.55 -1.64,-3.68 -3.25,-8.7 -4.41,-12.91 0.23,-3.77 0.9,-13.56 1.91,-18.44 1.25,-6.08 3.59,-11.88 3.62,-11.94 l 0.2,-0.29 c 5.43,-5.48 10.96,-9.38 18.8,-12.16 1.53,-0.54 3.07,-1.15 4.49,-1.92 0.75,3.93 3.03,15.72 4.96,24.67 -0.94,2.68 -4.54,10.38 -7.33,14.99 z m 15.27,6.99 c -0.54,-1.54 -1.22,-3.33 -1.92,-5.17 -0.91,-2.38 -1.85,-4.85 -2.58,-7.05 -0.96,-2.89 -3.08,-12.98 -4.83,-21.74 4.11,4.74 15.54,2.6 20.42,1.01 0.87,3.01 2.22,5.96 3.98,8.97 4.87,8.33 10.67,16.67 16.71,24.2 0.37,0.46 0.71,0.78 1.03,0.99 -0.56,8.38 -2.29,16.77 -4.37,24.88 -0.88,3.45 -1.96,6.84 -2.9,10.28 -0.66,2.4 -1.38,5.28 -3.48,6.89 -3.08,2.36 -4.51,-2.12 -4.92,-4.49 -1.2,-6.83 -4.97,-13.94 -7.97,-20.15 -3,-6.18 -5.99,-12.5 -9.17,-18.62 z m 1.07,3.97 c 1.03,2.32 2.03,4.65 3.24,7.03 2.73,5.39 5.64,10.56 7.98,16.16 2.12,5.08 3.64,9.84 4.63,15.23 0.11,0.57 0.25,1 0.46,1.34 -5,-1.27 -8.89,-5.43 -12.91,-8.61 -1.63,-1.29 -2.65,-3.03 -3.27,-4.96 0.02,-0.09 0.03,-0.18 0.03,-0.25 0,-0.16 0,-0.67 0.01,-1.44 0.06,-5.23 0.21,-20.49 -0.17,-24.5 z m -5.52,41.83 c -0.54,-4.36 2.51,-9.76 4.33,-12.98 0.5,-0.88 0.85,-1.51 1.07,-1.97 0.51,1.32 1.21,2.6 2.14,3.8 2.2,2.84 6.07,5.34 8.99,7.4 1.07,0.75 2.11,1.32 3.19,1.76 -5.49,4.17 -13.22,5.46 -17.93,10.29 l 0.04,-0.12 -0.11,-0.21 c -0.01,-0.02 -0.96,-1.84 -1.72,-7.97 z m 1.21,10.21 c 7.77,-5.69 15.99,-8.74 23.3,0.03 3.21,3.85 6.33,7.77 9.04,11.94 -2.91,-2.59 -7.02,-3.38 -12.94,-0.89 -3.69,1.55 -7.17,3.77 -10.69,5.68 -0.91,0.49 -5.9,2.27 -5.94,4.2 a 27.716,27.716 0 0 0 -6.59,5.73 c 0.04,-0.71 0.05,-1.38 0.01,-1.99 -0.54,-8.69 2.52,-20.29 3.81,-24.7 z m -12.98,75.27 c 0.97,-13.17 3.85,-24.6 6.17,-33.79 1.38,-5.47 2.54,-10.07 2.92,-13.63 1.91,-2.44 4.17,-4.51 6.76,-6.16 0.65,3.68 2.9,6.63 3.28,10.59 0.55,5.67 -1.69,11.45 -3.49,16.73 -0.52,1.54 -2.68,6.73 -2.86,10.55 l -0.03,0.03 c -7.08,16.4 -9.23,33.71 -11.68,51.17 -1.09,-12.23 -1.8,-25.51 -1.07,-35.49 z m 1.32,38.29 c 2.55,-17.87 4.5,-35.65 11.51,-52.48 0.17,1.25 0.69,2.22 1.75,2.62 2.12,0.8 4.12,0.45 6.24,-0.22 1.83,-0.58 3.66,-1.2 5.48,-1.83 1.11,5.12 0.39,11.07 0.03,15.98 -0.67,9 -2.12,17.97 -3.89,26.82 -2.98,14.9 -9.07,28.96 -15.19,42.91 -0.7,1.51 -1.39,3.08 -2.04,4.66 -0.23,0.52 -0.46,1.04 -0.68,1.56 a 5.43,5.43 0 0 1 -0.06,-0.55 c -0.2,-2.85 0,-4.37 0.18,-5.71 0.14,-1.04 0.27,-2.01 0.19,-3.4 -0.03,-0.56 -0.25,-2.29 -0.59,-4.91 -0.72,-5.42 -1.93,-14.89 -2.93,-25.45 z m 17.39,6.43 c -0.08,10.34 5.51,20.84 8.85,29.33 -3.36,4.81 -5.97,9.93 -7.95,15.3 -0.18,-8.66 -3.34,-16.8 -9.09,-23.42 2.95,-7 5.79,-14.03 8.19,-21.21 z m -16.91,44.32 c 0.03,-0.06 0.05,-0.11 0.07,-0.17 1.38,-4.15 3.99,-11.35 5.77,-16.23 0.87,-2.01 1.73,-4.02 2.59,-6.04 5.94,6.94 8.97,15.52 8.71,24.62 -2.48,7.35 -3.83,15.14 -4.32,23.26 -0.34,5.73 -0.47,11.49 -0.48,17.26 -2.96,3.84 -9.56,2.61 -10.41,-2.94 0,-0.03 -0.02,-0.05 -0.03,-0.07 -2.07,-13.21 -3.61,-26.44 -1.9,-39.69 z m 1.11,81.83 c 1.7,-6.46 0.93,-13.42 0.18,-20.14 l -0.1,-0.87 c -0.59,-3.72 -1.29,-7.49 -1.97,-11.13 -3.07,-16.5 -5.97,-32.14 -0.14,-47.43 -1.25,12.53 0.25,25.05 2.23,37.54 -0.01,0.04 -0.01,0.08 -0.01,0.12 0.03,0.22 0.08,0.43 0.13,0.64 1.77,11.08 3.88,22.14 4.75,33.18 -1.23,4.29 -3.29,8.16 -6.16,11.53 0.36,-0.94 0.73,-2.07 1.09,-3.44 z m 18.68,5.4 c -0.02,0.94 -0.52,1.93 -1.03,2.97 -0.26,0.53 -0.53,1.06 -0.74,1.61 -1.92,-8.24 -1.73,-16.7 0.57,-24.81 -0.89,6.59 -0.71,13.33 1.2,20.23 z m -0.5,-24.46 c -3.76,9.97 -4.43,20.64 -1.69,30.91 v 0.05 l 0.03,0.17 c 0.12,0.35 0.23,0.71 0.34,1.07 0.11,0.38 0.23,0.76 0.35,1.15 0.58,1.96 1.15,4.09 1.67,6.04 0.23,0.87 0.45,1.69 0.65,2.44 0.04,0.15 3.92,14.77 -1.15,17.94 -5.13,3.21 -13.28,2.43 -15.52,1.59 -0.95,-0.36 -2.74,-1.59 -4.46,-2.77 -2.14,-1.48 -4.36,-3 -5.69,-3.39 -5.44,-1.6 -11.3,-3.8 -12.14,-5.1 -1.08,-1.69 -0.89,-2.97 -0.88,-3.02 l 0.1,-0.53 -0.53,-0.11 c -0.03,-0.01 -2.81,-0.61 -2.81,-2.03 0,-1.75 0.43,-2.21 0.64,-2.43 0.3,-0.32 1.73,-1.05 3.8,-0.8 l -2.53,1.57 c 0,0 1.37,0.67 4.02,-1.07 3.22,-2.1 6.26,-3.18 8.25,-4.31 2.98,-1.69 4.54,-4.27 5.2,-5.62 0.46,1.23 1.07,2.33 1.5,3.09 0.16,0.27 0.31,0.54 0.45,0.81 0,0 -2.35,-6.47 -1.07,-8.78 0.07,-0.13 0.16,-0.27 0.27,-0.45 0.29,-0.47 0.69,-1.13 1.14,-2.08 3.2,-3.34 5.57,-7.24 7.06,-11.58 0.67,10.12 0.22,20.22 -2.57,30.29 -0.11,0.41 1.89,-4.89 2.31,-7.42 3.1,-18.47 -0.61,-36.99 -3.64,-55.56 2.26,3.3 7.13,3.62 9.93,0.8 0,5.59 0.1,11.19 0.2,16.76 0.04,2.26 0.15,4.46 0.33,6.62 0,0 0.34,-5.73 0.29,-8.72 -0.05,-2.86 -0.08,-5.72 -0.09,-8.58 2.07,3.05 6.54,3.91 9.5,1.4 -1.32,3.83 -2.46,7.72 -3.26,11.65 z m 11.81,-56.83 c 1.27,4.27 2.46,8.3 2.91,12.31 0,2.83 -0.97,5.75 -1.92,8.58 -0.48,1.44 -0.98,2.94 -1.32,4.33 l -0.92,2.11 c -2.35,5.35 -4.72,10.76 -6.72,16.25 -2.79,3.79 -8.37,2.86 -10.06,-1.06 -0.02,-7.1 0.08,-14.2 0.33,-21.29 0.29,-8.57 1.63,-16.86 4.27,-24.65 0.05,-0.1 0.09,-0.2 0.13,-0.29 v -0.08 c 1.99,-5.77 4.7,-11.26 8.24,-16.39 0.51,1.33 0.95,2.61 1.31,3.83 0.27,5.84 2.16,11.01 3.75,16.35 z m -2.03,-11.52 c -0.99,-3.75 -1.76,-6.77 -1.76,-6.77 v 0.1 c -0.02,-0.12 -0.05,-0.22 -0.07,-0.3 -3.89,-11.92 -10.95,-22 -9.69,-33.7 1.8,-5.58 3.32,-11.26 4.42,-17.08 1.61,-8.51 2.8,-17.14 3.37,-25.78 0.28,-4.29 0.7,-9.29 -0.25,-13.74 3.11,-1.08 6.22,-2.18 9.36,-3.17 0.98,-0.32 1.95,-0.65 2.9,-1 -3.96,11.44 -3.58,23.02 -1.79,34.62 -7.1,18.69 2.17,39.78 -2.16,59.08 -1.29,2.63 -2.78,5.3 -4.33,7.74 z m 10.6,-38.55 c -0.67,7.99 -1.31,15.54 -2,19.3 -0.44,2.4 -1.6,5.69 -3.18,9.18 2.97,-18.25 -4.83,-37.91 1.28,-55.49 1.18,7.27 2.87,14.54 4.34,21.78 -0.15,1.79 -0.3,3.54 -0.44,5.23 z m 9.76,-59.78 c -0.33,2.61 -1.36,7.01 -2.56,12.1 -1.76,7.51 -3.95,16.86 -5.02,25.18 -0.58,4.53 -1.09,9.82 -1.55,15.06 -3.87,-18.59 -8.72,-37.38 -2.15,-55.78 4.12,-1.63 7.88,-3.83 10.4,-7.71 0.18,-0.28 0.34,-0.57 0.5,-0.87 0.34,1.99 1.02,7.07 0.38,12.02 z m -0.36,-14.03 c -1.48,6.59 -9.15,9.45 -14.79,11.27 -5.49,1.73 -10.87,3.77 -16.35,5.5 -10.59,3.35 -3.68,-13.26 -2.19,-17.72 1.54,-4.62 2.97,-10.03 2.07,-14.94 -0.43,-2.34 -1.11,-4.36 -2.21,-6.45 -2.44,-4.63 5.66,-7.25 8.26,-8.66 6.17,-3.35 13.97,-8.49 20.19,-2.57 1.35,2.14 2.59,4.35 3.68,6.65 0.7,2.41 1.08,4.96 1.44,7.2 1.05,6.48 1.34,13.28 -0.1,19.72 z m 1.9,-8.89 c -0.07,-3.19 -0.46,-6.33 -0.83,-8.81 -0.78,-5.24 -2.07,-10.63 -4.58,-14.35 -3.73,-7.22 -7.86,-11.87 -12.87,-17.34 -5.97,-6.54 -14.17,-2.85 -20.35,1.4 4.75,-4.8 12.71,-6.08 18.1,-10.31 0.96,0.32 1.97,0.53 3.06,0.63 0.13,0.02 0.25,0.05 0.39,0.06 0.31,0.04 0.59,0.03 0.87,0 -1.5,1.87 -1.65,4.38 -1.16,6.41 0.65,2.7 6.41,10.33 16.76,21.32 0.28,0.3 0.77,0.34 1.06,0.06 10.74,-10.8 16,-18.88 16.65,-21.59 0.48,-1.99 0.42,-4.38 -0.96,-6.2 0.3,0.03 0.62,0.03 0.95,0 0.14,-0.02 0.27,-0.04 0.39,-0.06 1.09,-0.1 2.1,-0.31 3.06,-0.63 5.4,4.24 13.38,5.51 18.12,10.33 -6.18,-4.26 -14.4,-7.96 -20.38,-1.42 -5,5.48 -9.13,10.12 -12.86,17.34 -2.52,3.71 -3.8,9.11 -4.59,14.35 -0.37,2.48 -0.77,5.62 -0.83,8.81 z m 35.29,-65.02 c 0.01,0.77 0.01,1.28 0.01,1.44 0,0.08 0.01,0.16 0.03,0.25 -0.62,1.93 -1.65,3.67 -3.27,4.96 -4.02,3.18 -7.91,7.34 -12.91,8.61 0.21,-0.34 0.35,-0.77 0.46,-1.34 1,-5.38 2.52,-10.15 4.63,-15.23 2.34,-5.6 5.25,-10.76 7.98,-16.16 1.19,-2.35 2.21,-4.71 3.24,-7.05 -0.37,3.97 -0.22,19.28 -0.17,24.52 z m -33.5,54.18 c 0.36,-2.24 0.74,-4.79 1.44,-7.2 1.08,-2.3 2.32,-4.5 3.67,-6.64 6.22,-5.93 14.02,-0.78 20.19,2.57 2.6,1.41 10.7,4.03 8.26,8.66 -1.11,2.09 -1.78,4.11 -2.21,6.45 -0.9,4.91 0.53,10.32 2.07,14.94 1.49,4.47 8.41,21.07 -2.19,17.72 -5.48,-1.73 -10.87,-3.77 -16.35,-5.5 -5.63,-1.82 -13.31,-4.68 -14.79,-11.27 -1.43,-6.44 -1.14,-13.24 -0.09,-19.73 z m 7.32,71.04 c -1.07,-8.31 -3.26,-17.66 -5.02,-25.18 -1.19,-5.09 -2.23,-9.49 -2.56,-12.1 -0.63,-4.96 0.05,-10.03 0.38,-12.03 0.16,0.3 0.32,0.59 0.5,0.87 2.52,3.88 6.28,6.09 10.4,7.71 6.57,18.4 1.73,37.19 -2.14,55.78 -0.47,-5.23 -0.98,-10.52 -1.56,-15.05 z m 4.19,41.81 c -0.69,-3.77 -1.33,-11.31 -2,-19.3 -0.14,-1.7 -0.29,-3.45 -0.44,-5.22 1.47,-7.24 3.16,-14.51 4.34,-21.79 6.11,17.57 -1.68,37.23 1.28,55.49 -1.58,-3.5 -2.74,-6.78 -3.18,-9.18 z m 4.25,11.47 c -4.32,-19.3 4.94,-40.39 -2.15,-59.07 1.78,-11.59 2.17,-23.18 -1.79,-34.62 0.96,0.36 1.93,0.69 2.91,1 3.14,0.99 6.25,2.09 9.36,3.17 -0.95,4.45 -0.54,9.45 -0.25,13.74 0.57,8.65 1.76,17.27 3.37,25.78 1.1,5.82 2.63,11.5 4.42,17.08 1.26,11.71 -5.87,21.87 -9.76,33.8 -0.03,0.08 -0.81,3.14 -1.79,6.85 a 78.252,78.252 0 0 1 -4.32,-7.73 z m 16.51,-30.96 c 2.44,7.3 5.33,14.45 8.34,21.56 -5.47,5.83 -9.07,15.52 -8.98,23.78 -2.01,-5.63 -4.7,-10.99 -8.21,-16.02 3.33,-8.49 8.93,-18.98 8.85,-29.32 z m -6.25,93.8 c -1.99,-5.48 -4.36,-10.88 -6.71,-16.23 l -0.93,-2.11 c -0.34,-1.39 -0.84,-2.89 -1.32,-4.33 -0.94,-2.83 -1.92,-5.75 -1.92,-8.58 0.45,-4.01 1.65,-8.04 2.91,-12.31 1.61,-5.43 3.77,-10.81 4.01,-16.77 0,-0.79 0.58,-2.18 1.06,-3.42 8.39,12.15 12.13,26.36 12.65,41.42 0.24,7.09 0.34,14.19 0.33,21.28 -1.69,3.94 -7.29,4.87 -10.08,1.05 z m 4.39,40.71 c -0.52,-1.04 -1.01,-2.02 -1.03,-2.97 1.91,-6.91 2.09,-13.64 1.2,-20.24 2.3,8.11 2.49,16.57 0.57,24.81 -0.22,-0.54 -0.48,-1.08 -0.74,-1.6 z m 20.64,-1.03 c 0.11,0.17 0.2,0.32 0.27,0.45 1.28,2.31 -1.07,8.78 -1.07,8.78 0.14,-0.27 0.3,-0.54 0.45,-0.81 0.43,-0.76 1.05,-1.86 1.5,-3.09 0.67,1.35 2.23,3.94 5.2,5.62 2,1.13 5.04,2.21 8.25,4.31 2.66,1.74 4.02,1.07 4.02,1.07 l -2.53,-1.57 c 2.07,-0.25 3.5,0.48 3.8,0.8 0.21,0.22 0.64,0.68 0.64,2.43 0,1.42 -2.78,2.02 -2.81,2.03 l -0.52,0.11 0.09,0.53 c 0.01,0.05 0.21,1.34 -0.88,3.02 -0.84,1.31 -6.7,3.51 -12.14,5.1 -1.33,0.39 -3.55,1.92 -5.69,3.39 -1.73,1.19 -3.51,2.42 -4.46,2.77 -2.23,0.84 -10.38,1.61 -15.52,-1.59 -5.07,-3.17 -1.19,-17.79 -1.15,-17.94 0.2,-0.75 0.42,-1.57 0.65,-2.44 0.52,-1.95 1.09,-4.08 1.67,-6.04 0.12,-0.38 0.24,-0.76 0.35,-1.15 0.11,-0.37 0.23,-0.73 0.34,-1.07 l 0.03,-0.17 v -0.05 c 2.74,-10.27 2.07,-20.94 -1.69,-30.91 -0.8,-3.94 -1.93,-7.82 -3.28,-11.67 2.96,2.53 7.44,1.67 9.51,-1.38 -0.01,2.86 -0.04,5.72 -0.09,8.58 -0.05,2.99 0.29,8.72 0.29,8.72 0.18,-2.16 0.29,-4.36 0.33,-6.62 0.1,-5.57 0.2,-11.16 0.2,-16.76 2.79,2.82 7.66,2.5 9.92,-0.79 -3.04,18.56 -6.74,37.08 -3.65,55.55 0.43,2.53 2.42,7.83 2.31,7.42 -2.79,-10.08 -3.23,-20.18 -2.57,-30.29 a 31.21,31.21 0 0 0 7.06,11.57 c 0.48,0.96 0.88,1.61 1.17,2.09 z m -1.11,-39.48 c -0.68,3.65 -1.38,7.42 -1.97,11.13 l -0.1,0.87 c -0.75,6.72 -1.53,13.67 0.18,20.14 0.36,1.37 0.73,2.5 1.09,3.44 -2.87,-3.36 -4.93,-7.24 -6.16,-11.53 0.87,-11 2.97,-22.03 4.74,-33.07 0.06,-0.24 0.12,-0.49 0.16,-0.74 0.01,-0.06 0,-0.11 -0.01,-0.16 1.98,-12.49 3.48,-24.99 2.23,-37.51 5.81,15.29 2.91,30.93 -0.16,47.43 z m -0.85,-49.87 c 0.03,0.06 0.05,0.11 0.07,0.17 1.71,13.25 0.18,26.49 -1.91,39.7 -0.01,0.02 -0.02,0.03 -0.02,0.06 -0.85,5.56 -7.44,6.78 -10.4,2.94 -0.01,-5.76 -0.13,-11.52 -0.48,-17.26 -0.47,-7.84 -1.75,-15.37 -4.07,-22.49 h 0.01 c -0.74,-8.41 2.86,-18.89 8.57,-25.11 0.8,1.87 1.6,3.75 2.41,5.62 1.78,4.89 4.42,12.19 5.82,16.37 z m -2.35,-25.11 c -0.33,2.62 -0.56,4.35 -0.59,4.91 -0.08,1.38 0.05,2.36 0.19,3.4 0.18,1.34 0.38,2.86 0.18,5.71 -0.01,0.17 -0.04,0.36 -0.06,0.55 -0.3,-0.68 -0.6,-1.37 -0.9,-2.05 -0.54,-1.3 -1.1,-2.58 -1.68,-3.83 -6.17,-14.06 -12.34,-28.23 -15.34,-43.25 -1.77,-8.85 -3.21,-17.81 -3.89,-26.82 -0.37,-4.91 -1.09,-10.86 0.03,-15.98 1.82,0.63 3.64,1.25 5.48,1.83 2.12,0.67 4.12,1.02 6.24,0.22 1.06,-0.4 1.58,-1.37 1.75,-2.62 7.01,16.82 8.96,34.61 11.51,52.48 -1.01,10.55 -2.22,20.02 -2.92,25.45 z m -1.94,-97.54 c 2.31,9.19 5.2,20.63 6.17,33.79 0.74,9.98 0.02,23.26 -1.07,35.48 -2.45,-17.45 -4.6,-34.77 -11.68,-51.17 l -0.03,-0.03 c -0.19,-3.83 -2.34,-9.02 -2.86,-10.55 -1.8,-5.27 -4.04,-11.05 -3.49,-16.73 0.39,-3.95 2.63,-6.91 3.28,-10.58 2.59,1.65 4.85,3.72 6.76,6.16 0.39,3.55 1.54,8.16 2.92,13.63 z m -3.02,-16.79 c -0.04,0.61 -0.03,1.28 0.01,1.99 a 27.552,27.552 0 0 0 -6.59,-5.73 c -0.04,-1.93 -5.03,-3.71 -5.94,-4.2 -3.51,-1.9 -7,-4.13 -10.69,-5.68 -5.91,-2.49 -10.03,-1.7 -12.94,0.89 2.71,-4.17 5.84,-8.09 9.05,-11.94 7.31,-8.77 15.53,-5.72 23.3,-0.03 1.3,4.42 4.37,16.02 3.8,24.7 z m -6.91,-47.88 c 1.82,3.22 4.87,8.62 4.33,12.98 -0.76,6.12 -1.71,7.94 -1.72,7.96 l -0.11,0.21 0.04,0.12 c -4.71,-4.83 -12.44,-6.13 -17.93,-10.29 1.08,-0.43 2.13,-1.01 3.19,-1.76 2.93,-2.05 6.79,-4.56 8.99,-7.4 a 15.17,15.17 0 0 0 2.14,-3.8 c 0.22,0.47 0.57,1.1 1.07,1.98 z m 4.39,-45.05 c -0.74,2.21 -1.68,4.67 -2.58,7.05 -0.7,1.85 -1.39,3.63 -1.92,5.17 -3.18,6.12 -6.17,12.44 -9.15,18.62 -3,6.21 -6.78,13.32 -7.97,20.15 -0.42,2.37 -1.84,6.85 -4.92,4.49 -2.1,-1.61 -2.82,-4.49 -3.48,-6.89 -0.94,-3.43 -2.02,-6.83 -2.9,-10.28 -2.07,-8.11 -3.8,-16.5 -4.37,-24.88 0.32,-0.21 0.66,-0.53 1.03,-0.99 6.04,-7.53 11.84,-15.87 16.71,-24.2 1.75,-3 3.1,-5.96 3.98,-8.96 4.91,1.59 16.36,3.73 20.43,-1.06 -1.78,8.76 -3.9,18.88 -4.86,21.78 z m 10.62,5.17 c -2.76,-4.38 -6.25,-12.12 -7.16,-14.85 1.93,-8.95 4.21,-20.76 4.97,-24.71 1.41,0.76 2.95,1.36 4.47,1.91 7.83,2.78 13.51,6.71 18.94,12.19 l -0.02,0.06 0.08,0.19 c 0.02,0.06 2.37,5.86 3.62,11.94 1,4.88 1.67,14.66 1.91,18.44 -1.16,4.21 -2.77,9.23 -4.41,12.91 -0.74,1.67 -1.45,2.93 -2.54,3.55 -0.68,-7.55 -2.65,-14.76 -5.76,-21.67 -1.32,-2.94 -3.52,-9.56 -7.42,-9.99 -4.05,-0.44 -0.72,8.33 -0.39,9.32 2.57,7.65 4.7,15.17 8.7,22.13 -0.56,-0.15 -1.11,-0.31 -1.66,-0.5 -4.63,-1.55 -7.08,-4.46 -8.89,-8.09 -0.79,-3.56 -2.31,-9.45 -4.44,-12.83 z m 18.05,23.22 c 0.49,0.11 0.97,0.16 1.41,0.09 1.63,8.42 5.42,15.5 9.2,23.2 a 59.29,59.29 0 0 1 3.31,8.3 c 0.8,11.37 1.6,24.75 0.53,36.21 -0.44,4.69 -3.9,3.25 -4.97,0.33 l -0.09,-0.27 -0.03,-0.11 c -0.04,-0.13 -0.07,-0.25 -0.09,-0.38 -0.43,-2.08 -0.68,-4.2 -1.07,-6.29 -0.83,-4.42 -2.78,-9.83 -4,-14.3 -0.51,-11.46 -3.89,-23.03 -9.7,-32.63 3.55,-3.94 5.46,-8.82 5.5,-14.15 z m -1.79,-1.45 c -0.13,-0.04 -0.26,-0.07 -0.39,-0.11 -3.41,-5.71 -5.71,-11.91 -7.65,-18.28 -0.63,-2.08 -1.34,-4.13 -2,-6.2 -0.14,-0.43 -2.35,-9.05 1.39,-6.29 0.9,0.66 1.65,1.46 2.24,2.42 5.43,8.43 8.5,18.67 9.36,28.58 -0.77,0.23 -1.71,0.22 -2.95,-0.12 z m -10.9,3.59 c -0.53,-3.37 -0.36,-9.5 -0.36,-9.56 -0.01,-0.09 -0.07,-0.42 -0.17,-0.93 1.97,3.2 4.67,5.65 9.22,6.95 1.12,0.32 2.27,0.88 3.35,1.22 0,5.17 -1.81,9.9 -5.24,13.74 -1.17,-1.88 -2.89,-4.36 -4.02,-5.69 -0.02,-0.02 -2.26,-2.48 -2.78,-5.73 z m 8.07,38.89 c -2.97,-7.87 -6.05,-16 -6.24,-20.6 -0.28,-6.75 0.54,-10.32 0.9,-11.51 11.79,15.07 16.21,37.42 11.59,56.07 -0.02,-1.86 -0.25,-3.93 -0.57,-6.15 -0.6,-4.14 -3.02,-10.78 -5.68,-17.81 z m 13.51,74.15 c -0.68,-0.38 -1.88,-1.39 -1.88,-3.83 0,-0.1 -0.01,-0.29 -0.01,-0.44 l 5.48,-5.61 a 604.64,604.64 0 0 1 -3.59,9.88 z m 5.24,-14.88 c -0.13,0.5 -0.42,1.43 -0.82,2.59 l -8.75,8.95 c -0.32,-0.55 -0.78,-1.46 -1.07,-2.53 0.55,-0.46 3.92,-3.32 7.1,-6.67 1.62,-1.7 3.18,-4 4.26,-5.98 -0.2,1.33 -0.44,2.54 -0.72,3.64 z m 1.46,-33.7 c 0.39,10.96 0.36,19.71 -0.27,26.3 -0.35,1.54 -2.78,6.12 -5.51,8.99 -2.71,2.85 -5.58,5.35 -6.65,6.27 -0.7,-1.05 -2.15,-3.75 -0.46,-6.33 0.86,-1.32 4.47,-4.52 4.69,-5.37 0.01,-0.03 0.18,-2.55 0.88,-5.17 0.02,-0.08 0.02,-0.15 0.02,-0.21 0.34,-1.58 0.35,-3 0.12,-4.22 -0.18,-3.57 -4.27,-6.9 -6.13,-7.56 0.39,0.54 1.32,1.63 2.29,2.94 -0.27,-0.01 -0.53,0.06 -0.77,0.21 -1.6,1.03 -1.9,3.29 -2.23,5.69 -0.25,1.89 -0.52,3.84 -1.41,5.25 -1.33,2.1 -2.71,1.09 -2.88,-0.62 -0.21,-2.1 -0.31,-4.9 -0.29,-7.46 l 0.08,-1.44 c 0.3,-5.36 0.93,-8.93 3.26,-12.62 0.45,-0.72 0.77,-1.56 0.98,-2.5 2.03,-6.08 2.98,-12.67 2.94,-19.35 1.06,3.37 2.37,7.1 2.95,10.15 0.56,2.99 0.65,6.36 1.61,9.26 0.58,1.74 2.56,4.06 4.87,3.32 2.25,-0.72 1.74,-12.77 1.78,-14.29 0.2,-7.47 0,-14.93 -0.47,-22.39 1.17,4.93 1.69,9.99 1.66,15.22 -0.7,4.78 -1.27,9.95 -1.06,15.93 z m 3.73,-40.47 v 0.61 c 0,0.13 -0.01,0.26 -0.01,0.4 0,0.2 -0.01,0.4 -0.02,0.6 -0.01,0.15 -0.01,0.29 -0.02,0.44 -0.01,0.27 -0.02,0.54 -0.04,0.82 -0.26,4.25 -0.73,8.18 -1.24,12.34 -0.21,1.71 -0.47,3.44 -0.73,5.21 -0.3,-7.14 -1.62,-14.2 -4.7,-20.74 -4.04,-8.61 -8.67,-16.53 -10.49,-25.9 0.54,-0.26 1.02,-0.75 1.42,-1.6 0.33,-0.69 0.65,-1.41 0.97,-2.16 1.65,6.47 7.87,10.29 11.8,15.55 0.28,0.44 2.83,4.74 3.05,13.17 v 0.25 c 0.01,0.22 0.01,0.44 0.01,0.67 z"
     stroke="#504945"
     stroke-opacity="1" /><style
     type="text/css"
     id="style1070">
	.st0{display:none;opacity:0.5;fill:none;stroke:#231F20;stroke-width:0.05;stroke-miterlimit:10;}
	.st1{fill:#E92A2A;}
	.st2{fill:#D52626;}
	.st3{fill:#9A1A1C;}
	.st4{fill:#8D1819;}
</style><g
     id="g1141"
     transform="translate(-121.575,-286.954)"
     style="fill:#689d6a;fill-opacity:1;stroke:#689d6a;stroke-opacity:1;stroke-width:0.3;stroke-miterlimit:4;stroke-dasharray:none"><path
       class="st0"
       d="m 418.44,444.92 c -2.94,1.51 -8.31,5.17 -9.04,17.27"
       id="path1072"
       style="fill:#689d6a;fill-opacity:1;stroke:#689d6a;stroke-opacity:1;stroke-width:0.3;stroke-miterlimit:4;stroke-dasharray:none" /><path
       class="st1"
       d="m 238.89,368.98 c 0.67,8.95 2.11,17.85 3.87,26.64 2.97,14.84 9.05,28.85 15.14,42.74 l 0.11,0.24 c 0.66,1.42 1.3,2.89 1.9,4.37 0.22,0.48 0.42,0.96 0.63,1.43 0.03,-0.19 0.06,-0.36 0.07,-0.54 0.2,-2.84 0,-4.34 -0.18,-5.67 -0.14,-1.02 -0.26,-2 -0.18,-3.38 0.03,-0.55 0.25,-2.27 0.59,-4.87 0.68,-5.4 1.89,-14.79 2.88,-25.26 v -0.01 c -2.53,-17.75 -4.46,-35.42 -11.43,-52.14 -0.16,1.25 -0.68,2.21 -1.73,2.61 -2.11,0.8 -4.09,0.46 -6.19,-0.22 -1.82,-0.57 -3.63,-1.18 -5.44,-1.81 -1.12,5.09 -0.39,11 -0.04,15.87"
       id="path1074"
       style="fill:#689d6a;fill-opacity:1;stroke:#689d6a;stroke-opacity:1;stroke-width:0.3;stroke-miterlimit:4;stroke-dasharray:none" /><path
       class="st2"
       d="m 260.27,436.78 c -1.61,-4.42 -3.43,-8.84 -5.2,-13.13 -2.38,-5.78 -4.84,-11.76 -6.81,-17.78 -4.25,-12.97 -6.56,-24.91 -6.95,-36.12 0.02,-0.05 0.04,-0.1 0.06,-0.14 0.17,-0.42 0.37,-0.83 0.59,-1.24 0.28,11.78 2.75,24.52 7.53,39.08 1.92,5.84 4.3,11.62 6.6,17.2 1.39,3.39 2.83,6.87 4.16,10.36 -0.04,0.67 -0.02,1.24 0.02,1.77 M 242.7,354.39 c -0.22,-0.07 -0.43,-0.14 -0.64,-0.21 v 0 c 0.21,0.07 0.42,0.14 0.64,0.21 v 0"
       id="path1076"
       style="fill:#689d6a;fill-opacity:1;stroke:#689d6a;stroke-opacity:1;stroke-width:0.3;stroke-miterlimit:4;stroke-dasharray:none" /><path
       class="st2"
       d="m 260.58,431.99 c -0.54,-10.9 -4.47,-21.57 -8.28,-31.91 -4.13,-11.21 -8.37,-22.72 -8.26,-34.57 0.21,-0.22 0.43,-0.42 0.66,-0.62 -0.29,12.04 4.02,23.74 8.22,35.13 3.45,9.36 7,18.99 8.06,28.84 -0.05,0.38 -0.09,0.74 -0.14,1.09 -0.1,0.75 -0.19,1.44 -0.26,2.04 m -14.62,-76.63 c -0.21,-0.05 -0.43,-0.1 -0.64,-0.16 0,0 0,0 0,0 0.21,0.06 0.43,0.12 0.64,0.16 0,0 0,0 0,0"
       id="path1078"
       style="fill:#689d6a;fill-opacity:1;stroke:#689d6a;stroke-opacity:1;stroke-width:0.3;stroke-miterlimit:4;stroke-dasharray:none" /><path
       class="st2"
       d="m 261.76,422.58 c -0.94,-9.12 -4.1,-18.06 -7.17,-26.74 -3.71,-10.5 -7.52,-21.28 -7.43,-32.48 0.22,-0.09 0.44,-0.17 0.66,-0.24 -0.16,11.25 3.67,22.1 7.41,32.67 2.77,7.84 5.62,15.91 6.85,24.14 -0.11,0.91 -0.21,1.8 -0.32,2.65 m -13.73,-66.97 c -0.05,0 -0.09,0 -0.14,0 v 0 c 0.05,0 0.09,0 0.14,0 0.18,0 0.36,-0.01 0.54,-0.02 v 0 c -0.18,0.01 -0.36,0.02 -0.54,0.02"
       id="path1080"
       style="fill:#689d6a;fill-opacity:1;stroke:#689d6a;stroke-opacity:1;stroke-width:0.3;stroke-miterlimit:4;stroke-dasharray:none" /><path
       class="st2"
       d="m 263.19,409.97 c -1.02,-7.07 -3.39,-14.18 -5.51,-20.54 -0.25,-0.76 -0.5,-1.51 -0.75,-2.24 -2.53,-7.65 -5.04,-15.74 -6.26,-24.37 0.24,0.02 0.48,0.05 0.72,0.1 1.28,8.66 3.92,16.9 6.67,25.5 0.52,1.63 1.05,3.28 1.56,4.93 1.38,4.4 2.87,9.39 3.79,14.52 -0.07,0.7 -0.14,1.41 -0.22,2.1"
       id="path1082"
       style="fill:#689d6a;fill-opacity:1;stroke:#689d6a;stroke-opacity:1;stroke-width:0.3;stroke-miterlimit:4;stroke-dasharray:none" /><path
       class="st3"
       d="m 239.73,377.17 c -0.33,-2.72 -0.62,-5.45 -0.82,-8.19 -0.36,-4.88 -1.09,-10.78 0.02,-15.86 0.22,0.08 0.45,0.15 0.67,0.23 0.8,0.27 1.6,0.55 2.4,0.81 0.02,0.01 0.04,0.01 0.05,0.02 -0.68,5.04 -0.93,10.22 -0.74,15.57 -0.95,2.35 -1.33,4.88 -1.58,7.42 m 2.22,-8.8 c -0.11,-4.8 0.14,-9.44 0.74,-13.98 0.56,0.18 1.12,0.37 1.68,0.54 0.32,0.1 0.63,0.19 0.94,0.27 -0.86,3.46 -1.25,6.9 -1.28,10.3 -0.82,0.85 -1.52,1.83 -2.08,2.87 m 15.11,-1.66 c -1.24,-1.97 -3.38,-3.37 -5.67,-3.78 -0.38,-2.56 -0.64,-5.15 -0.75,-7.8 0.3,-0.13 0.56,-0.3 0.78,-0.51 0.5,-0.49 0.78,-1.19 0.89,-2.04 1.93,4.63 3.47,9.35 4.75,14.13 m -12.36,-1.82 c 0.08,-3.15 0.47,-6.32 1.26,-9.52 0.65,0.14 1.29,0.23 1.93,0.24 -0.48,2.61 -0.7,5.19 -0.72,7.75 -0.9,0.37 -1.73,0.89 -2.47,1.53 m 3.13,-1.77 c 0.04,-2.49 0.27,-5 0.74,-7.54 0.09,-0.01 0.19,-0.01 0.28,-0.03 0.37,-0.04 0.75,-0.11 1.12,-0.22 0.11,2.54 0.36,5.03 0.7,7.48 -0.23,-0.02 -0.46,-0.03 -0.68,-0.03 -0.63,0 -1.26,0.08 -1.88,0.25 -0.1,0.04 -0.19,0.06 -0.28,0.09"
       id="path1084"
       style="fill:#689d6a;fill-opacity:1;stroke:#689d6a;stroke-opacity:1;stroke-width:0.3;stroke-miterlimit:4;stroke-dasharray:none" /><path
       class="st4"
       d="m 241.31,369.75 c -0.19,-5.35 0.06,-10.53 0.74,-15.57 0.22,0.07 0.43,0.14 0.64,0.21 -0.61,4.54 -0.86,9.18 -0.74,13.98 -0.22,0.4 -0.41,0.82 -0.59,1.24 -0.01,0.04 -0.03,0.09 -0.05,0.14"
       id="path1086"
       style="fill:#689d6a;fill-opacity:1;stroke:#689d6a;stroke-opacity:1;stroke-width:0.3;stroke-miterlimit:4;stroke-dasharray:none" /><path
       class="st4"
       d="m 244.04,365.51 c 0.03,-3.4 0.42,-6.84 1.28,-10.3 0.22,0.06 0.43,0.11 0.64,0.16 -0.79,3.2 -1.18,6.37 -1.26,9.52 -0.23,0.19 -0.45,0.4 -0.66,0.62"
       id="path1088"
       style="fill:#689d6a;fill-opacity:1;stroke:#689d6a;stroke-opacity:1;stroke-width:0.3;stroke-miterlimit:4;stroke-dasharray:none" /><path
       class="st4"
       d="m 247.17,363.36 c 0.02,-2.56 0.24,-5.15 0.72,-7.75 0.05,0 0.09,0 0.14,0 0.18,0 0.36,-0.01 0.54,-0.02 -0.47,2.53 -0.71,5.04 -0.74,7.54 -0.23,0.06 -0.45,0.14 -0.66,0.23"
       id="path1090"
       style="fill:#689d6a;fill-opacity:1;stroke:#689d6a;stroke-opacity:1;stroke-width:0.3;stroke-miterlimit:4;stroke-dasharray:none" /><path
       class="st4"
       d="m 251.39,362.92 c -0.24,-0.04 -0.48,-0.08 -0.72,-0.1 -0.35,-2.45 -0.59,-4.94 -0.7,-7.48 0.2,-0.06 0.4,-0.12 0.59,-0.2 0.03,-0.01 0.05,-0.02 0.07,-0.03 0.12,2.66 0.38,5.25 0.76,7.81"
       id="path1092"
       style="fill:#689d6a;fill-opacity:1;stroke:#689d6a;stroke-opacity:1;stroke-width:0.3;stroke-miterlimit:4;stroke-dasharray:none" /><path
       class="st1"
       d="m 186.44,368.72 c -0.67,8.95 -2.11,17.85 -3.87,26.64 -2.97,14.84 -9.05,28.85 -15.14,42.74 l -0.11,0.24 c -0.66,1.42 -1.3,2.89 -1.9,4.37 -0.22,0.48 -0.42,0.96 -0.63,1.43 -0.03,-0.19 -0.06,-0.36 -0.07,-0.54 -0.2,-2.84 0,-4.34 0.18,-5.67 0.14,-1.02 0.26,-2 0.18,-3.38 -0.03,-0.55 -0.25,-2.27 -0.59,-4.87 -0.68,-5.4 -1.89,-14.79 -2.88,-25.26 v -0.01 c 2.53,-17.75 4.46,-35.42 11.43,-52.14 0.16,1.25 0.68,2.21 1.73,2.61 2.11,0.8 4.09,0.46 6.19,-0.22 1.82,-0.57 3.63,-1.18 5.44,-1.81 1.12,5.1 0.39,11.01 0.04,15.87"
       id="path1094"
       style="fill:#689d6a;fill-opacity:1;stroke:#689d6a;stroke-opacity:1;stroke-width:0.3;stroke-miterlimit:4;stroke-dasharray:none" /><path
       class="st2"
       d="m 165.06,436.52 c 0.04,-0.53 0.06,-1.1 0.03,-1.76 1.33,-3.49 2.76,-6.97 4.16,-10.36 2.3,-5.58 4.68,-11.36 6.6,-17.2 4.78,-14.56 7.25,-27.3 7.53,-39.08 0.22,0.4 0.41,0.82 0.59,1.24 0.02,0.05 0.04,0.1 0.06,0.14 -0.39,11.2 -2.7,23.15 -6.95,36.12 -1.98,6.03 -4.44,12.01 -6.81,17.78 -1.77,4.28 -3.6,8.71 -5.21,13.12 m 17.57,-82.38 v 0 c 0.22,-0.07 0.43,-0.14 0.64,-0.21 v 0 c -0.21,0.07 -0.42,0.14 -0.64,0.21"
       id="path1096"
       style="fill:#689d6a;fill-opacity:1;stroke:#689d6a;stroke-opacity:1;stroke-width:0.3;stroke-miterlimit:4;stroke-dasharray:none" /><path
       class="st2"
       d="m 164.76,431.73 c -0.08,-0.6 -0.17,-1.28 -0.27,-2.04 -0.04,-0.35 -0.09,-0.71 -0.14,-1.09 1.05,-9.85 4.61,-19.48 8.06,-28.84 4.2,-11.39 8.52,-23.09 8.22,-35.13 0.23,0.2 0.45,0.4 0.66,0.62 0.11,11.85 -4.13,23.36 -8.26,34.57 -3.81,10.34 -7.74,21.01 -8.27,31.91 m 14.61,-76.62 c 0,0 0,0 0,0 0.21,-0.05 0.43,-0.1 0.64,-0.16 0,0 0,0 0,0 -0.21,0.06 -0.43,0.11 -0.64,0.16"
       id="path1098"
       style="fill:#689d6a;fill-opacity:1;stroke:#689d6a;stroke-opacity:1;stroke-width:0.3;stroke-miterlimit:4;stroke-dasharray:none" /><path
       class="st2"
       d="m 163.57,422.32 c -0.1,-0.85 -0.21,-1.74 -0.32,-2.65 1.23,-8.22 4.08,-16.3 6.85,-24.14 3.73,-10.56 7.57,-21.42 7.41,-32.67 0.22,0.07 0.45,0.15 0.66,0.24 0.09,11.19 -3.72,21.98 -7.43,32.48 -3.07,8.68 -6.23,17.62 -7.17,26.74 m 13.73,-66.97 c -0.18,0 -0.36,-0.01 -0.54,-0.02 v 0 c 0.18,0.01 0.36,0.02 0.54,0.02 0.04,0 0.09,0 0.14,0 v 0 c -0.04,0 -0.09,0 -0.14,0"
       id="path1100"
       style="fill:#689d6a;fill-opacity:1;stroke:#689d6a;stroke-opacity:1;stroke-width:0.3;stroke-miterlimit:4;stroke-dasharray:none" /><path
       class="st2"
       d="m 162.14,409.72 c 1.02,-7.07 3.39,-14.18 5.51,-20.54 0.25,-0.76 0.5,-1.51 0.75,-2.24 2.53,-7.65 5.04,-15.74 6.26,-24.37 -0.24,0.02 -0.48,0.05 -0.72,0.1 -1.28,8.66 -3.92,16.9 -6.67,25.5 -0.52,1.63 -1.05,3.28 -1.56,4.93 -1.38,4.4 -2.87,9.39 -3.79,14.52 0.07,0.7 0.14,1.4 0.22,2.1"
       id="path1102"
       style="fill:#689d6a;fill-opacity:1;stroke:#689d6a;stroke-opacity:1;stroke-width:0.3;stroke-miterlimit:4;stroke-dasharray:none" /><path
       class="st3"
       d="m 185.6,376.91 c -0.25,-2.54 -0.63,-5.07 -1.58,-7.42 0.19,-5.35 -0.06,-10.53 -0.74,-15.57 0.02,-0.01 0.03,-0.01 0.05,-0.02 0.8,-0.27 1.6,-0.54 2.4,-0.81 0.22,-0.08 0.45,-0.15 0.67,-0.23 1.11,5.08 0.38,10.98 0.02,15.86 -0.2,2.74 -0.48,5.47 -0.82,8.19 m -2.22,-8.79 c -0.56,-1.04 -1.26,-2.02 -2.08,-2.86 -0.03,-3.4 -0.42,-6.84 -1.28,-10.3 0.31,-0.08 0.63,-0.18 0.94,-0.27 0.56,-0.18 1.12,-0.36 1.68,-0.54 0.6,4.53 0.85,9.17 0.74,13.97 m -15.11,-1.67 c 1.28,-4.78 2.83,-9.49 4.76,-14.14 0.11,0.84 0.39,1.55 0.89,2.04 0.22,0.21 0.47,0.39 0.78,0.51 -0.11,2.65 -0.37,5.25 -0.75,7.8 -2.3,0.42 -4.44,1.82 -5.68,3.79 m 12.36,-1.82 c -0.74,-0.64 -1.57,-1.16 -2.46,-1.53 -0.02,-2.56 -0.24,-5.15 -0.72,-7.75 0.64,-0.01 1.28,-0.1 1.93,-0.24 0.78,3.2 1.17,6.37 1.25,9.52 m -3.13,-1.76 c -0.09,-0.03 -0.19,-0.06 -0.28,-0.08 -0.62,-0.17 -1.25,-0.25 -1.88,-0.25 -0.23,0 -0.46,0.01 -0.68,0.03 0.35,-2.45 0.59,-4.94 0.7,-7.48 0.38,0.11 0.75,0.18 1.12,0.22 0.09,0.01 0.19,0.02 0.28,0.03 0.48,2.52 0.71,5.04 0.74,7.53"
       id="path1104"
       style="fill:#689d6a;fill-opacity:1;stroke:#689d6a;stroke-opacity:1;stroke-width:0.3;stroke-miterlimit:4;stroke-dasharray:none" /><path
       class="st4"
       d="m 184.02,369.5 c 0.19,-5.35 -0.06,-10.53 -0.74,-15.57 -0.22,0.07 -0.43,0.14 -0.64,0.21 0.61,4.54 0.86,9.18 0.74,13.98 0.22,0.4 0.41,0.82 0.59,1.24 0.01,0.04 0.03,0.09 0.05,0.14"
       id="path1106"
       style="fill:#689d6a;fill-opacity:1;stroke:#689d6a;stroke-opacity:1;stroke-width:0.3;stroke-miterlimit:4;stroke-dasharray:none" /><path
       class="st4"
       d="m 181.3,365.25 c -0.03,-3.4 -0.42,-6.84 -1.28,-10.3 -0.22,0.06 -0.43,0.11 -0.64,0.16 0.79,3.2 1.18,6.37 1.26,9.52 0.22,0.2 0.44,0.41 0.66,0.62"
       id="path1108"
       style="fill:#689d6a;fill-opacity:1;stroke:#689d6a;stroke-opacity:1;stroke-width:0.3;stroke-miterlimit:4;stroke-dasharray:none" /><path
       class="st4"
       d="m 178.17,363.11 c -0.02,-2.56 -0.24,-5.15 -0.72,-7.75 -0.05,0 -0.09,0 -0.14,0 -0.18,0 -0.36,-0.01 -0.54,-0.02 0.47,2.53 0.71,5.04 0.74,7.54 0.22,0.06 0.44,0.14 0.66,0.23"
       id="path1110"
       style="fill:#689d6a;fill-opacity:1;stroke:#689d6a;stroke-opacity:1;stroke-width:0.3;stroke-miterlimit:4;stroke-dasharray:none" /><path
       class="st4"
       d="m 173.94,362.67 c 0.24,-0.04 0.48,-0.08 0.72,-0.1 0.35,-2.45 0.59,-4.94 0.7,-7.48 -0.2,-0.06 -0.4,-0.12 -0.59,-0.2 -0.03,-0.01 -0.05,-0.02 -0.07,-0.03 -0.12,2.65 -0.38,5.25 -0.76,7.81"
       id="path1112"
       style="fill:#689d6a;fill-opacity:1;stroke:#689d6a;stroke-opacity:1;stroke-width:0.3;stroke-miterlimit:4;stroke-dasharray:none" /></g><style
     type="text/css"
     id="style1143">
	.st0{display:none;opacity:0.5;fill:none;stroke:#231F20;stroke-width:0.05;stroke-miterlimit:10;}
	.st1{fill:#E92A2A;}
	.st2{fill:#D52626;}
	.st3{fill:#9A1A1C;}
	.st4{fill:#8D1819;}
</style><g
     id="g1220"
     transform="translate(-123.815,-286.494)"
     style="fill:#689d6a;fill-opacity:1;stroke:#689d6a;stroke-opacity:1;stroke-width:0.3;stroke-miterlimit:4;stroke-dasharray:none"><path
       class="st0"
       d="m 418.44,444.92 c -2.94,1.51 -8.31,5.17 -9.04,17.27"
       id="path1145"
       style="fill:#689d6a;fill-opacity:1;stroke:#689d6a;stroke-opacity:1;stroke-width:0.3;stroke-miterlimit:4;stroke-dasharray:none" /><g
       id="g1167"
       style="fill:#689d6a;fill-opacity:1;stroke:#689d6a;stroke-opacity:1;stroke-width:0.3;stroke-miterlimit:4;stroke-dasharray:none">
	<path
   class="st1"
   d="m 229.62,382.63 c 7.05,18.58 -2.14,39.51 2.12,58.69 1.29,2.66 2.77,5.35 4.33,7.8 0.98,-3.74 1.76,-6.74 1.76,-6.74 l 0.07,-0.19 c 3.87,-11.86 10.89,-21.86 9.65,-33.49 v -0.01 l -0.01,-0.02 c -1.79,-5.55 -3.3,-11.21 -4.4,-17 -1.6,-8.46 -2.78,-17.04 -3.35,-25.65 -0.27,-4.26 -0.7,-9.25 0.25,-13.67 -3.09,-1.06 -6.18,-2.17 -9.31,-3.15 -0.97,-0.31 -1.94,-0.64 -2.89,-0.98 3.95,11.37 3.56,22.88 1.78,34.41"
   id="path1147"
   style="fill:#689d6a;fill-opacity:1;stroke:#689d6a;stroke-opacity:1;stroke-width:0.3;stroke-miterlimit:4;stroke-dasharray:none" />
	<path
   class="st2"
   d="m 234.16,445.93 c -0.22,-0.39 -0.44,-0.79 -0.66,-1.19 0,0 0,-0.01 0,-0.01 0.22,0.4 0.44,0.79 0.66,1.18 0,0.01 0,0.01 0,0.02 m 0.59,-8.22 c -0.2,-0.19 -0.4,-0.4 -0.59,-0.62 0.77,-4.28 2.09,-8.53 3.45,-12.62 4.64,-13.98 5.93,-27.66 3.94,-41.81 l -0.01,-0.1 0.04,-0.03 c 0.46,3.06 0.98,6.11 1.55,9.15 0.02,0.12 0.04,0.23 0.07,0.35 0.38,7.4 -0.13,14.41 -1.56,21.24 -0.8,3.85 -2.08,7.78 -3.32,11.58 -1.37,4.21 -2.78,8.53 -3.57,12.86"
   id="path1149"
   style="fill:#689d6a;fill-opacity:1;stroke:#689d6a;stroke-opacity:1;stroke-width:0.3;stroke-miterlimit:4;stroke-dasharray:none" />
	<path
   class="st2"
   d="m 233.04,443.9 c -0.1,-0.2 -0.21,-0.4 -0.31,-0.6 -0.23,-0.45 -0.46,-0.9 -0.69,-1.35 0,0 0,0 0,0 0.32,0.64 0.65,1.29 1,1.94 0,0 0,0 0,0.01 m -0.92,-10.4 c -0.24,-0.61 -0.44,-1.25 -0.62,-1.9 0.1,-2.45 0.36,-4.91 0.79,-7.37 0.56,-2.85 1.34,-5.69 2.09,-8.43 0.59,-2.15 1.2,-4.37 1.7,-6.58 1.61,-7.09 1.1,-14.59 0.66,-21.2 -0.56,-8.28 -1.17,-16.68 -1.77,-24.85 0.23,0.06 0.46,0.15 0.68,0.25 0.64,8.73 1.29,17.69 1.89,26.53 0.46,6.84 0.31,12.43 -0.46,17.59 -0.47,3.18 -1.37,6.32 -2.24,9.37 -0.69,2.43 -1.41,4.95 -1.9,7.46 -0.52,3.05 -0.8,6.09 -0.82,9.13"
   id="path1151"
   style="fill:#689d6a;fill-opacity:1;stroke:#689d6a;stroke-opacity:1;stroke-width:0.3;stroke-miterlimit:4;stroke-dasharray:none" />
	<path
   class="st2"
   d="m 235.52,448.23 c -0.2,-0.33 -0.4,-0.67 -0.61,-1 0,-0.01 0,-0.01 0,-0.02 0.2,0.34 0.4,0.67 0.61,1 0,0.01 0,0.01 0,0.02 m 1.45,-9.24 c -0.2,-0.04 -0.4,-0.11 -0.59,-0.18 1.07,-3.86 2.56,-7.64 4.02,-11.34 3.08,-7.81 6.27,-15.89 5.41,-24.48 0.26,0.91 0.52,1.82 0.8,2.73 0.02,7.61 -2.82,14.81 -5.58,21.8 -1.48,3.74 -2.99,7.57 -4.06,11.47"
   id="path1153"
   style="fill:#689d6a;fill-opacity:1;stroke:#689d6a;stroke-opacity:1;stroke-width:0.3;stroke-miterlimit:4;stroke-dasharray:none" />
	<path
   class="st3"
   d="m 239.93,368.04 c -1.06,-1.98 -2.53,-3.83 -4.27,-4.63 -0.05,-0.72 -0.1,-1.44 -0.16,-2.15 -0.26,-3.59 -0.53,-7.17 -0.79,-10.76 1.04,0.35 2.07,0.71 3.11,1.07 0.74,0.26 1.48,0.52 2.22,0.77 -0.95,4.42 -0.52,9.4 -0.25,13.67 0.04,0.68 0.08,1.36 0.14,2.03 m -9.08,-3.76 c -0.13,-2.74 -0.42,-5.48 -0.92,-8.21 -0.48,-2.62 -1.15,-5.24 -2.05,-7.85 0.94,0.34 1.9,0.67 2.86,0.97 1.1,0.35 2.2,0.71 3.3,1.08 0.27,3.68 0.54,7.36 0.81,11.04 0.04,0.61 0.09,1.23 0.14,1.85 -0.36,-0.1 -0.73,-0.15 -1.1,-0.15 -0.61,0 -1.25,0.14 -1.91,0.46 -0.44,0.2 -0.81,0.48 -1.13,0.81"
   id="path1155"
   style="fill:#689d6a;fill-opacity:1;stroke:#689d6a;stroke-opacity:1;stroke-width:0.3;stroke-miterlimit:4;stroke-dasharray:none" />
	<path
   class="st4"
   d="m 235.65,363.42 c -0.22,-0.1 -0.45,-0.19 -0.68,-0.25 -0.05,-0.62 -0.09,-1.23 -0.14,-1.85 -0.27,-3.68 -0.54,-7.34 -0.81,-11.02 0.23,0.08 0.46,0.14 0.69,0.22 0.26,3.59 0.52,7.17 0.79,10.76 0.05,0.7 0.1,1.42 0.15,2.14"
   id="path1157"
   style="fill:#689d6a;fill-opacity:1;stroke:#689d6a;stroke-opacity:1;stroke-width:0.3;stroke-miterlimit:4;stroke-dasharray:none" />
	<path
   class="st3"
   d="m 236.08,449.1 c -0.19,-0.29 -0.38,-0.59 -0.56,-0.89 0.07,-3.12 0.63,-6.19 1.46,-9.22 0,0 0.01,0 0.02,0 0.21,0.05 0.42,0.07 0.64,0.07 0.52,0 1.04,-0.13 1.52,-0.39 -0.44,1.16 -0.86,2.33 -1.25,3.52 l -0.07,0.19 c -0.01,0.01 -0.78,2.99 -1.76,6.72 m -1.17,-1.89 c -0.25,-0.43 -0.51,-0.86 -0.75,-1.3 -0.16,-2.72 0.09,-5.46 0.59,-8.2 0.5,0.48 1.05,0.86 1.63,1.09 -0.76,2.77 -1.3,5.57 -1.47,8.41 m -1.41,-2.48 c -0.15,-0.28 -0.31,-0.57 -0.46,-0.85 -0.64,-3.43 -0.95,-6.9 -0.92,-10.39 0.35,0.91 0.77,1.77 1.27,2.54 0.24,0.37 0.5,0.72 0.77,1.05 -0.45,2.55 -0.71,5.11 -0.66,7.65 m -1.45,-2.78 c -0.04,-0.09 -0.09,-0.18 -0.13,-0.26 -0.05,-0.09 -0.09,-0.19 -0.14,-0.28 v -0.01 c -1.17,-5.22 -1.33,-10.58 -1.1,-15.98 0.01,0.26 0,0.53 0.01,0.79 0.1,1.83 0.36,3.67 0.82,5.39 -0.15,3.47 0.03,6.93 0.54,10.35"
   id="path1159"
   style="fill:#689d6a;fill-opacity:1;stroke:#689d6a;stroke-opacity:1;stroke-width:0.3;stroke-miterlimit:4;stroke-dasharray:none" />
	<path
   class="st4"
   d="m 234.16,445.91 c -0.22,-0.39 -0.44,-0.79 -0.66,-1.18 -0.05,-2.54 0.21,-5.1 0.67,-7.64 0.19,0.22 0.38,0.43 0.59,0.62 -0.51,2.74 -0.76,5.48 -0.6,8.2"
   id="path1161"
   style="fill:#689d6a;fill-opacity:1;stroke:#689d6a;stroke-opacity:1;stroke-width:0.3;stroke-miterlimit:4;stroke-dasharray:none" />
	<path
   class="st4"
   d="m 233.04,443.88 c -0.34,-0.64 -0.68,-1.29 -1,-1.94 -0.5,-3.42 -0.68,-6.88 -0.54,-10.35 0.18,0.65 0.38,1.29 0.62,1.9 -0.02,3.5 0.28,6.97 0.92,10.39"
   id="path1163"
   style="fill:#689d6a;fill-opacity:1;stroke:#689d6a;stroke-opacity:1;stroke-width:0.3;stroke-miterlimit:4;stroke-dasharray:none" />
	<path
   class="st4"
   d="m 235.52,448.21 c -0.2,-0.33 -0.41,-0.66 -0.61,-1 0.16,-2.84 0.71,-5.65 1.47,-8.41 0.19,0.08 0.39,0.14 0.59,0.18 -0.82,3.04 -1.38,6.11 -1.45,9.23"
   id="path1165"
   style="fill:#689d6a;fill-opacity:1;stroke:#689d6a;stroke-opacity:1;stroke-width:0.3;stroke-miterlimit:4;stroke-dasharray:none" />
</g><g
       id="g1189"
       style="fill:#689d6a;fill-opacity:1;stroke:#689d6a;stroke-opacity:1;stroke-width:0.3;stroke-miterlimit:4;stroke-dasharray:none">
	<path
   class="st1"
   d="m 199.02,382.63 c -7.05,18.58 2.14,39.51 -2.12,58.69 -1.29,2.66 -2.77,5.35 -4.33,7.8 -0.98,-3.74 -1.76,-6.74 -1.76,-6.74 l -0.07,-0.19 c -3.87,-11.86 -10.89,-21.86 -9.65,-33.49 v -0.01 l 0.01,-0.02 c 1.79,-5.55 3.3,-11.21 4.4,-17 1.6,-8.46 2.78,-17.04 3.35,-25.65 0.27,-4.26 0.7,-9.25 -0.25,-13.67 3.09,-1.06 6.18,-2.17 9.31,-3.15 0.97,-0.31 1.94,-0.64 2.89,-0.98 -3.95,11.37 -3.56,22.88 -1.78,34.41"
   id="path1169"
   style="fill:#689d6a;fill-opacity:1;stroke:#689d6a;stroke-opacity:1;stroke-width:0.3;stroke-miterlimit:4;stroke-dasharray:none" />
	<path
   class="st2"
   d="m 194.48,445.93 c 0,-0.01 0,-0.01 0,-0.01 0.22,-0.39 0.44,-0.79 0.66,-1.18 0,0 0,0.01 0,0.01 -0.22,0.39 -0.44,0.79 -0.66,1.18 m -0.59,-8.22 c -0.79,-4.33 -2.2,-8.65 -3.57,-12.88 -1.24,-3.8 -2.52,-7.73 -3.32,-11.58 -1.42,-6.83 -1.94,-13.84 -1.56,-21.24 0.02,-0.12 0.05,-0.23 0.07,-0.35 0.57,-3.04 1.09,-6.08 1.55,-9.15 l 0.04,0.03 -0.01,0.1 c -1.99,14.16 -0.71,27.84 3.94,41.81 1.36,4.1 2.69,8.34 3.45,12.62 -0.19,0.24 -0.39,0.45 -0.59,0.64"
   id="path1171"
   style="fill:#689d6a;fill-opacity:1;stroke:#689d6a;stroke-opacity:1;stroke-width:0.3;stroke-miterlimit:4;stroke-dasharray:none" />
	<path
   class="st2"
   d="m 195.6,443.9 c 0,-0.01 0,-0.01 0,-0.02 0.34,-0.64 0.68,-1.29 1,-1.94 0,0 0,0 0,0 -0.22,0.45 -0.45,0.9 -0.69,1.35 -0.1,0.21 -0.21,0.41 -0.31,0.61 m 0.92,-10.4 c -0.02,-3.03 -0.3,-6.08 -0.82,-9.13 -0.49,-2.51 -1.21,-5.03 -1.9,-7.46 -0.87,-3.04 -1.76,-6.19 -2.24,-9.37 -0.77,-5.16 -0.92,-10.75 -0.46,-17.59 0.59,-8.84 1.25,-17.81 1.89,-26.53 0.22,-0.1 0.45,-0.19 0.68,-0.25 -0.6,8.17 -1.22,16.57 -1.77,24.85 -0.44,6.61 -0.95,14.11 0.66,21.2 0.5,2.21 1.11,4.43 1.7,6.58 0.75,2.74 1.53,5.58 2.09,8.43 0.42,2.46 0.69,4.92 0.79,7.37 -0.18,0.65 -0.38,1.28 -0.62,1.9"
   id="path1173"
   style="fill:#689d6a;fill-opacity:1;stroke:#689d6a;stroke-opacity:1;stroke-width:0.3;stroke-miterlimit:4;stroke-dasharray:none" />
	<path
   class="st2"
   d="m 193.12,448.23 c 0,-0.01 0,-0.01 0,-0.02 0.2,-0.33 0.41,-0.66 0.61,-1 0,0.01 0,0.01 0,0.02 -0.2,0.34 -0.4,0.67 -0.61,1 m -1.45,-9.24 c -1.07,-3.9 -2.57,-7.72 -4.06,-11.48 -2.76,-6.99 -5.6,-14.19 -5.58,-21.8 0.27,-0.91 0.54,-1.82 0.8,-2.73 -0.86,8.59 2.33,16.67 5.41,24.48 1.46,3.71 2.95,7.49 4.02,11.34 -0.2,0.08 -0.39,0.14 -0.59,0.19"
   id="path1175"
   style="fill:#689d6a;fill-opacity:1;stroke:#689d6a;stroke-opacity:1;stroke-width:0.3;stroke-miterlimit:4;stroke-dasharray:none" />
	<path
   class="st3"
   d="m 188.71,368.04 c 0.05,-0.67 0.1,-1.35 0.14,-2.02 0.27,-4.26 0.7,-9.24 -0.25,-13.67 0.74,-0.26 1.48,-0.51 2.22,-0.77 1.03,-0.36 2.07,-0.72 3.11,-1.07 -0.26,3.59 -0.52,7.17 -0.79,10.76 -0.05,0.71 -0.1,1.43 -0.16,2.15 -1.74,0.79 -3.21,2.65 -4.27,4.62 m 9.08,-3.76 c -0.32,-0.33 -0.69,-0.61 -1.1,-0.81 -0.66,-0.32 -1.3,-0.46 -1.91,-0.46 -0.38,0 -0.75,0.05 -1.1,0.15 0.05,-0.62 0.09,-1.23 0.14,-1.85 0.27,-3.68 0.54,-7.36 0.81,-11.04 1.09,-0.37 2.19,-0.73 3.3,-1.08 0.96,-0.3 1.92,-0.63 2.86,-0.97 -0.9,2.61 -1.57,5.22 -2.05,7.85 -0.52,2.73 -0.82,5.47 -0.95,8.21"
   id="path1177"
   style="fill:#689d6a;fill-opacity:1;stroke:#689d6a;stroke-opacity:1;stroke-width:0.3;stroke-miterlimit:4;stroke-dasharray:none" />
	<path
   class="st4"
   d="m 192.99,363.42 c 0.22,-0.1 0.45,-0.19 0.68,-0.25 0.05,-0.62 0.09,-1.23 0.14,-1.85 0.27,-3.68 0.54,-7.34 0.81,-11.02 -0.23,0.08 -0.46,0.14 -0.69,0.22 -0.26,3.59 -0.52,7.17 -0.79,10.76 -0.05,0.7 -0.1,1.42 -0.15,2.14"
   id="path1179"
   style="fill:#689d6a;fill-opacity:1;stroke:#689d6a;stroke-opacity:1;stroke-width:0.3;stroke-miterlimit:4;stroke-dasharray:none" />
	<path
   class="st3"
   d="m 192.56,449.1 c -0.98,-3.73 -1.75,-6.72 -1.75,-6.72 l -0.07,-0.19 c -0.39,-1.19 -0.81,-2.37 -1.25,-3.52 0.48,0.26 1,0.39 1.52,0.39 0.21,0 0.43,-0.02 0.64,-0.07 0.01,0 0.01,0 0.02,0 0.83,3.03 1.39,6.1 1.46,9.22 -0.19,0.3 -0.38,0.6 -0.57,0.89 m 1.17,-1.89 c -0.16,-2.84 -0.71,-5.65 -1.47,-8.41 0.58,-0.23 1.13,-0.61 1.63,-1.09 0.5,2.74 0.75,5.48 0.59,8.2 -0.25,0.44 -0.5,0.87 -0.75,1.3 m 1.41,-2.48 c 0.05,-2.54 -0.21,-5.1 -0.67,-7.64 0.27,-0.33 0.53,-0.68 0.77,-1.05 0.5,-0.78 0.92,-1.63 1.27,-2.54 0.03,3.49 -0.28,6.96 -0.92,10.39 -0.14,0.28 -0.29,0.56 -0.45,0.84 m 1.45,-2.78 c 0.5,-3.42 0.68,-6.88 0.54,-10.35 0.46,-1.72 0.72,-3.56 0.82,-5.39 0.01,-0.26 0,-0.53 0.01,-0.79 0.23,5.4 0.07,10.76 -1.1,15.98 v 0.01 c -0.05,0.09 -0.09,0.19 -0.14,0.28 -0.04,0.08 -0.08,0.17 -0.13,0.26"
   id="path1181"
   style="fill:#689d6a;fill-opacity:1;stroke:#689d6a;stroke-opacity:1;stroke-width:0.3;stroke-miterlimit:4;stroke-dasharray:none" />
	<path
   class="st4"
   d="m 194.48,445.91 c 0.22,-0.39 0.44,-0.79 0.66,-1.18 0.05,-2.54 -0.21,-5.1 -0.67,-7.64 -0.19,0.22 -0.38,0.43 -0.59,0.62 0.51,2.74 0.76,5.48 0.6,8.2"
   id="path1183"
   style="fill:#689d6a;fill-opacity:1;stroke:#689d6a;stroke-opacity:1;stroke-width:0.3;stroke-miterlimit:4;stroke-dasharray:none" />
	<path
   class="st4"
   d="m 195.6,443.88 c 0.34,-0.64 0.68,-1.29 1,-1.94 0.5,-3.42 0.68,-6.88 0.54,-10.35 -0.18,0.65 -0.38,1.29 -0.62,1.9 0.03,3.5 -0.28,6.97 -0.92,10.39"
   id="path1185"
   style="fill:#689d6a;fill-opacity:1;stroke:#689d6a;stroke-opacity:1;stroke-width:0.3;stroke-miterlimit:4;stroke-dasharray:none" />
	<path
   class="st4"
   d="m 193.12,448.21 c 0.2,-0.33 0.41,-0.66 0.61,-1 -0.16,-2.84 -0.71,-5.65 -1.47,-8.41 -0.19,0.08 -0.39,0.14 -0.59,0.18 0.82,3.04 1.38,6.11 1.45,9.23"
   id="path1187"
   style="fill:#689d6a;fill-opacity:1;stroke:#689d6a;stroke-opacity:1;stroke-width:0.3;stroke-miterlimit:4;stroke-dasharray:none" />
</g></g></svg>
