<svg xmlns="http://www.w3.org/2000/svg" viewBox="0 0 202.833 294.948" width="256" height="256"><g fill="#928374" fill-opacity=".5"><path d="M63.017 145.225V44.966l-6.063 1.213v101.254zm0 65.309v-41.896l-6.063 2.208v41.193a15.191 15.191 0 012.969-.905l3.094-.6zm76.8 0l3.093.6c1.032.2 2.024.51 2.97.905v-41.193l-6.063-2.208v41.896zm0-165.568v100.259l6.063 2.208V46.179zm-57.11 4.676h-3v50.822a25.662 25.662 0 013-3.944V49.642zm-.608 89.379h.608v-7.896a25.668 25.668 0 01-3-3.944v12.113c.287-.057.573-.119.868-.155a10.207 10.207 0 011.524-.118zm38.029-7.899v7.899h.605a10.7 10.7 0 011.606.13c.257.03.524.09.789.143v-12.117a25.64 25.64 0 01-3 3.945zm0-81.48v46.88a25.665 25.665 0 013 3.945V49.642h-3zm0 227.001l3 .172V270h2.415v-5.81h-2.415v-3.537h2.415v-5.811h-2.415v-3.537h2.415v-5.81h-2.415v-.347h-3v.347H109.47v5.81h10.658v3.537H109.47v5.811h10.658v3.537H109.47V270h10.658zm-42.837-31.148v5.81h2.416v3.537h-2.416v5.811h2.416v3.537h-2.416V270h2.416v6.815l3-.172V270h10.657v-5.81H82.707v-3.537h10.657v-5.811H82.707v-3.537h10.657v-5.81H82.707v-.347h-3v.347z"/><path d="M188.845 283.534l-20.458-1.118a15.068 15.068 0 01-1.33 6.482h21.788v-5.364zm-154.4-1.118l-20.456 1.118v5.364h21.786a15.066 15.066 0 01-1.33-6.482zm102.58-1.715l-30.555-1.67v-36.883h16.737c1.75 0 3.323-.78 4.402-2.005l-.221-.952-24.139-4.683c-.62-.12-1.231-.28-1.832-.475a15.42 15.42 0 01-1.833.475l-24.139 4.683-.22.95a5.86 5.86 0 004.403 2.007h16.736v36.883l-30.556 1.67-1.263 5.442c-.224.963-.54 1.88-.927 2.755h75.597a15.451 15.451 0 01-.927-2.755l-1.263-5.442zm-30.555-141.68v-.203a25.47 25.47 0 01-1.135.203h1.135zm-10.106-.203v.203h1.132a28.18 28.18 0 01-1.132-.203zm106.405 18.456c-.456-3.634-3.285-6.381-6.737-6.904l2.747 14.86a8 8 0 003.99-7.956zm-202.706 0a8 8 0 003.992 7.957l2.747-14.86c-3.453.522-6.281 3.269-6.739 6.903z"/><path d="M45.15 171.011a8.003 8.003 0 003.736-.42l25.484-9.28v50.076l-13.876 2.692a12.25 12.25 0 00-9.6 9.256l-13.136 56.59c-1.53 6.59 2.572 13.173 9.162 14.703a12.3 12.3 0 002.781.32c5.57 0 10.609-3.825 11.922-9.483l11.34-48.848 26.05-5.054c.84-.163 1.643-.41 2.404-.728.76.318 1.563.565 2.403.728l26.05 5.054 11.34 48.848c1.313 5.659 6.352 9.483 11.922 9.483.917 0 1.85-.104 2.781-.32 6.59-1.53 10.693-8.113 9.162-14.703l-13.136-56.59a12.25 12.25 0 00-9.6-9.256l-13.877-2.692V161.31l25.485 9.28a8.003 8.003 0 003.737.42l31.267-3.934.547 2.955.372 2.015a3.48 3.48 0 001.571 2.31 3.477 3.477 0 002.508.496 3.5 3.5 0 002.804-4.079L176.131 59.237c-2.006-10.854-10.297-19.266-21.121-21.43l-24.225-4.846V19.147h9.032v12.561l6.063 1.213V19.147h10.19v-6.063h-25.285v-7.4h-11.273V0h-36.19v5.684H72.05v7.4H46.764v6.063h10.19v13.774l6.063-1.213v-12.56h9.032v13.814l-24.225 4.844C37.001 39.971 28.71 48.383 26.703 59.238L6.08 170.774a3.5 3.5 0 003.445 4.137c.272 0 .536-.042.794-.103a3.49 3.49 0 002.644-2.761l.372-2.015.547-2.955 31.266 3.934zm-11.564-110.5c1.484-8.024 7.611-14.24 15.611-15.84l22.852-4.57v5.373h24.315v43.353a25.519 25.519 0 0110.106 0V45.474h24.316V40.1l22.851 4.57c8.001 1.6 14.128 7.817 15.611 15.84l15.886 85.92.357 1.932.547 2.955-28.433 3.578-33.94-12.36a8.008 8.008 0 00-1.773-.418 7.747 7.747 0 00-1.158-.096H82.099c-.395 0-.78.039-1.159.096a7.994 7.994 0 00-1.772.419l-33.94 12.36-28.432-3.579.547-2.955.85-4.603L33.587 60.51z"/><circle cx="101.416" cy="113.822" r="22.5"/></g></svg>