<?xml version="1.0" encoding="UTF-8" standalone="no"?>
<svg
   version="1.1"
   id="Layer_1"
   x="0"
   y="0"
   xml:space="preserve"
   width="177.036"
   height="198.578"
   sodipodi:docname="pec-fly.svg"
   inkscape:version="1.1.2 (0a00cf5339, 2022-02-04)"
   xmlns:inkscape="http://www.inkscape.org/namespaces/inkscape"
   xmlns:sodipodi="http://sodipodi.sourceforge.net/DTD/sodipodi-0.dtd"
   xmlns="http://www.w3.org/2000/svg"
   xmlns:svg="http://www.w3.org/2000/svg"><sodipodi:namedview
     id="namedview1292"
     pagecolor="#ffffff"
     bordercolor="#666666"
     borderopacity="1.0"
     inkscape:pageshadow="2"
     inkscape:pageopacity="0.0"
     inkscape:pagecheckerboard="0"
     showgrid="false"
     inkscape:zoom="3.4598172"
     inkscape:cx="35.695527"
     inkscape:cy="121.24918"
     inkscape:window-width="1920"
     inkscape:window-height="1020"
     inkscape:window-x="0"
     inkscape:window-y="32"
     inkscape:window-maximized="1"
     inkscape:current-layer="Layer_1" /><defs
     id="defs40"><clipPath
       clipPathUnits="userSpaceOnUse"
       id="clipPath1336"><path
         id="rect1338"
         fill="#982823"
         fill-opacity=".5"
         stroke="#982823"
         stroke-width=".288"
         stroke-linecap="round"
         stroke-linejoin="round"
         stroke-miterlimit="4"
         stroke-dasharray="none"
         stroke-opacity="1"
         d="M154.732 74.864h228.451v198.578H154.732z" /></clipPath></defs><style
     type="text/css"
     id="style2">.st0{fill:#e92a2a}</style><g
     id="g17"
     transform="translate(-123.626 -111.785)"
     fill="#928374"
     fill-opacity=".5"
     style="fill:#7c6f64;fill-opacity:1"><g
       id="Front_00000059291271315217382090000007518221297666198919_"
       fill="#928374"
       fill-opacity=".5"
       style="fill:#7c6f64;fill-opacity:1"><g
         id="g14"
         fill="#928374"
         fill-opacity=".5"
         style="fill:#7c6f64;fill-opacity:1"><g
           id="g12"
           fill="#928374"
           fill-opacity=".5"
           style="fill:#7c6f64;fill-opacity:1"><g
             id="g10"
             fill="#928374"
             fill-opacity=".5"
             style="fill:#7c6f64;fill-opacity:1"><g
               id="g8"
               fill="#928374"
               fill-opacity=".5"
               style="fill:#7c6f64;fill-opacity:1"><path
                 class="st1"
                 d="M297.11 259.33v-8.56c0-6.19-3.43-12.79-5.57-16.29 2.11-7.07 2.14-24 .99-31.85-.7-4.78-4.02-8.67-5.67-11.16.03-.19.06-.38.1-.58.9-5.77-3.02-19.93-5.37-25.9-1.56-3.96-4.82-5.47-7.44-6.67-1.42-.65-2.64-1.22-3.33-2.02-1.77-2.06-3.52-2.63-5.08-3.12-.41-.13-.8-.26-1.18-.41-.6-.24-1.12-.72-1.92-1.44-1.36-1.23-3.41-3.1-7.8-5.64-2.41-1.4-5.8-3.02-9.39-4.74-5.88-2.82-12.75-6.06-14.38-8.08-1.49-1.84-1.65-7.67-1.67-9.59.71-1.8.79-4.65.76-6.3.3.14.66.21 1.09.16 1.47-.18 2.84-2.46 4.48-5.43.46-.83.9-1.62 1.23-2.09 1.42-2.03 1.11-6.43.07-9.72-.3-.96-.82-1.52-1.53-1.65-.98-.18-2.05.57-2.82 1.27.15-4.1.09-15.65-4.65-21.34-4.08-4.9-12.24-6.11-15.34-6.41h-1.22c-3.09.29-11.26 1.51-15.34 6.41-4.74 5.69-4.79 17.23-4.65 21.34-.77-.7-1.84-1.45-2.82-1.27-.71.13-1.23.69-1.53 1.65-1.04 3.29-1.35 7.69.07 9.72.33.48.77 1.26 1.23 2.09 1.64 2.97 3.02 5.25 4.48 5.43.43.05.79-.02 1.09-.16-.03 1.82.07 5.1 1 6.82 0 0 0 .01.01.01-.04 1.35-.33 7.15-1.91 9.1-1.64 2.02-8.3 5.21-14.18 8.03-3.59 1.72-6.98 3.34-9.39 4.74-4.39 2.54-6.44 4.41-7.8 5.64-.8.73-1.33 1.21-1.92 1.44-.38.15-.77.28-1.18.41-1.55.5-3.31 1.06-5.08 3.12-.69.81-1.91 1.37-3.33 2.02-2.62 1.21-5.88 2.71-7.44 6.67-2.35 5.97-6.27 20.13-5.37 25.9.06.41.13.82.21 1.22-1.66 2.48-4.65 6.08-5.33 10.74-1.14 7.81-1.27 24.09.8 31.22-2.1 3.38-5.82 10.27-5.82 16.71v8.56c-.59.96-3.69 6.55-3.02 17.45.25 4.18.72 8.03 1.22 12.11.88 7.26 3.85 15.5 3.5 25.22-.52 14.82-.31 28.97.27 31.7.54 2.5 5.16 14.69 5.36 15.2l.17.45.47-.12c.03-.01 2.8-.8 3.04-4.46l1.48 1.69.39-.55c.09-.12 1.39-1.97 1.76-4.26.82-1.39 2.53-4.97.55-8-2.26-3.45-5.99-10.58-6.03-10.65-.01-.24-.03-.44-.06-.59.55-4.24 0-5.78 1.58-6.37.13-.05.2-.03.28.02 1.15.74 1.41 2.71 1.69 4.79.26 1.95.54 3.98 1.53 5.55 1.17 1.84 2.97 4.23 5.06 2.49 1.38-1.15.17-9.03-.16-11.36-.42-2.92-.42-3.74-1.57-8.36-.73-2.94-1.18-4.47-1.37-5.83-.1-1.12.19-5.8.62-9.21.49-3.92 2.91-10.34 5.48-17.13 2.93-7.76 5.96-15.78 6.16-20.44.3-7.21-.65-10.8-.99-11.83.61-.73 2.31-2.99 2.77-5.9.54-3.39.37-9.28.35-9.43.02-.1 1.8-10.27 4.73-14.93 2.23-3.54 5.51-10.47 6.91-14.1.51 3.59 1.08 6.8 1.65 8.51.73 2.18 1.65 4.59 2.54 6.93 1.27 3.33 2.47 6.48 2.78 8.13.44 2.33.13 19.47.03 25.1-.02 1.21-.04 2-.04 2.2 0 .01 0 .01-.01.02-.11.11-.19.3-.22.5-.23.41-.58.97-.91 1.49-1.77 2.79-4.74 7.47-4.17 12.08.64 5.14 1.42 7.29 1.7 7.94-.58 1.85-4.88 15.92-4.22 26.07.23 3.54-1.16 9.06-2.92 16.05-2.27 9.01-6.56 29.76-7.52 42.71-1.41 19.15 4.08 41.06 5.6 52.9.32 2.53.54 4.21.57 4.72.07 1.25-.04 2.11-.18 3.11-.18 1.36-.39 2.9-.18 5.79.02.29.07.61.14.95-.74 1.66-7.26 16.63-7.43 26.41-.08 4.77 1.44 15.37 3.06 26.58 1.46 10.15 2.86 20.65 3.3 27.13l.01.17c.04.54.07 1.06.09 1.54.07 3.47-.26 10.39-.49 11.07-.52 1.59-1.01 3.1-.97 5.43-.14.14-.28.27-.42.39-1.92 1.64-2.7 3.85-3.45 5.99-.25.7-.48 1.36-.75 1.99-1.04 2.42-10.21 9.99-11.48 10.78-.99.62-3.49 4.29-3.49 4.29-.94 1-.65 2.66-.46 3.75.03.19.07.37.09.53.08.58.26.98.4 1.31.13.28.22.49.22.74.01.34-.05.75-.1 1.14-.05.35-.1.72-.11 1.06-.01.61.02 2.08.61 2.57.34.28.66.48 1.13.56-.05.15-.12.35-.2.59-.37 1.08.45 2.19 1.05 2.64.43.32 1.11.35 1.58.32 0 .09.02.15.03.2.07.77.33 1.83 1.31 2.29 1 .47 1.51.36 2.09.08 1.14 1.58 3.47 2.54 5.55 2.34.27-.03.54-.07.8-.14 2.15-.55 4.85-2.41 5.85-4.89.8-1.99 1.97-2.65 3.01-3.1 4.29-1.35 6.63-6.13 7.26-10.57.55-3.92 3.06-8.19 3.72-9.06 3-1.26 4.77-2.85 6.31-5.1 1.61-2.36 1.67-3.87 1.22-5.83-.43-1.86-1.59-10.64-2-12-.35-1.19-.52-2.41-.8-3.9-.87-4.63 4.88-28.52 6.56-33.18.65-1.78 1.57-3.73 2.65-5.98 1.82-3.82 4.09-8.57 5.9-14.59 2.74-9.11-1.59-29.25-2.12-31.63 1.59-2.79 3.01-5.69 4.24-8.64.98-2.36 1.91-4.81 2.37-7.34.68-3.73 1.28-10.78 1.96-18.94.61-7.21 1.29-15.39 2.13-21.92 1.04-8.06 3.17-17.15 4.88-24.46 1.17-5 2.19-9.32 2.52-11.93.62-4.87.01-9.72-.34-11.84.38.04 1.49.05 1.76 0-.34 2.12-.96 6.97-.34 11.84.33 2.6 1.34 6.92 2.52 11.93 1.71 7.31 3.85 16.41 4.88 24.46.84 6.53 1.53 14.7 2.13 21.92.69 8.17 1.28 15.22 1.96 18.94.46 2.52 1.39 4.98 2.37 7.34 1.23 2.95 2.64 5.85 4.24 8.64-.53 2.38-4.86 22.53-2.12 31.63 1.81 6.02 4.08 10.77 5.9 14.59 1.08 2.26 2 4.2 2.65 5.98 1.69 4.65 7.43 28.54 6.56 33.18-.28 1.49-.44 2.7-.8 3.9-.4 1.36-1.57 10.14-2 12-.45 1.96-.39 3.47 1.22 5.83 1.54 2.25 3.31 3.84 6.31 5.1.65.88 3.17 5.14 3.72 9.06.62 4.44 2.97 9.22 7.26 10.57 1.04.45 2.21 1.11 3.01 3.1 1 2.49 3.7 4.34 5.85 4.89.26.07.53.11.8.14 2.09.2 4.41-.76 5.55-2.34.58.28 1.09.39 2.09-.08 1.07-.51 1.28-1.72 1.33-2.49.47.03 1.16 0 1.59-.32.6-.44 1.41-1.55 1.05-2.64-.08-.22-.14-.41-.19-.56 0-.01-.01-.02-.01-.04.47-.09.79-.28 1.13-.56.59-.49.63-1.96.61-2.57-.01-.34-.06-.7-.11-1.06-.05-.39-.11-.8-.1-1.14 0-.25.1-.46.22-.74.14-.32.32-.72.4-1.31.02-.16.05-.34.09-.53.19-1.09.48-2.75-.46-3.75 0 0-2.5-3.67-3.49-4.29-1.26-.79-10.44-8.36-11.48-10.78-.27-.63-.5-1.29-.75-1.99-.75-2.14-1.53-4.35-3.45-5.99-.14-.12-.28-.25-.42-.39.04-2.34-.45-3.85-.97-5.43-.22-.68-.56-7.59-.49-11.07.02-.48.05-1 .09-1.54.01-.06.02-.12.03-.17h-.02c.44-6.48 1.84-16.97 3.3-27.13 1.62-11.21 3.15-21.81 3.06-26.58-.17-9.71-6.61-24.54-7.42-26.37.09-.41.15-.79.17-1.14.21-2.89 0-4.43-.18-5.79-.13-1-.25-1.86-.18-3.11.03-.51.24-2.18.57-4.72 1.52-11.84 7.01-33.75 5.6-52.9-.96-12.94-5.25-33.7-7.52-42.71-1.76-6.99-3.15-12.51-2.92-16.05.66-10.15-3.64-24.21-4.22-26.07.28-.65 1.06-2.8 1.7-7.94.57-4.61-2.4-9.29-4.17-12.08-.52-.82-1.11-1.75-1.14-2.01 0-.2-.01-.99-.04-2.2-.1-5.63-.41-22.77.03-25.1.31-1.64 1.51-4.79 2.78-8.13.89-2.34 1.81-4.75 2.54-6.93.55-1.66 1.08-4.75 1.58-8.19v-.02c1.43 3.54 4.62 10.05 6.68 13.7 3.63 6.44 4.89 16.94 5.09 24.36.08 2.95 2.16 5.17 2.77 5.9-.34 1.04-1.29 4.62-.99 11.83.19 4.66 3.23 12.68 6.16 20.44 2.57 6.79 4.99 13.21 5.48 17.13.35 2.83.7 4.66.72 6.05.02 1.34.01 2.68-.12 4.02-.12 1.24-.64 2.71-1.27 5.22-1.15 4.62-1.15 5.44-1.57 8.36-.33 2.33-1.54 10.22-.16 11.36 2.1 1.74 3.89-.64 5.06-2.49 1-1.57 1.27-3.59 1.53-5.55.28-2.09.55-4.06 1.69-4.79.08-.05.15-.07.28-.02 1.58.59 1.02 2.14 1.58 6.37-.03.15-.05.35-.06.59-.04.07-3.77 7.2-6.03 10.65-1.99 3.03-.28 6.61.55 8 .37 2.29 1.67 4.14 1.76 4.26l.39.55 1.48-1.69c.24 3.66 3.01 4.45 3.04 4.46l.47.12.17-.45c.2-.52 4.83-12.7 5.36-15.2.59-2.73.8-16.87.27-31.7-.34-9.72 2.62-17.95 3.5-25.22.5-4.08.96-7.93 1.22-12.11.72-10.89-2.38-16.48-2.97-17.44z"
                 id="path6-3"
                 fill="#928374"
                 fill-opacity=".5"
                 style="fill:#7c6f64;fill-opacity:1" /></g></g></g></g></g></g><g
     id="g67"
     transform="translate(-123.626 -111.785)"
     stroke="#504945"
     stroke-opacity="1"><path
       class="st2"
       d="M243.31 446.51c.45 0 .9-.03 1.34-.11 2.29-.38 3.98-1.68 5.45-3.27h-.02l-.21.01c-3.05 0-13.43-8.45-15.75-11.04 0 0 13.52 9.98 15.71 9.98.03 0 .06 0 .09-.01 1.84-.28 7.09-8.9 7.2-9.08v0s-.08.14-.23.38c-1.74 1.9-4.23 3.2-6.81 3.2-.14 0-.27 0-.41-.01-2.84-.15-5.6-2.09-6.3-4.81-.52-2.03.11-4.21 1.23-5.99 1.12-1.77 2.7-3.21 4.26-4.63-3.25 1.09-4.77 1.77-6.51 2.97-1.26.87-5.25 2.73-8.17 2.73-1.1 0-2.05-.26-2.65-.94-.6-.69-1.2-1.37-1.68-2.14-.26-.43-.53-.86-.79-1.29a8.2 8.2 0 01-1.2-.15 8.436 8.436 0 01-2.99-1.17c.13.95.25 1.79.38 2.5.82 4.47 2.88 8.81 4.95 12.82.34.65.67 1.33 1.02 2.01.93 1.81 1.92 3.66 3.2 5.15l.1.11c.8.35 1.59.68 2.31 1 2.05.94 4.26 1.78 6.48 1.78"
       id="path39"
       stroke="#504945"
       stroke-opacity="1" /><path
       class="st2"
       d="M181.02 446.51c-.45 0-.9-.03-1.34-.11-2.29-.38-3.98-1.68-5.45-3.27h.02l.21.01c3.05 0 13.43-8.45 15.75-11.04 0 0-13.52 9.98-15.71 9.98-.03 0-.06 0-.09-.01-1.84-.28-7.09-8.9-7.2-9.08v0s.08.14.23.38c1.74 1.9 4.23 3.2 6.81 3.2.14 0 .27 0 .41-.01 2.84-.15 5.6-2.09 6.3-4.81.52-2.03-.11-4.21-1.23-5.99-1.12-1.77-2.7-3.21-4.26-4.63 3.25 1.09 4.77 1.77 6.51 2.97 1.26.87 5.25 2.73 8.17 2.73 1.1 0 2.05-.26 2.65-.94.6-.69 1.2-1.37 1.68-2.14.26-.43.53-.86.79-1.29.4-.02.8-.07 1.2-.15 1.03-.19 2.04-.57 2.99-1.17-.13.95-.25 1.79-.38 2.5-.82 4.47-2.88 8.81-4.95 12.82-.34.65-.67 1.33-1.02 2.01-.93 1.81-1.92 3.66-3.2 5.15l-.1.11c-.8.35-1.59.68-2.31 1-2.05.94-4.25 1.78-6.48 1.78"
       id="path41"
       stroke="#504945"
       stroke-opacity="1" /><g
       id="g65"
       stroke="#504945"
       stroke-opacity="1"><path
         d="M211.3 225.81c-.52-6.74-10.95-1.76-13.72-.09-5.35 3.23-8.21 9.51-7.46 15.55.15 1.23 1.13 2.85 2.64 2.68 4.53-.51 8.63-2.92 13.16-3.61 2.37-.3 3.82-.73 4.9-2.83.8-1.56.39-4.26.45-5.93.06-1.93.18-3.84.03-5.77zm-.68 5.71c-.12 3.53.19 7.55-4.83 8.2-3.31.51-6.33 1.66-9.48 2.74-8.44 2.91-5.45-7.97-3.13-11.7 2.68-4.31 8.1-6.78 13-7.69 5.86-1.08 4.53 5.84 4.44 8.45z"
         id="path43" /><path
         d="M213.06 237.5c1.1 2.1 2.57 2.53 4.97 2.84 4.59.71 8.74 3.12 13.33 3.64 1.53.17 2.52-1.45 2.67-2.68.74-6.04-2.17-12.33-7.6-15.57-2.81-1.68-13.39-6.68-13.9.06-.14 1.93-.02 3.84.05 5.77.07 1.68-.34 4.38.48 5.94zm4.65-14.42c4.97.92 10.47 3.4 13.19 7.72 2.36 3.74 5.42 14.62-3.14 11.69-3.19-1.09-6.25-2.24-9.61-2.76-5.08-.66-4.78-4.68-4.91-8.21-.1-2.62-1.46-9.53 4.47-8.44z"
         id="path45" /><path
         d="M196.6 224.74c3.67-1.74 8.55-3.46 11.48-6.37 2.3-2.28 3.63-6.21 3.53-9.41-.04-1.45-.54-3.38-1.84-4.21l-.3-.16c-.76-.32-1.74-.2-2.51-.08-1.32.2-2.58.71-3.79 1.26-.32.14-.64.29-.96.44-2.77 1.29-6.18 2.21-8.57 4.18-2.45 2.02-3.42 4.24-3.73 7.37-.16 1.59-.5 6.77 1 8.05 1.78 1.5 3.91-.22 5.69-1.07zm.48-15.55c3.24-1.59 8.4-4.62 11.98-4.02 2.46 1.44 1.47 6.18 1.06 8.33-.62 3.29-3.29 5.04-5.97 6.63-2.79 1.66-12.71 8.14-13.45 1.48-.63-5.75 1.07-9.82 6.38-12.42z"
         id="path47" /><path
         d="M226.95 224.77c1.78.84 3.91 2.57 5.69 1.06 1.51-1.27 1.16-6.46 1-8.05-.31-3.13-1.27-5.35-3.73-7.37-2.4-1.97-5.8-2.89-8.57-4.18-.32-.15-.64-.3-.96-.44-1.21-.55-2.46-1.06-3.79-1.26-.77-.12-1.75-.23-2.51.08l-.3.16c-1.3.83-1.8 2.77-1.84 4.21-.1 3.2 1.23 7.12 3.53 9.41 2.93 2.92 7.81 4.64 11.48 6.38zM214.5 205.2c3.57-.6 8.74 2.43 11.98 4.02 5.32 2.6 7.01 6.68 6.38 12.43-.74 6.66-10.66.18-13.45-1.48-2.67-1.59-5.35-3.34-5.97-6.63-.41-2.16-1.4-6.9 1.06-8.34z"
         id="path49" /><path
         d="M174.33 442.08c-1.84-.28-7.09-8.9-7.2-9.08h-.53c0 1.19 4.88 9.65 7.54 10.12l.01.01h.02l.21.01c3.05 0 13.43-8.45 15.75-11.04 0 0-13.52 9.98-15.71 9.98-.03.01-.06.01-.09 0z"
         id="path51" /><path
         d="M257.03 433c-.11.18-5.36 8.8-7.2 9.08-.03 0-.05.01-.08.01-2.2 0-15.71-9.98-15.71-9.98 2.32 2.59 12.7 11.04 15.75 11.04l.21-.01h.02l.01-.01c2.66-.47 7.54-8.93 7.54-10.12h-.54z"
         id="path53" /><path
         d="M297.08 259.25v-8.56c0-6.19-3.43-12.79-5.57-16.29 2.11-7.07 2.14-24 .99-31.85-.7-4.78-4.02-8.67-5.67-11.16.03-.19.06-.38.1-.58.9-5.77-3.02-19.93-5.37-25.9-1.56-3.96-4.82-5.47-7.44-6.67-1.42-.65-2.64-1.22-3.33-2.02-1.77-2.06-3.52-2.63-5.08-3.12-.41-.13-.8-.26-1.18-.41-.6-.24-1.12-.72-1.92-1.44-1.36-1.23-3.41-3.1-7.8-5.64-2.41-1.4-5.8-3.02-9.39-4.74-5.88-2.82-12.75-6.06-14.38-8.08-1.49-1.84-1.65-7.67-1.67-9.59.71-1.8.79-4.65.76-6.3.29.14.66.21 1.09.16 1.47-.18 2.84-2.46 4.48-5.43.46-.83.9-1.62 1.23-2.09 1.42-2.03 1.11-6.43.07-9.72-.3-.96-.82-1.52-1.53-1.65-.98-.18-2.05.57-2.82 1.27.15-4.1.09-15.65-4.65-21.34-4.08-4.9-12.24-6.11-15.34-6.41h-1.22c-3.1.29-11.26 1.51-15.34 6.41-4.74 5.69-4.79 17.23-4.65 21.34-.77-.7-1.84-1.45-2.82-1.27-.71.13-1.23.69-1.53 1.65-1.04 3.29-1.35 7.69.07 9.72.33.48.77 1.26 1.23 2.09 1.64 2.97 3.02 5.25 4.48 5.43.43.05.79-.02 1.09-.16-.03 1.82.07 5.1 1 6.82 0 0 0 .01.01.01-.04 1.35-.33 7.15-1.91 9.1-1.64 2.02-8.3 5.21-14.18 8.03-3.59 1.72-6.98 3.34-9.39 4.74-4.39 2.54-6.44 4.41-7.8 5.64-.8.73-1.33 1.21-1.92 1.44-.38.15-.77.28-1.18.41-1.55.5-3.31 1.06-5.08 3.12-.69.81-1.91 1.37-3.33 2.02-2.62 1.21-5.88 2.71-7.44 6.67-2.35 5.97-6.27 20.13-5.37 25.9.06.41.13.82.21 1.22-1.66 2.48-4.65 6.08-5.33 10.74-1.14 7.81-1.27 24.09.8 31.22-2.1 3.38-5.82 10.27-5.82 16.71v8.56c-.59.96-3.69 6.55-3.02 17.45.25 4.18.72 8.03 1.22 12.11.88 7.26 3.85 15.5 3.5 25.22-.52 14.82-.31 28.96.27 31.7.54 2.5 5.16 14.69 5.36 15.2l.17.45.46-.12c.03-.01 2.8-.8 3.04-4.46l1.48 1.69.39-.54c.09-.12 1.39-1.97 1.76-4.26.82-1.39 2.53-4.97.55-8-2.26-3.45-5.99-10.58-6.03-10.65v0c-.01-.24-.03-.44-.06-.59.56-4.24 0-5.78 1.58-6.37.13-.05.2-.03.28.02 1.15.74 1.41 2.71 1.69 4.79.26 1.95.54 3.98 1.53 5.55 1.17 1.84 2.97 4.23 5.06 2.49 1.38-1.15.17-9.03-.16-11.36-.42-2.92-.42-3.74-1.57-8.36-.74-2.94-1.18-4.47-1.37-5.83-.1-1.12.19-5.8.62-9.21.49-3.92 2.91-10.34 5.48-17.13 2.93-7.76 5.96-15.78 6.16-20.44.3-7.21-.65-10.8-.99-11.83.61-.73 2.31-2.99 2.77-5.9.54-3.39.37-9.28.36-9.43.02-.1 1.8-10.27 4.73-14.93 2.23-3.54 5.51-10.47 6.91-14.1.51 3.59 1.08 6.8 1.65 8.51.72 2.18 1.65 4.59 2.54 6.93 1.27 3.33 2.47 6.48 2.78 8.12.44 2.33.13 19.47.03 25.1-.02 1.21-.04 2-.04 2.2 0 .01 0 .01-.01.02-.11.11-.19.3-.22.5-.23.41-.58.97-.91 1.49-1.77 2.79-4.74 7.47-4.17 12.08.64 5.14 1.42 7.29 1.7 7.94-.58 1.85-4.88 15.92-4.22 26.07.23 3.54-1.16 9.06-2.92 16.05-2.27 9.01-6.56 29.76-7.52 42.71-1.41 19.15 4.08 41.06 5.6 52.9.33 2.53.54 4.21.57 4.72.07 1.25-.04 2.11-.18 3.11-.18 1.36-.39 2.9-.18 5.79.02.29.07.61.14.95-.74 1.66-7.26 16.63-7.43 26.41-.08 4.77 1.44 15.37 3.06 26.58 1.47 10.15 2.86 20.65 3.3 27.13l.01.17c.04.54.07 1.06.09 1.54.07 3.47-.26 10.39-.49 11.07-.52 1.59-1.01 3.1-.97 5.43-.14.14-.28.27-.42.39-1.92 1.64-2.7 3.85-3.45 5.99-.25.7-.48 1.36-.75 1.99-1.04 2.42-10.21 9.99-11.48 10.78-.99.62-3.49 4.29-3.49 4.29-.94 1-.65 2.66-.46 3.75.03.19.07.37.09.53.08.58.26.98.4 1.31.13.28.22.49.22.74.01.34-.05.75-.1 1.14-.05.35-.1.72-.11 1.06-.01.61.02 2.08.61 2.57.34.28.66.48 1.13.56-.05.15-.12.35-.2.59-.37 1.08.45 2.19 1.05 2.64.43.32 1.11.35 1.58.32 0 .09.02.15.03.2.07.77.33 1.83 1.31 2.29 1 .47 1.51.36 2.09.08 1.14 1.58 3.47 2.54 5.55 2.34.27-.03.54-.07.8-.14 2.15-.55 4.85-2.41 5.85-4.89.8-1.99 1.97-2.65 3.01-3.1 4.29-1.35 6.63-6.13 7.26-10.57.55-3.92 3.06-8.19 3.72-9.06 3-1.26 4.77-2.85 6.31-5.1 1.61-2.36 1.67-3.87 1.22-5.83-.43-1.86-1.59-10.64-2-12-.36-1.19-.52-2.41-.8-3.9-.87-4.63 4.88-28.52 6.56-33.18.65-1.78 1.57-3.73 2.65-5.98 1.82-3.82 4.09-8.57 5.9-14.59 2.74-9.11-1.59-29.25-2.12-31.63 1.59-2.79 3.01-5.69 4.24-8.64.98-2.36 1.91-4.81 2.37-7.34.69-3.73 1.28-10.78 1.96-18.94.61-7.21 1.29-15.39 2.13-21.92 1.04-8.06 3.17-17.15 4.88-24.46 1.17-5 2.19-9.32 2.52-11.93.62-4.87.01-9.72-.34-11.84.37.04 1.49.05 1.76 0-.34 2.12-.96 6.97-.34 11.84.33 2.6 1.34 6.92 2.52 11.93 1.71 7.31 3.85 16.41 4.88 24.46.84 6.53 1.53 14.7 2.13 21.92.69 8.17 1.28 15.22 1.96 18.94.46 2.52 1.39 4.98 2.37 7.34 1.23 2.95 2.64 5.85 4.24 8.64-.53 2.38-4.86 22.53-2.12 31.63 1.81 6.02 4.08 10.77 5.9 14.59 1.08 2.26 2 4.2 2.65 5.98 1.69 4.65 7.43 28.54 6.56 33.18-.28 1.49-.44 2.7-.8 3.9-.4 1.36-1.57 10.14-2 12-.45 1.96-.39 3.47 1.22 5.83 1.54 2.25 3.31 3.84 6.31 5.1.65.88 3.17 5.14 3.72 9.06.62 4.44 2.97 9.22 7.26 10.57 1.04.45 2.21 1.11 3.01 3.1 1 2.49 3.7 4.34 5.85 4.89.26.07.53.11.8.14 2.09.2 4.41-.76 5.55-2.34.58.28 1.09.39 2.09-.08 1.07-.51 1.28-1.72 1.33-2.49.47.03 1.16 0 1.59-.32.6-.44 1.41-1.55 1.05-2.64-.08-.22-.14-.41-.19-.56v0c0-.01-.01-.02-.01-.04.47-.09.79-.28 1.13-.56.59-.49.63-1.96.61-2.57-.01-.34-.06-.7-.1-1.06-.05-.39-.11-.8-.1-1.14 0-.25.1-.46.22-.74.14-.32.32-.72.4-1.31.02-.16.05-.34.09-.53.19-1.09.48-2.75-.46-3.75 0 0-2.5-3.67-3.49-4.29-1.26-.79-10.44-8.36-11.48-10.78-.27-.63-.5-1.29-.75-1.99-.75-2.14-1.53-4.35-3.45-5.99-.14-.12-.28-.25-.42-.39.04-2.34-.45-3.85-.97-5.43-.22-.68-.56-7.59-.49-11.07.02-.48.05-1 .09-1.54.01-.06.02-.12.03-.17h-.02c.44-6.48 1.84-16.97 3.3-27.13 1.62-11.21 3.15-21.81 3.06-26.58-.17-9.71-6.61-24.54-7.41-26.37.09-.41.15-.79.17-1.14.21-2.89 0-4.43-.18-5.79-.13-1-.25-1.86-.18-3.11.03-.51.24-2.18.57-4.72 1.52-11.84 7.01-33.75 5.6-52.9-.95-12.94-5.25-33.7-7.52-42.71-1.76-6.99-3.15-12.51-2.92-16.05.66-10.15-3.64-24.21-4.22-26.07.28-.65 1.06-2.8 1.7-7.94.57-4.61-2.4-9.29-4.17-12.08-.52-.82-1.11-1.75-1.14-2.01 0-.2-.01-.99-.04-2.2-.1-5.63-.41-22.77.03-25.1.31-1.65 1.51-4.79 2.78-8.13.89-2.34 1.81-4.75 2.54-6.93.55-1.66 1.08-4.75 1.57-8.19v-.02c1.43 3.54 4.62 10.05 6.68 13.7 3.63 6.44 4.88 16.94 5.09 24.36.08 2.95 2.16 5.17 2.77 5.9-.34 1.04-1.29 4.62-.99 11.83.19 4.66 3.23 12.68 6.16 20.44 2.57 6.79 4.99 13.21 5.48 17.13.35 2.83.7 4.66.72 6.05.02 1.34.01 2.68-.12 4.02-.12 1.24-.64 2.71-1.27 5.22-1.15 4.62-1.15 5.44-1.57 8.36-.33 2.33-1.54 10.22-.16 11.36 2.1 1.74 3.89-.64 5.06-2.49 1-1.57 1.27-3.59 1.53-5.55.28-2.09.55-4.06 1.69-4.79.08-.05.15-.07.28-.02 1.58.59 1.02 2.14 1.58 6.37-.03.15-.05.35-.06.59v0c-.04.07-3.77 7.2-6.03 10.65-1.99 3.03-.28 6.61.55 8 .37 2.29 1.67 4.14 1.76 4.26l.39.54 1.48-1.69c.24 3.66 3.01 4.45 3.04 4.46l.47.12.17-.45c.2-.52 4.83-12.7 5.36-15.2.59-2.73.8-16.87.27-31.7-.34-9.72 2.62-17.95 3.5-25.22.5-4.08.96-7.93 1.22-12.11.7-10.88-2.39-16.46-2.98-17.43zm-5.43-57.17c1.32 7.69 1.08 24.25-.83 31.2-.41-.63-.71-1.07-.86-1.28-.09-1.6-.78-13.76-1.96-19.5-1.11-5.42-3.1-10.61-3.51-11.65.28-.81 1.35-4.08 2.14-8.27.78.94 4.47 6.29 5.02 9.5zm-54.96 58.95c.01-1.23.08-2.45.19-3.67.28.08.61.08 1.01-.03 2.66-.73 5.01-5.23 6.13-7.38 1.28-2.47 2.24-5 2.85-7.64-.02 4.35.05 10.1.14 15.36-1.77 3.01-4.15 5.7-7.15 7.53-.45.29-1.08.57-1.61.64-1.06.14-1.59-1.23-1.48-2.1-.04-.91-.09-1.81-.08-2.71zm10.27-24.02c-.26 6.06-2.43 11.9-6.11 16.73-.92 1.21-2 2.72-3.75 1.92-.93-.42-.86-1.48-.73-2.33.19-1.31.32-2.62.56-3.92.12-.65.29-1.29.5-1.92.03-.09.17-.55.32-.97.53.15 1.26-.06 2.28-.79 3.02-2.16 4.68-5.58 5.52-9.26.62-.54 1.21-1.11 1.77-1.72-.08.31-.15.6-.2.86-.05.26-.16 1.34-.16 1.4zm-4.45 5.35c-.51.71-1.02 1.38-1.68 1.96-.77.68-1.73 1.83-2.87 1.22-1.04-.56-.7-2.34-.61-3.28.16-1.65.38-3.29.56-4.94 2.76-2.46 5.01-5.62 6.57-9.11.4-.11.8-.24 1.18-.38.12 4.56-.38 10.7-3.15 14.53zm-.49-10.82c-1.13 1.7-4.06 7.05-4.71 2.76-.42-2.74-1.59-6.86.56-9.27.72-.14 1.25-1.02 1.75-1.48.58-.52 1.15-1.06 1.7-1.62.2-.2.39-.41.59-.62 1.44-.13 2.82-.42 4.15-.87-.49 4.01-1.88 7.86-4.04 11.1zm-5.02-8.61c-.47-1.25-1.01-2.5-1-3.85.03-3.63 2.92-6.48 6.14-8.08 1.86.65 3.78 1.1 5.76 1.33-1.42 2.51-3.05 4.91-5 7.06-.71.79-1.58 1.46-2.37 2.17-.5.46-1 .91-1.49 1.39-.32.32-.81.83-1.29.9-.58.09-.57-.46-.75-.92zm5.62-2.34c.63-.68 1.25-1.38 1.84-2.11 1.55-1.91 2.93-3.95 4.15-6.09.9.08 1.84.14 2.77.14.23 1.15.34 2.52.37 3.9l-.02.01c-2.6 2.31-5.7 3.71-9.11 4.15zm-2.81-11.27c.23-.01.46-.01.69-.02 2.88-.14 5.84-1.69 8.48-3.68a26.89 26.89 0 012.25 6.27v0c-4.03-.01-7.88-.88-11.42-2.57zm4.11-1.67c-6.77 2.91-19.07-.21-24.48-5.62-4.19-4.19-4.91-10.89-5.48-16.53-.37-3.73-1.89-11.17.31-14.59 4.34-6.71 9.71-7.6 17.44-8.03 15.51-.88 16.58 3.97 21.84 9.01 1.78 1.71 2.89 3.52 4.13 5.29 3.83 5.47 4.84 10.58 4.39 11.11-4.28 7-10.4 16.03-18.15 19.36zm-20.18-59.38c.79-2 1.47-3.7 1.92-4.78.72-1.74 1.33-4.13 1.81-6.55 5.67 5.08 6.74 15.2 13.7 18.8 1.15.59 2.31.98 3.48 1.2-1.75.76-3.8 1.58-5.98 2.29-6.97-.21-12.69-4.41-14.93-10.96zm13.22 11.48c-6.11 1.76-12.92 2.43-17.29-1.1 1.21-3.1 2.55-6.54 3.71-9.47 2.29 5.89 7.35 9.8 13.58 10.57zm-11.8-16.46c-1.84 4.45-7.59 19.28-9.08 23.12-.39-2.54-1.26-9.6.15-14.4.71-2.4 1.7-4.81 2.84-7.59 1.68-4.07 3.75-9.12 5.86-16.42 1.37-1.18 2.59-2.31 3.38-3.21.03.59.09 1.34.18 2.16-.34 3.24-1.71 12.44-3.33 16.34zm37.52 45.24l.02-.03c3.86 7.42 10.28 12.75 18.21 15.2 7.18 15.24 4.69 34.65-1.23 50.35-3.04-3.05-6.04-6.74-8.25-10.35-2.84-4.63-4.57-9.9-6.41-15-3.75-10.38-6.85-21.08-7.45-32.07 1.83-2.61 3.42-5.34 5.11-8.1zm17.76 65.48c6.2-14.45 8.59-34.97 1.44-50.38.55-.74 1.11-1.49 1.67-2.23.5 1.29 2.35 6.21 3.4 11.32 1.06 5.15 1.72 15.87 1.89 18.74 0 .46.03.8.06 1.05.56 8.26-4.06 14.57-8.18 21.61-.12.21-.24.4-.36.6-.05-.04-.09-.09-.14-.14.08-.16.15-.41.22-.57zm-9.3-96.12c.74.48 1.62.89 2.53 1.31 2.57 1.18 5.49 2.53 6.89 6.09 2.32 5.88 6.18 19.77 5.31 25.35-.74 4.74-1.99 8.64-2.36 9.73-2.06 2.62-3.34 2.81-6.68 1.13-2.29-1.15-4.53-2.46-6.46-4.19-3.27-2.93-5.84-6.31-7.72-10.31-.01-.02-.02-.03-.04-.05-.67-5.47-5.34-12.91-10.8-18.14-.24-.53-.45-1.07-.61-1.62-1.77-6.06 3.21-7.28 7.97-6.98 3.53.22 10.03 1.68 11.97-2.32zm-5.75-3.79c1.49.48 3.02.97 4.59 2.8.19.22.4.41.63.6-2.65 6.24-15.33-1.14-19.68 4.39-1.28 1.63-1.23 3.63-.51 5.67-3.39-2.94-7.11-5.33-10.15-5.42-15.45-.46-20.58 1.5-23.82 4.79l2.97-7.64c6.95 5.38 19.44.97 26.42-2.16 6.14.64 12.57-2.61 18.62-3.33.31.1.61.2.93.3zm-34.98-20.61c1.79 2.21 8.27 5.32 14.55 8.32 3.57 1.71 6.94 3.33 9.32 4.7 4.29 2.49 6.29 4.3 7.61 5.51.56.51 1.01.91 1.48 1.22-8.97 1.37-19.82 7.55-26.15-2.35-3.1-4.85-5.21-10.8-9.6-14.72.55-2.88.94-5.69 1.14-7.33.32 1.81.83 3.63 1.65 4.65zm-36.32-18.12c-.01.03-.38.69-1.06.6-1.04-.13-2.69-3.1-3.68-4.88-.49-.89-.92-1.67-1.29-2.19-1.06-1.52-1.03-5.3.07-8.79.18-.56.41-.86.71-.92.76-.14 2.1 1.08 2.81 1.98l1.08 1.36-.13-1.73c-.01-.15-1.1-15.53 4.33-22.04 4.03-4.83 12.7-5.87 15.13-6.07 2.43.2 11.1 1.24 15.13 6.07 5.43 6.51 4.34 21.89 4.33 22.04l-.13 1.73 1.08-1.36c.72-.9 2.06-2.12 2.81-1.98.29.05.53.36.71.92 1.1 3.49 1.13 7.27.07 8.79-.37.52-.79 1.29-1.29 2.19-.99 1.78-2.64 4.76-3.68 4.88-.68.09-1.05-.57-1.06-.6l-1.17-2.24.16 2.52c0 .05.33 5.39-.83 7.54-1.18 2.19-10.7 9.59-12.52 10.25-1.03.37-2.5.51-3.61.56-1.11-.05-2.58-.19-3.61-.56-1.83-.67-11.35-8.06-12.53-10.25-1.16-2.15-.83-7.49-.83-7.54l.16-2.52zm-8.23 150.72c-.53-.07-1.16-.35-1.61-.64-2.77-1.69-5.02-4.12-6.74-6.86.08-4.8.15-10.1.16-14.41.6 2.06 1.41 4.05 2.43 6.01 1.11 2.16 3.47 6.65 6.13 7.38.4.11.74.11 1.01.03.11 1.22.18 2.44.19 3.67.01.9-.04 1.81-.08 2.71.11.88-.42 2.25-1.49 2.11zm1.16-10.18c-1.76.79-2.83-.71-3.75-1.92-2.81-3.69-4.74-7.96-5.61-12.48-.02-2.86-.09-4.99-.24-5.76-.01-.04-.02-.09-.03-.14.38.38.77.75 1.18 1.1.84 3.68 2.5 7.1 5.52 9.26 1.01.73 1.75.94 2.28.79.15.42.29.88.32.97.21.63.37 1.27.5 1.92.25 1.3.37 2.61.57 3.92.12.86.2 1.92-.74 2.34zm-.86-10.13c-1.15.62-2.1-.54-2.87-1.22-.66-.58-1.16-1.25-1.68-1.96-2.77-3.83-3.27-9.97-3.15-14.54.39.14.78.27 1.19.38 1.56 3.49 3.81 6.65 6.57 9.11.18 1.65.4 3.29.56 4.94.09.95.43 2.73-.62 3.29zm.66-11.22c-.65 4.29-3.58-1.07-4.71-2.76-2.18-3.26-3.58-7.3-4.06-11.34 1.24.42 2.54.7 3.89.84.29.3.56.61.86.9.56.55 1.12 1.09 1.71 1.62.51.46 1.03 1.34 1.75 1.48 2.15 2.39.98 6.51.56 9.26zm-14.42-18.12l-.01-.01c.05-1.33.21-2.54.43-3.65.91 0 1.82-.05 2.71-.13 1.21 2.13 2.59 4.18 4.14 6.08.5.62 1.02 1.22 1.56 1.81-3.3-.48-6.3-1.85-8.83-4.1zm13.98 7.67c-.48-.06-.97-.58-1.29-.9-.48-.48-.98-.94-1.49-1.39-.79-.71-1.66-1.38-2.37-2.17-1.94-2.15-3.57-4.55-5-7.06 1.99-.23 3.92-.67 5.78-1.33 3.2 1.61 6.07 4.44 6.11 8.07.01 1.36-.53 2.61-1 3.85-.17.46-.16 1.01-.74.93zm-13.42-11.97s0 0 0 0a26.28 26.28 0 012.48-6.67c2.6 1.9 5.48 3.35 8.25 3.49.62.03 1.22.05 1.81.06-3.86 2.06-8.08 3.11-12.54 3.12zm7.31-4.82c-7.75-3.33-14.62-13.11-18.15-19.35.27-3.14 1.94-6.89 4.44-10.54 2.88-4.19 6.29-8.2 8.51-9.99 6.04-4.88 11.38-4.67 16.51-4.5 7.73.25 14.59 1.58 18.34 7.64 2.14 3.45.69 10.85.31 14.59-.57 5.64-1.29 12.35-5.48 16.53-5.41 5.41-17.38 8.67-24.48 5.62zm-37.12-3.26c8.11-2.45 14.66-7.96 18.53-15.58 1.72 2.83 3.26 5.6 5.14 8.22-.59 11.03-3.7 21.76-7.46 32.17-1.84 5.1-3.57 10.37-6.41 15-2.41 3.94-5.03 7.46-8.36 10.67-5.92-15.64-8.53-35.23-1.44-50.48zm.47 49.75c-4.04-6.87-8.79-13.42-8.2-21.66.18-3.02.92-14.34 1.97-19.44.98-4.75 2.64-9.32 3.27-10.99.58.77 1.16 1.55 1.73 2.32.01.02.03.03.04.04-6.9 15.13-4.56 34.16 1.19 49.73zm64.46-87.45c-1.49-3.84-7.24-18.66-9.08-23.12-2.06-4.98-3.19-15.47-3.24-15.9.1-.89.17-1.71.2-2.37.81.88 1.98 1.97 3.29 3.09 2.1 7.24 4.16 12.26 5.83 16.31 1.14 2.78 2.13 5.18 2.84 7.59 1.42 4.8.55 11.85.16 14.4zm-7.22-17.05c1.17 2.95 2.51 6.4 3.72 9.49-2.92 2.92-11.1 2.84-17.52 1.16 6.33-.71 11.49-4.67 13.8-10.65zm-15.45 10.12l-.05.02c-2.15-.7-4.16-1.5-5.88-2.25 1.18-.23 2.34-.61 3.48-1.2 7-3.62 8.04-13.82 13.78-18.87.48 2.33 1.07 4.64 1.77 6.32.46 1.11 1.17 2.88 1.99 4.95-2.24 6.62-8.03 10.87-15.09 11.03zm-22.97-7.42c1.32-1.2 3.33-3.02 7.61-5.51 2.37-1.38 5.75-2.99 9.32-4.7 6.27-3.01 12.76-6.11 14.55-8.32.75-.93 1.24-2.52 1.55-4.16.22 1.72.6 4.35 1.12 7.02-4.45 3.92-6.56 9.91-9.68 14.8-6.38 9.97-17.32 3.64-26.33 2.33.6-.33 1.15-.81 1.86-1.46zm-8.09 4.88c1.57-1.83 3.11-2.32 4.59-2.8.05-.01.09-.03.13-.04l.46-.02c6.09.69 12.57 3.99 18.75 3.35 7.03 3.15 19.85 6.99 26.54 2.08 1.18 3.03 2.19 5.64 2.72 7.01-3.32-3.18-8.79-4.65-23.77-4.26-3.04.08-6.59 2.19-9.95 5.24.6-1.91.57-3.77-.63-5.3-4.36-5.56-17.13 1.92-19.71-4.47.33-.25.63-.5.87-.79zm-10.58 8.39c1.4-3.57 4.32-4.91 6.89-6.09.81-.37 1.6-.74 2.28-1.16 1.87 4.13 8.46 2.65 12.01 2.43 4.75-.3 9.74.92 7.97 6.98-.13.44-.28.87-.46 1.29-5.68 5.67-10.52 13.72-10.94 18.67-1.88 3.97-4.43 7.32-7.69 10.23-1.93 1.73-4.16 3.04-6.46 4.19-3.2 1.61-4.38 1.45-6.3-.87l-.15-.29c-.02-.04-1.6-4.47-2.47-10.04-.86-5.57 3-19.46 5.32-25.34zm-10.64 37.01c.49-2.88 3.52-7.49 4.7-9.08.77 3.88 1.76 6.87 2.02 7.64-.41 1.04-2.4 6.23-3.51 11.65-1.18 5.74-1.87 17.9-1.96 19.5-.11.16-.32.45-.58.85-1.76-7.29-1.94-23.1-.67-30.56zm-7.83 74.34c-.53-8.73 1.44-14.01 2.42-16.01 1.13 7.5 4.35 15.01 7.41 21.94 4.06 9.19 6.58 19.52 7.33 29.39-.08 2.04 0 3.49.2 4.78-7.68-9.72-14.26-20.27-16.66-32.47-.29-2.51-.54-5.01-.7-7.63zm14.33 80.1l-1.4-1.59c-.32-3.78-1.98-9.71-2.25-10.63.03-.22.08-.79.14-1.55 1.09 2.03 2.7 4.9 4.05 6.96 1.62 2.46.19 5.55-.54 6.81zm-3.21-19.42c1.27 2.37 3.55 6.53 5.13 8.95 1.06 1.61.81 3.49.3 4.95a5.73 5.73 0 00-.79-1.88c-1.72-2.63-3.87-6.62-4.81-8.4.08-1.18.14-2.48.17-3.62zm7.25-16c.98 4.15 1.59 6.28 1.59 8.27 0 5.13 1.61 10.78-.23 10.78-.45 0-1.4-.46-2.7-2.51-.87-1.38-1.13-3.28-1.38-5.12-.32-2.34-.61-4.55-2.17-5.55-.38-.24-.8-.28-1.23-.12-2.56.96-1.73 5.34-2.26 7.21l-.04.13.03.14c.68 2.91-.35 9.85-.36 9.92l-.02.12.03.11c.02.08 2.29 7.98 2.29 11.6 0 2.38-1.17 3.37-1.83 3.74-.91-2.4-4.66-12.39-5.12-14.53-.47-2.21-.79-16.08-.25-31.44.33-9.5-2.43-17.55-3.41-24.69 3.14 10.54 9.27 19.85 16.21 28.54l.04.06c.22 1.11.5 2.02.81 3.34zm2.5-27.52c-.34 1.45-.2.85-.59 2.44-1.36 3.84-2.33 7.3-2.64 9.79-.06.44-.1.85-.15 1.26-.81-5.91-2.34-12.77-4.3-18.22-3.49-9.7-8.89-19.13-10.19-29.46l.01-.01.01-.01v-8.88c0-6.91 4.65-14.62 6.38-17.25v-.01c-.07 9.41 6.6 16.88 10.76 25.08 5.08 10 3.24 23.81.86 34.54-.09.42-.09.4-.15.73zm8.41-25.26c-.19 4.48-3.19 12.43-6.09 20.11-.14.38-.48 1.04-.84 1.74 1.76-8.33 2.67-16.72.86-25.25-.18-.84-.41-1.67-.68-2.48 1.73-2.05 3.67-3.89 5.83-5.5.31.97 1.21 4.46.92 11.38zm7.02-42.62c-3.05 4.84-4.81 14.89-4.89 15.43 0 .06.17 6.04-.35 9.33-.5 3.17-2.69 5.57-2.71 5.59l-.22.24s0 0 0 0c-2.15 1.6-4.1 3.42-5.84 5.44-.05-.13-.09-.24-.12-.35-.79-2.15-1.83-4.21-2.97-6.23 3.2-3.02 6.13-6.39 9.01-11.16 2.81-4.67 3.84-8.28 5.76-13.29 4.13-10.79 7.45-21.93 8.14-33.41.11.15.22.3.34.45.28 2.88.74 7.43 1.31 11.82.01.05.01.1.02.15-1.12 3.24-4.88 11.86-7.48 15.99zm7.37-26.47c1.54 1.78 3.62 3.87 5.95 5.65-2.46 4.58-3.51 9.53-3.14 14.45-1.13-4.41-2.22-14.28-2.81-20.1zm4.29 24.45c-.65-2.52-.89-4.71-.88-6.65 1.52 1.28 3.2 2.26 5 2.95.29 2.56.96 5.1 1.96 7.51-2.33-.72-4.4-2.03-6.08-3.81zm1.88 5.45c-.03-.08-.08-.21-.15-.36-.57-1.36-1.02-2.64-1.39-3.85a14.72 14.72 0 004.23 2.7c-.01.02-.02.05-.02.07-.07 2.44.05 5.12.53 7.73-.47-.44-.92-.9-1.34-1.39-.44-1.32-1.13-2.98-1.86-4.9zm-3.01 47.87c-.52-4.23 2.32-8.7 4.01-11.38.31-.48.55-.87.75-1.2 6.75 3.02 14.85 8.33 13.03 17.31-.51 2.5-2.7 5.18-4.24 7.06-2.16 2.63-4.18 1.42-6.44-.37-1.96-1.55-3.89-3.14-5.82-4.73-.35-1.1-.86-3.16-1.29-6.69zm-5.47 50.44c1.78-7.08 3.19-12.68 2.95-16.38-.47-7.29 1.67-16.68 3.08-21.91 4.19 4.58 3.67 11.87 2.8 17.88-1.04 7.17-2.2 17.41-9.02 21.13.07-.24.13-.48.19-.72zm-7.49 42.53c.61-8.33 2.63-19.97 4.59-29.56-.64 7.47-.44 14.04 1.25 22.9s7.09 21.01 9.12 32.17c.76 4.2 1.47 14.93-.59 20.87-1.36 3.94-5.38 7.15-8.8 6.22-1.52-11.84-6.97-33.61-5.57-52.6zm1.57 120.23c-1.61-11.17-3.13-21.72-3.05-26.41.14-8.22 5.08-20.64 6.81-24.75.23.72.51 1.5.84 2.3-3.01 6.95-9.91 23.19 1.07 77.34-.63 1.54-1.39 3.03-2.33 4.43.08-1.75.11-3.43.05-4.59-.23-6.4-1.83-17.51-3.39-28.32zm6.14 27.25c-10.6-52.62-4.18-68.13-1.14-75.14 1.01 2.37 2.29 4.91 3.45 7.07-.07 12.9-.15 25.81-.22 38.71-.06 9.31 1.14 20.26-2.09 29.36zm12.68 7.42c.07.38.15.75.22 1.11-3.86-4.37-3.91-11-3.93-16.95 0-.87-.01-1.72-.02-2.54-.14-7.71-.21-14.78.25-21.83.8 3.52 2.95 8.73 8.67 11.27-2.35 8.75-5.93 25-5.19 28.94zm15.14-54.26c-1.79 5.94-4.04 10.65-5.84 14.44-1.09 2.28-2.03 4.25-2.69 6.08-.28.78-.67 2.07-1.12 3.7-5.79-2.67-8.03-8.56-8.85-11.88.05-.62.09-1.23.15-1.85.15-1.57.24-3.18.34-4.89.26-4.48.39-9.06 1.78-13.37 1.05-3.26 2.7-6.3 4.64-9.12 1.94-2.84 4.37-5.27 6.39-8.04 1.18-1.62 2.28-3.3 3.31-5.02 1.01 4.91 4.26 22.06 1.89 29.95zm4.46-47.5c-.82 4.47-2.88 8.81-4.95 12.82-1.22 2.36-2.43 5.09-4.16 7.12-4.75 5.57-9.88 10.96-12.19 18.07-1.59 4.89-1.95 9.92-2.25 15.02-.1 1.7-.19 3.3-.33 4.85-.77 8.31-.69 16.47-.52 25.51.02.82.02 1.66.02 2.53.03 6.73.06 14.31 5.44 18.9.15.6.29 1.17.44 1.7.59 3 1.53 9.64 1.87 11.14.41 1.79.35 3.01-1.09 5.13-1.23 1.81-3.07 3.24-4.65 4.14 1.21-1.95 3.3-5.33 3.3-5.33-1.58 1.67-4.79 6.07-4.86 6.17v0c-.59.74-3.37 5.35-3.96 9.56-.58 4.1-2.73 8.63-6.67 9.85l-.04.02c-.87.38-2.49 1.08-3.5 3.6-.89 2.21-3.31 3.87-5.25 4.36-2.02.52-4.63-.48-5.59-2.14l-.03-.05c-.15-.8-.02-1.09.3-1.39.09-.08.24-.22.44-.39 1.3-1.15 2.72-2.45 3.1-3.2.35-.69 3.09-5.16 5.22-6.9 0 0-3.43 1.78-6.01 6.49-.36.65-2.13 2.26-2.9 2.94-.21.18-.37.33-.46.41-.56.53-.73 1.13-.58 2.08-.39.19-.63.25-1.33-.08-.6-.28-.77-1.06-.82-1.64v0c0-.03.28-3.61 6.66-11.72 0 0-2.09 1.66-3.9 4.36-2.35 3.51-3.22 5.39-3.52 6.41-.43.04-.99.02-1.2-.14-.43-.32-.93-1.07-.73-1.64.07-.22.13-.4.18-.54v0c.75-2.59 3.46-8.55 5.75-11.17 0 0-1.34.92-2.99 3.52-1.66 2.6-2.59 4.28-3.32 6.45-.35-.04-.56-.16-.84-.39-.13-.12-.31-.85-.29-1.87.01-.28.05-.61.1-.96.06-.43.12-.87.11-1.28 0-.11-.01-.22-.03-.32.36-1.49 1.42-4.16 4.21-7.46 0 0-1.33 1.12-2.44 2.64-1 1.37-1.76 2.43-2.24 3.51-.05-.15-.09-.32-.12-.52-.02-.17-.06-.36-.09-.57-.17-.98-.4-2.31.23-2.99 0 0 2.39-3.56 3.31-4.14 1.36-.85 10.67-8.5 11.82-11.19.28-.66.53-1.36.77-2.05.71-2.03 1.45-4.12 3.19-5.6 2.49-2.12 4.26-7.44 4.26-7.44-.01.02-1.65 3.13-3.51 5.38.09-1.64.47-2.83.91-4.16.14-.44.41-3.28.57-6.25 1.3-1.83 2.29-3.8 3.06-5.85v0s0 0 0 0c3.04-8.13 2.46-17.7 2.51-26.13l.24-41.75c1.28 2.34 2.29 4.03 2.39 4.18 0 0-6.88-13.6-7.23-18.4-.2-2.79 0-4.27.17-5.57.13-1.01.26-1.96.18-3.32-.03-.49-.21-1.92-.48-4.07 2.54.55 5.34-.92 7.53-3.6 4.05-4.96 3.84-13.91 3.06-20.79.95.32 2.01.28 2.93-.18-.05 1.75.05 3.52.33 5.31.9 5.56 3.29 11.65 8.13 14.97 3.86 2.65 8.75 4.07 12.71 1.47-.11 1-.24 1.86-.37 2.57zm1.95-18.84c-.49 5.86-.96 11.47-1.45 15.46-6.49 5.08-14.53-1.87-17.76-7.56-3.5-6.16-3.16-13.57-1.65-20.23 2.78-12.22 10.66-22.54 14.13-34.55 2.15 5.04 4.03 10.17 5.06 15.61 1.39 7.36 2.04 14.8 2.45 22.25-.28 3.05-.54 6.12-.78 9.02zm2.14-21.96c-.36 2.79-.69 5.87-1 9.06-.88-11.93-2.7-23.69-7.57-34.91-8.07-18.59-15.91-36.69-16.3-57.32-.02-1.32.07-2.55.33-3.85 1.12-5.64 5.34 2.65 5.46 2.88 1.26 2.4 2.63 4.11 2.95 6.94.15 1.33.28 2.58.56 3.89 1.96 9.16 3.66 18.05 6.95 26.88 1.51 4.04 3.52 7.88 4.99 11.93 1.65 4.56 2.36 9.58 3.13 14.35.77 4.79 1.21 9.61 1.36 14.44-.32 1.93-.62 3.84-.86 5.71zm7.4-36.39c-.32 2.55-1.33 6.84-2.5 11.82-1.15 4.91-2.49 10.63-3.57 16.31-.22-4.02-.62-8.04-1.21-12.07-.79-5.42-1.88-10.89-3.75-16.05-1.9-5.25-4.47-10.23-6.26-15.54-3.11-9.24-3.99-18.73-6.08-28.15-.65-2.93-3.24-6.18-4.87-8.64-.48-.72-1.93-1.34-2.73-.77-4.07 2.9-1.68 12.79-1.23 16.61 1.26 10.83 4.68 21.32 8.68 31.41 2.09 5.27 4.58 10.39 6.84 15.59-3.77 13.67-14.79 27.07-15.58 41.56-.92.63-2.07.7-3.03.28-.11-.9-.23-1.76-.34-2.56-1.67-11.5-7.4-25-9.34-34.01-1.83-8.5-1.8-17.53-.87-26.33.52-2.4 1.02-4.57 1.46-6.4 7.73-3.66 8.57-14.08 9.83-21.78 1.04-6.33 1.36-14.08-3.22-18.78.55-1.97.94-3.19.95-3.24l.07-.22-.01-.01c2.81 2.35 5.63 4.75 8.66 6.76.14.09.28.15.42.19 2.16 3.11 4.17 7.09 6.61 11.97 2.08 4.16 4.44 8.88 7.42 14.03.84 1.46 1.54 3.09 2.27 4.82 2.11 4.94 4.47 10.49 10.97 11.39.34 1.88 1.03 6.9.41 11.81zm1.82-12.76h-.33c-7.25-.01-9.49-5.28-11.87-10.86-.72-1.68-1.45-3.41-2.33-4.93-2.96-5.13-5.31-9.83-7.39-13.98-2.34-4.68-4.29-8.56-6.38-11.66 2.32-1.12 4.97-6.31 5.67-7.53 2.63-4.56.64-10.03-2.38-13.94-2.26-2.93-6.64-5.38-10.08-6.94.03-.1.04-.2.04-.28 0-.2.01-.99.04-2.19.01-.45.02-.91.02-1.37a23.71 23.71 0 003.43 4.01c1.23 1.15 3.76 3.56 5.51 3.59 1.39.02 1.38-1.32 1.48-2.42.24-2.55.18-5.11-.06-7.66.54-.59.67-1.67.66-2.56-.02-3.13-.56-5.68-1.63-8.21 1.3-1.37.42-6.35.01-8.9 0-.01.01-.01.01-.01.71-3.54 2.48-9.17.06-12.38.43-.3.56-1 .76-1.48.67-1.59 1.31-3.73 1.04-5.47-.49-3.16-3.08-5.71-5.94-7.26 1.38-.53 2.72-1.17 4.02-1.94 8.24-.15 14.15-2.66 19.23-7.74 3.86-3.86 4.21-11.03 4.79-16.11.51-4.44 1.81-11.48-.8-15.53-.52-.8-1.04-1.54-1.61-2.22.07-.4 1.77-9.57-.01-15.61-.72-2.43-1.71-4.85-2.86-7.64-1.6-3.9-3.57-8.69-5.59-15.49 3.19 2.66 6.89 5.33 8.09 5.77.95.35 2.19.51 3.26.59h1.42c1.07-.08 2.31-.24 3.26-.59 1.21-.44 4.96-3.15 8.16-5.83-2.02 6.86-4.01 11.68-5.62 15.6-1.15 2.8-2.14 5.21-2.86 7.64-1.78 6.04-.08 15.22-.01 15.61 0 0-1.06 1.68-1.6 2.5-2.62 4.05-1.31 11.09-.8 15.53.58 5.08.93 12.25 4.79 16.11 5.3 5.3 11.51 7.81 20.31 7.74.95.5 1.92.95 2.91 1.33-2.87 1.55-5.48 4.1-5.97 7.28-.27 1.74.37 3.88 1.04 5.47.2.48.34 1.18.77 1.48-2.42 3.22-.66 8.84.06 12.38 0 .01.01.01.01.02-.41 2.55-1.29 7.52.01 8.89-1.07 2.54-1.61 5.08-1.63 8.21-.01.89.12 1.97.66 2.56-.24 2.55-.3 5.11-.06 7.66.1 1.09.1 2.44 1.48 2.42 1.74-.03 4.28-2.44 5.51-3.59 1.49-1.4 2.75-2.94 3.84-4.64.01.72.02 1.42.04 2.11.02 1.2.04 1.99.04 2.19 0 .09.02.19.05.3-3.47 1.54-7.93 3.92-10.24 6.93-3.02 3.91-5.32 9.39-2.69 13.94.72 1.25 3.65 6.78 6.07 7.72-2.07 3.09-4.01 6.94-6.34 11.59-2.08 4.15-4.43 8.85-7.39 13.98-.88 1.52-1.61 3.25-2.33 4.93-2.35 5.57-4.58 10.82-11.75 10.88zm9.76 58.08c-.3-3.14-.63-6.18-.98-8.93-.24-1.88-.54-3.81-.88-5.76.15-4.91.58-9.81 1.37-14.68.77-4.77 1.48-9.79 3.13-14.35 1.47-4.06 3.48-7.89 4.99-11.93 3.29-8.82 4.99-17.71 6.95-26.88.28-1.31.41-2.56.56-3.89.32-2.82 1.69-4.54 2.95-6.94.12-.22 4.34-8.51 5.46-2.88.26 1.31.36 2.53.33 3.85-.39 20.63-8.23 38.73-16.3 57.32-4.9 11.26-6.71 23.07-7.58 35.07zm1.15 13.03c-.25-2.94-.51-6.04-.79-9.12.41-7.51 1.06-15.02 2.46-22.44 1.02-5.4 2.89-10.5 5.01-15.51 3.48 11.99 11.4 22.54 14.18 34.74 1.51 6.66 1.85 14.06-1.65 20.23-3.23 5.69-11.27 12.64-17.76 7.56-.48-3.99-.95-9.6-1.45-15.46zm14.95 86.86c-.66-1.83-1.6-3.8-2.69-6.08-1.81-3.79-4.05-8.5-5.84-14.44-2.37-7.89.88-25.04 1.89-29.95 1.03 1.72 2.13 3.4 3.31 5.02 2.02 2.77 4.45 5.21 6.39 8.04 1.93 2.82 3.58 5.86 4.64 9.12 1.39 4.31 1.52 8.89 1.78 13.37.1 1.71.19 3.32.34 4.89.05.55.09 1.09.13 1.63-.54 2.26-1.76 5.86-4.41 8.77-1.18 1.29-2.63 2.44-4.43 3.28-.44-1.6-.83-2.88-1.11-3.65zm1.41 4.75c2.1-.94 3.71-2.24 4.95-3.68 2.2-2.55 3.23-5.55 3.72-7.8.48 7.14.4 14.28.26 22.09-.01.83-.02 1.68-.02 2.54-.02 5.95-.07 12.58-3.93 16.95.08-.36.15-.73.22-1.11.74-3.94-2.85-20.24-5.2-28.99zm22.22 38.83c-1.86-2.25-3.5-5.36-3.51-5.38 0 0 1.78 5.32 4.26 7.44 1.74 1.48 2.47 3.58 3.19 5.6.24.68.49 1.39.77 2.05 1.15 2.69 10.46 10.34 11.82 11.19.92.58 3.31 4.14 3.31 4.14.64.68.4 2.02.23 2.99-.04.21-.07.4-.09.57-.03.19-.07.36-.11.51-.48-1.09-1.25-2.16-2.26-3.54-1.12-1.52-2.44-2.64-2.44-2.64 2.83 3.34 3.87 6.03 4.22 7.51-.02.1-.03.21-.03.32-.01.41.05.85.11 1.28.05.34.09.67.1.96.02 1.02-.16 1.75-.29 1.87-.27.22-.48.34-.83.39-.73-2.2-1.66-3.88-3.33-6.51-1.65-2.59-2.99-3.52-2.99-3.52 2.25 2.56 4.88 8.3 5.7 10.98.05.18.13.42.26.78.19.57-.3 1.32-.73 1.64-.18.13-.62.17-1.01.15-.13-.84-.8-2.7-3.64-6.94-1.81-2.7-3.9-4.36-3.9-4.36 5.38 6.84 6.42 10.46 6.61 11.44l-.01.29c-.01.48-.03 1.75-.84 2.13-.7.33-.94.27-1.33.08.15-.95-.02-1.55-.58-2.08a9.67 9.67 0 00-.46-.41c-.77-.68-2.54-2.28-2.9-2.94-2.59-4.71-6.01-6.49-6.01-6.49 2.13 1.74 4.87 6.2 5.22 6.9.38.75 1.8 2.04 3.1 3.2.2.18.35.31.44.39.32.3.44.59.3 1.39l-.03.05c-.96 1.65-3.57 2.65-5.59 2.14-1.93-.49-4.36-2.15-5.24-4.36-1.01-2.51-2.63-3.22-3.51-3.6l-.04-.02c-3.93-1.22-6.09-5.75-6.67-9.85-.59-4.21-3.36-8.82-3.96-9.56v0c-.07-.1-3.28-4.5-4.86-6.17 0 0 2.09 3.38 3.3 5.33-1.58-.9-3.42-2.33-4.65-4.14-1.44-2.12-1.5-3.34-1.09-5.13.34-1.5 1.28-8.14 1.87-11.14.15-.52.29-1.1.44-1.7 5.38-4.59 5.42-12.17 5.44-18.9 0-.86.01-1.71.02-2.53.17-9.04.24-17.2-.52-25.51-.14-1.55-.24-3.16-.33-4.85-.3-5.1-.67-10.13-2.25-15.02-2.31-7.11-7.44-12.5-12.19-18.07-1.73-2.03-2.94-4.76-4.16-7.12-2.07-4.01-4.13-8.35-4.95-12.82-.13-.72-.26-1.58-.39-2.55 3.97 2.6 8.85 1.18 12.71-1.47 4.84-3.32 7.6-9.37 8.13-14.97.18-1.93.21-3.8.12-5.62.92.48 2.03.55 3.02.28-.82 6.93-1.11 16.11 3.02 21.16 2.24 2.75 5.13 4.22 7.72 3.55-.26 2-.42 3.34-.45 3.81-.08 1.35.05 2.31.18 3.32.17 1.31.37 2.79.17 5.57-.34 4.8-7.23 18.4-7.23 18.4.09-.15 1.07-1.79 2.33-4.08l.24 41.8c.06 10.56-.88 22.93 5.57 31.99.16 2.97.43 5.81.57 6.25.43 1.31.82 2.5.91 4.15zm-6.43-46.62c-.07-12.92-.15-25.83-.22-38.75 1.15-2.14 2.43-4.67 3.45-7.03 3.08 7.11 9.35 22.86-1.18 75.04-3.2-9.08-2-19.99-2.05-29.26zm11.28-24.3c.08 4.69-1.44 15.24-3.05 26.41-1.56 10.8-3.16 21.92-3.38 28.32-.06 1.15-.03 2.84.05 4.59-.99-1.47-1.77-3.04-2.42-4.66 10.86-53.59 4.21-70.03 1.16-77.1.32-.8.61-1.57.85-2.29 1.72 4.12 6.64 16.52 6.79 24.73zm-1.43-93.97c1.41 19.04-4.08 40.88-5.59 52.69-.01.06-.01.11-.02.17-3.46 1.1-7.6-2.16-8.99-6.17-2.05-5.94-1.35-16.67-.59-20.87 2.03-11.16 7.43-23.31 9.12-32.17 1.8-9.43 1.93-16.58 1.14-24.84 2.06 9.88 4.28 22.38 4.93 31.19zm-6.2-37.09c1.24 9.69 1.49 19.75-.53 29.16-1.94 9.01-7.67 22.51-9.34 34.01-.1.72-.21 1.49-.31 2.3-1.01.35-2.23.24-3.13-.41-1.11-15.77-11.6-27.74-15.39-41.54 2.26-5.23 4.78-10.38 6.88-15.69 4-10.09 7.42-20.58 8.68-31.41.45-3.82 2.84-13.71-1.23-16.61-.8-.57-2.25.05-2.73.77-1.63 2.46-4.22 5.71-4.87 8.64-2.09 9.42-2.97 18.91-6.08 28.15-1.79 5.31-4.36 10.29-6.26 15.54-1.87 5.16-2.96 10.63-3.75 16.05-.6 4.1-1 8.2-1.22 12.3-1.07-5.66-2.41-11.36-3.55-16.26-1.17-4.97-2.17-9.27-2.5-11.82-.63-4.91.07-9.93.38-11.82 6.52-.89 8.88-6.44 10.99-11.39.74-1.73 1.43-3.35 2.27-4.82 2.98-5.16 5.34-9.87 7.42-14.03 2.48-4.95 4.51-8.98 6.71-12.11.04-.02.07-.03.11-.06 3.12-2.07 6.01-4.54 8.89-6.95l.08.29c.01.04.42 1.29.97 3.3-4.67 4.69-4.34 12.49-3.29 18.86 1.27 7.74 2.11 18.21 9.94 21.83.27 1.14.56 2.38.86 3.72zm-7.31-43.66c1.41 5.24 3.54 14.59 3.07 21.84-.24 3.71 1.17 9.3 2.95 16.38.07.3.15.61.23.93-6.91-3.67-8.08-13.99-9.12-21.19-.88-6.04-1.39-13.38 2.87-17.96zm-3.46-23.6c1.7 2.67 4.53 7.15 4.01 11.38-.61 4.92-1.15 6.16-1.45 6.76-1.96 1.61-3.92 3.22-5.91 4.8-2.26 1.79-4.27 3-6.44.37-1.55-1.88-3.73-4.56-4.24-7.06-1.87-9.11 6.48-14.43 13.29-17.43.2.33.44.71.74 1.18zm1.54-38.38c-.82 2.16-1.62 4.23-2.17 5.91-.62.77-1.3 1.49-2.01 2.18.48-2.6.6-5.29.53-7.73 0-.03-.01-.05-.02-.08 1.78-.75 3.4-1.83 4.78-3.22-.36.97-.74 1.96-1.11 2.94zm1.39-4.18c-1.75 2.05-4 3.54-6.55 4.34.99-2.38 1.65-4.74 1.95-7.25 1.8-.69 3.48-1.68 5.01-2.97.01 2.25-.18 4.47-.41 5.88zm1.23-2.89c-.01.02-.17.57-.46 1.38.62-5.61-.16-11.5-2.63-16.38 2.26-1.78 4.27-3.86 5.76-5.61.12-.14.22-.28.34-.41-.62 6.29-1.78 17.33-3.01 21.02zm15.32 30.2c-.38-10.37-2.19-19.92-5.24-24.76-2.55-4.05-6.08-12.02-7.26-15.34 0-.01 0-.03-.01-.07.61-4.64 1.14-9.61 1.43-12.62.06-.07.11-.15.17-.22.71 11.42 4.02 22.55 8.13 33.28 1.92 5.01 2.95 8.63 5.76 13.29 2.71 4.5 6.23 8.22 9.24 11.12-1.4 2.37-2.41 4.28-3.29 6.77-1.75-2.01-4.16-4.35-6.26-5.91-.32-.3-2.56-2.55-2.67-5.54zm8.77 40.33c-.29-.78-.59-1.57-.89-2.37-2.9-7.68-5.9-15.62-6.09-20.11-.29-6.86.6-10.36.92-11.37 2.14 1.6 4.27 3.62 6 5.66-.28.86-.55 1.8-.82 2.85-2.15 8.55-.69 17.38.9 25.39a.076.076 0 01-.02-.05zm1.82 4.98c-2.91-11.85-5.3-25.74.38-36.91 4.22-8.31 10.98-15.89 10.73-25.47 1.68 2.55 6.43 10.35 6.43 17.34v8.02c-1.06 10.77-6.69 19.87-10.29 29.89a82.252 82.252 0 00-4.3 18.14c-.04-.32-.06-.64-.12-.98-.74-4.3-1.85-7.49-2.83-10.03zm4 55.48c-.5-1.46-.75-3.34.3-4.95 1.58-2.42 3.86-6.58 5.13-8.95.03 1.14.09 2.44.16 3.63-.94 1.77-3.08 5.77-4.81 8.4-.39.6-.64 1.24-.78 1.87zm2.22 5.52c-.73-1.26-2.16-4.35-.54-6.81 1.35-2.06 2.95-4.94 4.05-6.96.06.76.11 1.33.14 1.55-.26.92-1.92 6.86-2.25 10.63zm13.13-68.05c-.89 7.3-3.86 15.58-3.51 25.38.54 15.36.22 29.23-.25 31.44-.46 2.14-4.21 12.13-5.12 14.53-.66-.37-1.83-1.36-1.83-3.74 0-3.62 2.27-11.52 2.29-11.6l.03-.11-.02-.12c-.01-.07-1.04-7.02-.36-9.92l.03-.14-.04-.13c-.54-1.86.3-6.24-2.26-7.21-.43-.16-.85-.12-1.23.12-1.56 1-1.86 3.21-2.17 5.55-.25 1.84-.5 3.75-1.38 5.12-1.3 2.05-2.24 2.51-2.7 2.51-1.84-.01-.23-5.65-.23-10.78 0-1.99.61-4.12 1.59-8.27.35-1.5.68-2.66.91-3.93 7.1-8.91 13.32-18.49 16.33-29.38-.03.23-.06.45-.08.68zm1.21-12.05c-.1 1.64-.36 3.45-.52 5.03-1.91 13.15-8.64 24.16-16.75 34.46.17-1.51.2-3.33-.01-6.07.8-9.68 3.34-18.91 7.34-27.95 3.13-7.08 6.31-14.09 7.37-21.76.89 1.75 3.12 7.1 2.57 16.29z"
         id="path55" /><path
         d="M195.27 245.3c-3.8 2.45-7.02 8.63-4.72 12.91 1.07 1.99 2.37 2.64 4.68 2.46 1.66-.13 3.37-.99 4.93-1.52 2.61-.88 5.29-1.61 7.93-2.41 1.47-.5 3.32-1.22 3.46-2.98.2-2.51.38-7.43-1-9.7-2.81-4.66-11.87-.97-15.28 1.24zm12.64 10.82a733.85 733.85 0 00-11.52 3.62c-4.78 1.54-5.77-2.17-5.81-5.03-.04-2.74 1.46-5.27 3.22-7.3 2.95-3.41 8.01-4.48 12.39-4.74 5.17-.31 6.73 11.76 1.72 13.45z"
         id="path57" /><path
         d="M216.04 256.8c2.64.8 5.31 1.53 7.93 2.41 1.56.52 3.27 1.39 4.93 1.52 2.31.18 3.61-.46 4.68-2.46 2.3-4.29-.92-10.46-4.72-12.91-3.41-2.2-12.48-5.9-15.28-1.24-1.37 2.28-1.19 7.19-1 9.7.14 1.77 1.99 2.49 3.46 2.98zm1.9-14.07c4.38.26 9.44 1.33 12.39 4.74 1.76 2.04 3.26 4.57 3.22 7.3-.04 2.86-1.03 6.57-5.81 5.03a733.85 733.85 0 00-11.52-3.62c-5.02-1.69-3.45-13.76 1.72-13.45z"
         id="path59" /><path
         d="M192.15 265.9c-2.76 4.53-.58 11.37.39 15.9 1.35 6.36 2.71 12.93 6.42 18.39l.03.03.02.04c2.33 2.69 5.68 4.96 9.25 5.57 2.4.41 1.48-7.15 1.5-8.02.22-7.5.9-15.01 1.07-22.51.04-1.79 1.52-11.08-.98-13.9-4.37-4.96-15.15.32-17.7 4.5zm17.21 23.71l-.36 12.28c-.2 6.61-7.83-.14-9.5-2.06-4.73-6.98-6-16.14-7.56-24.26-1.29-6.68.89-12.1 7.73-14.17 4.81-1.45 9.97-1.59 10.34 4.67.46 7.75-.42 15.78-.65 23.54z"
         id="path61" /><path
         d="M225.11 300.25l.02-.04.03-.03c3.71-5.46 5.06-12.03 6.42-18.39.97-4.53 2.54-11.05.39-15.9-1.85-4.17-12.77-9.42-17.56-4.46-2.72 2.81-1.22 10.39-1.12 13.85l1.07 22.51c.03.87-.9 8.43 1.5 8.02 3.58-.59 6.92-2.87 9.25-5.56zm-9.98 1.64l-.36-12.28c-.23-7.76-1.1-15.79-.64-23.54.37-6.26 5.54-6.13 10.34-4.67 6.84 2.07 9.02 7.49 7.73 14.17-1.57 8.12-2.83 17.29-7.56 24.26-1.69 1.91-9.32 8.67-9.51 2.06z"
         id="path63" /></g></g><g
     id="Pecs_00000159460920585766363290000011374295282427594661_"
     transform="translate(-107.314 -112.014)"
     fill="#982823"
     fill-opacity=".5"
     stroke="#982823"
     stroke-opacity="1"
     style="fill:#982823;fill-opacity:1"><g
       id="g25"
       style="fill:#982823;fill-opacity:1"><g
         id="g23"
         fill="#982823"
         fill-opacity=".5"
         stroke="#982823"
         stroke-opacity="1"
         style="fill:#982823;fill-opacity:1"><path
           class="st1"
           d="M197.51 185.89c.57 5.65 1.3 12.33 5.48 16.52 5.4 5.4 17.35 8.66 24.45 5.61 7.75-3.33 14.08-12.68 18.35-19.67-.63-4.33-1.71-7.86-4.19-10.91-.77-.75-4.12-5.12-4.12-5.12-5.74-5.23-6.64-9.52-18.37-9.62-12.65-.1-17.17 1.83-21.51 8.54-2.2 3.42-.46 10.91-.09 14.65"
           id="path15"
           fill="#982823"
           fill-opacity=".5"
           stroke="#982823"
           stroke-opacity="1"
           style="fill:#982823;fill-opacity:1" /><path
           class="st2"
           d="M206.86 199.93c-.29-.2-.56-.41-.83-.64 11.61-.18 22.96-2.91 33.24-7.96-.27.39-.56.77-.85 1.14a78.743 78.743 0 01-31.56 7.46m2.28-5.99c-2.28 0-4.56-.07-6.82-.22-.08-.22-.16-.45-.23-.67 2.33.16 4.68.24 7.03.24 10.22 0 20.88-1.53 31.73-4.52-.15.28-.3.55-.46.82-10.69 2.88-21.18 4.35-31.25 4.35m32.21-6.15c-7.92-1.3-15.93-1.96-23.88-1.96-5.56 0-11.18.32-16.76.96-.03-.22-.06-.43-.1-.65 5.61-.64 11.26-.96 16.85-.96 8.05 0 16.16.67 24.17 2-.09.2-.18.4-.28.61m.43-.94c-11.43-4.61-23.07-6.95-34.66-6.95-2.35 0-4.7.1-7.05.29-.01-.22-.02-.44-.02-.66 2.36-.19 4.73-.29 7.09-.29 11.65 0 23.37 2.36 34.89 7-.08.21-.17.41-.25.61m.54-1.37c-10.35-8.57-23.48-13.25-37.46-13.25-1.53 0-3.07.06-4.61.17l.06-.66c1.53-.11 3.06-.17 4.57-.17 14.04 0 27.23 4.67 37.67 13.24-.08.23-.15.45-.23.67m.41-1.23c-9.06-10.86-23.63-17.92-37.69-17.92-.72 0-2.71.04-3.43.07.45-.26.92-.5 1.39-.7.26 0 1.8-.02 2.06-.02 14.09 0 28.69 6.99 37.9 17.79-.08.25-.16.52-.23.78"
           id="path17"
           fill="#982823"
           fill-opacity=".5"
           stroke="#982823"
           stroke-opacity="1"
           style="fill:#982823;fill-opacity:1" /><path
           class="st3"
           d="M220.99 209.2c-3.74 0-7.81-.93-11.35-2.47 13.57-.26 24.18-7.99 35.53-17.38-.84 1.37-1.75 2.8-2.73 4.24 0 0-2.3 3.26-3.32 4.56-3.33 4.19-7.23 7.98-11.67 9.88-1.89.8-4.11 1.17-6.46 1.17m-12.66-3.08c-2.09-1.04-3.94-2.3-5.35-3.71-.77-.77-1.43-1.63-1.98-2.55 1.27.06 2.56.09 3.83.09.68 0 1.35-.01 2.02-.03 2.81 1.98 6.45 2.79 10.02 2.79.82 0 1.64-.04 2.44-.12 5.76-.58 11.38-2.85 15.76-6.64 1.22-1.05 2.33-2.22 3.33-3.48a75.89 75.89 0 005.15-2.66c-11.01 9.03-21.42 16.27-34.65 16.27v0h-.42c-.04 0-.1.02-.15.04m-3.51-6.82c-1.4 0-2.81-.04-4.2-.11-.96-1.78-1.59-3.75-2.04-5.79 1.24.13 2.49.23 3.74.32.51 1.41 1.18 2.75 2.11 3.93.48.61 1.02 1.16 1.6 1.65-.4-.01-.8 0-1.21 0m-2.73-6.26a85.36 85.36 0 01-3.65-.32c-.37-1.86-.6-3.75-.8-5.56 1.02-.14 2.05-.27 3.07-.38.14.94.31 1.87.5 2.81.24 1.15.51 2.32.88 3.45m37.18-1.71c.4-.57.78-1.15 1.13-1.75 1.41-.38 2.82-.79 4.24-1.22l.08.01c-1.78 1.07-3.6 2.05-5.45 2.96m1.58-2.57c.17-.32.34-.65.5-.98.61.1 1.22.2 1.84.31-.78.24-1.56.46-2.34.67m2.35-1.33l-1.56-.27c.05-.11.09-.21.14-.32.47.2.95.4 1.42.59m1.09-.24c-.76-.32-1.51-.64-2.27-.94.1-.25.2-.51.29-.77.68.56 1.34 1.13 1.98 1.71m-46.72-.68l-.03-.32-.03-.3c0-.04-.01-.08-.01-.12-.14-1.39-.43-3.26-.63-5.24 1.06-.13 2.13-.24 3.21-.33.08 1.99.26 3.97.54 5.94-1.02.11-2.04.24-3.05.37m46.88-.07c-.62-.56-1.26-1.1-1.9-1.63l.18-.57c.59.72 1.17 1.46 1.72 2.2m.44-.54c-.67-.92-1.2-1.57-1.94-2.43.16-.6.38-1.66.49-2.27.68 1.34 1.4 2.91 1.81 4.44.02.07.25 1.03.27 1.09m-48.72-6.85c-.09-1.05-.13-2.11-.15-3.14-.01-.58-.14-1.56-.08-2.09.08-.69.21-1.32.4-1.92 1.02-.12 2.25-.25 3.27-.32-.21 2.37-.27 4.76-.2 7.14-1.08.08-2.16.19-3.24.33m.49-8.38c.11-.25.14-.27.28-.49.89-1.38 2.1-2.75 3.19-3.69-.21 1.29-.32 3.12-.44 4.42-.96.07-2.35.21-3.3.32z"
           id="path19"
           fill="#982823"
           fill-opacity=".5"
           stroke="#982823"
           stroke-opacity="1"
           style="fill:#982823;fill-opacity:1" /><path
           class="st4"
           d="M209.63 206.73c-.14-.06-.29-.13-.43-.19-.29-.13-.58-.27-.87-.41.05-.03.1-.04.16-.04h.42v0c13.23 0 23.63-7.24 34.65-16.27-1.69.95-3.4 1.84-5.15 2.66.3-.37.58-.76.85-1.14 1.85-.91 3.67-1.9 5.45-2.95l-.08-.01c-1.42.43-2.83.84-4.24 1.22.16-.27.31-.54.46-.82.78-.21 1.55-.44 2.33-.66-.61-.11-1.22-.21-1.84-.31.1-.2.19-.41.29-.62l1.56.27c-.47-.2-.95-.39-1.42-.58.09-.2.17-.4.25-.6.76.31 1.51.62 2.27.94-.65-.59-1.3-1.16-1.97-1.71.08-.22.16-.44.23-.67.64.53 1.28 1.07 1.9 1.63-.55-.75-1.12-1.48-1.72-2.2.08-.26.15-.52.22-.78.74.87 2.04 2.53 2.7 3.45.1.38.11 1.34-.08 1.77-.13.29-.27.44-.41.66-11.35 9.37-21.95 17.09-35.53 17.36m-4.8-6.78c-1.27 0-2.56-.03-3.83-.09-.13-.22-.26-.45-.39-.68 1.39.07 2.81.11 4.2.11.4 0 .8 0 1.21-.01.27.22.54.44.83.64-.67.03-1.34.03-2.02.03m-2.51-6.24c-1.26-.08-2.5-.19-3.74-.32-.05-.22-.1-.45-.14-.67 1.21.13 2.43.23 3.65.32.07.23.15.45.23.67m-4.68-6.55c-.02-.22-.05-.43-.07-.65 1.01-.14 2.03-.26 3.04-.38.03.21.06.43.1.65-1.02.12-2.05.24-3.07.38m-.78-6.64l-.06-.65c1.08-.13 2.16-.24 3.25-.33.01.22.01.44.02.66-1.07.09-2.14.2-3.21.32m.16-7.8c.08-.24.17-.49.26-.7.95-.11 2.07-.2 3.02-.27l-.06.66c-1.02.07-2.04.18-3.06.3"
           id="path21"
           fill="#982823"
           fill-opacity=".5"
           stroke="#982823"
           stroke-opacity="1"
           style="fill:#982823;fill-opacity:1" /></g></g><g
       id="g37"
       style="fill:#982823;fill-opacity:1"><g
         id="g35"
         fill="#982823"
         fill-opacity=".5"
         stroke="#982823"
         stroke-opacity="1"
         style="fill:#982823;fill-opacity:1"><path
           class="st1"
           d="M193.69 185.39c-.57 5.65-1.3 12.33-5.48 16.52-5.4 5.4-17.35 8.66-24.45 5.61-7.75-3.33-14.08-12.68-18.35-19.67.63-4.33 1.71-7.86 4.19-10.91.77-.75 4.12-5.12 4.12-5.12 5.74-5.23 6.64-9.52 18.37-9.62 12.65-.1 17.17 1.83 21.51 8.54 2.2 3.42.46 10.92.09 14.65"
           id="path27"
           fill="#982823"
           fill-opacity=".5"
           stroke="#982823"
           stroke-opacity="1"
           style="fill:#982823;fill-opacity:1" /><path
           class="st2"
           d="M184.35 199.43a78.9 78.9 0 01-31.56-7.45c-.3-.37-.58-.76-.85-1.14 10.28 5.05 21.63 7.78 33.24 7.96-.27.21-.55.43-.83.63m-2.29-5.99c-10.06 0-20.56-1.47-31.25-4.36-.16-.27-.31-.54-.46-.82 10.86 2.99 21.52 4.52 31.73 4.52 2.35 0 4.7-.08 7.03-.24-.07.23-.15.45-.23.67-2.26.15-4.54.23-6.82.23m-32.21-6.15c-.1-.2-.19-.41-.29-.62 8.01-1.32 16.11-2 24.17-2 5.59 0 11.25.32 16.85.96-.03.21-.06.43-.1.65-5.58-.64-11.2-.96-16.76-.96-7.94 0-15.95.67-23.87 1.97m-.42-.94c-.09-.2-.17-.4-.25-.6 11.52-4.64 23.24-7 34.89-7 2.36 0 4.74.1 7.09.29-.01.22-.01.44-.02.66-2.34-.19-4.7-.29-7.05-.29-11.59-.01-23.23 2.33-34.66 6.94m-.55-1.37c-.08-.22-.16-.44-.23-.67 10.43-8.56 23.63-13.24 37.67-13.24 1.52 0 3.05.06 4.57.17l.06.66c-1.54-.11-3.08-.17-4.61-.17-13.98 0-27.11 4.68-37.46 13.25m-.4-1.23c-.08-.26-.15-.52-.22-.78 9.21-10.8 23.81-17.79 37.9-17.79.26 0 1.8.02 2.06.02.48.21.94.44 1.39.7-.72-.04-2.72-.07-3.43-.07-14.08-.01-28.64 7.05-37.7 17.92"
           id="path29"
           fill="#982823"
           fill-opacity=".5"
           stroke="#982823"
           stroke-opacity="1"
           style="fill:#982823;fill-opacity:1" /><path
           class="st3"
           d="M170.22 208.7c-2.35 0-4.57-.37-6.45-1.17-4.44-1.91-8.34-5.69-11.67-9.88-1.03-1.29-3.32-4.56-3.32-4.56-.98-1.44-1.89-2.87-2.73-4.24 11.36 9.4 21.96 17.12 35.53 17.38-3.55 1.54-7.62 2.47-11.36 2.47m12.65-3.08a.293.293 0 00-.16-.04h-.42v0c-13.23 0-23.63-7.24-34.65-16.27 1.69.95 3.4 1.84 5.15 2.66 1 1.26 2.11 2.43 3.33 3.48 4.38 3.78 10 6.05 15.76 6.64.8.08 1.62.12 2.44.12 3.58 0 7.21-.81 10.02-2.79.67.02 1.35.03 2.02.03 1.27 0 2.56-.03 3.83-.09-.56.92-1.21 1.78-1.98 2.55-1.4 1.41-3.25 2.67-5.34 3.71m3.51-6.82c-.4 0-.8 0-1.21-.01.58-.49 1.12-1.04 1.6-1.65.93-1.18 1.6-2.52 2.11-3.93 1.26-.08 2.5-.19 3.74-.32-.45 2.03-1.08 4.01-2.04 5.79-1.39.08-2.8.12-4.2.12m2.73-6.26c.37-1.13.64-2.3.88-3.46.19-.93.36-1.87.5-2.81 1.03.12 2.05.24 3.07.38-.19 1.81-.42 3.71-.8 5.56-1.2.14-2.42.25-3.65.33m-37.17-1.71a81.86 81.86 0 01-5.45-2.95l.08-.01c1.42.43 2.83.84 4.24 1.22.35.59.73 1.17 1.13 1.74m-1.59-2.57c-.78-.21-1.55-.44-2.33-.66.61-.11 1.22-.21 1.84-.31.15.32.32.65.49.97m-2.35-1.33c.47-.2.95-.39 1.42-.58.05.11.09.21.14.32-.51.08-1.04.17-1.56.26m-1.09-.24c.65-.59 1.3-1.16 1.97-1.71.09.26.19.51.29.77-.75.3-1.51.62-2.26.94m46.72-.68c-1.01-.14-2.03-.26-3.04-.38.28-1.97.46-3.95.54-5.94 1.07.09 2.14.2 3.21.33-.2 1.98-.49 3.85-.63 5.24 0 .04-.01.08-.01.12l-.03.3c-.02.12-.03.22-.04.33m-46.87-.06c.55-.75 1.12-1.48 1.72-2.2l.18.57c-.65.52-1.28 1.07-1.9 1.63m-1.07.27c.02-.07.25-1.03.27-1.09.42-1.53 1.13-3.09 1.81-4.44.11.61.33 1.67.49 2.27-.74.87-1.27 1.52-1.94 2.43m48.08-6.01a87.18 87.18 0 00-3.25-.33c.07-2.38.01-4.77-.2-7.14 1.02.07 2.25.2 3.27.32.19.59.32 1.23.4 1.92.06.53-.07 1.51-.08 2.09 0 1.02-.05 2.09-.14 3.14m-.21-7.82c-.95-.11-2.34-.25-3.3-.32-.13-1.3-.23-3.13-.44-4.42 1.09.94 2.29 2.3 3.19 3.69.14.22.17.24.28.49z"
           id="path31"
           fill="#982823"
           fill-opacity=".5"
           stroke="#982823"
           stroke-opacity="1"
           style="fill:#982823;fill-opacity:1" /><path
           class="st4"
           d="M181.57 206.23c-13.57-.26-24.18-7.99-35.53-17.38-.14-.22-.28-.37-.41-.66-.19-.44-.18-1.39-.08-1.77.67-.92 1.96-2.58 2.7-3.45.07.26.14.52.22.78-.6.72-1.17 1.45-1.72 2.2.62-.56 1.26-1.1 1.9-1.63.07.22.15.45.23.67-.67.55-1.33 1.13-1.97 1.71.76-.32 1.51-.64 2.27-.94.08.2.16.4.25.6-.47.19-.95.39-1.42.58l1.56-.27c.09.21.19.41.29.62-.61.1-1.22.2-1.84.31.78.23 1.56.45 2.33.66.15.28.3.55.46.82-1.41-.38-2.82-.79-4.24-1.22l-.08.01c1.78 1.06 3.6 2.04 5.45 2.95.27.39.56.77.85 1.14a75.89 75.89 0 01-5.15-2.66c11.01 9.03 21.42 16.27 34.65 16.27v0h.42c.06 0 .12.01.16.04-.29.14-.57.28-.87.41-.14.08-.29.15-.43.21m4.8-6.78c-.68 0-1.35-.01-2.02-.03.29-.2.56-.41.83-.64.4.01.8.01 1.21.01 1.4 0 2.81-.04 4.2-.11-.12.23-.25.45-.39.68-1.27.06-2.56.09-3.83.09m2.51-6.24c.08-.22.16-.45.23-.67 1.23-.08 2.45-.19 3.65-.32-.05.22-.09.45-.14.67-1.23.14-2.48.24-3.74.32m4.68-6.55c-1.02-.14-2.05-.27-3.07-.38.03-.22.06-.43.1-.65 1.02.12 2.03.24 3.04.38-.02.22-.04.43-.07.65m.78-6.64c-1.06-.13-2.13-.24-3.21-.33.01-.22.02-.44.02-.66 1.09.09 2.17.2 3.25.33l-.06.66m-.32-7.82c-1.02-.12-2.04-.22-3.06-.3l-.06-.66c.96.07 2.07.16 3.02.27.1.22.19.47.26.7"
           id="path33"
           fill="#982823"
           fill-opacity=".5"
           stroke="#982823"
           stroke-opacity="1"
           style="fill:#982823;fill-opacity:1" /></g></g></g><g
     id="Serratus_Anterior_00000062192938803730653590000015057121707790670772_"
     transform="translate(-119.516 -111.985)"
     fill="#982823"
     fill-opacity=".5"
     stroke="#982823"
     stroke-width=".3"
     stroke-miterlimit="4"
     stroke-dasharray="none"
     stroke-opacity="1"
     style="fill:#982823;fill-opacity:1"><path
       class="st0"
       d="M184.03 219.52c.01 1.37-.54 2.62-1.01 3.86-.18.46-.17 1.01-.74.93-.48-.07-.97-.58-1.3-.9-.48-.48-.98-.94-1.49-1.4-.78-.72-1.66-1.38-2.36-2.17-1.92-2.14-3.65-4.59-5.06-7.07 2-.23 3.98-.71 5.86-1.38l.08.1c3.17 1.64 5.97 4.45 6.02 8.03z"
       id="path4"
       fill="#982823"
       fill-opacity=".5"
       stroke="#982823"
       stroke-width=".3"
       stroke-miterlimit="4"
       stroke-dasharray="none"
       stroke-opacity="1"
       style="fill:#982823;fill-opacity:1" /><path
       class="st0"
       d="M177.12 220.75c-3.3-.47-6.3-1.87-8.83-4.11l-.02-.01c.06-1.2.18-2.5.42-3.68.93 0 1.85-.03 2.75-.12 1.2 2.1 2.59 4.22 4.13 6.11.5.61 1.01 1.22 1.55 1.81z"
       id="path6"
       fill="#982823"
       fill-opacity=".5"
       stroke="#982823"
       stroke-width=".3"
       stroke-miterlimit="4"
       stroke-dasharray="none"
       stroke-opacity="1"
       style="fill:#982823;fill-opacity:1" /><path
       class="st0"
       d="M182.72 234.76c-.66 4.29-3.58-1.07-4.71-2.76-2.18-3.27-3.59-7.32-4.06-11.35 1.23.43 2.53.71 3.86.85.29.3.59.6.88.9.56.55 1.13 1.1 1.71 1.61.5.46 1.02 1.34 1.75 1.48l.01.01c2.15 2.4.97 6.51.56 9.26z"
       id="path8"
       fill="#982823"
       fill-opacity=".5"
       stroke="#982823"
       stroke-width=".3"
       stroke-miterlimit="4"
       stroke-dasharray="none"
       stroke-opacity="1"
       style="fill:#982823;fill-opacity:1" /><path
       class="st0"
       d="M175.23 227.91c-2.42-.75-4.57-2.13-6.27-4.02-.53-2.14-.76-4.31-.72-6.47 1.53 1.3 3.21 2.29 5.02 2.99.29 2.56.96 5.1 1.97 7.5z"
       id="path10"
       fill="#982823"
       fill-opacity=".5"
       stroke="#982823"
       stroke-width=".3"
       stroke-miterlimit="4"
       stroke-dasharray="none"
       stroke-opacity="1"
       style="fill:#982823;fill-opacity:1" /><path
       class="st0"
       d="M182.06 245.99c-1.14.62-2.1-.54-2.88-1.22-.65-.58-1.16-1.25-1.68-1.96-2.76-3.83-3.27-9.97-3.14-14.54.38.15.77.27 1.18.37 1.57 3.5 3.82 6.68 6.58 9.13.18 1.65.39 3.28.56 4.94.08.93.42 2.72-.62 3.28z"
       id="path12"
       fill="#982823"
       fill-opacity=".5"
       stroke="#982823"
       stroke-width=".3"
       stroke-miterlimit="4"
       stroke-dasharray="none"
       stroke-opacity="1"
       style="fill:#982823;fill-opacity:1" /><path
       class="st0"
       d="M172.68 234.2v-.01c-.41-1.3-1-2.88-1.65-4.57 0 0-.47-1.23-.63-1.66-.35-.92-.71-1.84-1.04-2.75a14.64 14.64 0 004.36 2.82l-.01.07c-.07 2.44.04 5.13.51 7.72-.53-.51-1.05-1.05-1.54-1.62z"
       id="path14"
       fill="#982823"
       fill-opacity=".5"
       stroke="#982823"
       stroke-width=".3"
       stroke-miterlimit="4"
       stroke-dasharray="none"
       stroke-opacity="1"
       style="fill:#982823;fill-opacity:1" /><path
       class="st0"
       d="M182.92 256.11c-1.76.79-2.83-.71-3.75-1.92-2.92-3.84-4.89-8.31-5.71-13.03v-.02c-.02-2.41-.09-4.17-.21-4.86-.03-.2-.09-.43-.16-.66.44.45.9.88 1.38 1.29.84 3.68 2.5 7.11 5.52 9.27 1.02.73 1.76.94 2.28.79.15.41.29.88.32.97.2.63.37 1.28.49 1.92.25 1.3.37 2.61.56 3.92.14.86.21 1.91-.72 2.33z"
       id="path16"
       fill="#982823"
       fill-opacity=".5"
       stroke="#982823"
       stroke-width=".3"
       stroke-miterlimit="4"
       stroke-dasharray="none"
       stroke-opacity="1"
       style="fill:#982823;fill-opacity:1" /><path
       class="st0"
       d="M183.25 264.24c.11.87-.43 2.24-1.49 2.09-.53-.07-1.15-.35-1.61-.64-2.79-1.71-5.07-4.18-6.81-6.95v-.01c.08-4.91.16-10.28.15-14.57a34.63 34.63 0 002.51 6.27c1.12 2.16 3.47 6.65 6.14 7.39.4.11.75.11 1.02.02.1 1.22.17 2.45.18 3.68 0 .9-.05 1.81-.09 2.72z"
       id="path18"
       fill="#982823"
       fill-opacity=".5"
       stroke="#982823"
       stroke-width=".3"
       stroke-miterlimit="4"
       stroke-dasharray="none"
       stroke-opacity="1"
       style="fill:#982823;fill-opacity:1" /><path
       class="st0"
       d="M231.77 219.54c-.05 1.37.54 2.62 1.01 3.86.18.46.3 1.07.87 1 .48-.07 1.03-.66 1.35-.98.48-.48.99-.94 1.49-1.4.78-.72 1.66-1.38 2.36-2.17 1.93-2.14 3.84-5 5.25-7.49-2-.24-4.15-.52-6.03-1.19l-.18.05c-3.16 1.64-5.97 4.36-6.12 8.32z"
       id="path20"
       fill="#982823"
       fill-opacity=".5"
       stroke="#982823"
       stroke-width=".3"
       stroke-miterlimit="4"
       stroke-dasharray="none"
       stroke-opacity="1"
       style="fill:#982823;fill-opacity:1" /><path
       class="st0"
       d="M238.31 220.97c3.3-.47 6.87-2.08 9.4-4.32l.02-.01c-.06-1.2-.03-2.84-.26-4.03-.93 0-2.04-.15-2.95-.24-1.2 2.1-6.21 8.6-6.21 8.6z"
       id="path22"
       fill="#982823"
       fill-opacity=".5"
       stroke="#982823"
       stroke-width=".3"
       stroke-miterlimit="4"
       stroke-dasharray="none"
       stroke-opacity="1"
       style="fill:#982823;fill-opacity:1" /><path
       class="st0"
       d="M233.19 235.04c.66 4.29 3.66-1.33 4.79-3.03 2.18-3.27 3.6-7.32 4.07-11.36-1.23.43-2.73.5-4.07.65-.29.3-.59.6-.88.9-.56.55-1.13 1.1-1.71 1.61-.5.46-.82 1.13-1.54 1.26l-.25.27c-2.15 2.41-.87 6.69-.46 9.44z"
       id="path24"
       fill="#982823"
       fill-opacity=".5"
       stroke="#982823"
       stroke-width=".3"
       stroke-miterlimit="4"
       stroke-dasharray="none"
       stroke-opacity="1"
       style="fill:#982823;fill-opacity:1" /><path
       class="st0"
       d="M240.88 227.93c2.42-.75 4.82-2.3 6.52-4.19.53-2.14.5-4.37.46-6.53-1.53 1.3-3.45 2.39-5.26 3.08-.28 2.55-1.11 5.23-2.12 7.64z"
       id="path26"
       fill="#982823"
       fill-opacity=".5"
       stroke="#982823"
       stroke-width=".3"
       stroke-miterlimit="4"
       stroke-dasharray="none"
       stroke-opacity="1"
       style="fill:#982823;fill-opacity:1" /><path
       class="st0"
       d="M233.88 246.14c1.14.62 2.15-.66 2.93-1.34.65-.58 1.16-1.25 1.68-1.96 2.77-3.83 3.27-10.38 3.15-14.95-.38.15-.77.27-1.18.37-1.57 3.51-4.02 6.69-6.79 9.14-.18 1.65-.39 3.69-.56 5.34-.09.93-.4 2.72.65 3.28z"
       id="path28"
       fill="#982823"
       fill-opacity=".5"
       stroke="#982823"
       stroke-width=".3"
       stroke-miterlimit="4"
       stroke-dasharray="none"
       stroke-opacity="1"
       style="fill:#982823;fill-opacity:1" /><path
       class="st0"
       d="M243.27 234.22l.58-.71c.41-1.3 1.61-4.48 1.61-4.48l1.79-4.8c-1.29 1.2-2.87 2.38-4.48 3.05l-.7.44c.07 2.44 0 5.52-.47 8.12.55-.52.93-.82 1.42-1.39z"
       id="path30"
       fill="#982823"
       fill-opacity=".5"
       stroke="#982823"
       stroke-width=".3"
       stroke-miterlimit="4"
       stroke-dasharray="none"
       stroke-opacity="1"
       style="fill:#982823;fill-opacity:1" /><path
       class="st0"
       d="M232.86 256.35c1.76.8 3.04-.91 3.95-2.13 2.92-3.84 4.88-7.88 5.7-12.59l.5-2.19c.02-2.41-.03-2.91.09-3.59.03-.2.22-.87.29-1.11-.44.45-1.6 1.38-2.08 1.79-.84 3.68-2.35 7-5.37 9.16-1.02.73-1.83.98-2.36.83-.15.41-.37 1.36-.4 1.45-.2.63-.37 1.28-.49 1.93-.25 1.3-.37 2.61-.56 3.92-.13.85 0 2.11.93 2.53z"
       id="path32"
       fill="#982823"
       fill-opacity=".5"
       stroke="#982823"
       stroke-width=".3"
       stroke-miterlimit="4"
       stroke-dasharray="none"
       stroke-opacity="1"
       style="fill:#982823;fill-opacity:1" /><path
       class="st0"
       d="M232.74 264.24c-.11.87.43 2.24 1.49 2.09.53-.07 1.15-.35 1.61-.64 2.79-1.71 5.01-3.89 7.16-7.39 0 0-.22-11.7-.21-15.99-.62 2.15-1.74 5.67-2.79 7.71-1.12 2.16-3.47 6.65-6.14 7.39-.4.11-.75.11-1.02.02-.1 1.22-.17 2.86-.18 4.09-.01.9.04 1.81.08 2.72z"
       id="path34"
       fill="#982823"
       fill-opacity=".5"
       stroke="#982823"
       stroke-width=".3"
       stroke-miterlimit="4"
       stroke-dasharray="none"
       stroke-opacity="1"
       style="fill:#982823;fill-opacity:1" /></g></svg>
