<svg viewBox="0 0 122.21 212.203" width="256" height="256" xmlns="http://www.w3.org/2000/svg"><g fill="#928374" fill-opacity=".5"><path d="M116.966 212.203a6.659 6.659 0 01-6.61-5.927l-3.877-46.773c0-7.754 4.79-13.918 10.717-13.918h.46c5.927 0 10.724 6.164 10.724 13.918l-1.373 12.55-3.417 34.216c-.46 3.424-3.2 5.934-6.624 5.934z"/><path d="M129.064 169.313l.906-9.81c0-7.754-4.79-15.515-12.774-15.515-6.84 0-12.32 7.07-12.32 15.515l1.143 13.917-56.578 7.07a22.927 22.927 0 00-10.724 4.108l-15.061 10.264c-2.05 1.366-4.56 2.51-7.07 3.193l-53.614 12.551a6.659 6.659 0 01-7.754-4.79c-.906-3.424 1.144-6.847 4.56-7.99l57.498-16.652h.223l23.728-20.988c3.194-2.74 7.07-4.79 11.178-5.474l67.985-14.378c3.2-.683 6.394 0 9.357 2.057 8.897 6.387 8.897 21.895-.683 26.915z"/><path d="M153.468 165.436a15.096 15.096 0 01-16.197-16.204c.683-7.3 6.387-13.228 13.694-13.688a15.096 15.096 0 0116.198 16.198c-.69 7.3-6.624 13.234-13.695 13.694z"/></g></svg>