<?xml version="1.0" encoding="UTF-8" standalone="no"?>
<svg
   version="1.1"
   id="Layer_1"
   x="0"
   y="0"
   xml:space="preserve"
   width="181.286"
   height="212.906"
   sodipodi:docname="seated-cable-row-today.svg"
   inkscape:version="1.1.2 (0a00cf5339, 2022-02-04)"
   xmlns:inkscape="http://www.inkscape.org/namespaces/inkscape"
   xmlns:sodipodi="http://sodipodi.sourceforge.net/DTD/sodipodi-0.dtd"
   xmlns="http://www.w3.org/2000/svg"
   xmlns:svg="http://www.w3.org/2000/svg"><sodipodi:namedview
     id="namedview1680"
     pagecolor="#ffffff"
     bordercolor="#666666"
     borderopacity="1.0"
     inkscape:pageshadow="2"
     inkscape:pageopacity="0.0"
     inkscape:pagecheckerboard="0"
     showgrid="false"
     inkscape:zoom="2.973143"
     inkscape:cx="-35.484334"
     inkscape:cy="136.724"
     inkscape:window-width="1920"
     inkscape:window-height="1020"
     inkscape:window-x="0"
     inkscape:window-y="32"
     inkscape:window-maximized="1"
     inkscape:current-layer="Layer_1" /><defs
     id="defs13"><clipPath
       clipPathUnits="userSpaceOnUse"
       id="clipPath1419"><path
         id="rect1421"
         fill="#fb4934"
         fill-opacity="1"
         stroke="#982823"
         stroke-width=".304"
         stroke-linecap="round"
         stroke-linejoin="round"
         stroke-miterlimit="4"
         stroke-dasharray="none"
         stroke-opacity="1"
         d="M97.874 371.434H328.99V595.13H97.874z" /></clipPath></defs><style
     type="text/css"
     id="style2">.st0{display:none;opacity:.5;fill:none;stroke:#a89984;stroke-width:.05;stroke-miterlimit:10}.st1{fill:#928374}</style><path
     class="st0"
     d="M294.985 73.486c-2.94 1.51-8.31 5.17-9.04 17.27"
     id="path4" /><style
     type="text/css"
     id="style958">.st0{display:none;opacity:.5;fill:none;stroke:#231f20;stroke-width:.05;stroke-miterlimit:10}.st1{fill:#e92a2a}.st2{fill:#d52626}.st3{fill:#9a1a1c}.st4{fill:#8d1819}</style><style
     type="text/css"
     id="style1013">.st0{display:none;opacity:.5;fill:none;stroke:#231f20;stroke-width:.05;stroke-miterlimit:10}.st1{fill:#e92a2a}.st2{fill:#d52626}.st3{fill:#9a1a1c}.st4{fill:#8d1819}</style><g
     id="White_00000008146272988381087930000002203879022052071609_"
     transform="translate(-123.455 -99.434)"
     fill="#928374"
     fill-opacity=".5"
     style="fill:#7c6f64;fill-opacity:1"><path
       class="st1"
       d="M301.09 264.91v-8.77c0-8.56-6.4-17.88-7.3-19.15-.09-1.64-.8-14.09-2.01-19.98-1.14-5.55-3.18-10.87-3.6-11.94.32-.94 1.71-5.16 2.51-10.29.92-5.91-3.09-20.42-5.5-26.54-1.6-4.06-4.94-5.6-7.62-6.84-1.45-.67-2.7-1.25-3.41-2.07-1.81-2.11-3.61-2.69-5.2-3.2-.42-.13-.82-.26-1.21-.42-.61-.24-1.15-.73-1.97-1.48-1.39-1.26-3.49-3.17-7.99-5.78-2.6-1.51-6.45-3.27-10.53-5.14-6.11-2.8-13.04-5.97-14.66-7.97-.66-.81-1.61-3.55-2.48-6.41.5-.98 1.86-3.67 1.98-4.08.53-1.82.58-4.31.56-5.82.3.14.67.22 1.11.17 1.5-.18 2.91-2.52 4.59-5.56.47-.85.92-1.66 1.26-2.14 1.46-2.08 1.14-6.58.07-9.96-.31-.98-.84-1.55-1.57-1.69-1-.18-2.1.58-2.89 1.3.15-4.2.09-16.03-4.76-21.86-4.18-5.02-12.54-6.26-15.71-6.56h-1.25c-3.17.3-11.53 1.55-15.71 6.56-4.85 5.83-4.91 17.65-4.76 21.86-.79-.72-1.88-1.48-2.89-1.3-.73.13-1.26.7-1.57 1.69-1.06 3.37-1.38 7.88.07 9.96.34.49.79 1.29 1.26 2.14 1.68 3.04 3.09 5.38 4.59 5.56.44.06.81-.03 1.11-.17-.02 1.51.04 4 .56 5.82.12.41 1.46 3.06 1.96 4.06-.87 2.87-1.83 5.61-2.49 6.43-1.62 2-8.55 5.17-14.66 7.97-4.08 1.87-7.94 3.64-10.53 5.14-4.5 2.61-6.6 4.52-7.99 5.78-.82.74-1.36 1.24-1.97 1.48-.39.16-.79.28-1.21.42-1.59.51-3.39 1.09-5.2 3.2-.71.83-1.96 1.4-3.41 2.07-2.68 1.24-6.02 2.77-7.62 6.84-2.41 6.12-6.42 20.63-5.5 26.54.8 5.14 2.19 9.35 2.51 10.29-.42 1.07-2.46 6.39-3.6 11.94-1.21 5.88-1.92 18.34-2.01 19.98-.9 1.27-7.3 10.59-7.3 19.15v8.77c-.61.99-3.78 6.71-3.1 17.88.26 4.28.74 8.23 1.25 12.41.9 7.44 2.74 15.14 2.39 25.1-.54 15.19-.41 28.19 1.48 33.96.81 2.49 5.22 14.98 5.42 15.51 0 0 .18.57.73.4.03-.01 2.81-.8 3.11-4.45l1.15 1.18c.2.21.55.18.72-.05l.05-.08c.09-.12 1.38-1.97 1.78-4.27.82-1.25 2.48-4.46.47-7.52-.83-1.27-3.82-4.34-4.52-5.05-.05-.63-.25-2.61-.79-4.75-.46-2.61-.19-4.55.39-5.89.17-.32.34-.64.54-.96.45-.63.99-1.04 1.49-1.23.13-.05.2-.03.28.02 1.17.75 1.45 2.77 1.73 4.91.27 2 .63 4.03 1.57 5.68 1.16 2.04 4.47 2.81 4.9-1.08.31-2.77.3-6.18.29-7.62l-.08-1.46c-.31-5.56-.52-8.39-3.5-13.25-1.31-2.13-1.33-3.31-.51-11.58.4-4.03 2.99-10.59 5.62-17.55 3-7.95 6.11-16.17 6.31-20.94.31-7.39-.67-11.06-1.02-12.12.62-.75 2.36-3.06 2.83-6.05.55-3.47.38-9.51.36-9.66.02-.1 1.84-10.52 4.85-15.3 2.22-3.52 5.21-9.79 6.68-13.51.81 3.7 1.54 6.7 2 8.1.74 2.23 1.69 4.7 2.6 7.1 1.3 3.42 2.53 6.64 2.85 8.33.31 1.65.39 10.04.25 24.92-.01.78-.01 1.29-.01 1.44-.03.28-.66 1.4-1.22 2.38-1.89 3.34-5.05 8.93-4.47 13.66.65 5.27 1.45 7.47 1.74 8.13-.6 1.9-5 16.31-4.33 26.71.24 3.63-1.19 9.28-2.99 16.44-2.32 9.23-5.22 20.72-6.2 33.98-1.45 19.62 2.68 51.84 4.23 63.97.33 2.6.55 4.31.58 4.83.08 1.28-.04 2.16-.18 3.19-.19 1.39-.4 2.97-.19 5.93.05.67.21 1.47.45 2.36-1.09 2.83-2.09 5.65-2.96 8.26-7.26 16.33-4.03 33.68-.91 50.46.68 3.64 1.38 7.4 1.96 11.08l.1.85c.74 6.62 1.5 13.47-.15 19.74-.84 3.17-1.72 5.02-2.36 6.18l-.01.01a.26.26 0 00-.09.17c-.15.26-.29.49-.41.68-.12.19-.21.35-.29.49-.66 1.19-.67 2.56-.38 3.88-.2.51-1.63 4.13-5.29 6.2-3.44 1.95-6.51 3.24-7.61 3.79-2.57-.42-5.59.37-6.2 1.03-.46.49-.93 1.26-.93 3.18 0 1.85 2.23 2.7 3.22 2.98 0 .66.16 1.88 1.07 3.29 1.3 2.02 9.35 4.56 12.75 5.56 1.16.34 3.4 1.88 5.38 3.24 1.86 1.28 3.62 2.49 4.7 2.9 1.1.41 3.43.81 6.15.81 3.34 0 7.29-.6 10.33-2.5 5.75-3.59 1.79-18.51 1.62-19.15-.2-.74-.42-1.57-.65-2.43-.72-2.7-1.53-5.75-2.35-8.23.03-.94.52-1.92 1.04-2.95.57-1.13 1.15-2.3 1.15-3.53l-.02-.15c-5.2-18.71 2.52-36.3 9.99-53.31l.95-2.2c.36-1.44.85-2.91 1.33-4.33.97-2.91 1.97-5.92 1.97-8.98-.46-4.17-1.67-8.24-2.96-12.56-.76-2.56-1.78-6.34-2.69-9.77 4.44-6.76 8.35-15.37 9.29-20.49.7-3.82 1.31-11.04 2.01-19.41.62-7.39 1.33-15.77 2.18-22.46 1.06-8.26 3.25-17.58 5-25.07 1.2-5.12 2.24-9.55 2.58-12.21.75-5.9-.34-12.83-.59-14.27.68-2.12.98-4.52 1.04-6.97.06 2.45.35 4.86 1.04 6.97-.25 1.44-1.34 8.37-.59 14.27.34 2.67 1.38 7.09 2.58 12.21 1.76 7.49 3.94 16.81 5 25.07.86 6.69 1.56 15.06 2.19 22.46.7 8.37 1.31 15.59 2.01 19.41.94 5.11 4.83 13.7 9.27 20.46-.95 3.58-1.99 7.47-2.68 9.8-1.28 4.31-2.49 8.39-2.96 12.56 0 3.07 1 6.07 1.97 8.98.47 1.42.97 2.9 1.33 4.33l.95 2.2c7.47 17.01 15.19 34.6 9.99 53.31l-.02.15c0 1.22.58 2.39 1.15 3.53.52 1.04 1.01 2.01 1.04 2.95-.82 2.48-1.63 5.53-2.35 8.23-.23.87-.45 1.69-.65 2.43-.17.64-4.12 15.56 1.62 19.15 3.04 1.9 6.99 2.5 10.33 2.5 2.73 0 5.05-.4 6.15-.81 1.08-.4 2.84-1.61 4.7-2.9 1.98-1.36 4.22-2.9 5.38-3.24 3.4-1 11.45-3.54 12.75-5.56.91-1.41 1.06-2.63 1.07-3.29.99-.29 3.22-1.13 3.22-2.98 0-1.92-.47-2.68-.93-3.18-.61-.65-3.62-1.44-6.2-1.03-1.1-.55-4.17-1.84-7.61-3.79-3.66-2.07-5.09-5.69-5.29-6.2.28-1.32.28-2.69-.38-3.88-.08-.14-.17-.3-.29-.49-.12-.19-.26-.42-.41-.68a.26.26 0 00-.09-.17l-.01-.01c-.65-1.15-1.53-3.01-2.36-6.18-1.65-6.27-.89-13.11-.15-19.74l.1-.85c.58-3.68 1.28-7.44 1.96-11.08 3.12-16.78 6.35-34.13-.91-50.46-.87-2.61-1.86-5.42-2.95-8.24.25-.9.41-1.7.46-2.38.21-2.96 0-4.54-.18-5.93-.14-1.02-.25-1.91-.18-3.19.03-.52.25-2.24.58-4.83 1.55-12.13 5.68-44.35 4.23-63.97-.98-13.26-3.87-24.75-6.2-33.98-1.8-7.16-3.23-12.82-2.99-16.44.68-10.39-3.73-24.81-4.33-26.71.29-.66 1.09-2.86 1.74-8.13.58-4.72-2.58-10.31-4.47-13.66-.56-.98-1.19-2.1-1.21-2.38 0-.15 0-.67-.01-1.44-.15-14.88-.06-23.27.25-24.92.32-1.69 1.55-4.91 2.85-8.33.91-2.39 1.86-4.87 2.6-7.1.47-1.4 1.18-4.39 2-8.07 1.47 3.73 4.45 9.97 6.66 13.48 3.01 4.77 4.83 15.19 4.85 15.3-.01.15-.19 6.18.36 9.66.47 2.99 2.21 5.3 2.83 6.05-.35 1.06-1.32 4.73-1.02 12.12.2 4.77 3.31 12.99 6.31 20.94 2.63 6.96 5.21 13.53 5.62 17.55.82 8.27.8 9.45-.51 11.58-2.99 4.86-3.19 7.69-3.5 13.25l-.08 1.46c-.01 1.45-.02 4.85.29 7.62.43 3.9 3.74 3.12 4.9 1.08.94-1.66 1.3-3.68 1.57-5.68.29-2.14.56-4.16 1.73-4.91.08-.05.15-.07.28-.02.51.19 1.04.6 1.49 1.23.19.32.37.64.54.96.59 1.34.86 3.28.39 5.89a31.08 31.08 0 00-.79 4.75c-.7.71-3.69 3.78-4.52 5.05-2.01 3.06-.35 6.27.47 7.52.4 2.3 1.69 4.15 1.78 4.27l.05.08c.17.24.51.26.72.05l1.15-1.18c.3 3.65 3.08 4.44 3.11 4.45.55.17.73-.4.73-.4.2-.53 4.6-13.02 5.42-15.51 1.88-5.78 2.02-18.78 1.48-33.96-.35-9.96 1.49-17.66 2.39-25.1.51-4.18.99-8.12 1.25-12.41.72-11.17-2.45-16.89-3.06-17.88z"
       id="path6"
       fill="#928374"
       fill-opacity=".5"
       style="fill:#7c6f64;fill-opacity:1" /></g><path
     id="Outline_black_00000012467778204523605170000009782990369117439880_"
     d="M177.635 165.476v-8.77c0-8.56-6.4-17.88-7.3-19.15-.09-1.64-.8-14.09-2.01-19.98-1.14-5.55-3.18-10.87-3.6-11.94.32-.94 1.71-5.16 2.51-10.29.92-5.91-3.09-20.42-5.5-26.54-1.6-4.06-4.94-5.6-7.62-6.84-1.45-.67-2.7-1.25-3.41-2.07-1.81-2.11-3.61-2.69-5.2-3.2-.42-.13-.82-.26-1.21-.42-.61-.24-1.15-.73-1.97-1.48-1.39-1.26-3.49-3.17-7.99-5.78-2.6-1.51-6.45-3.27-10.53-5.14-6.11-2.8-13.04-5.97-14.66-7.97-.66-.81-1.61-3.55-2.48-6.41.5-.98 1.86-3.67 1.98-4.08.53-1.82.58-4.31.56-5.82.3.14.67.22 1.11.17 1.5-.18 2.91-2.52 4.59-5.56.47-.85.92-1.66 1.26-2.14 1.46-2.08 1.14-6.58.07-9.96-.31-.98-.84-1.55-1.57-1.69-1-.18-2.1.58-2.89 1.3.15-4.2.09-16.03-4.76-21.86-4.18-5.02-12.54-6.26-15.71-6.56h-1.25c-3.17.3-11.53 1.55-15.71 6.56-4.86 5.83-4.91 17.65-4.76 21.86-.79-.72-1.88-1.48-2.89-1.3-.73.13-1.26.7-1.57 1.69-1.06 3.37-1.38 7.88.07 9.96.34.49.79 1.29 1.26 2.14 1.68 3.04 3.09 5.38 4.59 5.56.44.05.81-.03 1.11-.17-.02 1.51.04 4 .56 5.82.12.41 1.46 3.06 1.96 4.06-.87 2.87-1.83 5.61-2.49 6.43-1.62 2-8.55 5.17-14.66 7.97-4.08 1.87-7.94 3.64-10.53 5.14-4.49 2.61-6.6 4.52-7.99 5.78-.82.74-1.36 1.24-1.97 1.48-.39.16-.79.28-1.21.42-1.59.51-3.39 1.09-5.2 3.2-.71.83-1.96 1.4-3.41 2.07-2.68 1.24-6.02 2.77-7.62 6.84-2.41 6.12-6.42 20.63-5.5 26.54.8 5.14 2.19 9.35 2.51 10.29-.42 1.07-2.46 6.39-3.6 11.94-1.21 5.88-1.92 18.34-2.01 19.98-.9 1.27-7.3 10.59-7.3 19.15v8.77c-.61.99-3.78 6.71-3.1 17.88.26 4.28.74 8.23 1.25 12.41.9 7.44 2.74 15.14 2.39 25.1-.54 15.19-.41 28.19 1.48 33.96.81 2.49 5.22 14.98 5.42 15.51 0 0 .18.57.73.4.03-.01 2.81-.8 3.11-4.45l1.15 1.18c.2.21.55.18.72-.05l.05-.08c.09-.12 1.38-1.97 1.78-4.27.82-1.25 2.48-4.46.47-7.52-.83-1.27-3.82-4.34-4.52-5.05-.05-.63-.25-2.61-.79-4.75-.46-2.61-.19-4.55.39-5.89.17-.32.34-.64.54-.96.45-.63.99-1.04 1.49-1.23.13-.05.2-.03.28.02 1.17.75 1.45 2.77 1.73 4.91.27 2 .63 4.03 1.57 5.68 1.16 2.04 4.47 2.81 4.9-1.08.31-2.77.3-6.18.29-7.62l-.08-1.46c-.31-5.56-.52-8.39-3.5-13.25-1.31-2.13-1.33-3.31-.51-11.58.4-4.03 2.99-10.59 5.62-17.55 3-7.95 6.11-16.17 6.31-20.94.31-7.39-.67-11.06-1.02-12.12.62-.75 2.36-3.06 2.83-6.05.55-3.47.38-9.51.36-9.66.02-.1 1.84-10.52 4.85-15.3 2.22-3.52 5.21-9.79 6.68-13.51.81 3.7 1.54 6.7 2 8.1.74 2.23 1.69 4.7 2.6 7.1 1.3 3.42 2.53 6.64 2.85 8.33.31 1.65.39 10.04.25 24.92-.01.78-.01 1.29-.01 1.44-.03.28-.66 1.4-1.21 2.38-1.89 3.34-5.05 8.93-4.47 13.66.65 5.27 1.45 7.47 1.74 8.13-.6 1.9-5 16.31-4.33 26.71.24 3.63-1.19 9.28-2.99 16.44-2.32 9.23-5.22 20.72-6.2 33.98-1.45 19.62 2.68 51.84 4.23 63.97.33 2.6.55 4.31.58 4.83.08 1.28-.04 2.16-.18 3.19-.19 1.39-.4 2.97-.19 5.93.05.67.21 1.47.45 2.36-1.09 2.83-2.09 5.65-2.96 8.26-7.26 16.33-4.03 33.68-.91 50.46.68 3.64 1.38 7.4 1.96 11.08l.09.85c.74 6.62 1.5 13.47-.15 19.74-.84 3.17-1.72 5.02-2.36 6.18-.01 0-.01.01-.01.01a.26.26 0 00-.09.17c-.15.26-.29.49-.41.68-.12.19-.21.35-.29.49-.66 1.19-.67 2.56-.38 3.88-.2.51-1.63 4.13-5.29 6.2-3.44 1.95-6.51 3.24-7.61 3.79-2.57-.42-5.59.37-6.2 1.03-.46.49-.93 1.26-.93 3.18 0 1.85 2.23 2.7 3.22 2.98 0 .66.16 1.88 1.07 3.29 1.3 2.02 9.35 4.56 12.75 5.56 1.16.34 3.4 1.88 5.38 3.24 1.86 1.28 3.62 2.49 4.7 2.9 1.1.41 3.43.81 6.15.81 3.34 0 7.29-.6 10.33-2.5 5.75-3.59 1.79-18.51 1.62-19.15-.2-.74-.42-1.57-.65-2.43-.72-2.69-1.53-5.75-2.35-8.23.03-.94.52-1.92 1.04-2.95.57-1.13 1.15-2.3 1.15-3.53l-.02-.15c-5.2-18.71 2.52-36.3 9.99-53.31l.95-2.2c.36-1.44.85-2.91 1.33-4.33.97-2.91 1.97-5.92 1.97-8.98-.46-4.17-1.67-8.24-2.96-12.56-.76-2.56-1.78-6.34-2.69-9.77 4.44-6.76 8.35-15.37 9.29-20.49.7-3.82 1.31-11.04 2.01-19.41.62-7.39 1.33-15.77 2.18-22.46 1.06-8.26 3.25-17.58 5-25.07 1.2-5.12 2.24-9.55 2.58-12.21.75-5.9-.34-12.83-.59-14.27.68-2.12.98-4.52 1.04-6.97.06 2.45.35 4.86 1.04 6.97-.25 1.44-1.34 8.37-.59 14.27.34 2.67 1.38 7.09 2.58 12.21 1.76 7.49 3.94 16.81 5 25.07.86 6.69 1.56 15.06 2.19 22.46.7 8.37 1.31 15.59 2.01 19.41.94 5.11 4.83 13.7 9.27 20.46-.95 3.58-1.99 7.47-2.68 9.8-1.28 4.31-2.49 8.39-2.96 12.56 0 3.07 1 6.07 1.97 8.98.47 1.42.97 2.9 1.33 4.33l.95 2.2c7.47 17.01 15.19 34.6 9.99 53.31l-.02.15c0 1.22.58 2.39 1.15 3.53.52 1.04 1.01 2.01 1.04 2.95-.82 2.48-1.63 5.53-2.35 8.23-.23.87-.45 1.69-.65 2.43-.17.64-4.12 15.56 1.62 19.15 3.04 1.9 6.99 2.5 10.33 2.5 2.73 0 5.05-.4 6.15-.81 1.08-.4 2.84-1.61 4.7-2.9 1.98-1.36 4.22-2.9 5.38-3.24 3.4-1 11.45-3.54 12.75-5.56.91-1.41 1.06-2.63 1.07-3.29.99-.29 3.22-1.13 3.22-2.98 0-1.92-.47-2.68-.93-3.18-.61-.65-3.62-1.44-6.2-1.03-1.1-.55-4.17-1.84-7.61-3.79-3.66-2.07-5.09-5.69-5.29-6.2.28-1.32.28-2.68-.38-3.88-.08-.14-.17-.3-.29-.49-.12-.19-.25-.42-.41-.68a.26.26 0 00-.09-.17l-.01-.01c-.65-1.15-1.53-3.01-2.36-6.18-1.65-6.27-.89-13.11-.15-19.74l.09-.85c.58-3.68 1.28-7.44 1.96-11.08 3.12-16.78 6.35-34.13-.91-50.46-.87-2.61-1.86-5.42-2.95-8.24.25-.9.41-1.7.46-2.38.21-2.96 0-4.54-.18-5.93-.14-1.02-.25-1.91-.18-3.19.03-.52.25-2.24.58-4.83 1.55-12.13 5.68-44.35 4.23-63.97-.98-13.26-3.87-24.75-6.2-33.98-1.8-7.16-3.23-12.82-2.99-16.44.68-10.39-3.73-24.81-4.33-26.71.29-.66 1.09-2.86 1.74-8.13.58-4.72-2.58-10.31-4.47-13.66-.56-.98-1.19-2.1-1.21-2.38 0-.15 0-.67-.01-1.44-.15-14.88-.06-23.27.25-24.92.32-1.69 1.55-4.91 2.85-8.33.91-2.39 1.86-4.87 2.6-7.1.47-1.4 1.18-4.39 2-8.07 1.47 3.73 4.45 9.97 6.66 13.48 3.01 4.77 4.83 15.19 4.85 15.3-.01.15-.19 6.18.36 9.66.47 2.99 2.21 5.3 2.83 6.05-.35 1.06-1.32 4.73-1.02 12.12.2 4.77 3.31 12.99 6.31 20.94 2.63 6.96 5.21 13.53 5.61 17.55.82 8.27.8 9.45-.51 11.58-2.99 4.86-3.19 7.69-3.5 13.25l-.08 1.46c-.01 1.45-.02 4.85.29 7.62.43 3.9 3.74 3.12 4.9 1.08.94-1.66 1.3-3.68 1.57-5.68.29-2.14.56-4.16 1.73-4.91.08-.05.15-.07.28-.02.51.19 1.04.6 1.49 1.23.19.32.37.64.54.96.59 1.34.86 3.28.39 5.89a31.08 31.08 0 00-.79 4.75c-.7.71-3.69 3.78-4.52 5.05-2.01 3.06-.35 6.27.47 7.52.4 2.3 1.69 4.15 1.78 4.27l.05.08c.17.24.51.26.72.05l1.15-1.18c.3 3.65 3.08 4.44 3.11 4.45.55.17.73-.4.73-.4.2-.53 4.6-13.02 5.42-15.51 1.88-5.78 2.02-18.78 1.48-33.96-.35-9.96 1.49-17.66 2.39-25.1.51-4.18.99-8.12 1.25-12.41.74-11.17-2.43-16.89-3.04-17.88zm-8.28-27.41c.05.07 3.26 4.54 5.38 10.08l.21.57c.03.09.07.19.1.28.07.19.13.38.2.57.77 2.32 1.31 4.78 1.31 7.14v8.18c-4.14-5.01-10.1-8.89-11.25-15.45 1.5-3.61 2.91-7.65 4.04-11.41zm-18.13-76.34c.72.45 1.56.84 2.43 1.24 2.64 1.21 5.62 2.59 7.06 6.24 2.37 6.02 6.33 20.25 5.44 25.97a64.08 64.08 0 01-2.29 9.57c-2.36-2.57-4.87-5.02-7.77-6.88-4.73-3.01-10.1-4.03-15.01-6.57-7.86-4.06-8.92-16.58-2.25-22.97 3.83-3.64 7.71-5.92 12.39-6.6zm-58.93 38.33c-.34-8.94-2.08-18.63.16-27.44 1.84-7.23 6.3-12.56 12.6-16.06 3.69 2.01 7.84 3.35 12.15 4.01 3.8.59 12.33 1.88 18.97.75.84 5.71-6.87 6.09-10.12 6.29-1.1.07-2.16.11-3.26.29-2.3.36-5.41.58-7.41 1.97-3.69 2.57-2.85 7.1-1.97 11.06 2.14 9.65 5.41 18.59.69 28.15-3.42 6.92-8.07 13.19-12.42 19.54-1.39 2.03-2.88 3.96-4.3 5.97-1.03 1.45-5.04 4.48-5.01 1.43.04-3.88-.22-7.77-.27-11.64-.12-8.1.5-16.24.19-24.32zm42.06-15.02c.15.47.33.91.53 1.33-4.07 4.95-9.5 8.2-15.55 10.23-.7-1.1-1.44-2.18-2.2-3.24a.305.305 0 00-.13-.1c-.16-1.11-.38-2.25-.67-3.41-1.42-5.59-6.71-18.18 1.75-20.32 1.1-.28 2.2-.46 3.31-.59 4.58 2.05 8.61 4.91 12.08 8.55.01.01.02.01.03.02-.22 2.36.03 4.88.85 7.53zm-17.19 9.52c2.56 3.64 4.74 7.5 6.54 11.59-2.9-.35-5.61-1.02-7.38-1.59.86-3.23 1.18-6.52.84-10zm2.53 2.61c6.01-2.05 11.43-5.28 15.52-10.17.96 1.68 2.34 2.94 3.95 3.94-.35 1.84-1.19 6.17-2.19 11.22-1.59 4.03-7.24 4.61-12.51 4.08a68.055 68.055 0 00-4.77-9.07zm24.23-39.85c.4.16.81.29 1.24.43 1.52.49 3.1.99 4.7 2.87.17.2.36.38.57.55-8.6 1.37-15.64 7.33-16.83 15.53-3.19-3.27-6.84-5.91-10.95-7.88 2.8-.25 5.6-.3 8.35-.89 3.73-.81 6.3-3.27 5.83-6.72 3.07-.62 5.67-1.81 7.09-3.89zm-20.58-12.43c4.06 1.86 7.89 3.61 10.44 5.09 4.39 2.55 6.44 4.41 7.8 5.64.66.6 1.18 1.07 1.73 1.4-5.48 7.99-29.61 2.6-35.16.36-5.93-2.4-8.46-5.42-12.11-10.46-3.58-4.95-3.98-9.35-4.1-15.26-.07-3.37-.24-6.77-.14-10.14 0-1.01.08-2 .24-3 .11-1.15 1.31-2.16 2.48-1.71 1.27.49 2.24 1.74 2.82 2.9.54 1.08 1.03 2.19 1.56 3.28 2.4 4.94 5.15 10.17 9.45 13.68 1.86 2.2 8.53 5.26 14.99 8.22zm-46.47-23.22s-.76 3-1.71 6.26c-.47-.91-1.3-2.54-1.38-2.8-.74-2.55-.48-6.73-.48-6.77l.16-2.58-1.2 2.3c-.01.03-.39.69-1.09.62-1.07-.13-2.76-3.18-3.77-5-.51-.92-.95-1.71-1.32-2.24-1.09-1.55-1.06-5.42.07-9 .18-.57.42-.89.72-.94.78-.14 2.15 1.1 2.88 2.03l1.11 1.4-.13-1.78c-.01-.16-1.13-15.91 4.43-22.58 4.12-4.95 13.01-6.01 15.5-6.22 2.48.2 11.37 1.27 15.5 6.22 5.56 6.67 4.44 22.42 4.43 22.58l-.13 1.78 1.11-1.4c.74-.93 2.1-2.17 2.88-2.03.3.06.55.37.73.94 1.13 3.58 1.16 7.45.07 9-.38.54-.81 1.33-1.32 2.24-1.01 1.82-2.7 4.87-3.77 5-.7.08-1.07-.59-1.09-.62l-1.2-2.3.16 2.58c0 .04.26 4.22-.47 6.77-.08.26-.92 1.93-1.39 2.83-.96-3.28-1.72-6.29-1.72-6.29.06.43 1.31 9.2 2.95 13.31-4.12-4-6.6-9.62-9.07-14.74-.56-1.16-2.93-6.04-5.26-4.65-2.41 1.43-2 5.43-1.93 7.82.15 5.3-.75 11.37.58 16.54 1.91 7.37 6.6 12.75 12.63 16.24-5.57 3.16-10.47 8.08-12.08 14.4-2.65 10.41-.58 20.83-.63 31.39-.05 11.32.32 22.74.05 34.03-.04 1.68.66 3.9 2.06 3.62.12 1.79.32 3.58.54 5.36-.71-1.33-1.88-3.35-2.87-4.34-.4-.4-1.13-.38-1.55.04-.95.96-2.04 2.65-2.8 4 .2-1.69.38-3.37.5-5.06 1.4.28 2.1-1.94 2.06-3.62-.27-11.3.1-22.72.05-34.03-.04-10.56 2.03-20.98-.63-31.39-1.61-6.32-6.51-11.24-12.08-14.4 6.03-3.49 10.72-8.87 12.63-16.24 1.34-5.17.43-11.24.58-16.54.07-2.39.48-6.39-1.93-7.82-2.33-1.38-4.7 3.49-5.26 4.65-2.48 5.13-4.97 10.76-9.11 14.77 1.67-4.1 2.93-12.91 2.99-13.34zm28.48 160.78c2.64 2.07 1.98 5.41 1.72 6.48-.55 2.31-11.92 16.75-15.82 20.55-.3.3-.87.3-1.18.01-4.2-3.89-15.49-18.03-16.04-20.34-.26-1.08-.82-4.54 1.86-6.63 3.81-1.82 4.83-9.46 5.68-12.38 2.22-7.66 4.17-15.52 5.27-23.47.87-1.78 2.2-3.89 3.05-5 .61-.79 1.07-.71 1.62.08.73 1.04 2.22 3.51 3.07 5.34 1.11 7.81 3.03 15.53 5.22 23.06.84 2.88 1.85 10.36 5.55 12.3zm-57.5-104.92c.02-.01.03-.02.05-.03 3.46-3.63 7.5-6.5 12.08-8.55 1.11.13 2.21.31 3.31.59 8.46 2.14 3.17 14.73 1.76 20.32-.29 1.16-.52 2.29-.67 3.41-.05.02-.09.05-.13.1-.77 1.06-1.5 2.14-2.2 3.24-6.06-2.04-11.48-5.29-15.56-10.25.2-.42.38-.85.52-1.32.82-2.64 1.06-5.16.84-7.51zm13.83 19.64c-1.81 2.89-3.4 5.91-4.77 9.07-5.14.54-10.66.02-12.43-3.71-1.04-5.22-1.91-9.73-2.27-11.61 1.6-1 2.98-2.27 3.94-3.94 4.09 4.91 9.51 8.14 15.53 10.19zm2.53-2.61c-.34 3.48-.03 6.77.84 9.99-1.76.57-4.48 1.24-7.38 1.6a68.36 68.36 0 016.54-11.59zm3.75-13.63c.88-3.97 1.72-8.49-1.97-11.06-1.99-1.39-5.11-1.61-7.41-1.97-1.09-.17-2.16-.22-3.26-.29-3.24-.19-10.96-.58-10.12-6.29 6.64 1.14 15.17-.16 18.97-.75 4.31-.67 8.46-2 12.15-4.01 6.3 3.5 10.76 8.82 12.6 16.06 2.24 8.81.5 18.5.16 27.44-.31 8.08.31 16.21.19 24.31-.06 3.88-.31 7.77-.27 11.64.03 3.05-3.99.03-5.01-1.43-1.42-2.01-2.91-3.94-4.3-5.97-4.35-6.35-9.04-12.6-12.46-19.52-.73-1.47-1.26-2.92-1.64-4.37v-.01c-2.1-7.95.56-15.61 2.37-23.78zm-28.19-25.31c1.36-1.23 3.41-3.09 7.8-5.64 2.55-1.48 6.39-3.24 10.44-5.09 6.41-2.94 13.02-5.97 14.94-8.16 4.34-3.52 7.1-8.77 9.52-13.74.53-1.09 1.02-2.2 1.57-3.28.58-1.16 1.55-2.41 2.82-2.9 1.17-.45 2.37.56 2.48 1.71.16.99.24 1.99.24 3 .1 3.37-.08 6.77-.14 10.14-.12 5.92-.52 10.31-4.1 15.26-3.65 5.04-6.18 8.06-12.11 10.46-5.55 2.25-29.7 7.64-35.17-.36.54-.34 1.06-.8 1.71-1.4zm-8.29 5c1.61-1.88 3.18-2.38 4.7-2.87.43-.14.85-.28 1.26-.44 1.42 2.08 4.02 3.27 7.09 3.89-.48 3.45 2.09 5.91 5.83 6.72 2.74.6 5.55.64 8.35.89-4.11 1.97-7.77 4.62-10.97 7.9-1.18-8.2-8.22-14.17-16.83-15.54.21-.17.41-.35.57-.55zm-16.28 34.57c-.89-5.72 3.06-19.95 5.44-25.97 1.44-3.65 4.43-5.03 7.06-6.24.87-.4 1.71-.79 2.43-1.24 4.69.67 8.57 2.96 12.39 6.62 6.67 6.39 5.61 18.91-2.25 22.97-4.91 2.54-10.28 3.55-15.01 6.57-2.91 1.85-5.42 4.31-7.77 6.88-.49-1.52-1.6-5.21-2.29-9.59zm-10.38 61.52c0-2.36.53-4.81 1.31-7.14.06-.19.13-.38.19-.57.03-.09.07-.19.1-.28l.21-.57c2.11-5.54 5.33-10.02 5.38-10.08l.03-.04c1.12 3.76 2.53 7.8 4.04 11.41-1.16 6.56-7.11 10.44-11.25 15.45v-8.18zm-1.13 44.13c-.27-1.76-.53-3.49-.73-5.21-.51-4.16-.98-8.09-1.24-12.34-.02-.28-.03-.55-.04-.82-.01-.15-.01-.3-.02-.44-.01-.2-.01-.4-.02-.6 0-.13-.01-.26-.01-.4v-.61-.35c0-.23.01-.45.01-.67v-.25c.23-8.43 2.78-12.72 3.05-13.17 3.93-5.26 10.14-9.08 11.8-15.55.32.74.64 1.47.97 2.16.4.84.88 1.34 1.42 1.6-1.82 9.37-6.45 17.3-10.49 25.9-3.08 6.55-4.4 13.61-4.7 20.75zm17.25-46.54c.04 5.33 1.96 10.21 5.53 14.15-1.3 2.15-2.47 4.39-3.52 6.71-3.21-5.04-4.72-10.7-4.4-16.73.37-1.32.71-2.66.97-4.04.45.07.92.02 1.42-.09zm-1.16-1.34c.86-9.91 3.93-20.15 9.36-28.58.59-.96 1.33-1.76 2.24-2.42 3.74-2.76 1.53 5.86 1.39 6.29-.66 2.07-1.37 4.12-2 6.2-1.94 6.37-4.24 12.58-7.65 18.28-.13.04-.26.07-.39.11-1.23.35-2.18.36-2.95.12zm2.84 22.93c-3.46 7.87-5.47 16.56-5.85 25.19-1.22 4.47-3.17 9.88-4 14.3-.39 2.09-.65 4.21-1.07 6.29-.03.13-.06.26-.09.38l-.03.11-.09.27c-1.07 2.92-4.53 4.36-4.97-.33-1.08-11.46-.28-24.84.52-36.21.87-2.79 1.96-5.56 3.31-8.3 2.81-5.73 5.62-11.11 7.55-16.95.08 5.47 1.69 10.64 4.72 15.25zm-8.69 89.76c0 2.44-1.2 3.45-1.88 3.83-.58-1.54-2.27-6.13-3.59-9.88l5.48 5.61c0 .15-.01.34-.01.44zm2.45.49l-8.75-8.95c-.39-1.16-.69-2.09-.82-2.59-.28-1.09-.52-2.31-.72-3.63 1.08 1.98 2.64 4.28 4.26 5.98 3.18 3.34 6.55 6.2 7.1 6.67a10.88 10.88 0 01-1.07 2.52zm4.24-40.59c2.33 3.7 2.96 7.26 3.26 12.62l.08 1.44c.02 2.57-.08 5.36-.29 7.46-.17 1.72-1.56 2.72-2.88.62-.89-1.41-1.16-3.36-1.41-5.25-.32-2.39-.63-4.66-2.23-5.69-.24-.16-.5-.22-.77-.21.98-1.31 1.9-2.4 2.29-2.94-1.86.67-5.95 3.99-6.13 7.56-.23 1.22-.22 2.64.12 4.22-.01.06 0 .13.02.21.71 2.62.87 5.14.88 5.17.22.85 3.82 4.05 4.69 5.37 1.69 2.57.24 5.28-.46 6.33-1.08-.92-3.94-3.42-6.65-6.27-2.73-2.87-5.16-7.46-5.51-8.99-.63-6.59-.66-15.34-.27-26.3.21-5.99-.36-11.15-1.05-15.94-.03-5.23.49-10.28 1.66-15.22-.46 7.46-.67 14.91-.47 22.39.04 1.52-.47 13.57 1.78 14.29 2.32.74 4.29-1.58 4.87-3.32.97-2.89 1.05-6.27 1.61-9.26.57-3.05 1.89-6.78 2.95-10.15-.04 6.68.91 13.27 2.94 19.35.2.95.52 1.79.97 2.51zm11.18-50.81c-.19 4.59-3.27 12.73-6.24 20.6-2.66 7.02-5.08 13.67-5.68 17.8-.32 2.22-.55 4.29-.57 6.15-4.62-18.65-.21-41 11.59-56.07.36 1.2 1.18 4.77.9 11.52zm1.83-18.3c-.51 3.25-2.76 5.71-2.78 5.73 0 0-2.85 3.81-4.02 5.69-3.43-3.84-5.24-8.57-5.24-13.74 1.08-.35 2.22-.9 3.35-1.22 4.54-1.3 7.25-3.75 9.22-6.95-.1.51-.15.85-.17.93 0 .06.17 6.19-.36 9.56zm5.24-25.29c-2.07 3.43-3.5 9.1-4.27 12.66-1.8 3.63-4.29 6.64-8.91 8.18-.55.18-1.1.34-1.66.5 4-6.96 6.13-14.48 8.7-22.13.33-1 3.66-9.76-.39-9.32-3.91.43-6.1 7.05-7.42 9.99-3.11 6.91-5.07 14.12-5.75 21.67-1.1-.62-1.8-1.88-2.54-3.55-1.64-3.68-3.25-8.7-4.41-12.91.23-3.77.9-13.56 1.91-18.44 1.25-6.08 3.59-11.88 3.62-11.94l.2-.29c5.43-5.48 10.96-9.38 18.8-12.16 1.53-.54 3.07-1.15 4.49-1.92.75 3.93 3.03 15.72 4.96 24.67-.94 2.68-4.54 10.38-7.33 14.99zm15.27 6.99c-.54-1.54-1.22-3.33-1.92-5.17-.91-2.38-1.85-4.85-2.58-7.05-.96-2.89-3.08-12.98-4.83-21.74 4.11 4.74 15.54 2.6 20.42 1.01.87 3.01 2.22 5.96 3.98 8.97 4.87 8.33 10.67 16.67 16.71 24.2.37.46.71.78 1.03.99-.56 8.38-2.29 16.77-4.37 24.88-.88 3.45-1.96 6.84-2.9 10.28-.66 2.4-1.38 5.28-3.48 6.89-3.08 2.36-4.51-2.12-4.92-4.49-1.2-6.83-4.97-13.94-7.97-20.15-3-6.18-5.99-12.5-9.17-18.62zm1.07 3.97c1.03 2.32 2.03 4.65 3.24 7.03 2.73 5.39 5.64 10.56 7.98 16.16 2.12 5.08 3.64 9.84 4.63 15.23.11.57.25 1 .46 1.34-5-1.27-8.89-5.43-12.91-8.61-1.63-1.29-2.65-3.03-3.27-4.96.02-.09.03-.18.03-.25 0-.16 0-.67.01-1.44.06-5.23.21-20.49-.17-24.5zm-5.52 41.83c-.54-4.36 2.51-9.76 4.33-12.98.5-.88.85-1.51 1.07-1.97.51 1.32 1.21 2.6 2.14 3.8 2.2 2.84 6.07 5.34 8.99 7.4 1.07.75 2.11 1.32 3.19 1.76-5.49 4.17-13.22 5.46-17.93 10.29l.04-.12-.11-.21c-.01-.02-.96-1.84-1.72-7.97zm1.21 10.21c7.77-5.69 15.99-8.74 23.3.03 3.21 3.85 6.33 7.77 9.04 11.94-2.91-2.59-7.02-3.38-12.94-.89-3.69 1.55-7.17 3.77-10.69 5.68-.91.49-5.9 2.27-5.94 4.2a27.716 27.716 0 00-6.59 5.73c.04-.71.05-1.38.01-1.99-.54-8.69 2.52-20.29 3.81-24.7zm-12.98 75.27c.97-13.17 3.85-24.6 6.17-33.79 1.38-5.47 2.54-10.07 2.92-13.63 1.91-2.44 4.17-4.51 6.76-6.16.65 3.68 2.9 6.63 3.28 10.59.55 5.67-1.69 11.45-3.49 16.73-.52 1.54-2.68 6.73-2.86 10.55l-.03.03c-7.08 16.4-9.23 33.71-11.68 51.17-1.09-12.23-1.8-25.51-1.07-35.49zm1.32 38.29c2.55-17.87 4.5-35.65 11.51-52.48.17 1.25.69 2.22 1.75 2.62 2.12.8 4.12.45 6.24-.22 1.83-.58 3.66-1.2 5.48-1.83 1.11 5.12.39 11.07.03 15.98-.67 9-2.12 17.97-3.89 26.82-2.98 14.9-9.07 28.96-15.19 42.91-.7 1.51-1.39 3.08-2.04 4.66-.23.52-.46 1.04-.68 1.56a5.43 5.43 0 01-.06-.55c-.2-2.85 0-4.37.18-5.71.14-1.04.27-2.01.19-3.4-.03-.56-.25-2.29-.59-4.91-.72-5.42-1.93-14.89-2.93-25.45zm17.39 6.43c-.08 10.34 5.51 20.84 8.85 29.33-3.36 4.81-5.97 9.93-7.95 15.3-.18-8.66-3.34-16.8-9.09-23.42 2.95-7 5.79-14.03 8.19-21.21zm-16.91 44.32c.03-.06.05-.11.07-.17 1.38-4.15 3.99-11.35 5.77-16.23.87-2.01 1.73-4.02 2.59-6.04 5.94 6.94 8.97 15.52 8.71 24.62-2.48 7.35-3.83 15.14-4.32 23.26-.34 5.73-.47 11.49-.48 17.26-2.96 3.84-9.56 2.61-10.41-2.94 0-.03-.02-.05-.03-.07-2.07-13.21-3.61-26.44-1.9-39.69zm1.11 81.83c1.7-6.46.93-13.42.18-20.14l-.1-.87c-.59-3.72-1.29-7.49-1.97-11.13-3.07-16.5-5.97-32.14-.14-47.43-1.25 12.53.25 25.05 2.23 37.54-.01.04-.01.08-.01.12.03.22.08.43.13.64 1.77 11.08 3.88 22.14 4.75 33.18-1.23 4.29-3.29 8.16-6.16 11.53.36-.94.73-2.07 1.09-3.44zm18.68 5.4c-.02.94-.52 1.93-1.03 2.97-.26.53-.53 1.06-.74 1.61-1.92-8.24-1.73-16.7.57-24.81-.89 6.59-.71 13.33 1.2 20.23zm-.5-24.46c-3.76 9.97-4.43 20.64-1.69 30.91v.05l.03.17c.12.35.23.71.34 1.07.11.38.23.76.35 1.15.58 1.96 1.15 4.09 1.67 6.04.23.87.45 1.69.65 2.44.04.15 3.92 14.77-1.15 17.94-5.13 3.21-13.28 2.43-15.52 1.59-.95-.36-2.74-1.59-4.46-2.77-2.14-1.48-4.36-3-5.69-3.39-5.44-1.6-11.3-3.8-12.14-5.1-1.08-1.69-.89-2.97-.88-3.02l.1-.53-.53-.11c-.03-.01-2.81-.61-2.81-2.03 0-1.75.43-2.21.64-2.43.3-.32 1.73-1.05 3.8-.8l-2.53 1.57s1.37.67 4.02-1.07c3.22-2.1 6.26-3.18 8.25-4.31 2.98-1.69 4.54-4.27 5.2-5.62.46 1.23 1.07 2.33 1.5 3.09.16.27.31.54.45.81 0 0-2.35-6.47-1.07-8.78.07-.13.16-.27.27-.45.29-.47.69-1.13 1.14-2.08 3.2-3.34 5.57-7.24 7.06-11.58.67 10.12.22 20.22-2.57 30.29-.11.41 1.89-4.89 2.31-7.42 3.1-18.47-.61-36.99-3.64-55.56 2.26 3.3 7.13 3.62 9.93.8 0 5.59.1 11.19.2 16.76.04 2.26.15 4.46.33 6.62 0 0 .34-5.73.29-8.72-.05-2.86-.08-5.72-.09-8.58 2.07 3.05 6.54 3.91 9.5 1.4-1.32 3.83-2.46 7.72-3.26 11.65zm11.81-56.83c1.27 4.27 2.46 8.3 2.91 12.31 0 2.83-.97 5.75-1.92 8.58-.48 1.44-.98 2.94-1.32 4.33l-.92 2.11c-2.35 5.35-4.72 10.76-6.72 16.25-2.79 3.79-8.37 2.86-10.06-1.06-.02-7.1.08-14.2.33-21.29.29-8.57 1.63-16.86 4.27-24.65.05-.1.09-.2.13-.29v-.08c1.99-5.77 4.7-11.26 8.24-16.39.51 1.33.95 2.61 1.31 3.83.27 5.84 2.16 11.01 3.75 16.35zm-2.03-11.52c-.99-3.75-1.76-6.77-1.76-6.77v.1c-.02-.12-.05-.22-.07-.3-3.89-11.92-10.95-22-9.69-33.7 1.8-5.58 3.32-11.26 4.42-17.08 1.61-8.51 2.8-17.14 3.37-25.78.28-4.29.7-9.29-.25-13.74 3.11-1.08 6.22-2.18 9.36-3.17.98-.32 1.95-.65 2.9-1-3.96 11.44-3.58 23.02-1.79 34.62-7.1 18.69 2.17 39.78-2.16 59.08-1.29 2.63-2.78 5.3-4.33 7.74zm10.6-38.55c-.67 7.99-1.31 15.54-2 19.3-.44 2.4-1.6 5.69-3.18 9.18 2.97-18.25-4.83-37.91 1.28-55.49 1.18 7.27 2.87 14.54 4.34 21.78-.15 1.79-.3 3.54-.44 5.23zm9.76-59.78c-.33 2.61-1.36 7.01-2.56 12.1-1.76 7.51-3.95 16.86-5.02 25.18-.58 4.53-1.09 9.82-1.55 15.06-3.87-18.59-8.72-37.38-2.15-55.78 4.12-1.63 7.88-3.83 10.4-7.71.18-.28.34-.57.5-.87.34 1.99 1.02 7.07.38 12.02zm-.36-14.03c-1.48 6.59-9.15 9.45-14.79 11.27-5.49 1.73-10.87 3.77-16.35 5.5-10.59 3.35-3.68-13.26-2.19-17.72 1.54-4.62 2.97-10.03 2.07-14.94-.43-2.34-1.11-4.36-2.21-6.45-2.44-4.63 5.66-7.25 8.26-8.66 6.17-3.35 13.97-8.49 20.19-2.57 1.35 2.14 2.59 4.35 3.68 6.65.7 2.41 1.08 4.96 1.44 7.2 1.05 6.48 1.34 13.28-.1 19.72zm1.9-8.89c-.07-3.19-.46-6.33-.83-8.81-.78-5.24-2.07-10.63-4.58-14.35-3.73-7.22-7.86-11.87-12.87-17.34-5.97-6.54-14.17-2.85-20.35 1.4 4.75-4.8 12.71-6.08 18.1-10.31.96.32 1.97.53 3.06.63.13.02.25.05.39.06.31.04.59.03.87 0-1.5 1.87-1.65 4.38-1.16 6.41.65 2.7 6.41 10.33 16.76 21.32.28.3.77.34 1.06.06 10.74-10.8 16-18.88 16.65-21.59.48-1.99.42-4.38-.96-6.2.3.03.62.03.95 0 .14-.02.27-.04.39-.06 1.09-.1 2.1-.31 3.06-.63 5.4 4.24 13.38 5.51 18.12 10.33-6.18-4.26-14.4-7.96-20.38-1.42-5 5.48-9.13 10.12-12.86 17.34-2.52 3.71-3.8 9.11-4.59 14.35-.37 2.48-.77 5.62-.83 8.81zm35.29-65.02c.01.77.01 1.28.01 1.44 0 .08.01.16.03.25-.62 1.93-1.65 3.67-3.27 4.96-4.02 3.18-7.91 7.34-12.91 8.61.21-.34.35-.77.46-1.34 1-5.38 2.52-10.15 4.63-15.23 2.34-5.6 5.25-10.76 7.98-16.16 1.19-2.35 2.21-4.71 3.24-7.05-.37 3.97-.22 19.28-.17 24.52zm-33.5 54.18c.36-2.24.74-4.79 1.44-7.2 1.08-2.3 2.32-4.5 3.67-6.64 6.22-5.93 14.02-.78 20.19 2.57 2.6 1.41 10.7 4.03 8.26 8.66-1.11 2.09-1.78 4.11-2.21 6.45-.9 4.91.53 10.32 2.07 14.94 1.49 4.47 8.41 21.07-2.19 17.72-5.48-1.73-10.87-3.77-16.35-5.5-5.63-1.82-13.31-4.68-14.79-11.27-1.43-6.44-1.14-13.24-.09-19.73zm7.32 71.04c-1.07-8.31-3.26-17.66-5.02-25.18-1.19-5.09-2.23-9.49-2.56-12.1-.63-4.96.05-10.03.38-12.03.16.3.32.59.5.87 2.52 3.88 6.28 6.09 10.4 7.71 6.57 18.4 1.73 37.19-2.14 55.78-.47-5.23-.98-10.52-1.56-15.05zm4.19 41.81c-.69-3.77-1.33-11.31-2-19.3-.14-1.7-.29-3.45-.44-5.22 1.47-7.24 3.16-14.51 4.34-21.79 6.11 17.57-1.68 37.23 1.28 55.49-1.58-3.5-2.74-6.78-3.18-9.18zm4.25 11.47c-4.32-19.3 4.94-40.39-2.15-59.07 1.78-11.59 2.17-23.18-1.79-34.62.96.36 1.93.69 2.91 1 3.14.99 6.25 2.09 9.36 3.17-.95 4.45-.54 9.45-.25 13.74.57 8.65 1.76 17.27 3.37 25.78 1.1 5.82 2.63 11.5 4.42 17.08 1.26 11.71-5.87 21.87-9.76 33.8-.03.08-.81 3.14-1.79 6.85a78.252 78.252 0 01-4.32-7.73zm16.51-30.96c2.44 7.3 5.33 14.45 8.34 21.56-5.47 5.83-9.07 15.52-8.98 23.78-2.01-5.63-4.7-10.99-8.21-16.02 3.33-8.49 8.93-18.98 8.85-29.32zm-6.25 93.8c-1.99-5.48-4.36-10.88-6.71-16.23l-.93-2.11c-.34-1.39-.84-2.89-1.32-4.33-.94-2.83-1.92-5.75-1.92-8.58.45-4.01 1.65-8.04 2.91-12.31 1.61-5.43 3.77-10.81 4.01-16.77 0-.79.58-2.18 1.06-3.42 8.39 12.15 12.13 26.36 12.65 41.42.24 7.09.34 14.19.33 21.28-1.69 3.94-7.29 4.87-10.08 1.05zm4.39 40.71c-.52-1.04-1.01-2.02-1.03-2.97 1.91-6.91 2.09-13.64 1.2-20.24 2.3 8.11 2.49 16.57.57 24.81-.22-.54-.48-1.08-.74-1.6zm20.64-1.03c.11.17.2.32.27.45 1.28 2.31-1.07 8.78-1.07 8.78.14-.27.3-.54.45-.81.43-.76 1.05-1.86 1.5-3.09.67 1.35 2.23 3.94 5.2 5.62 2 1.13 5.04 2.21 8.25 4.31 2.66 1.74 4.02 1.07 4.02 1.07l-2.53-1.57c2.07-.25 3.5.48 3.8.8.21.22.64.68.64 2.43 0 1.42-2.78 2.02-2.81 2.03l-.52.11.09.53c.01.05.21 1.34-.88 3.02-.84 1.31-6.7 3.51-12.14 5.1-1.33.39-3.55 1.92-5.69 3.39-1.73 1.19-3.51 2.42-4.46 2.77-2.23.84-10.38 1.61-15.52-1.59-5.07-3.17-1.19-17.79-1.15-17.94.2-.75.42-1.57.65-2.44.52-1.95 1.09-4.08 1.67-6.04.12-.38.24-.76.35-1.15.11-.37.23-.73.34-1.07l.03-.17v-.05c2.74-10.27 2.07-20.94-1.69-30.91-.8-3.94-1.93-7.82-3.28-11.67 2.96 2.53 7.44 1.67 9.51-1.38-.01 2.86-.04 5.72-.09 8.58-.05 2.99.29 8.72.29 8.72.18-2.16.29-4.36.33-6.62.1-5.57.2-11.16.2-16.76 2.79 2.82 7.66 2.5 9.92-.79-3.04 18.56-6.74 37.08-3.65 55.55.43 2.53 2.42 7.83 2.31 7.42-2.79-10.08-3.23-20.18-2.57-30.29a31.21 31.21 0 007.06 11.57c.48.96.88 1.61 1.17 2.09zm-1.11-39.48c-.68 3.65-1.38 7.42-1.97 11.13l-.1.87c-.75 6.72-1.53 13.67.18 20.14.36 1.37.73 2.5 1.09 3.44-2.87-3.36-4.93-7.24-6.16-11.53.87-11 2.97-22.03 4.74-33.07.06-.24.12-.49.16-.74.01-.06 0-.11-.01-.16 1.98-12.49 3.48-24.99 2.23-37.51 5.81 15.29 2.91 30.93-.16 47.43zm-.85-49.87c.03.06.05.11.07.17 1.71 13.25.18 26.49-1.91 39.7-.01.02-.02.03-.02.06-.85 5.56-7.44 6.78-10.4 2.94-.01-5.76-.13-11.52-.48-17.26-.47-7.84-1.75-15.37-4.07-22.49h.01c-.74-8.41 2.86-18.89 8.57-25.11.8 1.87 1.6 3.75 2.41 5.62 1.78 4.89 4.42 12.19 5.82 16.37zm-2.35-25.11c-.33 2.62-.56 4.35-.59 4.91-.08 1.38.05 2.36.19 3.4.18 1.34.38 2.86.18 5.71-.01.17-.04.36-.06.55-.3-.68-.6-1.37-.9-2.05-.54-1.3-1.1-2.58-1.68-3.83-6.17-14.06-12.34-28.23-15.34-43.25-1.77-8.85-3.21-17.81-3.89-26.82-.37-4.91-1.09-10.86.03-15.98 1.82.63 3.64 1.25 5.48 1.83 2.12.67 4.12 1.02 6.24.22 1.06-.4 1.58-1.37 1.75-2.62 7.01 16.82 8.96 34.61 11.51 52.48-1.01 10.55-2.22 20.02-2.92 25.45zm-1.94-97.54c2.31 9.19 5.2 20.63 6.17 33.79.74 9.98.02 23.26-1.07 35.48-2.45-17.45-4.6-34.77-11.68-51.17l-.03-.03c-.19-3.83-2.34-9.02-2.86-10.55-1.8-5.27-4.04-11.05-3.49-16.73.39-3.95 2.63-6.91 3.28-10.58 2.59 1.65 4.85 3.72 6.76 6.16.39 3.55 1.54 8.16 2.92 13.63zm-3.02-16.79c-.04.61-.03 1.28.01 1.99a27.552 27.552 0 00-6.59-5.73c-.04-1.93-5.03-3.71-5.94-4.2-3.51-1.9-7-4.13-10.69-5.68-5.91-2.49-10.03-1.7-12.94.89 2.71-4.17 5.84-8.09 9.05-11.94 7.31-8.77 15.53-5.72 23.3-.03 1.3 4.42 4.37 16.02 3.8 24.7zm-6.91-47.88c1.82 3.22 4.87 8.62 4.33 12.98-.76 6.12-1.71 7.94-1.72 7.96l-.11.21.04.12c-4.71-4.83-12.44-6.13-17.93-10.29 1.08-.43 2.13-1.01 3.19-1.76 2.93-2.05 6.79-4.56 8.99-7.4a15.17 15.17 0 002.14-3.8c.22.47.57 1.1 1.07 1.98zm4.39-45.05c-.74 2.21-1.68 4.67-2.58 7.05-.7 1.85-1.39 3.63-1.92 5.17-3.18 6.12-6.17 12.44-9.15 18.62-3 6.21-6.78 13.32-7.97 20.15-.42 2.37-1.84 6.85-4.92 4.49-2.1-1.61-2.82-4.49-3.48-6.89-.94-3.43-2.02-6.83-2.9-10.28-2.07-8.11-3.8-16.5-4.37-24.88.32-.21.66-.53 1.03-.99 6.04-7.53 11.84-15.87 16.71-24.2 1.75-3 3.1-5.96 3.98-8.96 4.91 1.59 16.36 3.73 20.43-1.06-1.78 8.76-3.9 18.88-4.86 21.78zm10.62 5.17c-2.76-4.38-6.25-12.12-7.16-14.85 1.93-8.95 4.21-20.76 4.97-24.71 1.41.76 2.95 1.36 4.47 1.91 7.83 2.78 13.51 6.71 18.94 12.19l-.02.06.08.19c.02.06 2.37 5.86 3.62 11.94 1 4.88 1.67 14.66 1.91 18.44-1.16 4.21-2.77 9.23-4.41 12.91-.74 1.67-1.45 2.93-2.54 3.55-.68-7.55-2.65-14.76-5.76-21.67-1.32-2.94-3.52-9.56-7.42-9.99-4.05-.44-.72 8.33-.39 9.32 2.57 7.65 4.7 15.17 8.7 22.13-.56-.15-1.11-.31-1.66-.5-4.63-1.55-7.08-4.46-8.89-8.09-.79-3.56-2.31-9.45-4.44-12.83zm18.05 23.22c.49.11.97.16 1.41.09 1.63 8.42 5.42 15.5 9.2 23.2a59.29 59.29 0 013.31 8.3c.8 11.37 1.6 24.75.53 36.21-.44 4.69-3.9 3.25-4.97.33l-.09-.27-.03-.11c-.04-.13-.07-.25-.09-.38-.43-2.08-.68-4.2-1.07-6.29-.83-4.42-2.78-9.83-4-14.3-.51-11.46-3.89-23.03-9.7-32.63 3.55-3.94 5.46-8.82 5.5-14.15zm-1.79-1.45c-.13-.04-.26-.07-.39-.11-3.41-5.71-5.71-11.91-7.65-18.28-.63-2.08-1.34-4.13-2-6.2-.14-.43-2.35-9.05 1.39-6.29.9.66 1.65 1.46 2.24 2.42 5.43 8.43 8.5 18.67 9.36 28.58-.77.23-1.71.22-2.95-.12zm-10.9 3.59c-.53-3.37-.36-9.5-.36-9.56-.01-.09-.07-.42-.17-.93 1.97 3.2 4.67 5.65 9.22 6.95 1.12.32 2.27.88 3.35 1.22 0 5.17-1.81 9.9-5.24 13.74-1.17-1.88-2.89-4.36-4.02-5.69-.02-.02-2.26-2.48-2.78-5.73zm8.07 38.89c-2.97-7.87-6.05-16-6.24-20.6-.28-6.75.54-10.32.9-11.51 11.79 15.07 16.21 37.42 11.59 56.07-.02-1.86-.25-3.93-.57-6.15-.6-4.14-3.02-10.78-5.68-17.81zm13.51 74.15c-.68-.38-1.88-1.39-1.88-3.83 0-.1-.01-.29-.01-.44l5.48-5.61a604.64 604.64 0 01-3.59 9.88zm5.24-14.88c-.13.5-.42 1.43-.82 2.59l-8.75 8.95c-.32-.55-.78-1.46-1.07-2.53.55-.46 3.92-3.32 7.1-6.67 1.62-1.7 3.18-4 4.26-5.98-.2 1.33-.44 2.54-.72 3.64zm1.46-33.7c.39 10.96.36 19.71-.27 26.3-.35 1.54-2.78 6.12-5.51 8.99-2.71 2.85-5.58 5.35-6.65 6.27-.7-1.05-2.15-3.75-.46-6.33.86-1.32 4.47-4.52 4.69-5.37.01-.03.18-2.55.88-5.17.02-.08.02-.15.02-.21.34-1.58.35-3 .12-4.22-.18-3.57-4.27-6.9-6.13-7.56.39.54 1.32 1.63 2.29 2.94-.27-.01-.53.06-.77.21-1.6 1.03-1.9 3.29-2.23 5.69-.25 1.89-.52 3.84-1.41 5.25-1.33 2.1-2.71 1.09-2.88-.62-.21-2.1-.31-4.9-.29-7.46l.08-1.44c.3-5.36.93-8.93 3.26-12.62.45-.72.77-1.56.98-2.5 2.03-6.08 2.98-12.67 2.94-19.35 1.06 3.37 2.37 7.1 2.95 10.15.56 2.99.65 6.36 1.61 9.26.58 1.74 2.56 4.06 4.87 3.32 2.25-.72 1.74-12.77 1.78-14.29.2-7.47 0-14.93-.47-22.39 1.17 4.93 1.69 9.99 1.66 15.22-.7 4.78-1.27 9.95-1.06 15.93zm3.73-40.47v.61c0 .13-.01.26-.01.4 0 .2-.01.4-.02.6-.01.15-.01.29-.02.44-.01.27-.02.54-.04.82-.26 4.25-.73 8.18-1.24 12.34-.21 1.71-.47 3.44-.73 5.21-.3-7.14-1.62-14.2-4.7-20.74-4.04-8.61-8.67-16.53-10.49-25.9.54-.26 1.02-.75 1.42-1.6.33-.69.65-1.41.97-2.16 1.65 6.47 7.87 10.29 11.8 15.55.28.44 2.83 4.74 3.05 13.17v.25c.01.22.01.44.01.67v.34z"
     stroke="#504945"
     stroke-opacity="1" /><style
     type="text/css"
     id="style2233">.st0{display:none;opacity:.5;fill:none;stroke:#231f20;stroke-width:.05;stroke-miterlimit:10}.st1{fill:#e92a2a}.st2{fill:#d52626}.st3{fill:#9a1a1c}.st4{fill:#8d1819}</style><style
     type="text/css"
     id="style2455">.st0{display:none;opacity:.5;fill:none;stroke:#231f20;stroke-width:.05;stroke-miterlimit:10}.st1{fill:#e92a2a}.st2{fill:#d52626}.st3{fill:#9a1a1c}.st4{fill:#8d1819}</style><g
     id="g2622"
     transform="translate(-122.555 -99.594)"
     fill="#982823"
     fill-opacity=".502"
     stroke="#982823"
     stroke-width=".3"
     stroke-miterlimit="4"
     stroke-dasharray="none"
     stroke-opacity="1"
     style="fill:#689d6a;fill-opacity:1;stroke:#689d6a;stroke-opacity:1"><path
       class="st0"
       d="M418.44 444.92c-2.94 1.51-8.31 5.17-9.04 17.27"
       id="path2457"
       fill="#982823"
       fill-opacity=".502"
       stroke="#982823"
       stroke-width=".3"
       stroke-miterlimit="4"
       stroke-dasharray="none"
       stroke-opacity="1"
       style="fill:#689d6a;fill-opacity:1;stroke:#689d6a;stroke-opacity:1" /><g
       id="g2509"
       fill="#982823"
       fill-opacity=".502"
       stroke="#982823"
       stroke-width=".3"
       stroke-miterlimit="4"
       stroke-dasharray="none"
       stroke-opacity="1"
       style="fill:#689d6a;fill-opacity:1;stroke:#689d6a;stroke-opacity:1"><path
         class="st1"
         d="M214.78 223.48c.06 3.85.31 7.71.27 11.56-.04 3.03 3.95.03 4.97-1.41 1.41-1.99 2.89-3.92 4.27-5.93 4.31-6.31 8.98-12.51 12.37-19.39 4.69-9.49 1.4-18.39-.73-27.97-.87-3.94-1.71-8.44 1.96-10.99 1.98-1.38 5.08-1.59 7.35-1.95 1.09-.17 2.14-.22 3.23-.28 3.22-.2 10.9-.57 10.05-6.25-6.59 1.13-15.06-.16-18.84-.74-4.28-.66-8.4-1.98-12.07-3.98-6.26 3.47-10.68 8.77-12.5 15.95-2.23 8.74-.5 18.36-.17 27.24.33 8.02-.27 16.1-.16 24.14"
         id="path2459"
         fill="#982823"
         fill-opacity=".502"
         stroke="#982823"
         stroke-width=".3"
         stroke-miterlimit="4"
         stroke-dasharray="none"
         stroke-opacity="1"
         style="fill:#689d6a;fill-opacity:1;stroke:#689d6a;stroke-opacity:1" /><path
         class="st2"
         d="M214.5 191.94c-.07-.88-.13-1.77-.2-2.66v-.04-.01c.06.9.13 1.79.2 2.69v.02m2.05-5.57c-.08-.43-.15-.86-.22-1.29.62-.86 1.35-1.67 2.19-2.45 3.98-3.63 8.82-6.66 13.5-9.58.42-.26.85-.53 1.27-.79.04.25.09.49.16.74-.24.15-.48.31-.71.46-3.09 1.98-6.28 4.02-9.73 6.56-2.99 2.21-5.08 4.24-6.46 6.35"
         id="path2461"
         fill="#982823"
         fill-opacity=".502"
         stroke="#982823"
         stroke-width=".3"
         stroke-miterlimit="4"
         stroke-dasharray="none"
         stroke-opacity="1"
         style="fill:#689d6a;fill-opacity:1;stroke:#689d6a;stroke-opacity:1" /><path
         class="st2"
         d="M248.4 163.48c-2.65 0-5.29-.25-7.84-.76-1.43-.28-2.88-.66-4.41-1.06-3.07-.81-6.25-1.64-9.3-1.64-2.31 0-4.29.48-6.06 1.46.44-.48.9-.94 1.37-1.39 1.33-.51 2.72-.75 4.23-.75 2.17 0 4.4.51 6.76 1.05l.36.08c4.98 1.13 10.34 2.18 15.86 2.18 3.2 0 6.23-.35 9.25-1.06 0 .24-.01.47-.04.69-3.42.8-6.84 1.2-10.18 1.2"
         id="path2463"
         fill="#982823"
         fill-opacity=".502"
         stroke="#982823"
         stroke-width=".3"
         stroke-miterlimit="4"
         stroke-dasharray="none"
         stroke-opacity="1"
         style="fill:#689d6a;fill-opacity:1;stroke:#689d6a;stroke-opacity:1" /><path
         class="st2"
         d="M215.08 172.31c.02-.08.04-.15.06-.22.17-.67.36-1.32.57-1.95l.02-.02c-.22.64-.41 1.3-.58 1.97-.02.06-.03.13-.05.2l-.02.02m2.28-3.16c.11-.42.23-.84.35-1.26 2.87-2.63 6.6-3.84 11.63-3.84 2.94 0 6.1.41 9.15.8 3.11.4 6.32.81 9.37.81 4.38 0 7.75-.85 10.56-2.67-.13.4-.31.77-.54 1.09-2.7 1.5-5.86 2.21-9.85 2.21v0c-3.1 0-6.36-.43-9.5-.84-3.05-.4-6.21-.82-9.14-.82-5.32-.01-9.16 1.41-12.03 4.52"
         id="path2465"
         fill="#982823"
         fill-opacity=".502"
         stroke="#982823"
         stroke-width=".3"
         stroke-miterlimit="4"
         stroke-dasharray="none"
         stroke-opacity="1"
         style="fill:#689d6a;fill-opacity:1;stroke:#689d6a;stroke-opacity:1" /><path
         class="st2"
         d="M214.05 184.34c-.02-.85-.04-1.71-.03-2.56v-.02c-.01.85 0 1.7.03 2.56v.02m1.91-6.03c.03-.7.07-1.39.14-2.09 1.33-2.59 3.19-4.71 6.01-5.83 3.99-1.58 8.25-1.83 12.41-1.96-.2.21-.38.43-.54.67-1.11.04-2.23.1-3.34.19-8.57.73-12.35 3.58-14.68 9.02"
         id="path2467"
         fill="#982823"
         fill-opacity=".502"
         stroke="#982823"
         stroke-width=".3"
         stroke-miterlimit="4"
         stroke-dasharray="none"
         stroke-opacity="1"
         style="fill:#689d6a;fill-opacity:1;stroke:#689d6a;stroke-opacity:1" /><path
         class="st2"
         d="M215.35 236.08c-.15-.17-.26-.44-.28-.82.03.38.13.65.28.82 0 0 0 0 0 0m4.3-9.42c1.5-1.78 3.21-3.44 5.02-5.19.53-.51 1.07-1.04 1.61-1.58 1.9-1.87 3.57-3.71 5.01-5.54-1.2 1.7-2.43 3.37-3.66 5.03-.57.57-1.15 1.14-1.71 1.69-1.77 1.74-3.5 3.44-5.06 5.23-.44.2-.84.31-1.21.36m15.58-18.24c1.83-3.4 3.03-6.94 3.73-10.84.01-.08.05-.14.11-.19.02 1.21-.04 2.42-.19 3.63-.17.62-.34 1.23-.54 1.83-.95 1.9-2 3.75-3.11 5.57"
         id="path2469"
         fill="#982823"
         fill-opacity=".502"
         stroke="#982823"
         stroke-width=".3"
         stroke-miterlimit="4"
         stroke-dasharray="none"
         stroke-opacity="1"
         style="fill:#689d6a;fill-opacity:1;stroke:#689d6a;stroke-opacity:1" /><path
         class="st2"
         d="M214.92 228.02c-.01-.43-.03-.87-.04-1.3.01.44.02.87.04 1.3v0m1.56-3.75c-.1-.28-.18-.58-.25-.88 1.85-3.13 4.49-5.44 7.25-7.85.78-.68 1.59-1.39 2.4-2.13 7.28-6.66 11.35-13.24 12.79-20.66.1.65.18 1.29.24 1.94-1.29 5.05-3.85 9.78-7.79 14.39-1.86 2.17-4.05 4.06-6.17 5.89-3.31 2.85-6.48 5.59-8.47 9.3"
         id="path2471"
         fill="#982823"
         fill-opacity=".502"
         stroke="#982823"
         stroke-width=".3"
         stroke-miterlimit="4"
         stroke-dasharray="none"
         stroke-opacity="1"
         style="fill:#689d6a;fill-opacity:1;stroke:#689d6a;stroke-opacity:1" /><path
         class="st2"
         d="M214.88 214.5c.01-.54.03-1.07.04-1.6 0 0 0-.01.01-.01-.02.53-.03 1.07-.05 1.61 0-.01 0 0 0 0m2.91-5.04c.13-.52.26-1.04.38-1.57 1.95-2.45 4.24-4.69 6.48-6.89 6.03-5.92 11.72-11.52 11.26-20.38l.06-.17c.19.84.38 1.68.58 2.51-.58 7.78-6.05 13.16-11.35 18.38-2.61 2.56-5.29 5.19-7.41 8.12"
         id="path2473"
         fill="#982823"
         fill-opacity=".502"
         stroke="#982823"
         stroke-width=".3"
         stroke-miterlimit="4"
         stroke-dasharray="none"
         stroke-opacity="1"
         style="fill:#689d6a;fill-opacity:1;stroke:#689d6a;stroke-opacity:1" /><path
         class="st2"
         d="M215 199.98c-.01-.21-.01-.43-.02-.64l-.06-1.31s0-.01.01-.01l.06 1.33c.01.21.01.41.02.62 0-.01-.01 0-.01.01m3.35-6.84c-.08-.33-.17-.66-.27-.99 1.26-1.66 2.79-3.17 4.59-4.55.91-.7 1.86-1.38 2.78-2.04 3.7-2.64 7.51-5.37 9.16-9.72l.39.84c-1.43 3.33-4.05 5.65-6.74 7.66l-.56.42c-3.6 2.69-6.91 5.15-9.35 8.38"
         id="path2475"
         fill="#982823"
         fill-opacity=".502"
         stroke="#982823"
         stroke-width=".3"
         stroke-miterlimit="4"
         stroke-dasharray="none"
         stroke-opacity="1"
         style="fill:#689d6a;fill-opacity:1;stroke:#689d6a;stroke-opacity:1" /><path
         class="st2"
         d="M215.04 207.08c.01-.77.02-1.54.02-2.31 0-.01 0-.01.01-.02 0 .77-.01 1.54-.02 2.3 0 .01 0 .02-.01.03m4.18-8.43c-.02-.37-.04-.75-.07-1.12 1.27-1.59 2.79-3.16 4.59-4.75.82-.73 1.68-1.44 2.51-2.14 3.99-3.34 8.11-6.78 9.31-12.18.09.48.19.95.29 1.42-1.42 4.48-4.77 7.59-8.09 10.4-3.32 2.8-6.26 5.42-8.54 8.37"
         id="path2477"
         fill="#982823"
         fill-opacity=".502"
         stroke="#982823"
         stroke-width=".3"
         stroke-miterlimit="4"
         stroke-dasharray="none"
         stroke-opacity="1"
         style="fill:#689d6a;fill-opacity:1;stroke:#689d6a;stroke-opacity:1" /><path
         class="st2"
         d="M214.78 221.45c0-.88.01-1.76.02-2.64v-.01c-.02.88-.02 1.76-.02 2.65v0m1.35-4.11c.09-.58.18-1.16.28-1.73 1.64-2.54 3.88-4.6 6.02-6.37.6-.5 1.21-.99 1.82-1.49 7.24-5.91 14.72-12.02 13.01-21.89.3 1.24.58 2.47.83 3.69-.24 3.96-1.85 7.79-4.68 11-2.03 2.31-4.67 4.38-7.22 6.37-3.92 3.07-7.94 6.22-10.06 10.42"
         id="path2479"
         fill="#982823"
         fill-opacity=".502"
         stroke="#982823"
         stroke-width=".3"
         stroke-miterlimit="4"
         stroke-dasharray="none"
         stroke-opacity="1"
         style="fill:#689d6a;fill-opacity:1;stroke:#689d6a;stroke-opacity:1" /><path
         class="st3"
         d="M235.41 177.57c-.14-.3-.27-.59-.41-.89.08-.19.16-.39.24-.6.03.5.09.99.17 1.49m-.8-1.73c-.07-.15-.14-.3-.21-.46-.35-.77-.71-1.56-.94-2.38.86-.55 1.73-1.11 2.61-1.68-.38.68-.62 1.41-.75 2.18-.06.05-.09.11-.11.19-.14.76-.34 1.47-.6 2.15m-1.31-3.57c-.08-.52-.09-1.04 0-1.57.11-.58.34-1.12.66-1.6.69-.03 1.38-.05 2.06-.07.83-.02 1.68-.05 2.53-.08-.02.01-.05.02-.07.04h-.02c-.06 0-.12.02-.17.05-1.6 1.09-3.3 2.17-4.99 3.23m1.21-3.83c.8-.82 1.88-1.42 2.99-1.72 1.09-.3 2.21-.38 3.34-.38.91 0 1.82.05 2.73.08.65.02 1.3.03 1.94.03 2.96 0 5.93-.23 8.86-.69.59-.09 1.38-.22 2.12-.42-1.5.94-3.57 1.36-5.38 1.57-.99.11-1.91.17-2.61.21-.57.03-1.14.07-1.7.11-.26.02-.52.04-.78.07-.25.03-.51.06-.76.1-1.05.17-2.27.3-3.47.53-.39.08-.78.16-1.16.26-1.66.12-3.34.17-4.97.22-.38 0-.76.01-1.15.03"
         id="path2481"
         fill="#982823"
         fill-opacity=".502"
         stroke="#982823"
         stroke-width=".3"
         stroke-miterlimit="4"
         stroke-dasharray="none"
         stroke-opacity="1"
         style="fill:#689d6a;fill-opacity:1;stroke:#689d6a;stroke-opacity:1" /><path
         class="st4"
         d="M233.46 173.01c-.07-.25-.12-.49-.16-.74 1.69-1.06 3.39-2.14 5-3.23.05-.04.11-.05.17-.05h.02c-.2.11-.4.23-.58.36-.82.57-1.42 1.24-1.84 1.98-.88.57-1.75 1.13-2.61 1.68"
         id="path2483"
         fill="#982823"
         fill-opacity=".502"
         stroke="#982823"
         stroke-width=".3"
         stroke-miterlimit="4"
         stroke-dasharray="none"
         stroke-opacity="1"
         style="fill:#689d6a;fill-opacity:1;stroke:#689d6a;stroke-opacity:1" /><path
         class="st4"
         d="M233.97 169.1c.16-.24.34-.46.54-.67l1.15-.03c1.63-.05 3.31-.1 4.97-.22-.74.19-1.45.44-2.08.77-.85.04-1.7.06-2.53.08-.67.03-1.36.05-2.05.07"
         id="path2485"
         fill="#982823"
         fill-opacity=".502"
         stroke="#982823"
         stroke-width=".3"
         stroke-miterlimit="4"
         stroke-dasharray="none"
         stroke-opacity="1"
         style="fill:#689d6a;fill-opacity:1;stroke:#689d6a;stroke-opacity:1" /><path
         class="st4"
         d="M235 176.68l-.39-.84c.26-.68.46-1.39.6-2.15.01-.08.05-.14.11-.19-.14.83-.15 1.7-.08 2.58-.08.21-.16.41-.24.6"
         id="path2487"
         fill="#982823"
         fill-opacity=".502"
         stroke="#982823"
         stroke-width=".3"
         stroke-miterlimit="4"
         stroke-dasharray="none"
         stroke-opacity="1"
         style="fill:#689d6a;fill-opacity:1;stroke:#689d6a;stroke-opacity:1" /><path
         class="st3"
         d="M215.99 236.34h-.1c-.05 0-.09-.01-.13-.02a.8.8 0 01-.41-.23c1.01-3.83 3.04-6.92 5.51-9.77.34-.15.71-.34 1.1-.58 1.67-1.04 2.9-2.65 4.08-4.22l1.59-2.13c1.41-1.41 2.81-2.87 4.08-4.41 2.97-3.61 5.19-7.68 6.63-12.12.13-.26.26-.52.38-.79-.36 2.06-1 4.14-2.04 6.24-3.39 6.88-8.06 13.08-12.37 19.39-1.38 2.02-2.86 3.94-4.27 5.93-.71.98-2.81 2.71-4.05 2.71m-.92-1.66v-.47c0-2.06-.07-4.12-.15-6.18.06-.04.11-.1.13-.18.36-1.29.84-2.47 1.43-3.57.5 1.4 1.36 2.41 2.76 2.41.13 0 .27-.01.41-.03-1.95 2.3-3.55 4.82-4.58 8.02m-.21-8.41c-.03-.93-.06-1.87-.07-2.8v-.23c-.01-.6-.01-1.2-.01-1.79l.07-.37c.25-1.34.69-2.58 1.28-3.74-.01.07-.02.15-.04.22-.25 1.57-.32 3.92.13 5.83-.52.89-.98 1.84-1.36 2.88m-.06-7.47c.02-1.44.05-2.87.09-4.31.04-.04.08-.08.1-.14.73-1.74 1.69-3.36 2.8-4.9-.15.59-.31 1.17-.46 1.75-.4 1.47-.68 2.92-.92 4.39-.65 1-1.2 2.07-1.61 3.21m16.49-4.45c1.37-1.94 2.7-3.92 3.94-5.94-1.08 2.02-2.39 3.98-3.94 5.94m-16.37-1.47c.05-1.94.1-3.89.13-5.83.83-3.24 2.28-5.94 4.17-8.4.13 3.1-.36 6.21-1.05 9.24-1.25 1.57-2.37 3.22-3.25 4.99m.15-8.13c0-1.6-.01-3.2-.06-4.79.73-2.68 1.88-4.89 3.34-6.81.34 1.33.62 2.67.77 4.03.01.12.03.24.04.36-1.86 2.3-3.18 4.66-4.09 7.21m-.14-6.74c-.1-2-.26-4.04-.42-6.09l.02-.16c.28-1.94.92-3.69 2.02-5.38.22 1.17.51 2.34.86 3.5.23.76.46 1.51.67 2.28-1.35 1.77-2.4 3.71-3.15 5.85m-.62-8.78c0-.04-.01-.08-.01-.12-.06-.8-.11-1.6-.15-2.41-.04-.79-.07-1.58-.1-2.37l.1-.39c.53-2.12 1.1-3.99 1.81-5.63-.08 2.26.03 4.52.37 6.77-.91 1.28-1.59 2.66-2.02 4.15m-.28-7.46c.03-3.22.31-6.41 1.07-9.49l.02-.04c.68-1.17 1.42-2.21 2.24-3.1-.62 2.34-1.05 4.7-1.27 7.08-.87 1.7-1.52 3.6-2.06 5.55m1.7-11.66a24.5 24.5 0 013.63-6.87c-.47 1.07-.87 2.18-1.24 3.33-.14.44-.28.87-.41 1.31-.71.66-1.37 1.4-1.98 2.23"
         id="path2489"
         fill="#982823"
         fill-opacity=".502"
         stroke="#982823"
         stroke-width=".3"
         stroke-miterlimit="4"
         stroke-dasharray="none"
         stroke-opacity="1"
         style="fill:#689d6a;fill-opacity:1;stroke:#689d6a;stroke-opacity:1" /><path
         class="st4"
         d="M214.51 191.92c-.07-.89-.14-1.79-.2-2.69.44-1.49 1.11-2.87 2.03-4.14.07.43.14.86.22 1.29-1.1 1.69-1.74 3.44-2.02 5.38l-.03.16"
         id="path2491"
         fill="#982823"
         fill-opacity=".502"
         stroke="#982823"
         stroke-width=".3"
         stroke-miterlimit="4"
         stroke-dasharray="none"
         stroke-opacity="1"
         style="fill:#689d6a;fill-opacity:1;stroke:#689d6a;stroke-opacity:1" /><path
         class="st4"
         d="M215.1 172.28c.02-.06.03-.13.05-.2.17-.68.37-1.33.58-1.97.61-.83 1.27-1.57 1.98-2.22-.12.42-.24.84-.35 1.26-.82.89-1.57 1.92-2.24 3.1l-.02.03"
         id="path2493"
         fill="#982823"
         fill-opacity=".502"
         stroke="#982823"
         stroke-width=".3"
         stroke-miterlimit="4"
         stroke-dasharray="none"
         stroke-opacity="1"
         style="fill:#689d6a;fill-opacity:1;stroke:#689d6a;stroke-opacity:1" /><path
         class="st4"
         d="M214.05 184.33c-.02-.85-.03-1.71-.03-2.56.54-1.95 1.19-3.85 2.07-5.54-.06.7-.11 1.39-.14 2.09-.7 1.64-1.27 3.51-1.81 5.63l-.09.38"
         id="path2495"
         fill="#982823"
         fill-opacity=".502"
         stroke="#982823"
         stroke-width=".3"
         stroke-miterlimit="4"
         stroke-dasharray="none"
         stroke-opacity="1"
         style="fill:#689d6a;fill-opacity:1;stroke:#689d6a;stroke-opacity:1" /><path
         class="st4"
         d="M215.35 236.08c-.15-.17-.26-.44-.28-.81 0-.07-.01-.15-.01-.23v-.36c1.03-3.2 2.63-5.71 4.58-8.02a4.6 4.6 0 001.21-.35c-2.46 2.85-4.48 5.94-5.5 9.77m12.28-16.7c1.24-1.66 2.47-3.33 3.66-5.03 1.55-1.96 2.86-3.93 3.94-5.94 1.11-1.82 2.16-3.67 3.1-5.57a36.416 36.416 0 01-6.63 12.12c-1.26 1.55-2.66 3.01-4.07 4.42"
         id="path2497"
         fill="#982823"
         fill-opacity=".502"
         stroke="#982823"
         stroke-width=".3"
         stroke-miterlimit="4"
         stroke-dasharray="none"
         stroke-opacity="1"
         style="fill:#689d6a;fill-opacity:1;stroke:#689d6a;stroke-opacity:1" /><path
         class="st4"
         d="M214.92 228.02c-.02-.43-.03-.87-.05-1.3-.01-.15-.01-.3-.01-.45.38-1.04.84-2 1.36-2.89.07.31.16.6.25.88-.59 1.1-1.07 2.28-1.43 3.57-.01.09-.06.15-.12.19"
         id="path2499"
         fill="#982823"
         fill-opacity=".502"
         stroke="#982823"
         stroke-width=".3"
         stroke-miterlimit="4"
         stroke-dasharray="none"
         stroke-opacity="1"
         style="fill:#689d6a;fill-opacity:1;stroke:#689d6a;stroke-opacity:1" /><path
         class="st4"
         d="M214.88 214.49c.01-.54.03-1.07.04-1.61.88-1.77 1.99-3.42 3.24-4.99-.12.52-.25 1.05-.38 1.57-1.11 1.54-2.08 3.16-2.8 4.9-.02.05-.05.1-.1.13"
         id="path2501"
         fill="#982823"
         fill-opacity=".502"
         stroke="#982823"
         stroke-width=".3"
         stroke-miterlimit="4"
         stroke-dasharray="none"
         stroke-opacity="1"
         style="fill:#689d6a;fill-opacity:1;stroke:#689d6a;stroke-opacity:1" /><path
         class="st4"
         d="M215.01 199.96c-.01-.21-.01-.41-.02-.62l-.06-1.33c.75-2.13 1.8-4.08 3.16-5.86l.27.99a19.254 19.254 0 00-3.35 6.82"
         id="path2503"
         fill="#982823"
         fill-opacity=".502"
         stroke="#982823"
         stroke-width=".3"
         stroke-miterlimit="4"
         stroke-dasharray="none"
         stroke-opacity="1"
         style="fill:#689d6a;fill-opacity:1;stroke:#689d6a;stroke-opacity:1" /><path
         class="st4"
         d="M215.05 207.05c.01-.77.02-1.54.02-2.3.91-2.55 2.23-4.91 4.08-7.21.03.37.06.75.07 1.12-1.89 2.45-3.34 5.15-4.17 8.39"
         id="path2505"
         fill="#982823"
         fill-opacity=".502"
         stroke="#982823"
         stroke-width=".3"
         stroke-miterlimit="4"
         stroke-dasharray="none"
         stroke-opacity="1"
         style="fill:#689d6a;fill-opacity:1;stroke:#689d6a;stroke-opacity:1" /><path
         class="st4"
         d="M214.78 221.44c0-.88.01-1.76.02-2.64.42-1.15.97-2.21 1.61-3.2-.1.57-.19 1.15-.28 1.73-.59 1.16-1.03 2.4-1.28 3.74l-.07.37"
         id="path2507"
         fill="#982823"
         fill-opacity=".502"
         stroke="#982823"
         stroke-width=".3"
         stroke-miterlimit="4"
         stroke-dasharray="none"
         stroke-opacity="1"
         style="fill:#689d6a;fill-opacity:1;stroke:#689d6a;stroke-opacity:1" /></g><g
       id="g2561"
       fill="#982823"
       fill-opacity=".502"
       stroke="#982823"
       stroke-width=".3"
       stroke-miterlimit="4"
       stroke-dasharray="none"
       stroke-opacity="1"
       style="fill:#689d6a;fill-opacity:1;stroke:#689d6a;stroke-opacity:1"><path
         class="st1"
         d="M211.99 223.46c-.06 3.85-.31 7.71-.27 11.56.04 3.03-3.95.03-4.97-1.41-1.41-1.99-2.89-3.92-4.27-5.93-4.31-6.31-8.98-12.51-12.37-19.39-4.69-9.49-1.4-18.39.73-27.97.87-3.94 1.71-8.44-1.96-10.99-1.98-1.38-5.08-1.59-7.35-1.95-1.09-.17-2.14-.22-3.23-.28-3.22-.2-10.9-.57-10.05-6.25 6.59 1.13 15.06-.16 18.84-.74 4.28-.66 8.4-1.98 12.07-3.98 6.26 3.47 10.68 8.77 12.5 15.95 2.23 8.74.5 18.36.17 27.24-.33 8.02.28 16.1.16 24.14"
         id="path2511"
         fill="#982823"
         fill-opacity=".502"
         stroke="#982823"
         stroke-width=".3"
         stroke-miterlimit="4"
         stroke-dasharray="none"
         stroke-opacity="1"
         style="fill:#689d6a;fill-opacity:1;stroke:#689d6a;stroke-opacity:1" /><path
         class="st2"
         d="M212.27 191.92v-.02c.07-.89.14-1.79.2-2.69v.05c-.06.89-.13 1.78-.2 2.66m-2.05-5.57c-1.38-2.11-3.47-4.14-6.47-6.35-3.44-2.54-6.64-4.58-9.73-6.56-.24-.15-.47-.31-.71-.46.07-.25.12-.49.16-.74.42.27.85.53 1.27.79 4.68 2.92 9.53 5.95 13.5 9.58.84.77 1.57 1.59 2.19 2.45-.05.44-.13.87-.21 1.29"
         id="path2513"
         fill="#982823"
         fill-opacity=".502"
         stroke="#982823"
         stroke-width=".3"
         stroke-miterlimit="4"
         stroke-dasharray="none"
         stroke-opacity="1"
         style="fill:#689d6a;fill-opacity:1;stroke:#689d6a;stroke-opacity:1" /><path
         class="st2"
         d="M178.38 163.46c2.65 0 5.29-.25 7.84-.76 1.43-.28 2.88-.66 4.41-1.06 3.07-.81 6.25-1.64 9.3-1.64 2.31 0 4.29.48 6.06 1.46-.44-.48-.9-.94-1.37-1.39-1.33-.51-2.72-.75-4.23-.75-2.17 0-4.4.51-6.76 1.05l-.36.08c-4.98 1.13-10.34 2.18-15.86 2.18-3.2 0-6.23-.35-9.25-1.06 0 .24.01.47.04.69 3.42.8 6.84 1.2 10.18 1.2"
         id="path2515"
         fill="#982823"
         fill-opacity=".502"
         stroke="#982823"
         stroke-width=".3"
         stroke-miterlimit="4"
         stroke-dasharray="none"
         stroke-opacity="1"
         style="fill:#689d6a;fill-opacity:1;stroke:#689d6a;stroke-opacity:1" /><path
         class="st2"
         d="M211.69 172.29l-.01-.03c-.02-.06-.03-.13-.05-.2-.17-.68-.37-1.33-.58-1.97l.02.02c.21.63.41 1.28.57 1.95.01.08.03.15.05.23m-2.28-3.16c-2.87-3.11-6.71-4.53-12.03-4.53-2.93 0-6.09.42-9.14.82-3.14.41-6.4.84-9.5.84v0c-3.99 0-7.15-.7-9.85-2.21-.23-.33-.42-.69-.54-1.09 2.81 1.82 6.18 2.67 10.56 2.67 3.05 0 6.26-.41 9.37-.81 3.05-.39 6.21-.8 9.15-.8 5.03 0 8.76 1.21 11.63 3.84.13.43.24.85.35 1.27"
         id="path2517"
         fill="#982823"
         fill-opacity=".502"
         stroke="#982823"
         stroke-width=".3"
         stroke-miterlimit="4"
         stroke-dasharray="none"
         stroke-opacity="1"
         style="fill:#689d6a;fill-opacity:1;stroke:#689d6a;stroke-opacity:1" /><path
         class="st2"
         d="M212.72 184.32v-.01c.02-.85.03-1.71.03-2.56v.02c.01.85 0 1.7-.03 2.55m-1.9-6.03c-2.34-5.44-6.12-8.29-14.67-9.02-1.11-.09-2.23-.15-3.34-.19-.16-.24-.34-.46-.54-.67 4.16.13 8.42.38 12.41 1.96 2.82 1.12 4.68 3.24 6.01 5.83.05.7.1 1.4.13 2.09"
         id="path2519"
         fill="#982823"
         fill-opacity=".502"
         stroke="#982823"
         stroke-width=".3"
         stroke-miterlimit="4"
         stroke-dasharray="none"
         stroke-opacity="1"
         style="fill:#689d6a;fill-opacity:1;stroke:#689d6a;stroke-opacity:1" /><path
         class="st2"
         d="M211.42 236.06s0 0 0 0c.15-.17.25-.44.28-.82-.02.39-.12.65-.28.82m-4.29-9.42a4.6 4.6 0 01-1.21-.35c-1.56-1.79-3.29-3.5-5.06-5.23-.57-.56-1.14-1.12-1.71-1.69-1.24-1.66-2.47-3.33-3.66-5.03 1.45 1.83 3.11 3.67 5.01 5.54l1.61 1.58c1.81 1.74 3.52 3.4 5.02 5.18m-15.58-18.24c-1.11-1.82-2.16-3.67-3.1-5.57-.19-.6-.37-1.21-.54-1.83-.15-1.21-.21-2.42-.19-3.63.05.04.09.11.11.19.69 3.9 1.88 7.44 3.72 10.84"
         id="path2521"
         fill="#982823"
         fill-opacity=".502"
         stroke="#982823"
         stroke-width=".3"
         stroke-miterlimit="4"
         stroke-dasharray="none"
         stroke-opacity="1"
         style="fill:#689d6a;fill-opacity:1;stroke:#689d6a;stroke-opacity:1" /><path
         class="st2"
         d="M211.86 228v0c.01-.43.03-.87.04-1.3-.01.44-.03.87-.04 1.3m-1.56-3.75c-1.99-3.71-5.16-6.45-8.47-9.3-2.12-1.83-4.31-3.72-6.17-5.89-3.94-4.61-6.5-9.34-7.79-14.39.06-.65.15-1.29.24-1.94 1.44 7.42 5.51 14 12.79 20.66.81.74 1.62 1.44 2.4 2.13 2.76 2.41 5.4 4.72 7.25 7.85-.07.31-.15.6-.25.88"
         id="path2523"
         fill="#982823"
         fill-opacity=".502"
         stroke="#982823"
         stroke-width=".3"
         stroke-miterlimit="4"
         stroke-dasharray="none"
         stroke-opacity="1"
         style="fill:#689d6a;fill-opacity:1;stroke:#689d6a;stroke-opacity:1" /><path
         class="st2"
         d="M211.9 214.48c-.01 0-.01 0 0 0-.02-.54-.03-1.08-.05-1.62 0 0 0 .01.01.01.01.54.02 1.07.04 1.61m-2.92-5.04c-2.12-2.93-4.8-5.56-7.41-8.13-5.31-5.22-10.78-10.6-11.35-18.38.2-.83.4-1.67.58-2.51l.06.17c-.46 8.87 5.23 14.46 11.26 20.38 2.24 2.2 4.53 4.45 6.48 6.89.13.54.25 1.06.38 1.58"
         id="path2525"
         fill="#982823"
         fill-opacity=".502"
         stroke="#982823"
         stroke-width=".3"
         stroke-miterlimit="4"
         stroke-dasharray="none"
         stroke-opacity="1"
         style="fill:#689d6a;fill-opacity:1;stroke:#689d6a;stroke-opacity:1" /><path
         class="st2"
         d="M211.77 199.96v-.02c.01-.21.01-.41.02-.62l.06-1.33s0 .01.01.01l-.06 1.31-.03.65m-3.34-6.84c-2.45-3.23-5.75-5.69-9.35-8.38l-.56-.42c-2.69-2.01-5.31-4.33-6.74-7.66l.39-.84c1.65 4.35 5.46 7.08 9.16 9.72.92.66 1.88 1.34 2.78 2.04 1.8 1.38 3.33 2.9 4.59 4.55-.1.33-.19.66-.27.99"
         id="path2527"
         fill="#982823"
         fill-opacity=".502"
         stroke="#982823"
         stroke-width=".3"
         stroke-miterlimit="4"
         stroke-dasharray="none"
         stroke-opacity="1"
         style="fill:#689d6a;fill-opacity:1;stroke:#689d6a;stroke-opacity:1" /><path
         class="st2"
         d="M211.73 207.06c0-.01 0-.02-.01-.03-.01-.77-.02-1.54-.02-2.3 0 .01 0 .01.01.02 0 .77.01 1.54.02 2.31m-4.18-8.43c-2.28-2.96-5.22-5.57-8.53-8.37-3.33-2.81-6.67-5.92-8.09-10.4.1-.47.2-.94.29-1.42 1.2 5.4 5.32 8.84 9.31 12.18.83.69 1.69 1.41 2.51 2.14 1.8 1.59 3.32 3.16 4.59 4.75-.04.38-.06.75-.08 1.12"
         id="path2529"
         fill="#982823"
         fill-opacity=".502"
         stroke="#982823"
         stroke-width=".3"
         stroke-miterlimit="4"
         stroke-dasharray="none"
         stroke-opacity="1"
         style="fill:#689d6a;fill-opacity:1;stroke:#689d6a;stroke-opacity:1" /><path
         class="st2"
         d="M212 221.43v0c0-.89-.01-1.77-.02-2.65v.01c.01.88.02 1.76.02 2.64m-1.35-4.11c-2.12-4.2-6.14-7.35-10.06-10.42-2.55-2-5.18-4.07-7.22-6.37-2.83-3.21-4.45-7.04-4.68-11 .25-1.23.54-2.46.83-3.69-1.71 9.87 5.77 15.98 13.01 21.89l1.82 1.49c2.14 1.77 4.38 3.84 6.02 6.37.09.57.19 1.14.28 1.73"
         id="path2531"
         fill="#982823"
         fill-opacity=".502"
         stroke="#982823"
         stroke-width=".3"
         stroke-miterlimit="4"
         stroke-dasharray="none"
         stroke-opacity="1"
         style="fill:#689d6a;fill-opacity:1;stroke:#689d6a;stroke-opacity:1" /><path
         class="st3"
         d="M191.37 177.55c.08-.5.14-.99.17-1.48.08.2.15.4.24.6-.14.29-.28.58-.41.88m.8-1.73c-.26-.68-.46-1.39-.6-2.15a.287.287 0 00-.11-.19c-.13-.77-.36-1.51-.75-2.18.88.58 1.75 1.14 2.61 1.68-.22.81-.58 1.61-.94 2.38-.07.16-.15.31-.21.46m1.3-3.57c-1.69-1.06-3.39-2.14-5-3.23a.262.262 0 00-.17-.05h-.02c-.02-.01-.04-.02-.07-.04.85.04 1.7.06 2.53.08.68.02 1.37.04 2.06.07.33.48.56 1.02.66 1.6.11.52.1 1.05.01 1.57m-1.21-3.83l-1.15-.03c-1.63-.05-3.31-.1-4.97-.22-.38-.1-.77-.18-1.16-.26-1.21-.23-2.43-.37-3.47-.53-.26-.04-.51-.07-.76-.1-.26-.03-.52-.05-.78-.07-.56-.04-1.12-.08-1.7-.11-.7-.04-1.62-.09-2.61-.21-1.81-.21-3.88-.62-5.38-1.57.75.2 1.53.33 2.12.42 2.93.46 5.89.69 8.86.69.65 0 1.3-.01 1.94-.03.91-.03 1.82-.08 2.73-.08 1.13 0 2.26.08 3.34.38 1.12.3 2.2.89 2.99 1.72"
         id="path2533"
         fill="#982823"
         fill-opacity=".502"
         stroke="#982823"
         stroke-width=".3"
         stroke-miterlimit="4"
         stroke-dasharray="none"
         stroke-opacity="1"
         style="fill:#689d6a;fill-opacity:1;stroke:#689d6a;stroke-opacity:1" /><path
         class="st4"
         d="M193.31 172.99c.07-.25.12-.49.16-.74-1.69-1.06-3.39-2.14-5-3.23a.262.262 0 00-.17-.05h-.02c.2.11.4.23.58.36.82.57 1.42 1.24 1.84 1.98.89.57 1.76 1.13 2.61 1.68"
         id="path2535"
         fill="#982823"
         fill-opacity=".502"
         stroke="#982823"
         stroke-width=".3"
         stroke-miterlimit="4"
         stroke-dasharray="none"
         stroke-opacity="1"
         style="fill:#689d6a;fill-opacity:1;stroke:#689d6a;stroke-opacity:1" /><path
         class="st4"
         d="M192.81 169.08c-.16-.24-.34-.46-.54-.67l-1.15-.03c-1.63-.05-3.31-.1-4.97-.22.74.19 1.45.44 2.08.77.85.04 1.7.06 2.53.08.67.03 1.36.05 2.05.07"
         id="path2537"
         fill="#982823"
         fill-opacity=".502"
         stroke="#982823"
         stroke-width=".3"
         stroke-miterlimit="4"
         stroke-dasharray="none"
         stroke-opacity="1"
         style="fill:#689d6a;fill-opacity:1;stroke:#689d6a;stroke-opacity:1" /><path
         class="st4"
         d="M191.78 176.66l.39-.84c-.26-.68-.46-1.39-.6-2.15a.287.287 0 00-.11-.19c.14.83.15 1.7.08 2.58.07.21.15.41.24.6"
         id="path2539"
         fill="#982823"
         fill-opacity=".502"
         stroke="#982823"
         stroke-width=".3"
         stroke-miterlimit="4"
         stroke-dasharray="none"
         stroke-opacity="1"
         style="fill:#689d6a;fill-opacity:1;stroke:#689d6a;stroke-opacity:1" /><path
         class="st3"
         d="M210.77 236.42c-1.24 0-3.38-1.77-4.08-2.76-1.41-1.99-2.92-3.92-4.3-5.93-4.31-6.31-8.97-12.48-12.36-19.35-1.04-2.11-1.68-4.37-2.03-6.43l.44.88c1.43 4.45 3.65 8.51 6.63 12.12 1.27 1.54 2.67 3 4.08 4.41l1.59 2.13c1.18 1.58 2.41 3.19 4.08 4.22.39.24.75.43 1.1.58 2.47 2.85 4.49 5.93 5.51 9.77-.11.12-.26.3-.42.34-.04.01-.09.02-.13.02m.83-1.76c-1.03-3.2-2.63-5.71-4.58-8.02.14.02.28.03.41.03 1.4 0 2.26-1.01 2.76-2.41.59 1.1 1.07 2.28 1.43 3.57.02.08.07.14.13.18-.07 2.06-.15 4.12-.15 6.18v.47m.21-8.41c-.38-1.04-.84-2-1.36-2.89.45-1.92.38-4.26.13-5.83-.01-.07-.02-.15-.04-.22.59 1.16 1.03 2.4 1.28 3.74l.07.37c0 .6 0 1.2-.01 1.79v.23c-.02.95-.05 1.88-.07 2.81m.06-7.47c-.42-1.15-.97-2.21-1.61-3.2-.25-1.47-.52-2.92-.92-4.39-.16-.58-.31-1.17-.46-1.75 1.11 1.54 2.08 3.16 2.8 4.9.02.05.06.1.1.14.04 1.43.07 2.87.09 4.3m-16.5-4.45c-1.55-1.96-2.86-3.93-3.94-5.94 1.25 2.03 2.57 4 3.94 5.94m16.37-1.47c-.88-1.77-1.99-3.42-3.24-4.99-.7-3.03-1.18-6.14-1.05-9.24 1.9 2.46 3.34 5.16 4.17 8.4.02 1.95.07 3.89.12 5.83m-.15-8.13c-.91-2.55-2.23-4.91-4.08-7.21.01-.12.02-.24.04-.36.15-1.37.42-2.71.77-4.03 1.46 1.93 2.62 4.13 3.34 6.81-.05 1.59-.07 3.19-.07 4.79m.15-6.74c-.75-2.13-1.8-4.08-3.16-5.86.21-.76.44-1.52.67-2.28.35-1.16.64-2.33.86-3.5 1.1 1.69 1.74 3.44 2.02 5.38l.02.16c-.15 2.06-.31 4.09-.41 6.1m.62-8.78c-.44-1.49-1.11-2.87-2.03-4.14.34-2.25.46-4.52.37-6.77.7 1.64 1.27 3.51 1.81 5.63l.1.39c-.02.79-.06 1.58-.1 2.37-.04.8-.09 1.61-.15 2.41v.11m.28-7.46c-.54-1.95-1.19-3.85-2.07-5.54-.22-2.37-.65-4.74-1.27-7.08.82.89 1.57 1.92 2.24 3.1l.02.04c.77 3.07 1.05 6.26 1.08 9.48m-1.71-11.66c-.61-.83-1.27-1.57-1.98-2.22-.13-.44-.26-.88-.41-1.31a37.51 37.51 0 00-1.24-3.33c1.54 2.03 2.76 4.31 3.63 6.86"
         id="path2541"
         fill="#982823"
         fill-opacity=".502"
         stroke="#982823"
         stroke-width=".3"
         stroke-miterlimit="4"
         stroke-dasharray="none"
         stroke-opacity="1"
         style="fill:#689d6a;fill-opacity:1;stroke:#689d6a;stroke-opacity:1" /><path
         class="st4"
         d="M212.27 191.9c.07-.89.14-1.79.2-2.69-.44-1.49-1.11-2.87-2.03-4.14-.07.43-.14.86-.22 1.29 1.1 1.69 1.74 3.44 2.02 5.38l.03.16"
         id="path2543"
         fill="#982823"
         fill-opacity=".502"
         stroke="#982823"
         stroke-width=".3"
         stroke-miterlimit="4"
         stroke-dasharray="none"
         stroke-opacity="1"
         style="fill:#689d6a;fill-opacity:1;stroke:#689d6a;stroke-opacity:1" /><path
         class="st4"
         d="M211.68 172.26c-.02-.06-.03-.13-.05-.2-.17-.68-.37-1.33-.58-1.97-.61-.83-1.27-1.57-1.98-2.22.12.42.24.84.35 1.26.82.89 1.57 1.92 2.24 3.1l.02.03"
         id="path2545"
         fill="#982823"
         fill-opacity=".502"
         stroke="#982823"
         stroke-width=".3"
         stroke-miterlimit="4"
         stroke-dasharray="none"
         stroke-opacity="1"
         style="fill:#689d6a;fill-opacity:1;stroke:#689d6a;stroke-opacity:1" /><path
         class="st4"
         d="M212.72 184.31c.02-.85.03-1.71.03-2.56-.54-1.95-1.19-3.85-2.07-5.54.06.7.11 1.39.14 2.09.7 1.64 1.27 3.51 1.81 5.63l.09.38"
         id="path2547"
         fill="#982823"
         fill-opacity=".502"
         stroke="#982823"
         stroke-width=".3"
         stroke-miterlimit="4"
         stroke-dasharray="none"
         stroke-opacity="1"
         style="fill:#689d6a;fill-opacity:1;stroke:#689d6a;stroke-opacity:1" /><path
         class="st4"
         d="M211.42 236.06c-1.01-3.83-3.04-6.92-5.51-9.77.44.19.84.3 1.21.35 1.95 2.31 3.55 4.82 4.58 8.02v.36c0 .08 0 .16-.01.23-.01.37-.11.64-.27.81m-12.27-16.7c-1.41-1.41-2.81-2.87-4.08-4.41a36.875 36.875 0 01-6.63-12.12c.94 1.9 1.99 3.75 3.1 5.57 1.08 2.01 2.39 3.97 3.94 5.94 1.2 1.69 2.43 3.36 3.67 5.02"
         id="path2549"
         fill="#982823"
         fill-opacity=".502"
         stroke="#982823"
         stroke-width=".3"
         stroke-miterlimit="4"
         stroke-dasharray="none"
         stroke-opacity="1"
         style="fill:#689d6a;fill-opacity:1;stroke:#689d6a;stroke-opacity:1" /><path
         class="st4"
         d="M211.85 228c.02-.43.03-.87.05-1.3.01-.15.01-.3.01-.45-.38-1.04-.84-2-1.36-2.89-.07.31-.16.6-.25.88.59 1.1 1.07 2.28 1.43 3.57.02.09.06.15.12.19"
         id="path2551"
         fill="#982823"
         fill-opacity=".502"
         stroke="#982823"
         stroke-width=".3"
         stroke-miterlimit="4"
         stroke-dasharray="none"
         stroke-opacity="1"
         style="fill:#689d6a;fill-opacity:1;stroke:#689d6a;stroke-opacity:1" /><path
         class="st4"
         d="M211.89 214.47c-.01-.54-.03-1.07-.04-1.61-.88-1.77-1.99-3.42-3.24-4.99.12.52.25 1.05.38 1.57 1.11 1.54 2.08 3.16 2.8 4.9.02.05.06.1.1.13"
         id="path2553"
         fill="#982823"
         fill-opacity=".502"
         stroke="#982823"
         stroke-width=".3"
         stroke-miterlimit="4"
         stroke-dasharray="none"
         stroke-opacity="1"
         style="fill:#689d6a;fill-opacity:1;stroke:#689d6a;stroke-opacity:1" /><path
         class="st4"
         d="M211.77 199.94c.01-.21.01-.41.02-.62l.06-1.33c-.75-2.13-1.8-4.08-3.16-5.86l-.27.99c1.47 1.93 2.62 4.13 3.35 6.82"
         id="path2555"
         fill="#982823"
         fill-opacity=".502"
         stroke="#982823"
         stroke-width=".3"
         stroke-miterlimit="4"
         stroke-dasharray="none"
         stroke-opacity="1"
         style="fill:#689d6a;fill-opacity:1;stroke:#689d6a;stroke-opacity:1" /><path
         class="st4"
         d="M211.72 207.03c-.01-.77-.02-1.54-.02-2.3-.91-2.55-2.23-4.91-4.08-7.21-.03.37-.06.75-.07 1.12 1.9 2.45 3.34 5.15 4.17 8.39"
         id="path2557"
         fill="#982823"
         fill-opacity=".502"
         stroke="#982823"
         stroke-width=".3"
         stroke-miterlimit="4"
         stroke-dasharray="none"
         stroke-opacity="1"
         style="fill:#689d6a;fill-opacity:1;stroke:#689d6a;stroke-opacity:1" /><path
         class="st4"
         d="M212 221.42c0-.88-.01-1.76-.02-2.64-.42-1.15-.97-2.21-1.61-3.2.1.57.19 1.15.28 1.73.59 1.16 1.03 2.4 1.28 3.74l.07.37"
         id="path2559"
         fill="#982823"
         fill-opacity=".502"
         stroke="#982823"
         stroke-width=".3"
         stroke-miterlimit="4"
         stroke-dasharray="none"
         stroke-opacity="1"
         style="fill:#689d6a;fill-opacity:1;stroke:#689d6a;stroke-opacity:1" /></g></g><style
     type="text/css"
     id="style2624">.st0{display:none;opacity:.5;fill:none;stroke:#231f20;stroke-width:.05;stroke-miterlimit:10}.st1{fill:#e92a2a}.st2{fill:#d52626}</style><g
     id="g2677"
     transform="translate(-121.985 -98.994)"
     fill="#982823"
     fill-opacity=".502"
     stroke="#982823"
     stroke-width=".3"
     stroke-miterlimit="4"
     stroke-dasharray="none"
     stroke-opacity="1"
     style="fill:#689d6a;fill-opacity:1;stroke:#689d6a;stroke-opacity:1"><path
       class="st0"
       d="M418.44 444.92c-2.94 1.51-8.31 5.17-9.04 17.27"
       id="path2626"
       fill="#982823"
       fill-opacity=".502"
       stroke="#982823"
       stroke-width=".3"
       stroke-miterlimit="4"
       stroke-dasharray="none"
       stroke-opacity="1"
       style="fill:#689d6a;fill-opacity:1;stroke:#689d6a;stroke-opacity:1" /><path
       class="st1"
       d="M211.3 130.7c-.13 5.88-.52 10.25-4.08 15.18-3.63 5.02-6.15 8.02-12.04 10.4-5.53 2.25-29.54 7.6-34.98-.35.55-.33 1.06-.8 1.71-1.39 1.35-1.23 3.39-3.08 7.75-5.61 2.54-1.48 6.35-3.23 10.39-5.07 6.4-2.92 13.02-5.96 14.89-8.14 4.31-3.49 7.03-8.71 9.44-13.64.52-1.08 1.01-2.18 1.55-3.26.58-1.15 1.54-2.39 2.8-2.88 1.16-.44 2.36.56 2.46 1.7.16.99.24 1.98.24 2.99.11 3.33-.06 6.72-.13 10.07"
       id="path2628"
       fill="#982823"
       fill-opacity=".502"
       stroke="#982823"
       stroke-width=".3"
       stroke-miterlimit="4"
       stroke-dasharray="none"
       stroke-opacity="1"
       style="fill:#689d6a;fill-opacity:1;stroke:#689d6a;stroke-opacity:1" /><path
       class="st1"
       d="M213.79 130.7c.12 5.88.52 10.25 4.08 15.18 3.63 5.02 6.15 8.02 12.04 10.4 5.53 2.25 29.54 7.6 34.98-.35-.55-.33-1.06-.8-1.71-1.39-1.35-1.23-3.39-3.08-7.75-5.61-2.54-1.48-6.35-3.23-10.39-5.07-6.4-2.92-13.02-5.96-14.89-8.14-4.31-3.49-7.03-8.71-9.44-13.64-.52-1.08-1.01-2.18-1.55-3.26-.58-1.15-1.54-2.39-2.8-2.88-1.16-.44-2.36.56-2.46 1.7-.16.99-.24 1.98-.24 2.99-.11 3.33.06 6.72.13 10.07"
       id="path2630"
       fill="#982823"
       fill-opacity=".502"
       stroke="#982823"
       stroke-width=".3"
       stroke-miterlimit="4"
       stroke-dasharray="none"
       stroke-opacity="1"
       style="fill:#689d6a;fill-opacity:1;stroke:#689d6a;stroke-opacity:1" /><path
       class="st2"
       d="M192.25 137.88l.11-.16c1.09-.68 1.95-1.32 2.48-1.9 1.49-.66 3.05-1.24 4.58-1.8 5.15-1.9 10.02-3.7 12.01-8.46-.01.53-.03 1.06-.04 1.59-2.39 4-7.12 5.75-11.7 7.45-2.32.86-4.71 1.75-6.79 2.92l-.65.36"
       id="path2632"
       fill="#982823"
       fill-opacity=".502"
       stroke="#982823"
       stroke-width=".3"
       stroke-miterlimit="4"
       stroke-dasharray="none"
       stroke-opacity="1"
       style="fill:#689d6a;fill-opacity:1;stroke:#689d6a;stroke-opacity:1" /><path
       class="st2"
       d="M198.06 132.62c.56-.67 1.08-1.36 1.58-2.08.89-.64 1.8-1.25 2.7-1.85 3.91-2.61 7.6-5.07 8.97-9.61.01-.04.03-.08.06-.11.05.54.07 1.09.07 1.64v.03c-1.71 3.87-5.24 6.24-8.67 8.53-1.6 1.08-3.26 2.19-4.71 3.45"
       id="path2634"
       fill="#982823"
       fill-opacity=".502"
       stroke="#982823"
       stroke-width=".3"
       stroke-miterlimit="4"
       stroke-dasharray="none"
       stroke-opacity="1"
       style="fill:#689d6a;fill-opacity:1;stroke:#689d6a;stroke-opacity:1" /><path
       class="st2"
       d="M201.42 127.74c.54-.93 1.05-1.87 1.54-2.82l2.75-3.22c.29-.35.63-.7.98-1.07 1.33-1.41 2.84-3 2.85-4.8.24.03.46.12.66.24-.09 1.63-1.2 2.87-2.27 4.07-.18.21-.37.42-.55.62l-5.96 6.97v.01"
       id="path2636"
       fill="#982823"
       fill-opacity=".502"
       stroke="#982823"
       stroke-width=".3"
       stroke-miterlimit="4"
       stroke-dasharray="none"
       stroke-opacity="1"
       style="fill:#689d6a;fill-opacity:1;stroke:#689d6a;stroke-opacity:1" /><path
       class="st2"
       d="M174.67 146.35c1.15-.55 2.38-1.12 3.64-1.7 2.8-.68 5.72-1.16 8.57-1.64 10.43-1.73 20.28-3.37 24.44-13.24v-.01c-.01.31-.01.62-.02.93 0 .25-.01.5-.02.74-4.61 8.89-14.56 10.55-24.19 12.16-4.21.71-8.53 1.44-12.42 2.76"
       id="path2638"
       fill="#982823"
       fill-opacity=".502"
       stroke="#982823"
       stroke-width=".3"
       stroke-miterlimit="4"
       stroke-dasharray="none"
       stroke-opacity="1"
       style="fill:#689d6a;fill-opacity:1;stroke:#689d6a;stroke-opacity:1" /><path
       class="st2"
       d="M164.7 152.19c.7-.53 1.52-1.11 2.49-1.75 4.05-1.35 8.46-1.84 12.74-2.32 1.87-.21 3.8-.42 5.63-.7l.6-.09c9.32-1.43 20.85-3.21 24.94-12.39-.06.67-.13 1.32-.23 1.97-5.12 8.9-16.58 10.19-27.68 11.44-6.53.72-13.28 1.48-18.49 3.84"
       id="path2640"
       fill="#982823"
       fill-opacity=".502"
       stroke="#982823"
       stroke-width=".3"
       stroke-miterlimit="4"
       stroke-dasharray="none"
       stroke-opacity="1"
       style="fill:#689d6a;fill-opacity:1;stroke:#689d6a;stroke-opacity:1" /><path
       class="st2"
       d="M176.28 155.55v0c-1.35 0-2.74-.03-4.27-.09-1.07-.04-2.19-.13-3.28-.21-1.59-.12-3.23-.24-4.83-.24-.97 0-1.85.05-2.67.14.21-.19.44-.39.68-.61.02-.02.04-.04.07-.06 1-.09 2.1-.13 3.33-.13 2.09 0 4.29.12 6.41.24 2.05.11 4.18.23 6.12.23.83 0 1.58-.02 2.28-.06 11.38-.7 20.01-3.49 27.03-8.77-.43.6-.85 1.17-1.26 1.71-5.43 3.64-11.9 6-19.65 7.18-2.99.44-6.25.67-9.96.67"
       id="path2642"
       fill="#982823"
       fill-opacity=".502"
       stroke="#982823"
       stroke-width=".3"
       stroke-miterlimit="4"
       stroke-dasharray="none"
       stroke-opacity="1"
       style="fill:#689d6a;fill-opacity:1;stroke:#689d6a;stroke-opacity:1" /><path
       class="st2"
       d="M232.86 137.88l-.66-.37c-2.08-1.17-4.47-2.06-6.79-2.91-4.58-1.7-9.31-3.45-11.7-7.45-.01-.53-.03-1.06-.04-1.59 1.99 4.76 6.86 6.56 12.01 8.46 1.52.56 3.08 1.14 4.57 1.8.54.58 1.4 1.23 2.5 1.91l.11.15"
       id="path2644"
       fill="#982823"
       fill-opacity=".502"
       stroke="#982823"
       stroke-width=".3"
       stroke-miterlimit="4"
       stroke-dasharray="none"
       stroke-opacity="1"
       style="fill:#689d6a;fill-opacity:1;stroke:#689d6a;stroke-opacity:1" /><path
       class="st2"
       d="M227.04 132.61c-1.45-1.25-3.1-2.36-4.71-3.43-3.43-2.3-6.96-4.66-8.67-8.54v-.03c0-.55.03-1.1.08-1.64.03.03.05.07.06.11 1.37 4.54 5.06 7 8.97 9.61.89.6 1.81 1.2 2.69 1.84.5.72 1.02 1.41 1.58 2.08"
       id="path2646"
       fill="#982823"
       fill-opacity=".502"
       stroke="#982823"
       stroke-width=".3"
       stroke-miterlimit="4"
       stroke-dasharray="none"
       stroke-opacity="1"
       style="fill:#689d6a;fill-opacity:1;stroke:#689d6a;stroke-opacity:1" /><path
       class="st2"
       d="M223.68 127.74v0l-5.97-6.97c-.18-.21-.36-.41-.55-.62-1.07-1.2-2.17-2.44-2.27-4.07.2-.12.43-.21.66-.24.01 1.79 1.52 3.39 2.85 4.8.35.37.69.73.98 1.07l2.73 3.19c.51.95 1.03 1.9 1.57 2.84"
       id="path2648"
       fill="#982823"
       fill-opacity=".502"
       stroke="#982823"
       stroke-width=".3"
       stroke-miterlimit="4"
       stroke-dasharray="none"
       stroke-opacity="1"
       style="fill:#689d6a;fill-opacity:1;stroke:#689d6a;stroke-opacity:1" /><path
       class="st2"
       d="M250.44 146.35c-3.89-1.32-8.21-2.05-12.43-2.75-9.63-1.61-19.58-3.27-24.19-12.16-.01-.24-.01-.49-.02-.74-.01-.31-.01-.62-.02-.93v.01c4.15 9.87 14.01 11.51 24.44 13.24 2.86.47 5.77.96 8.57 1.63 1.27.58 2.49 1.15 3.65 1.7"
       id="path2650"
       fill="#982823"
       fill-opacity=".502"
       stroke="#982823"
       stroke-width=".3"
       stroke-miterlimit="4"
       stroke-dasharray="none"
       stroke-opacity="1"
       style="fill:#689d6a;fill-opacity:1;stroke:#689d6a;stroke-opacity:1" /><path
       class="st2"
       d="M260.39 152.18c-5.21-2.35-11.95-3.1-18.48-3.84-11.1-1.25-22.57-2.54-27.69-11.45-.1-.64-.17-1.29-.23-1.96 4.09 9.19 15.62 10.96 24.94 12.39l.6.09c1.83.28 3.76.5 5.63.7 4.28.48 8.68.96 12.72 2.31.99.65 1.81 1.23 2.51 1.76"
       id="path2652"
       fill="#982823"
       fill-opacity=".502"
       stroke="#982823"
       stroke-width=".3"
       stroke-miterlimit="4"
       stroke-dasharray="none"
       stroke-opacity="1"
       style="fill:#689d6a;fill-opacity:1;stroke:#689d6a;stroke-opacity:1" /><path
       class="st2"
       d="M248.83 155.55c-3.71 0-6.97-.22-9.97-.68-7.76-1.18-14.22-3.54-19.65-7.18-.41-.54-.83-1.11-1.26-1.71 7.02 5.28 15.65 8.08 27.04 8.77.7.04 1.44.06 2.28.06 1.94 0 4.06-.12 6.12-.23 2.13-.12 4.33-.24 6.41-.24 1.22 0 2.32.04 3.32.13.02.02.05.04.07.06.24.22.47.43.68.61-.82-.09-1.7-.14-2.66-.14-1.6 0-3.25.12-4.83.24-1.08.08-2.2.17-3.27.21-1.54.07-2.93.1-4.28.1"
       id="path2654"
       fill="#982823"
       fill-opacity=".502"
       stroke="#982823"
       stroke-width=".3"
       stroke-miterlimit="4"
       stroke-dasharray="none"
       stroke-opacity="1"
       style="fill:#689d6a;fill-opacity:1;stroke:#689d6a;stroke-opacity:1" /></g><style
     type="text/css"
     id="style2679">.st0{display:none;opacity:.5;fill:none;stroke:#231f20;stroke-width:.05;stroke-miterlimit:10}.st1{fill:#e92a2a}.st2{fill:#d52626}.st3{fill:#9a1a1c}.st4{fill:#8d1819}</style><style
     type="text/css"
     id="style2892">.st0{display:none;opacity:.5;fill:none;stroke:#231f20;stroke-width:.05;stroke-miterlimit:10}.st1{fill:#e92a2a}.st2{fill:#d52626}.st3{fill:#9a1a1c}.st4{fill:#8d1819}</style><g
     id="g2969"
     transform="translate(-121.085 -97.854)"
     fill="#982823"
     fill-opacity=".502"
     stroke="#982823"
     stroke-width=".3"
     stroke-miterlimit="4"
     stroke-dasharray="none"
     stroke-opacity="1"
     style="fill:#689d6a;fill-opacity:1;stroke:#689d6a;stroke-opacity:1"><path
       class="st0"
       d="M418.44 444.92c-2.94 1.51-8.31 5.17-9.04 17.27"
       id="path2894"
       fill="#982823"
       fill-opacity=".502"
       stroke="#982823"
       stroke-width=".3"
       stroke-miterlimit="4"
       stroke-dasharray="none"
       stroke-opacity="1"
       style="fill:#689d6a;fill-opacity:1;stroke:#689d6a;stroke-opacity:1" /><g
       id="g2916"
       fill="#982823"
       fill-opacity=".502"
       stroke="#982823"
       stroke-width=".3"
       stroke-miterlimit="4"
       stroke-dasharray="none"
       stroke-opacity="1"
       style="fill:#689d6a;fill-opacity:1;stroke:#689d6a;stroke-opacity:1"><path
         class="st1"
         d="M237.13 187.73c.29 1.15.51 2.28.67 3.39l.13.1c.76 1.05 1.5 2.12 2.2 3.22 6.02-2.02 11.42-5.26 15.46-10.18-.19-.41-.36-.84-.51-1.31-.82-2.63-1.07-5.14-.84-7.48l-.05-.03a37.536 37.536 0 00-12.03-8.51c-1.09.14-2.19.32-3.28.59-8.4 2.13-3.15 14.65-1.75 20.21"
         id="path2896"
         fill="#982823"
         fill-opacity=".502"
         stroke="#982823"
         stroke-width=".3"
         stroke-miterlimit="4"
         stroke-dasharray="none"
         stroke-opacity="1"
         style="fill:#689d6a;fill-opacity:1;stroke:#689d6a;stroke-opacity:1" /><path
         class="st2"
         d="M234.89 179.57c-.07-.32-.14-.64-.2-.97.83-.45 1.74-.88 2.61-1.29 1.02-.48 2.07-.98 2.99-1.51 2.51-1.43 5.03-3.28 7.72-5.64l.57.39c-4.1 3.61-8.7 6.53-13.69 8.68-.01.13 0 .23 0 .34"
         id="path2898"
         fill="#982823"
         fill-opacity=".502"
         stroke="#982823"
         stroke-width=".3"
         stroke-miterlimit="4"
         stroke-dasharray="none"
         stroke-opacity="1"
         style="fill:#689d6a;fill-opacity:1;stroke:#689d6a;stroke-opacity:1" /><path
         class="st2"
         d="M238.71 192.3c-.07-.11-.15-.21-.22-.32.62-.31 1.23-.63 1.84-.96l10.72-7.86c-.42.69-.92 1.33-1.49 1.88-2.75 2.67-6.76 5.14-10.85 7.26"
         id="path2900"
         fill="#982823"
         fill-opacity=".502"
         stroke="#982823"
         stroke-width=".3"
         stroke-miterlimit="4"
         stroke-dasharray="none"
         stroke-opacity="1"
         style="fill:#689d6a;fill-opacity:1;stroke:#689d6a;stroke-opacity:1" /><path
         class="st2"
         d="M237.21 187.98c-.02-.08-.04-.16-.06-.25-.03-.13-.07-.27-.11-.41 5.67-2.56 10.9-5.89 15.59-9.93 0 .3-.01.6-.04.9a64.78 64.78 0 01-15.38 9.69"
         id="path2902"
         fill="#982823"
         fill-opacity=".502"
         stroke="#982823"
         stroke-width=".3"
         stroke-miterlimit="4"
         stroke-dasharray="none"
         stroke-opacity="1"
         style="fill:#689d6a;fill-opacity:1;stroke:#689d6a;stroke-opacity:1" /><path
         class="st2"
         d="M235.78 182.99l-.18-.64a43.847 43.847 0 0016.14-9.22c.1.21.19.43.27.65a44.27 44.27 0 01-16.23 9.21"
         id="path2904"
         fill="#982823"
         fill-opacity=".502"
         stroke="#982823"
         stroke-width=".3"
         stroke-miterlimit="4"
         stroke-dasharray="none"
         stroke-opacity="1"
         style="fill:#689d6a;fill-opacity:1;stroke:#689d6a;stroke-opacity:1" /><path
         class="st2"
         d="M234.29 175.83c-.02-.25-.04-.5-.05-.74a41.61 41.61 0 009.28-7.52c.21.1.42.21.62.31-2.9 3.16-6.21 5.84-9.85 7.95"
         id="path2906"
         fill="#982823"
         fill-opacity=".502"
         stroke="#982823"
         stroke-width=".3"
         stroke-miterlimit="4"
         stroke-dasharray="none"
         stroke-opacity="1"
         style="fill:#689d6a;fill-opacity:1;stroke:#689d6a;stroke-opacity:1" /><path
         class="st3"
         d="M240.14 194.44c-.03-.04-.05-.08-.07-.12-.39-.6-.78-1.19-1.19-1.78 5.85-2.9 11.14-6.72 15.73-11.37.13.58.29 1.18.47 1.78.15.47.32.9.51 1.31-4.03 4.92-8.18 7.75-15.45 10.18m10.91-11.27c.88-1.46 1.41-3.15 1.55-4.87.53-.45 1.05-.9 1.56-1.36-.01 1.11.08 2.26.29 3.44-.39.39-.78.78-1.17 1.16l-2.23 1.63m1.58-5.78c0-1.24-.2-2.47-.62-3.61l.26-.23c.66.6 1.3 1.23 1.92 1.88l.01.01.03.03c-.02.18-.03.35-.04.53-.51.48-1.03.94-1.56 1.39m-.89-4.26c-.02-.03-.03-.07-.05-.1.03.02.05.05.08.07l-.03.03"
         id="path2908"
         fill="#982823"
         fill-opacity=".502"
         stroke="#982823"
         stroke-width=".3"
         stroke-miterlimit="4"
         stroke-dasharray="none"
         stroke-opacity="1"
         style="fill:#689d6a;fill-opacity:1;stroke:#689d6a;stroke-opacity:1" /><path
         class="st4"
         d="M238.88 192.54c-.05-.08-.11-.16-.16-.24 4.08-2.12 8.1-4.59 10.84-7.25.58-.56 1.08-1.19 1.49-1.88l2.23-1.63c.39-.38.79-.77 1.17-1.16.05.26.1.53.16.8a59.26 59.26 0 01-15.73 11.36"
         id="path2910"
         fill="#982823"
         fill-opacity=".502"
         stroke="#982823"
         stroke-width=".3"
         stroke-miterlimit="4"
         stroke-dasharray="none"
         stroke-opacity="1"
         style="fill:#689d6a;fill-opacity:1;stroke:#689d6a;stroke-opacity:1" /><path
         class="st4"
         d="M252.59 178.3c.02-.3.04-.6.04-.9.53-.45 1.05-.92 1.56-1.39-.02.31-.03.62-.04.93-.51.46-1.03.91-1.56 1.36"
         id="path2912"
         fill="#982823"
         fill-opacity=".502"
         stroke="#982823"
         stroke-width=".3"
         stroke-miterlimit="4"
         stroke-dasharray="none"
         stroke-opacity="1"
         style="fill:#689d6a;fill-opacity:1;stroke:#689d6a;stroke-opacity:1" /><path
         class="st4"
         d="M252.01 173.78c-.08-.22-.17-.44-.27-.65l.03-.03c.17.15.33.3.5.45-.09.07-.17.15-.26.23"
         id="path2914"
         fill="#982823"
         fill-opacity=".502"
         stroke="#982823"
         stroke-width=".3"
         stroke-miterlimit="4"
         stroke-dasharray="none"
         stroke-opacity="1"
         style="fill:#689d6a;fill-opacity:1;stroke:#689d6a;stroke-opacity:1" /></g><g
       id="g2938"
       fill="#982823"
       fill-opacity=".502"
       stroke="#982823"
       stroke-width=".3"
       stroke-miterlimit="4"
       stroke-dasharray="none"
       stroke-opacity="1"
       style="fill:#689d6a;fill-opacity:1;stroke:#689d6a;stroke-opacity:1"><path
         class="st1"
         d="M186.1 187.6c-.29 1.15-.51 2.28-.67 3.39l-.13.1c-.76 1.05-1.5 2.12-2.2 3.22-6.02-2.02-11.42-5.26-15.46-10.18.19-.41.36-.84.51-1.31.82-2.63 1.07-5.14.84-7.48l.05-.03c3.45-3.63 7.47-6.48 12.03-8.51 1.09.14 2.19.32 3.28.59 8.41 2.12 3.15 14.64 1.75 20.21"
         id="path2918"
         fill="#982823"
         fill-opacity=".502"
         stroke="#982823"
         stroke-width=".3"
         stroke-miterlimit="4"
         stroke-dasharray="none"
         stroke-opacity="1"
         style="fill:#689d6a;fill-opacity:1;stroke:#689d6a;stroke-opacity:1" /><path
         class="st2"
         d="M188.34 179.43c.07-.32.14-.64.2-.97-.83-.45-1.74-.88-2.61-1.29-1.02-.48-2.07-.98-2.99-1.51-2.51-1.43-5.03-3.28-7.72-5.64l-.57.39c4.1 3.61 8.7 6.53 13.69 8.68.01.13 0 .24 0 .34"
         id="path2920"
         fill="#982823"
         fill-opacity=".502"
         stroke="#982823"
         stroke-width=".3"
         stroke-miterlimit="4"
         stroke-dasharray="none"
         stroke-opacity="1"
         style="fill:#689d6a;fill-opacity:1;stroke:#689d6a;stroke-opacity:1" /><path
         class="st2"
         d="M184.52 192.16c.07-.11.15-.21.22-.32-.62-.31-1.23-.63-1.84-.96l-10.72-7.86c.42.69.92 1.33 1.49 1.88 2.75 2.67 6.77 5.14 10.85 7.26"
         id="path2922"
         fill="#982823"
         fill-opacity=".502"
         stroke="#982823"
         stroke-width=".3"
         stroke-miterlimit="4"
         stroke-dasharray="none"
         stroke-opacity="1"
         style="fill:#689d6a;fill-opacity:1;stroke:#689d6a;stroke-opacity:1" /><path
         class="st2"
         d="M186.02 187.84c.02-.08.04-.16.06-.25.03-.13.07-.27.11-.41a64.501 64.501 0 01-15.59-9.93c0 .3.01.6.04.9a64.78 64.78 0 0015.38 9.69"
         id="path2924"
         fill="#982823"
         fill-opacity=".502"
         stroke="#982823"
         stroke-width=".3"
         stroke-miterlimit="4"
         stroke-dasharray="none"
         stroke-opacity="1"
         style="fill:#689d6a;fill-opacity:1;stroke:#689d6a;stroke-opacity:1" /><path
         class="st2"
         d="M187.45 182.86l.18-.64a43.847 43.847 0 01-16.14-9.22c-.1.21-.19.43-.27.65 4.73 4.2 10.19 7.29 16.23 9.21"
         id="path2926"
         fill="#982823"
         fill-opacity=".502"
         stroke="#982823"
         stroke-width=".3"
         stroke-miterlimit="4"
         stroke-dasharray="none"
         stroke-opacity="1"
         style="fill:#689d6a;fill-opacity:1;stroke:#689d6a;stroke-opacity:1" /><path
         class="st2"
         d="M188.94 175.69c.02-.25.04-.5.05-.74a41.61 41.61 0 01-9.28-7.52c-.21.1-.42.21-.62.31 2.9 3.16 6.22 5.84 9.85 7.95"
         id="path2928"
         fill="#982823"
         fill-opacity=".502"
         stroke="#982823"
         stroke-width=".3"
         stroke-miterlimit="4"
         stroke-dasharray="none"
         stroke-opacity="1"
         style="fill:#689d6a;fill-opacity:1;stroke:#689d6a;stroke-opacity:1" /><path
         class="st3"
         d="M183.09 194.3c-7.27-2.42-11.42-5.26-15.46-10.18.19-.41.36-.84.51-1.31.19-.6.34-1.19.47-1.78 4.59 4.64 9.88 8.47 15.73 11.37-.41.59-.8 1.18-1.19 1.78-.01.04-.03.08-.06.12m-10.91-11.27l-2.23-1.63c-.39-.38-.79-.77-1.17-1.16.21-1.18.3-2.33.29-3.44.51.46 1.04.92 1.56 1.36.15 1.71.67 3.41 1.55 4.87m-1.58-5.77c-.53-.45-1.05-.92-1.56-1.39-.01-.18-.03-.36-.04-.53l.03-.03.01-.01c.62-.65 1.26-1.28 1.92-1.88.09.08.17.16.26.23-.42 1.13-.62 2.36-.62 3.61m.89-4.27l-.03-.03c.03-.02.05-.05.08-.07-.01.03-.03.07-.05.1"
         id="path2930"
         fill="#982823"
         fill-opacity=".502"
         stroke="#982823"
         stroke-width=".3"
         stroke-miterlimit="4"
         stroke-dasharray="none"
         stroke-opacity="1"
         style="fill:#689d6a;fill-opacity:1;stroke:#689d6a;stroke-opacity:1" /><path
         class="st4"
         d="M184.36 192.4c.05-.08.11-.16.16-.24-4.08-2.12-8.1-4.59-10.84-7.25a9.004 9.004 0 01-1.49-1.88l-2.23-1.63c-.39-.38-.79-.77-1.17-1.16-.05.26-.1.53-.16.8a58.88 58.88 0 0015.73 11.36"
         id="path2932"
         fill="#982823"
         fill-opacity=".502"
         stroke="#982823"
         stroke-width=".3"
         stroke-miterlimit="4"
         stroke-dasharray="none"
         stroke-opacity="1"
         style="fill:#689d6a;fill-opacity:1;stroke:#689d6a;stroke-opacity:1" /><path
         class="st4"
         d="M170.64 178.16c-.02-.3-.04-.6-.04-.9-.53-.45-1.05-.92-1.56-1.39.02.31.03.62.04.93.51.46 1.03.91 1.56 1.36"
         id="path2934"
         fill="#982823"
         fill-opacity=".502"
         stroke="#982823"
         stroke-width=".3"
         stroke-miterlimit="4"
         stroke-dasharray="none"
         stroke-opacity="1"
         style="fill:#689d6a;fill-opacity:1;stroke:#689d6a;stroke-opacity:1" /><path
         class="st4"
         d="M171.22 173.64c.08-.22.17-.44.27-.65l-.03-.03c-.17.15-.33.3-.5.45.09.08.18.15.26.23"
         id="path2936"
         fill="#982823"
         fill-opacity=".502"
         stroke="#982823"
         stroke-width=".3"
         stroke-miterlimit="4"
         stroke-dasharray="none"
         stroke-opacity="1"
         style="fill:#689d6a;fill-opacity:1;stroke:#689d6a;stroke-opacity:1" /></g></g></svg>
