<svg xmlns="http://www.w3.org/2000/svg" viewBox="0 0 371.012 274.141" width="256" height="256"><g fill="#928374" fill-opacity=".5"><path d="M76.15 160.034a10.234 10.234 0 013.325-.555c3.046 0 5.856 1.342 7.772 3.549-.01-.066-.013-.132-.025-.198a7.964 7.964 0 00-3.13-5.036c.077-.048.142-.108.224-.15a3.025 3.025 0 012.75-.026l8.731 4.32a3.03 3.03 0 011.656 3.198l-.636 4.066a1.5 1.5 0 00-1.39 1.226c-.131.72.278 1.413.938 1.665l-.609 3.887a3.03 3.03 0 01-2.554 2.539l-9.634 1.447a3.03 3.03 0 01-1.533-.176l-3.432 1.17c.076.085.146.175.228.258a5.979 5.979 0 005.183 1.715l9.634-1.448a6.018 6.018 0 005.072-5.042l.593-3.786 23.466 4.26c.043.358.115.718.253 1.07a4.295 4.295 0 005.57 2.424 4.259 4.259 0 002.227-2.034l118.347 21.48v4.389c0 2.2 1.8 4 4 4h11.288v16.928H149.367l14.091 10h19.511l-20.48 28.967H131.07v10h239.94v-10h-25.305V36.856h10.79v-20h-84.522L240.509 0l-9.444 17.629 6.875 3.683-3.849 6.88c-2.272 4.063-.807 9.246 3.255 11.518a8.383 8.383 0 002.156.834L255.3 188.54h-2.123c-2.2 0-4 1.8-4 4v4.267L131.18 175.392c-.045-.184-.083-.369-.155-.55a4.295 4.295 0 00-7.543-.847l-23.706-4.303.641-4.094a6.018 6.018 0 00-3.29-6.35l-8.731-4.32a5.993 5.993 0 00-5.46.051 6.045 6.045 0 00-1.815 1.444 7.99 7.99 0 00-3.17-.076l-13.556 2.399-.18-.194a101.39 101.39 0 012.723 4.62l9.213-3.138zm219.21 74.138v-58.358h2.568l2.186-4.6h11.333l2.186 4.6h2.568v58.358H295.36zm0-67.695v-3.751h20.84v3.751h-20.84zm0-8.488v-3.752h20.84v3.752h-20.84zm0-8.488v-3.752h20.84v3.752h-20.84zm0-8.489v-3.751h20.84v3.751h-20.84zm0-8.488v-3.752h20.84v3.752h-20.84zm0-8.489V36.856h20.84v87.18h-20.84zm-2.653-87.179v87.18h-9.032v4.736h9.032v3.752h-9.032v4.737h9.032v3.751h-9.032v4.737h9.032v3.752h-9.032v4.736h9.032v3.752h-9.032v4.737h9.032v3.751h-9.032v4.737h4.277l2.186 4.6h2.569v58.358h-18.243V36.856h18.243zM192.87 235.174h71.594v28.967H172.39l20.481-28.967zm81.594 28.967v-19.97h61.242v19.97h-61.242zm61.242-29.97h-16.852v-58.357h2.57l2.185-4.6h2.887v-4.736h-7.642v-3.752h7.642v-4.737h-7.642v-3.751h7.642V149.5h-7.642v-3.752h7.642v-4.737h-7.642v-3.751h7.642v-4.737h-7.642v-3.752h7.642v-4.736h-7.642v-87.18h16.852v197.316zm10.495-207.388a5.495 5.495 0 11-10.99 0 5.495 5.495 0 0110.99 0zm-76.737-5.495a5.495 5.495 0 110 10.99 5.495 5.495 0 010-10.99zm-31.05 10.046a3.158 3.158 0 113.611 4.58l-.2-1.87a1.5 1.5 0 00-2.983.318l.076.707a3.148 3.148 0 01-.505-3.735zm4.122 9.368c2.575-.33 4.97-1.82 6.328-4.246l3.998-7.15 11.602 6.216V188.54h-6.147l-15.78-147.839z"/><path d="M112.312 235.174l-8.816-6.256-48.172-4.614c-6.051-.578-11.095-4.837-12.777-10.578h-9.489c-3.89 0-7.074 3.183-7.074 7.074 0 3.89 3.183 7.073 7.074 7.073h1.903c-6.896 3.766-11.585 11.086-11.585 19.481v26.786h10v-26.786c0-6.716 5.464-12.18 12.18-12.18h66.756zM269.464 24.572a2.21 2.21 0 100 4.421 2.21 2.21 0 000-4.42zm71.243 0a2.21 2.21 0 100 4.421 2.21 2.21 0 000-4.42z"/><circle cx="22.506" cy="108.429" r="22.5" transform="rotate(-17.918 22.505 108.44)"/><path d="M55.543 222.015l48.783 4.671 44.269 31.417a12.448 12.448 0 007.224 2.307c3.913 0 7.767-1.832 10.205-5.267 3.995-5.63 2.67-13.432-2.96-17.428l-46.99-33.348a12.513 12.513 0 00-6.044-2.25l-33.522-3.21a31.64 31.64 0 00-.493-4.946c-1.02-3.989-2.059-7.639-3.158-11.045l-8.792 2.995a10.26 10.26 0 01-3.32.55c-2.43 0-4.79-.863-6.646-2.43L25.3 159.716a10.23 10.23 0 01-3.62-7.004c-.23-2.741.62-5.41 2.395-7.511a10.281 10.281 0 017.873-3.656c2.426 0 4.785.863 6.641 2.431l24.35 20.558 1.807-.616c-3.62-6.498-8.072-12.697-13.92-19.76-9.946-11.866-23.16-11.763-30.369-6.718-7.207 5.043-6.446 17.509-.202 25.775 7.571 12.085 19.299 29.09 23.305 45.965.29.917.581 1.763.873 2.552.946 5.403 5.386 9.736 11.11 10.283z"/><path d="M62.448 167.13l-25.342-21.397a7.997 7.997 0 00-11.274.951 8 8 0 00.951 11.274l28.8 24.316a7.998 7.998 0 007.74 1.46l18.727-6.379a7.999 7.999 0 004.993-10.151c-1.424-4.184-5.97-6.422-10.151-4.993l-14.444 4.92z"/></g></svg>