<svg xmlns="http://www.w3.org/2000/svg" viewBox="0 0 313.01 269.623" width="256" height="256"><g fill="#928374" fill-opacity=".5"><path d="M73.673 164.834l-44.754-7.84c-6.802-1.192-13.278 3.355-14.47 10.155-1.19 6.8 3.356 13.278 10.156 14.47l51.916 9.094a12.504 12.504 0 0011.11-3.589c.818-.838 11.34-11.871 21.254-32.509L87.477 141.18c-5.044 11.065-10.326 19.013-13.804 23.655zm174.283-28.328c-3.465-7.581-9.69-13.37-17.148-16.436a28.795 28.795 0 005.033-7.058l18.937-37.5a4 4 0 10-7.141-3.606l-18.936 37.5a20.604 20.604 0 01-7.658 8.324 32.11 32.11 0 00-2.47-.1h-17.64v2h-29.684c-.935 0-1.841.329-2.56.927l-17.053 14.21a4 4 0 005.121 6.147l15.94-13.283h28.236v2h17.64c7.925 0 15.175 4.657 18.47 11.864l35.867 78.461h13.195l-38.149-83.45zM16.294 269.623c4.226 0 7.769-2.887 8.79-6.793H7.504c1.022 3.906 4.564 6.793 8.79 6.793zm280.422 0c4.226 0 7.768-2.887 8.789-6.793h-17.579c1.02 3.906 4.563 6.793 8.79 6.793zm12.294-23.872h-2.948v-5.305h-6.35v-11.748a6.442 6.442 0 00-6.442-6.442h-24.808a34.749 34.749 0 00-14.82 3.32l-31.536 14.87H6.947v5.305H4c-2.2 0-4 1.8-4 4v6.779c0 2.2 1.8 4 4 4h305.01c2.2 0 4-1.8 4-4v-6.78c0-2.199-1.8-4-4-4z"/><circle cx="117.776" cy="22.504" r="22.5" transform="rotate(-53.175 117.772 22.503)"/><path d="M178.606 235.012c6.37-2.658 9.381-9.978 6.723-16.35l-25.767-61.768a12.493 12.493 0 00-4.892-5.775l-38.182-23.962a33.68 33.68 0 001.493-2.93c5.436-15.062 7.775-26.076 7.933-38.89l9.189 10.32a7.993 7.993 0 0010.19 1.48l32.59-20.21a8 8 0 00-8.432-13.598l-26.873 16.665-22.968-25.797a7.96 7.96 0 00-.822-.789c-4.283-4.871-9.992-7.226-14.997-7.158-5.324.075-9.758 4.041-12.316 9.452l8.59-2.021a10.328 10.328 0 012.367-.277 10.26 10.26 0 0110.02 7.943 10.233 10.233 0 01-1.27 7.78 10.227 10.227 0 01-6.398 4.605L88.817 77.49c-.443 12.946-1.397 28.374-6.235 41.083-.792 2.656-1.273 4.854-1.476 6.698-.851 4.857 1.229 9.966 5.664 12.749l51.248 32.164 24.239 58.104c2.002 4.798 6.647 7.69 11.54 7.69 1.605 0 3.236-.31 4.809-.966z"/><path d="M104.258 71.494c4.3-1.012 6.967-5.319 5.954-9.62s-5.323-6.969-9.62-5.954l-35.873 8.44a8.002 8.002 0 00-5.842 5.529l-11.748 39.916a8 8 0 0015.35 4.517L72.913 78.87l31.345-7.376z"/></g></svg>