<svg xmlns="http://www.w3.org/2000/svg" viewBox="0 0 276.331 351.122" width="256" height="256"><g fill="#928374" fill-opacity=".5"><path d="M251.026 54.137h10.79v-20h-84.613L110.765 0l-9.14 17.79 6.787 3.487-3.913 6.996c-2.272 4.063-.808 9.246 3.255 11.518.122.068.248.123.373.184L75.396 211.283a4.32 4.32 0 00-.98.246 4.295 4.295 0 00-2.424 5.57 4.254 4.254 0 001.883 2.143l-3.083 16.137-25.87-30.34-.43-1.437c.994-8.179.915-16.462.016-26.597-1.46-15.416-12.402-22.826-21.2-22.759-8.796.065-15.24 10.764-14.786 21.113-.62 14.248-.605 34.904-6.878 51.075-4.075 13.37-.333 15.284 8.548 17.546.89.227 1.804.44 2.733.626l-11.97 92.41C.07 343.86 4.9 350.13 11.746 351.018c.545.07 1.086.104 1.621.104 6.189 0 11.565-4.595 12.381-10.895l13.43-103.69-13.219-15.592a10.311 10.311 0 01-2.261-4.734l-7.58-39.79c-1.062-5.577 2.612-10.981 8.191-12.045a10.307 10.307 0 0112.046 8.19l7.072 37.126 27.803 32.794c2.128 2.51 2.833 5.75 2.216 8.747l7.432-5.78a3 3 0 00-3.683-4.737l-1.4 1.088a7.996 7.996 0 00-1.27-2.047l-1.237-1.451 3.55-18.58c.242-.05.485-.11.723-.204a4.295 4.295 0 002.424-5.569 4.263 4.263 0 00-1.658-2.02L111.02 40.816c3.254.325 6.559-1.256 8.25-4.28l4.206-7.519 46.306 23.793v286.864h-31.39v10H276.33v-10h-25.305V54.137zm-136.693-19.64a3.148 3.148 0 01-2.409 1.59l.291-1.522a1.5 1.5 0 10-2.947-.562l-.173.904a3.157 3.157 0 115.238-.41zm126.693 275.208h-16.853V178.853h2.57l2.05-4.316h3.023V169.8h-7.642v-3.752h7.642v-4.736h-7.642v-3.752h7.642v-4.737h-7.642v-3.752h7.642v-4.736h-7.642v-3.752h7.642v-4.737h-7.642v-3.751h7.642v-4.737h-7.642V54.137h16.852v255.568zM179.783 54.137h18.243v73.22h-9.031v4.737h9.031v3.752h-9.031v4.737h9.031v3.751h-9.031v4.737h9.031v3.752h-9.031v4.737h9.031v3.751h-9.031v4.737h9.031v3.752h-9.031v4.736h4.411l2.05 4.316h2.57v130.853h-18.242V54.137zM200.68 169.8v-3.752h20.842v3.752H200.68zm0-8.489v-3.751h20.842v3.751H200.68zm0-8.488v-3.752h20.842v3.752H200.68zm0-8.488v-3.752h20.842v3.752H200.68zm0-8.489v-3.751h20.842v3.751H200.68zm0-8.488V54.137h20.842v73.22H200.68zm0 51.494h2.568l2.051-4.315h11.603l2.051 4.315h2.569v130.853H200.68V178.853zm50.84-134.788a5.495 5.495 0 11-10.99 0 5.495 5.495 0 0110.99 0zm-82.232 0a5.495 5.495 0 1110.99 0 5.495 5.495 0 01-10.99 0zm10.495 275.642h61.242v19.969h-61.243v-19.969z"/><circle cx="40.432" cy="131.558" r="22.5"/><path d="M52.184 260.169a3 3 0 003.683 4.736l7.05-5.483a10.262 10.262 0 01-6.412-2.614l-4.321 3.36zm17.292-16.195l-28.195-33.256-7.186-37.72a8 8 0 10-15.717 2.994l7.58 39.79a7.997 7.997 0 001.755 3.676l29.559 34.862a7.98 7.98 0 006.106 2.827 8 8 0 006.099-13.174zM174.784 41.853a2.21 2.21 0 100 4.42 2.21 2.21 0 000-4.42zm71.242 0a2.21 2.21 0 100 4.42 2.21 2.21 0 000-4.42z"/></g></svg>