<svg xmlns="http://www.w3.org/2000/svg" viewBox="0 0 216.341 135.673" width="256" height="256"><g fill="#928374" fill-opacity=".5"><path d="M45.558 53.706c-3.412-11.95-15.863-18.87-27.813-15.46C5.796 41.659-1.125 54.109 2.286 66.06c1.867 6.538 6.444 11.566 12.161 14.224L40.04 75.58c5.431-5.588 7.811-13.842 5.519-21.873zm13.797 3.797a10.228 10.228 0 01.278-7.878 10.23 10.23 0 015.768-5.374c1.293-.483 2.643-.7 4.013-.645.106.005.21.017.314.025l.165-4.102a22.553 22.553 0 01-2.196-1.46l-7.513 1.371c-6.567 1.2-10.976 7.329-10.139 13.873-.001.153-.007.305-.002.459.216 6.405 4.448 13.78 12.704 17.632l1.683-.31-5.075-13.591zm31.112-16.914L89.424 66.5l.719-.131c1.91-.352 3.631.454 4.995 2.197.654-2.114 1.975-3.479 3.887-3.83l38.624-7.077c2.153-2.46 3.224-5.006 3.596-7.606l27.085-4.946 14.124 51.338c1.526 5.547 6.558 9.187 12.045 9.187 1.098 0 2.213-.145 3.323-.45 6.656-1.832 10.568-8.712 8.736-15.368l-.496-1.805c-.867.116-1.75.174-2.654.138-8.438-.34-15.026-7.482-14.687-15.92.246-6.088 4.04-11.197 9.298-13.452l-8.62-31.336c-1.72-6.246-7.93-10.145-14.298-8.981L100.167 32.14a22.586 22.586 0 01-9.7 8.45z"/><path d="M172.845 125.673h-5.516V90.821c0-8.318-6.624-15.1-14.872-15.393l-49.79 9.122a4.644 4.644 0 01-1.594.013l-5.765 1.048a4.62 4.62 0 01-1.522.572l-9.077 1.668c-.704.52-1.48.949-2.313 1.28-.065.026-.127.059-.193.083l-.01.005c-.118.044-.239.074-.357.113-.2.067-.399.138-.604.193-.224.06-.451.101-.678.145-.103.02-.204.049-.309.066a10.232 10.232 0 01-4.435-.248l-61.66 11.335c-.09.017-.18.021-.27.036a14.216 14.216 0 00-8.365 12.955v11.86H0v10h21.032v-10h-5.516v-11.86a4.227 4.227 0 013.47-4.16l133.301-24.242a5.429 5.429 0 015.042 5.409v34.852h-5.515v10h21.031v-10zM102.125 81.6l60.972-11.17c3.827-.704 6.382-4.41 5.678-8.237-.703-3.826-4.41-6.381-8.236-5.678l-60.971 11.17c-3.827.704-1.269 14.618 2.558 13.914zm-13.238-1.772a10.187 10.187 0 01-.292 2.181c-.028.117-.067.228-.099.343-.057.203-.113.407-.183.608-.059.17-.13.332-.198.496-.053.13-.097.262-.155.39-.009.018-.02.034-.028.053-.054.117-.117.228-.176.343l5.487-1.009c3.826-.703 1.268-14.617-2.558-13.914l-1.385.255-.413 10.254zM68.94 83.173l-3.444-9.224-54.445 10.01c-3.826.702-6.381 4.409-5.678 8.235s4.41 6.382 8.236 5.678l58.063-10.674a10.287 10.287 0 01-2.732-4.025zm134.59 1.975c6.796.274 12.527-5.014 12.8-11.81.274-6.796-5.013-12.528-11.81-12.801s-12.527 5.014-12.8 11.81c-.275 6.796 5.013 12.528 11.81 12.801zm.713-17.733a5.432 5.432 0 11-.437 10.855 5.432 5.432 0 01.437-10.855zM71.085 82.343c.131.354.292.693.47 1.021.039.072.077.143.118.213.172.297.358.585.566.856.042.055.09.104.132.158.177.219.366.428.565.627.069.069.136.138.207.204.243.226.498.44.769.635.044.032.092.06.137.091a7.952 7.952 0 004.218 1.415 8 8 0 008.316-7.671L88.129 41.5a22.357 22.357 0 01-6.926 1.098c-3.221 0-6.283-.687-9.054-1.913l-1.015 25.189-2.102-4.957.603-14.984a7.956 7.956 0 00-3.43.472 8 8 0 00-4.696 10.293l9.576 25.645zm10.118-42.045c11.128 0 20.149-9.02 20.149-20.149S92.33 0 81.202 0C70.076 0 61.055 9.021 61.055 20.15s9.02 20.148 20.149 20.148zm0-29.63a9.482 9.482 0 010 18.963 9.482 9.482 0 110-18.964z"/><circle cx="81.203" cy="20.149" r="4.815" transform="rotate(-45.001 81.203 20.15)"/></g></svg>