<svg width="80mm" height="30mm" viewBox="0 0 80 30" xmlns="http://www.w3.org/2000/svg"><g fill="#1d2021" fill-opacity=".25"><path d="M52.793 11.52c-.964 0-1.774-.81-1.774-1.775 0-.964.81-1.775 1.774-1.775.965 0 1.775.81 1.775 1.775a1.77 1.77 0 01-1.775 1.775zM39.792 24.791V30h-2.006V15.07c.27.038.579.038.81 0v9.722zm-1.62-12.808c-.348 0-.348.54 0 .54.347 0 .347-.54 0-.54z"/><path d="M38.712 9.784c-1.582-.347-3.048.887-3.048 2.469 0 1.582 1.466 2.816 3.048 2.47 1.157-.232 2.006-1.274 2.006-2.47 0-1.196-.81-2.238-2.006-2.47zm-.54 3.048a.593.593 0 01-.579-.58c0-.308.27-.578.579-.578.308 0 .578.27.578.579-.038.309-.27.579-.578.579zm.424-3.395a2.855 2.855 0 00-.81 0V5H67.84v4.437a2.855 2.855 0 00-.81 0V5.81H38.595v3.627zm9.568 8.95l-.116-.308.232.231z"/><path d="M48.743 18.387c-.463-.463-1.428-1.504-1.891-1.967l-7.947-8.41v-.502s7.446 7.831 7.446 7.87c.038.038 2.584 2.74 2.662 2.778zm-.773-3.125l1.004 2.47-2.392-2.547-.27-.386 3.356-2.855.193 2.16z"/><path d="M55.648 11.79c-.077.772-.578 6.79-.733 8.256l1.428 4.552v4.977c0 .54-.772.579-.85.039l-2.7-9.375-2.7 9.375c-.077.501-.849.463-.849-.039v-4.977l1.427-4.552-.501-5.787-.232-2.469.155-.039h5.4"/><path d="M57.732 15.262l-1.968-1.196.193-2.199 3.434 2.932c-.155.232.192-.154-2.624 2.817zm-.232 3.125l-.116-.077.309-.347zm-.617 0l-.231-.231c.192-.193 9.066-9.568 10.069-10.648v.501c-2.276 2.392-7.716 8.14-9.838 10.378zM67.84 30h-2.007v-5.21h1.196v-9.72c.27.039.579.039.81 0zm-.656-17.747c0 .347.54.347.54 0s-.54-.347-.54 0z"/><path d="M66.914 9.784a2.52 2.52 0 00-1.968 2.469c0 1.659 1.543 2.778 3.01 2.47A2.518 2.518 0 0070 12.252c0-1.62-1.504-2.855-3.086-2.47zm.54 3.048a.593.593 0 01-.579-.58c0-.308.27-.578.579-.578.309 0 .579.27.579.579a.568.568 0 01-.58.579z"/></g></svg>