<svg width="80mm" height="30mm" viewBox="0 0 80 30" xmlns="http://www.w3.org/2000/svg"><g fill="#1d2021" fill-opacity=".25"><path d="M48.049 17.843h1.181v.571h-1.18zm2.096 2.477c-.99 0-.724.229-.724-4.002 0-.19.152-.343.343-.343.953 0 .724-.266.724 4.002 0 .19-.152.343-.343.343zm1.601-.381c0 .19-.153.343-.343.343-.953 0-.724.267-.724-4.002 0-.19.152-.343.342-.343.915 0 .725-.152.725 2.63zm.19-1.524v-.572h1.448l.038.572zm3.926-8.651l2.21-.686c.61.267 1.296.267 1.867 0l2.21.686c0 .038-.723 7.85-.723 7.888h-4.84z"/><path d="M56.967 7.058A2.05 2.05 0 0159.024 5c2.173 0 2.82 2.935.877 3.887-1.334.686-2.934-.305-2.934-1.83zm-3.316 12.119l-.038-.572-.038-.953c-.229-4.306-.305-2.743.343-6.821.152-.877.953-1.487 1.791-1.41l-.038.152-.038.19-.8 5.298-.191 4.154zm4.345 4.725l-.686 6.06-1.563.038-.038-6.326v-.19l.762-4.879h2.363zM62.302 30H60.74c-.838-7.432-.495-4.84-1.524-11.357h2.363c.953 5.983.762 3.392.724 11.357zm-5.983-11.585h-1.41l.038-.572h8.231l.039.572h-6.898zm7.051.8c-.23-5.183 0-2.973-1.068-9.756.915-.077 1.677.533 1.791 1.41l.496 3.277-.267 5.03zm1.257-.8l.038-.572h1.448v.572zm2.401 1.905c-.877 0-.724.038-.724-1.715v-.953c0-1.79-.115-1.714.724-1.714.19 0 .343.152.343.342v3.66c0 .227-.153.38-.343.38zm.876 0a.341.341 0 01-.343-.343c0-4.268-.228-4.002.724-4.002.191 0 .343.153.343.343 0 4.23.229 4.002-.724 4.002zm.915-2.477H70v.571h-1.18z"/></g></svg>