<svg width="80mm" height="30mm" viewBox="0 0 80 30" xmlns="http://www.w3.org/2000/svg"><g fill="#1d2021" fill-opacity=".25"><path d="M47.73 11.705a1.891 1.891 0 11-3.782 0 1.891 1.891 0 013.782 0M54.793 23.67h5.133v-.849h-7.41c.116.193.232.463.386.85zM45.221 14.021c-.54.116-.926.656-.81 1.235l.27 1.274c.425-1.544.386-1.467.386-1.467.386-1.428 2.702-1.042 2.74.425v.038l-.578 2.123 1.968.386c-.54-2.508-.502-3.203-1.505-3.86-.888-.617-1.622-.347-2.47-.154z"/><path d="M46.842 19.309c.85.116 2.625.347 2.857.386v.038c.81.116 1.543.232 2.16.31v-1.275c-2.74-.578-2.508-.578-4.09-.887l-.656-.154v-.078c.578-2.084.617-2.123.578-2.393-.154-.771-.81-.849-1.158-.965-.27-.077-.617 0-.849.116-.54.348-.501.734-1.003 2.625-.077.231-.116.424-.154.617-.193.656.27 1.312.926 1.428.077 0 .154.039.193.039.27.038.231.038 1.196.193zM66.256 19.116c-.193 0-.617 0-1.737.038H51.976v.31c12.582 0 14.087-.04 14.28-.04zM38.274 29.923h1.428l4.4-6.137h-1.466zM67.646 25.677a.656.656 0 11-1.312 0 .656.656 0 011.312 0M40.706 22.821v.85h7.719c-1.39-.464-1.66-.503-2.084-.85zM66.41 28.765V30h1.159v-1.235a2.92 2.92 0 01-1.158 0z"/><path d="M67.607 22.705c-1.891-.424-3.667 1.042-3.667 2.972 0 1.891 1.776 3.358 3.667 2.972A3.054 3.054 0 0070 25.677a3.054 3.054 0 00-2.393-2.972zm-.618 3.744a.815.815 0 01-.81-.81c0-.464.347-.812.81-.812.464 0 .811.348.811.811 0 .463-.386.81-.81.81zM55.063 23.786l4.361 6.137h1.467l-4.4-6.137zM49.93 21.393l-.347-1.583c-2.239-.347-4.053-.578-4.13-.578 0 0-.154-.039-.193-.039.887 4.091.193 3.28 5.172 4.979 0 .038 3.01 5.712 3.049 5.75h2.084c-3.821-8.645-2.818-7.371-5.635-8.529z"/><path d="M66.41 17.842v4.747a2.92 2.92 0 011.159 0V8.965H66.41v7.912L62.28 8.85h5.288V8h-6.716v.85h.926z"/></g></svg>