<svg width="80mm" height="30mm" viewBox="0 0 80 30" xmlns="http://www.w3.org/2000/svg"><g fill="#1d2021" fill-opacity=".25"><path d="M58.283 16.657c.03-1.988 0-.994.09-4.458a3.55 3.55 0 001.777 0c.06 2.8.03 1.506.12 5.572.03.904-1.084 1.386-1.716.723-.362-.362-.301-.693-.271-1.838z"/><path d="M50.994 23.253c-.181 0-.332.15-.332.301l-.24 5.603a.792.792 0 01-.784.753.792.792 0 01-.783-.753l-.21-6.777c-.031-.753.571-1.356 1.294-1.386l4.88-.18 3.253-3.886c0 .843-.09 1.265.331 1.717.753.783 2.109.21 2.079-.874-.06-3.373-.06-2.951-.06-3.162.24 0 .481.09.662.3l1.386 1.567c.3.362.27.904-.06 1.205l-6.296 5.572h-5.12zM59.277 5a3.56 3.56 0 00-3.554 3.554c0 2.32 2.229 4.067 4.518 3.434 1.536-.422 2.59-1.837 2.59-3.434A3.56 3.56 0 0059.277 5zm0 4.578a1.016 1.016 0 01-1.024-1.024c0-.572.451-1.024 1.024-1.024.572 0 1.024.452 1.024 1.024 0 .572-.452 1.024-1.024 1.024z"/><path d="M65.03 12.41c1.295 1.445.21 3.795-1.777 3.704-1.958-.12-2.832-2.56-1.356-3.885.904-.843 2.32-.753 3.133.18zm4.97.512l-1.356 1.174V12.53l.573-.512zm-8.043 7.379l5.121 3.404v.602l-5.512-3.644z"/><path d="M50.933 23.705h5.09l11.055-9.79v1.597l-10.603 9.367h-5.542zM52.861 30h-1.175v-4.94h1.175zm.211-3.012h14.006v.512H53.072zm15.391 2.771H67.29V10.964h1.174z"/></g></svg>